<?xml version="1.0" encoding="UTF-8" standalone="no"?>
<svg
   xmlns:dc="http://purl.org/dc/elements/1.1/"
   xmlns:cc="http://creativecommons.org/ns#"
   xmlns:rdf="http://www.w3.org/1999/02/22-rdf-syntax-ns#"
   xmlns:svg="http://www.w3.org/2000/svg"
   xmlns="http://www.w3.org/2000/svg"
   xmlns:sodipodi="http://sodipodi.sourceforge.net/DTD/sodipodi-0.dtd"
   xmlns:inkscape="http://www.inkscape.org/namespaces/inkscape"
   width="52.517769"
   height="59.472599"
   viewBox="-59 -52 52.517769 59.472599"
   version="1.1"
   id="svg6"
   sodipodi:docname="house1.svg"
   inkscape:version="0.92.2 2405546, 2018-03-11">
  <metadata
     id="metadata12">
    <rdf:RDF>
      <cc:Work
         rdf:about="">
        <dc:format>image/svg+xml</dc:format>
        <dc:type
           rdf:resource="http://purl.org/dc/dcmitype/StillImage" />
        <dc:title>OpenSCAD Model</dc:title>
      </cc:Work>
    </rdf:RDF>
  </metadata>
  <defs
     id="defs10" />
  <sodipodi:namedview
     pagecolor="#ffffff"
     bordercolor="#666666"
     borderopacity="1"
     objecttolerance="10"
     gridtolerance="10"
     guidetolerance="10"
     inkscape:pageopacity="0"
     inkscape:pageshadow="2"
     inkscape:window-width="1301"
     inkscape:window-height="698"
     id="namedview8"
     showgrid="false"
     inkscape:measure-start="78.6057,23.5023"
     inkscape:measure-end="59,33.8243"
     inkscape:object-paths="true"
     fit-margin-top="0"
     fit-margin-left="0"
     fit-margin-right="0"
     fit-margin-bottom="0"
     inkscape:zoom="6.2972528"
     inkscape:cx="20.869861"
     inkscape:cy="25.745095"
     inkscape:window-x="65"
     inkscape:window-y="41"
     inkscape:window-maximized="1"
     inkscape:current-layer="svg6" />
  <title
     id="title2">OpenSCAD Model</title>
  <path
     d="m -6.973662,-21.673283 0.1709999,-0.4698 -11.2762989,-4.1042 -0.171,0.469801 z m -44.276299,-21.104199 25.950999,-8.432001 -0.154502,-0.475499 -25.951011,8.432 z m -2.618499,3 -4.003677,11.000001 0.499998,-2e-6 -0.84767,2.329 0.0283,0.01038 -0.05849,0.160702 -10e-7,5.499999 h -0.5 v 7 h 0.5 v 9.5 h -0.5 v 6.9999997 l 0.5,1.2e-6 10e-7,4.4999992 50.0000116,-3.57e-5 4e-7,-29.3000014 -0.4999991,10e-7 -1.8e-6,8 -9.4999981,1e-6 -1e-6,-12.200002 -0.05849,-0.160699 0.02833,-0.01024 -0.8476,-2.328999 h 0.500001 l -4.003701,-11.000001 -0.5,2e-6 -0.894599,-2.457802 -0.02832,0.01024 -0.201101,-0.552501 -1.994499,1e-6 -1e-6,-8.123002 -25,8.123002 h -0.99449 l -0.2011,0.552499 -0.02834,-0.01029 -0.894579,2.457798 z m 44.118499,26.199999 h 1.0000002 l -3e-7,3.300001 H -9.749961 Z m -8.500001,4.3 h 9.5000011 l 10e-8,16 -9.5000002,1e-7 z m 6.5,-4.299999 1.500001,-1e-6 -10e-7,3.300001 -1.499999,-2e-6 z m -2,-1e-6 h 1.500001 l -10e-7,3.300001 -1.499999,-2e-6 z m -1.999998,0 h 1.5 l -1e-6,3.300001 -1.5,-1e-6 z m -2.500001,1e-6 h 2.000001 v 3.299999 l -2.000002,1e-6 z"
     id="path4"
     inkscape:connector-curvature="0"
     style="fill:#d3d3d3;stroke:#000000;stroke-width:0.5" />
</svg>
