<?xml version="1.0" encoding="UTF-8" standalone="no"?>
<svg
   xmlns:dc="http://purl.org/dc/elements/1.1/"
   xmlns:cc="http://creativecommons.org/ns#"
   xmlns:rdf="http://www.w3.org/1999/02/22-rdf-syntax-ns#"
   xmlns:svg="http://www.w3.org/2000/svg"
   xmlns="http://www.w3.org/2000/svg"
   xmlns:sodipodi="http://sodipodi.sourceforge.net/DTD/sodipodi-0.dtd"
   xmlns:inkscape="http://www.inkscape.org/namespaces/inkscape"
   inkscape:export-ydpi="96.000008"
   inkscape:export-xdpi="96.000008"
   inkscape:export-filename="/home/lune/Документы/PROJECTS/SYSSC/KaToD_LOGO_ALPHA.png"
   sodipodi:docname="KaToD_LOGO.svg"
   inkscape:version="1.0 (4035a4fb49, 2020-05-01)"
   id="svg1206"
   version="1.1"
   viewBox="0 0 1024 1024"
   height="1024"
   width="1024">
  <defs
     id="defs1200" />
  <sodipodi:namedview
     inkscape:snap-page="true"
     units="px"
     inkscape:window-maximized="1"
     inkscape:window-y="0"
     inkscape:window-x="0"
     inkscape:window-height="740"
     inkscape:window-width="1366"
     showgrid="false"
     inkscape:document-rotation="0"
     inkscape:current-layer="layer1"
     inkscape:document-units="px"
     inkscape:cy="637.18468"
     inkscape:cx="486.10405"
     inkscape:zoom="0.67578125"
     inkscape:pageshadow="2"
     inkscape:pageopacity="0.0"
     borderopacity="1.0"
     bordercolor="#666666"
     pagecolor="#ffffff"
     id="base" />
  <metadata
     id="metadata1203">
    <rdf:RDF>
      <cc:Work
         rdf:about="">
        <dc:format>image/svg+xml</dc:format>
        <dc:type
           rdf:resource="http://purl.org/dc/dcmitype/StillImage" />
        <dc:title></dc:title>
      </cc:Work>
    </rdf:RDF>
  </metadata>
  <g
     id="layer1"
     inkscape:groupmode="layer"
     inkscape:label="Слой 1">
    <rect
       y="0"
       x="3.4332275e-05"
       height="1024"
       width="1024"
       id="rect1868"
       style="display:none;fill:#ffffff;stroke-width:93.3674;stroke-linecap:round" />
    <g
       transform="matrix(21.794959,0,0,21.794959,-620.05645,-255.43868)"
       id="g1848">
      <path
         d="m 33.131263,39.861034 h 1.0668 v -2.6543 l 1.4351,-1.714499 2.4257,4.368799 h 1.1938 l -2.9464,-5.168899 2.6416,-3.162301 h -1.2065 l -3.5052,4.178299 h -0.0381 v -4.178299 h -1.0668 z"
         style="font-style:normal;font-variant:normal;font-weight:normal;font-stretch:normal;font-size:12.7px;line-height:1.25;font-family:'Source Code Pro';-inkscape-font-specification:'Source Code Pro';letter-spacing:0px;word-spacing:0px;fill:#000000;fill-opacity:1;stroke:none;stroke-width:0.264583;filter:url(#filter1460)"
         id="path90"
         inkscape:connector-curvature="0" />
      <path
         d="m 42.630873,40.013434 c 0.87629,0 1.75259,-0.4572 2.43839,-0.9906 h 0.0381 l 0.0889,0.8382 h 0.8509 v -3.784599 c 0,-1.536701 -0.8128,-2.540001 -2.5019,-2.540001 -1.0795,0 -2.1209,0.482602 -2.74319,0.889001 l 0.40639,0.7112 c 0.5715,-0.3556 1.3589,-0.7366 2.159,-0.7366 1.1938,0 1.6129,0.711201 1.6383,1.549398 -3.1877,0.254001 -4.47039,0.927101 -4.47039,2.311401 0,1.1049 0.93979,1.7526 2.09549,1.7526 z m 0.27939,-0.8382 c -0.7112,0 -1.3589,-0.2921 -1.3589,-0.9906 0,-0.8128 0.81281,-1.3335 3.4544,-1.5494 v 1.6256 c -0.6985,0.5842 -1.397,0.9144 -2.0955,0.9144 z"
         style="font-style:normal;font-variant:normal;font-weight:normal;font-stretch:normal;font-size:12.7px;line-height:1.25;font-family:'Source Code Pro';-inkscape-font-specification:'Source Code Pro';letter-spacing:0px;word-spacing:0px;fill:#000000;fill-opacity:1;stroke:none;stroke-width:0.264583;filter:url(#filter1460)"
         id="path92"
         inkscape:connector-curvature="0" />
      <path
         sodipodi:nodetypes="sccssccccccccccss"
         d="m 52.130473,40.013434 c 0.7747,0 1.3716,-0.1651 1.9304,-0.3683 l -0.2286,-0.762 c -0.4445,0.1651 -0.9017,0.2794 -1.4859,0.2794 -1.1938,0 -0.9019,-0.55419 -0.9019,-1.65909 v -2.933702 l 2.22505,-0.03001 v -0.490787 l -2.3751,0.06 v -2.341309 l -0.41346,-0.03001 -0.1397,2.341313 -2.28815,0.0335 v 0.427287 l 1.94996,0.03001 v 2.920996 c 0,1.52401 -0.076,2.52269 1.7274,2.52269 z"
         style="font-style:normal;font-variant:normal;font-weight:normal;font-stretch:normal;font-size:12.7px;line-height:1.25;font-family:'Source Code Pro';-inkscape-font-specification:'Source Code Pro';letter-spacing:0px;word-spacing:0px;fill:#000000;fill-opacity:1;stroke:none;stroke-width:0.264583;filter:url(#filter1460)"
         id="path94"
         inkscape:connector-curvature="0" />
      <path
         d="m 57.962523,40.013434 c 1.6256,0 3.048,-1.1811 3.048,-3.2258 0,-2.0701 -1.4224,-3.2512 -3.048,-3.2512 -1.6256,0 -3.048,1.1811 -3.048,3.2512 0,2.0447 1.4224,3.2258 3.048,3.2258 z m 0,-0.8636 c -1.1811,0 -1.9685,-0.9525 -1.9685,-2.3622 0,-1.4224 0.7874,-2.387599 1.9685,-2.387599 1.1811,0 1.9685,0.965199 1.9685,2.387599 0,1.4097 -0.7874,2.3622 -1.9685,2.3622 z"
         style="font-style:normal;font-variant:normal;font-weight:normal;font-stretch:normal;font-size:12.7px;line-height:1.25;font-family:'Source Code Pro';-inkscape-font-specification:'Source Code Pro';letter-spacing:0px;word-spacing:0px;fill:#000000;fill-opacity:1;stroke:none;stroke-width:0.264583;filter:url(#filter1460)"
         id="path96"
         inkscape:connector-curvature="0" />
      <g
         inkscape:transform-center-y="-0.85073537"
         inkscape:transform-center-x="0.84942797"
         transform="matrix(0.75808337,-0.27935341,0.27935341,0.75808337,-39.523563,-57.875602)"
         id="g975"
         style="filter:url(#filter1460)">
        <path
           id="path131"
           style="opacity:1;fill:#000000;fill-opacity:1;fill-rule:nonzero;stroke:none;stroke-width:0.05;stroke-linecap:round;stroke-linejoin:bevel;stroke-miterlimit:4;stroke-dasharray:none;stroke-dashoffset:0;stroke-opacity:1;paint-order:normal"
           d="m 50.831977,130.54369 c -5e-6,0.5635 -1.566571,0.77546 -3.207357,0.77546 -1.640786,0 -2.700828,-0.45681 -2.700833,-1.02031 5e-6,-0.5635 1.30012,-1.05032 2.940906,-1.05032 1.640786,0 2.967279,0.73166 2.967284,1.29517 z"
           inkscape:connector-curvature="0"
           sodipodi:nodetypes="cscsc" />
        <path
           id="path129"
           style="opacity:1;fill:#222222;fill-opacity:1;fill-rule:nonzero;stroke:none;stroke-width:0.05;stroke-linecap:round;stroke-linejoin:bevel;stroke-miterlimit:4;stroke-dasharray:none;stroke-dashoffset:0;stroke-opacity:1;paint-order:normal"
           d="m 52.75619,135.58044 c -0.301605,0.35641 -2.189997,2.01062 -4.891501,2.01062 -2.701505,0 -4.891506,-0.90019 -4.891502,-2.01062 0.22108,-2.32632 2.194869,-1.8486 4.891502,-2.01061 2.756702,-0.16562 5.131516,-0.388 4.891501,2.01061 z"
           inkscape:connector-curvature="0"
           sodipodi:nodetypes="cscsc" />
        <path
           id="ellipse133"
           style="opacity:1;fill:#000000;fill-opacity:1;fill-rule:nonzero;stroke:none;stroke-width:0.05;stroke-linecap:round;stroke-linejoin:bevel;stroke-miterlimit:4;stroke-dasharray:none;stroke-dashoffset:0;stroke-opacity:1;paint-order:normal"
           d="m 50.895621,134.83023 c -5e-6,0.5635 -1.330126,1.02031 -2.970912,1.02031 -1.640786,0 -2.970907,-0.45681 -2.970912,-1.02031 l -0.03001,-4.53139 c 1.718146,1.25412 3.710117,1.23039 5.90819,0.24485 z"
           inkscape:connector-curvature="0"
           sodipodi:nodetypes="cscccc" />
      </g>
      <path
         inkscape:connector-curvature="0"
         id="path977"
         d="m 49.139663,33.434693 h 3.87119"
         style="fill:none;stroke:#000000;stroke-width:0.465;stroke-linecap:butt;stroke-linejoin:miter;stroke-miterlimit:4;stroke-dasharray:none;stroke-opacity:1;filter:url(#filter1460)" />
      <path
         inkscape:connector-curvature="0"
         id="path979"
         d="m 50.009933,32.504406 h 2.19067"
         style="fill:none;stroke:#000000;stroke-width:0.465;stroke-linecap:butt;stroke-linejoin:miter;stroke-miterlimit:4;stroke-dasharray:none;stroke-opacity:1;filter:url(#filter1460)" />
      <path
         inkscape:connector-curvature="0"
         id="path1057"
         d="m 48.904963,41.855684 -1.78245,-1.44294 v 3.05564 z"
         style="fill:none;stroke:#000000;stroke-width:0.365001;stroke-linecap:butt;stroke-linejoin:miter;stroke-miterlimit:4;stroke-dasharray:none;stroke-opacity:1;filter:url(#filter1460)" />
      <path
         inkscape:connector-curvature="0"
         id="path1059"
         d="m 49.218373,40.010544 -0.12482,3.73272"
         style="fill:none;stroke:#000000;stroke-width:0.444558;stroke-linecap:butt;stroke-linejoin:miter;stroke-miterlimit:4;stroke-dasharray:none;stroke-opacity:1;filter:url(#filter1460)" />
      <path
         sodipodi:nodetypes="csccccc"
         inkscape:connector-curvature="0"
         id="path1061"
         d="m 45.179073,39.794534 c 0.0581,1.19065 0.24726,1.82214 0.66527,2.17383 0.418,0.35169 0.90589,0.26652 1.18945,0.26953 l 0.008,-0.76562 c -0.37502,-0.004 -0.57311,0.0231 -0.70509,-0.0879 -0.13197,-0.11103 -0.23687,-0.43939 -0.29105,-1.54991 z"
         style="color:#000000;font-style:normal;font-variant:normal;font-weight:normal;font-stretch:normal;font-size:medium;line-height:normal;font-family:sans-serif;font-variant-ligatures:normal;font-variant-position:normal;font-variant-caps:normal;font-variant-numeric:normal;font-variant-alternates:normal;font-feature-settings:normal;text-indent:0;text-align:start;text-decoration:none;text-decoration-line:none;text-decoration-style:solid;text-decoration-color:#000000;letter-spacing:normal;word-spacing:normal;text-transform:none;writing-mode:lr-tb;direction:ltr;text-orientation:mixed;dominant-baseline:auto;baseline-shift:baseline;text-anchor:start;white-space:normal;shape-padding:0;clip-rule:nonzero;display:inline;overflow:visible;visibility:visible;opacity:1;isolation:auto;mix-blend-mode:normal;color-interpolation:sRGB;color-interpolation-filters:linearRGB;solid-color:#000000;solid-opacity:1;vector-effect:none;fill:#000000;fill-opacity:1;fill-rule:nonzero;stroke:none;stroke-width:0.765;stroke-linecap:butt;stroke-linejoin:miter;stroke-miterlimit:4;stroke-dasharray:none;stroke-dashoffset:0;stroke-opacity:1;filter:url(#filter1460);color-rendering:auto;image-rendering:auto;shape-rendering:auto;text-rendering:auto;enable-background:accumulate" />
      <path
         sodipodi:nodetypes="cc"
         inkscape:connector-curvature="0"
         id="path1063"
         d="m 49.159513,41.813244 c 1.97813,0.29801 2.87401,-0.62989 2.5888,-2.14256"
         style="fill:none;stroke:#000000;stroke-width:0.765;stroke-linecap:butt;stroke-linejoin:miter;stroke-miterlimit:4;stroke-dasharray:none;stroke-opacity:1;filter:url(#filter1460)" />
      <path
         sodipodi:nodetypes="ccszscc"
         inkscape:connector-curvature="0"
         id="path1067"
         d="m 60.249103,38.266174 c -0.37407,0.81379 -0.76228,2.05372 -1.08033,2.5317 0,0 0.0654,1.82754 0.06,2.0297 -0.0179,0.66827 -0.52408,0.94636 -1.04216,0.94636 -0.51808,0 -1.25763,-0.34175 -1.27558,-0.86148 -0.007,-0.20211 0.0388,-2.00848 0.0388,-2.00848 -0.34488,-0.77309 -0.6793,-1.53807 -1.08033,-2.34072"
         style="fill:none;stroke:#000000;stroke-width:0.365001;stroke-linecap:butt;stroke-linejoin:miter;stroke-miterlimit:4;stroke-dasharray:none;stroke-opacity:1;filter:url(#filter1460)" />
      <path
         sodipodi:nodetypes="cc"
         inkscape:connector-curvature="0"
         id="path1071"
         d="m 56.989583,42.577154 c 0.68262,0.12721 1.32867,0.32756 2.22807,0.0212"
         style="fill:none;stroke:#000000;stroke-width:0.465;stroke-linecap:butt;stroke-linejoin:miter;stroke-miterlimit:4;stroke-dasharray:none;stroke-opacity:1;filter:url(#filter1460)" />
      <path
         sodipodi:nodetypes="cc"
         inkscape:connector-curvature="0"
         id="path1073"
         d="m 56.925923,41.749584 c 0.74977,0.16573 1.49953,0.19473 2.24929,0.0212"
         style="fill:none;stroke:#000000;stroke-width:0.465;stroke-linecap:butt;stroke-linejoin:miter;stroke-miterlimit:4;stroke-dasharray:none;stroke-opacity:1;filter:url(#filter1460)" />
      <path
         sodipodi:nodetypes="cc"
         inkscape:connector-curvature="0"
         id="path1075"
         d="m 56.968363,41.006894 c 0.73347,0.10598 1.46694,0.1686 2.20041,-0.0605"
         style="fill:none;stroke:#000000;stroke-width:0.465;stroke-linecap:butt;stroke-linejoin:miter;stroke-miterlimit:4;stroke-dasharray:none;stroke-opacity:1;filter:url(#filter1460)" />
      <path
         sodipodi:nodetypes="cccc"
         inkscape:connector-curvature="0"
         id="path1077"
         d="m 57.689833,39.330544 c 0.0784,-1.79473 -0.41909,-2.37366 -0.82756,-3.14052 -0.73891,1.09668 2.87585,0.4736 1.80367,0 -0.32814,0.59906 -0.53069,1.4242 -0.29708,3.03442"
         style="fill:none;stroke:#000000;stroke-width:0.165;stroke-linecap:butt;stroke-linejoin:miter;stroke-miterlimit:4;stroke-dasharray:none;stroke-opacity:1;filter:url(#filter1460)" />
      <g
         transform="translate(-17.533007,-86.636171)"
         id="text1225"
         style="font-style:normal;font-variant:normal;font-weight:normal;font-stretch:normal;font-size:12.7px;line-height:1.25;font-family:'Source Code Pro';-inkscape-font-specification:'Source Code Pro';letter-spacing:0px;word-spacing:0px;fill:#000000;fill-opacity:1;stroke:none;stroke-width:0.264583;filter:url(#filter1460)"
         aria-label="D">
        <path
           sodipodi:nodetypes="csssccccsssc"
           inkscape:connector-curvature="0"
           d="m 79.969102,126.36763 h 2.1082 c 2.4511,0 3.319368,-1.40116 3.279507,-4.05516 -0.03884,-2.58611 -1.14372,-4.27604 -3.330307,-4.27604 h -2.0574 z m 1.0541,-0.8636 v -6.604 h 0.9271 c 1.905,0 2.8448,1.1684 2.8448,3.2639 0,2.1082 -0.9398,3.3401 -2.8448,3.3401 z"
           style="stroke-width:0.264583"
           id="path1227" />
      </g>
      <path
         sodipodi:nodetypes="cccccc"
         inkscape:connector-curvature="0"
         id="path1231"
         d="m 67.262983,33.710186 c 0.91093,2.867668 3.26798,3.124228 4.69538,3.618418 0.6137,1.12046 -0.19572,2.86843 -0.99031,2.67082 l -1.4937,-0.3237 0.92646,0.92294 -5.71284,-1.10211"
         style="fill:none;stroke:#000000;stroke-width:0.564999;stroke-linecap:round;stroke-linejoin:bevel;stroke-miterlimit:4;stroke-dasharray:none;stroke-opacity:1;filter:url(#filter1460)" />
      <path
         sodipodi:nodetypes="cccccc"
         inkscape:connector-curvature="0"
         id="path1233"
         d="m 73.038683,37.178544 c 0.0222,0.58383 -0.61566,1.05307 -1.16632,0.86007 -0.56393,-0.15146 -0.82473,-0.89919 -0.47698,-1.3684 0.31136,-0.49417 1.1027,-0.5222 1.44824,-0.0513 0.12565,0.15751 0.19557,0.35816 0.19506,0.55962 z"
         style="opacity:1;fill:#010101;fill-opacity:1;fill-rule:nonzero;stroke:none;stroke-width:0.438002;stroke-linecap:round;stroke-linejoin:bevel;stroke-miterlimit:4;stroke-dasharray:none;stroke-dashoffset:0;stroke-opacity:1;paint-order:normal;filter:url(#filter1460)" />
      <rect
         ry="0.44561404"
         y="33.749737"
         x="64.289169"
         height="1.1883041"
         width="2.1644111"
         id="rect1236"
         style="opacity:1;fill:none;fill-opacity:1;fill-rule:nonzero;stroke:#000000;stroke-width:0.564999;stroke-linecap:round;stroke-linejoin:bevel;stroke-miterlimit:4;stroke-dasharray:none;stroke-dashoffset:0;stroke-opacity:1;paint-order:normal;filter:url(#filter1460)" />
      <path
         inkscape:connector-curvature="0"
         id="path1238"
         d="m 66.708213,34.365125 h 0.65781"
         style="fill:none;stroke:#000000;stroke-width:0.264583px;stroke-linecap:butt;stroke-linejoin:miter;stroke-opacity:1;filter:url(#filter1460)" />
    </g>
  </g>
</svg>
