999
dxflib 3.17.0.0
  0
SECTION
  2
HEADER
  9
$ACADVER
  1
AC1015
  9
$HANDSEED
  5
FFFF
  9
$DIMADEC
 70
0
  9
$DIMASZ
 40
25.0
  9
$DIMAUNIT
 70
0
  9
$DIMAZIN
 70
2
  9
$DIMDEC
 70
4
  9
$DIMDLI
 40
5.0
  9
$DIMDSEP
 70
46
  9
$DIMEXE
 40
12.5
  9
$DIMEXO
 40
6.25
  9
$DIMGAP
 40
6.25
  9
$DIMLUNIT
 70
2
  9
$DIMSCALE
 40
1.0
  9
$DIMTSZ
 40
0.0
  9
$DIMTXT
 40
25.0
  9
$DIMZIN
 70
8
  9
$DWGCODEPAGE
  3
ANSI_1252
  9
$INSUNITS
 70
4
  9
$LTSCALE
 40
1.0
  9
$MAXACTVP
 70
64
  9
$MEASUREMENT
 70
1
  9
$PDMODE
 70
0
  9
$PDSIZE
 40
0.0
  0
ENDSEC
  0
SECTION
  2
TABLES
  0
TABLE
  2
VPORT
  5
8
100
AcDbSymbolTable
 70
1
  0
VPORT
  5
30
100
AcDbSymbolTableRecord
100
AcDbViewportTableRecord
  2
*Active
 70
0
 10
0.0
 20
0.0
 11
1.0
 21
1.0
 12
286.3055555555554861
 22
148.5
 13
0.0
 23
0.0
 14
10.0
 24
10.0
 15
10.0
 25
10.0
 16
0.0
 26
0.0
 36
1.0
 17
0.0
 27
0.0
 37
0.0
 40
297.0
 41
1.92798353909465
 42
50.0
 43
0.0
 44
0.0
 50
0.0
 51
0.0
 71
0
 72
100
 73
1
 74
3
 75
1
 76
1
 77
0
 78
0
281
0
 65
1
110
0.0
120
0.0
130
0.0
111
1.0
121
0.0
131
0.0
112
0.0
122
1.0
132
0.0
 79
0
146
0.0
  0
ENDTAB
  0
TABLE
  2
LTYPE
  5
5
100
AcDbSymbolTable
 70
41
  0
LTYPE
  5
16
100
AcDbSymbolTableRecord
100
AcDbLinetypeTableRecord
  2
Continuous
 70
0
  3
Solid line
 72
65
 73
0
 40
0.0
  0
LTYPE
  5
31
100
AcDbSymbolTableRecord
100
AcDbLinetypeTableRecord
  2
ACAD_ISO14W100
 70
0
  3
ISO dash triple-dot __ . . . __ . . . __ . . . _
 72
65
 73
8
 40
24.0
 49
12.0
 74
0
 49
-3.0
 74
0
 49
0.0
 74
0
 49
-3.0
 74
0
 49
0.0
 74
0
 49
-3.0
 74
0
 49
0.0
 74
0
 49
-3.0
 74
0
  0
LTYPE
  5
32
100
AcDbSymbolTableRecord
100
AcDbLinetypeTableRecord
  2
CENTER2
 70
0
  3
Center (.5x) ___ _ ___ _ ___ _ ___ _ ___ _ ___
 72
65
 73
4
 40
28.5750000000000028
 49
19.0500000000000007
 74
0
 49
-3.1749999999999998
 74
0
 49
3.1749999999999998
 74
0
 49
-3.1749999999999998
 74
0
  0
LTYPE
  5
33
100
AcDbSymbolTableRecord
100
AcDbLinetypeTableRecord
  2
BORDER2
 70
0
  3
Border (.5x) __.__.__.__.__.__.__.__.__.__.__.
 72
65
 73
6
 40
22.2249999999999979
 49
6.3499999999999996
 74
0
 49
-3.1749999999999998
 74
0
 49
6.3499999999999996
 74
0
 49
-3.1749999999999998
 74
0
 49
0.0
 74
0
 49
-3.1749999999999998
 74
0
  0
LTYPE
  5
34
100
AcDbSymbolTableRecord
100
AcDbLinetypeTableRecord
  2
ACAD_ISO13W100
 70
0
  3
ISO double-dash double-dot __ __ . . __ __ . . _
 72
65
 73
8
 40
36.0
 49
12.0
 74
0
 49
-3.0
 74
0
 49
12.0
 74
0
 49
-3.0
 74
0
 49
0.0
 74
0
 49
-3.0
 74
0
 49
0.0
 74
0
 49
-3.0
 74
0
  0
LTYPE
  5
35
100
AcDbSymbolTableRecord
100
AcDbLinetypeTableRecord
  2
HIDDEN2
 70
0
  3
Hidden (.5x) _ _ _ _ _ _ _ _ _ _ _ _ _ _ _ _ _ 
 72
65
 73
2
 40
4.7624999999999993
 49
3.1749999999999998
 74
0
 49
-1.5874999999999999
 74
0
  0
LTYPE
  5
36
100
AcDbSymbolTableRecord
100
AcDbLinetypeTableRecord
  2
ACAD_ISO02W100
 70
0
  3
ISO dash __ __ __ __ __ __ __ __ __ __ __ __ __
 72
65
 73
2
 40
15.0
 49
12.0
 74
0
 49
-3.0
 74
0
  0
LTYPE
  5
37
100
AcDbSymbolTableRecord
100
AcDbLinetypeTableRecord
  2
ACAD_ISO15W100
 70
0
  3
ISO double-dash triple-dot __ __ . . . __ __ . .
 72
65
 73
10
 40
39.0
 49
12.0
 74
0
 49
-3.0
 74
0
 49
12.0
 74
0
 49
-3.0
 74
0
 49
0.0
 74
0
 49
-3.0
 74
0
 49
0.0
 74
0
 49
-3.0
 74
0
 49
0.0
 74
0
 49
-3.0
 74
0
  0
LTYPE
  5
38
100
AcDbSymbolTableRecord
100
AcDbLinetypeTableRecord
  2
PHANTOMX2
 70
0
  3
Phantom (2x) ____________    ____    ____   _
 72
65
 73
6
 40
127.0000000000000142
 49
63.5
 74
0
 49
-12.6999999999999993
 74
0
 49
12.6999999999999993
 74
0
 49
-12.6999999999999993
 74
0
 49
12.6999999999999993
 74
0
 49
-12.6999999999999993
 74
0
  0
LTYPE
  5
39
100
AcDbSymbolTableRecord
100
AcDbLinetypeTableRecord
  2
DASHED2
 70
0
  3
Dashed (.5x) _ _ _ _ _ _ _ _ _ _ _ _ _ _ _ _ _ 
 72
65
 73
2
 40
9.5249999999999986
 49
6.3499999999999996
 74
0
 49
-3.1749999999999998
 74
0
  0
LTYPE
  5
14
100
AcDbSymbolTableRecord
100
AcDbLinetypeTableRecord
  2
BYBLOCK
 70
0
  3

 72
65
 73
0
 40
0.0
  0
LTYPE
  5
15
100
AcDbSymbolTableRecord
100
AcDbLinetypeTableRecord
  2
BYLAYER
 70
0
  3

 72
65
 73
0
 40
0.0
  0
LTYPE
  5
3A
100
AcDbSymbolTableRecord
100
AcDbLinetypeTableRecord
  2
CENTER
 70
0
  3
Center ____ _ ____ _ ____ _ ____ _ ____ _ ____
 72
65
 73
4
 40
50.8000000000000043
 49
31.75
 74
0
 49
-6.3499999999999996
 74
0
 49
6.3499999999999996
 74
0
 49
-6.3499999999999996
 74
0
  0
LTYPE
  5
3B
100
AcDbSymbolTableRecord
100
AcDbLinetypeTableRecord
  2
HIDDEN
 70
0
  3
Hidden __ __ __ __ __ __ __ __ __ __ __ __ __ __
 72
65
 73
2
 40
9.5249999999999986
 49
6.3499999999999996
 74
0
 49
-3.1749999999999998
 74
0
  0
LTYPE
  5
3C
100
AcDbSymbolTableRecord
100
AcDbLinetypeTableRecord
  2
DOTX2
 70
0
  3
Dot (2x) .  .  .  .  .  .  .  .  .  .  .  .  .  .
 72
65
 73
2
 40
12.6999999999999993
 49
0.0
 74
0
 49
-12.6999999999999993
 74
0
  0
LTYPE
  5
3D
100
AcDbSymbolTableRecord
100
AcDbLinetypeTableRecord
  2
DOT2
 70
0
  3
Dot (.5x) ........................................
 72
65
 73
2
 40
3.1749999999999998
 49
0.0
 74
0
 49
-3.1749999999999998
 74
0
  0
LTYPE
  5
3E
100
AcDbSymbolTableRecord
100
AcDbLinetypeTableRecord
  2
DASHDOT
 70
0
  3
Dash dot __ . __ . __ . __ . __ . __ . __ . __
 72
65
 73
4
 40
25.3999999999999986
 49
12.6999999999999993
 74
0
 49
-6.3499999999999996
 74
0
 49
0.0
 74
0
 49
-6.3499999999999996
 74
0
  0
LTYPE
  5
3F
100
AcDbSymbolTableRecord
100
AcDbLinetypeTableRecord
  2
DASHDOTX2
 70
0
  3
Dash dot (2x) ____  .  ____  .  ____  .  ___
 72
65
 73
4
 40
50.7999999999999972
 49
25.3999999999999986
 74
0
 49
-12.6999999999999993
 74
0
 49
0.0
 74
0
 49
-12.6999999999999993
 74
0
  0
LTYPE
  5
40
100
AcDbSymbolTableRecord
100
AcDbLinetypeTableRecord
  2
DIVIDEX2
 70
0
  3
Divide (2x) ________  .  .  ________  .  .  _
 72
65
 73
6
 40
63.5
 49
25.3999999999999986
 74
0
 49
-12.6999999999999993
 74
0
 49
0.0
 74
0
 49
-12.6999999999999993
 74
0
 49
0.0
 74
0
 49
-12.6999999999999993
 74
0
  0
LTYPE
  5
41
100
AcDbSymbolTableRecord
100
AcDbLinetypeTableRecord
  2
ACAD_ISO06W100
 70
0
  3
ISO long-dash triple-dot ____ ... ____ ... ____
 72
65
 73
8
 40
36.0
 49
24.0
 74
0
 49
-3.0
 74
0
 49
0.0
 74
0
 49
-3.0
 74
0
 49
0.0
 74
0
 49
-3.0
 74
0
 49
0.0
 74
0
 49
-3.0
 74
0
  0
LTYPE
  5
42
100
AcDbSymbolTableRecord
100
AcDbLinetypeTableRecord
  2
PHANTOM2
 70
0
  3
Phantom (.5x) ___ _ _ ___ _ _ ___ _ _ ___ _ _
 72
65
 73
6
 40
31.7500000000000036
 49
15.875
 74
0
 49
-3.1749999999999998
 74
0
 49
3.1749999999999998
 74
0
 49
-3.1749999999999998
 74
0
 49
3.1749999999999998
 74
0
 49
-3.1749999999999998
 74
0
  0
LTYPE
  5
43
100
AcDbSymbolTableRecord
100
AcDbLinetypeTableRecord
  2
ACAD_ISO03W100
 70
0
  3
ISO dash space __    __    __    __    __    __
 72
65
 73
2
 40
30.0
 49
12.0
 74
0
 49
-18.0
 74
0
  0
LTYPE
  5
44
100
AcDbSymbolTableRecord
100
AcDbLinetypeTableRecord
  2
BORDERX2
 70
0
  3
Border (2x) ____  ____  .  ____  ____  .  ___
 72
65
 73
6
 40
88.8999999999999915
 49
25.3999999999999986
 74
0
 49
-12.6999999999999993
 74
0
 49
25.3999999999999986
 74
0
 49
-12.6999999999999993
 74
0
 49
0.0
 74
0
 49
-12.6999999999999993
 74
0
  0
LTYPE
  5
45
100
AcDbSymbolTableRecord
100
AcDbLinetypeTableRecord
  2
ACAD_ISO10W100
 70
0
  3
ISO dash dot __ . __ . __ . __ . __ . __ . __ . 
 72
65
 73
4
 40
18.0
 49
12.0
 74
0
 49
-3.0
 74
0
 49
0.0
 74
0
 49
-3.0
 74
0
  0
LTYPE
  5
46
100
AcDbSymbolTableRecord
100
AcDbLinetypeTableRecord
  2
BORDER
 70
0
  3
Border __ __ . __ __ . __ __ . __ __ . __ __ .
 72
65
 73
6
 40
44.4499999999999957
 49
12.6999999999999993
 74
0
 49
-6.3499999999999996
 74
0
 49
12.6999999999999993
 74
0
 49
-6.3499999999999996
 74
0
 49
0.0
 74
0
 49
-6.3499999999999996
 74
0
  0
LTYPE
  5
47
100
AcDbSymbolTableRecord
100
AcDbLinetypeTableRecord
  2
DOT
 70
0
  3
Dot . . . . . . . . . . . . . . . . . . . . . . . .
 72
65
 73
2
 40
6.3499999999999996
 49
0.0
 74
0
 49
-6.3499999999999996
 74
0
  0
LTYPE
  5
48
100
AcDbSymbolTableRecord
100
AcDbLinetypeTableRecord
  2
DIVIDE2
 70
0
  3
Divide (.5x) __..__..__..__..__..__..__..__.._
 72
65
 73
6
 40
15.875
 49
6.3499999999999996
 74
0
 49
-3.1749999999999998
 74
0
 49
0.0
 74
0
 49
-3.1749999999999998
 74
0
 49
0.0
 74
0
 49
-3.1749999999999998
 74
0
  0
LTYPE
  5
49
100
AcDbSymbolTableRecord
100
AcDbLinetypeTableRecord
  2
PHANTOM
 70
0
  3
Phantom ______  __  __  ______  __  __  ______ 
 72
65
 73
6
 40
63.5000000000000071
 49
31.75
 74
0
 49
-6.3499999999999996
 74
0
 49
6.3499999999999996
 74
0
 49
-6.3499999999999996
 74
0
 49
6.3499999999999996
 74
0
 49
-6.3499999999999996
 74
0
  0
LTYPE
  5
4A
100
AcDbSymbolTableRecord
100
AcDbLinetypeTableRecord
  2
DIVIDE
 70
0
  3
Divide ____ . . ____ . . ____ . . ____ . . ____
 72
65
 73
6
 40
31.75
 49
12.6999999999999993
 74
0
 49
-6.3499999999999996
 74
0
 49
0.0
 74
0
 49
-6.3499999999999996
 74
0
 49
0.0
 74
0
 49
-6.3499999999999996
 74
0
  0
LTYPE
  5
4B
100
AcDbSymbolTableRecord
100
AcDbLinetypeTableRecord
  2
DASHDOT2
 70
0
  3
Dash dot (.5x) _._._._._._._._._._._._._._._.
 72
65
 73
4
 40
12.6999999999999993
 49
6.3499999999999996
 74
0
 49
-3.1749999999999998
 74
0
 49
0.0
 74
0
 49
-3.1749999999999998
 74
0
  0
LTYPE
  5
4C
100
AcDbSymbolTableRecord
100
AcDbLinetypeTableRecord
  2
ACAD_ISO05W100
 70
0
  3
ISO long-dash double-dot ____ .. ____ .. ____ . 
 72
65
 73
6
 40
33.0
 49
24.0
 74
0
 49
-3.0
 74
0
 49
0.0
 74
0
 49
-3.0
 74
0
 49
0.0
 74
0
 49
-3.0
 74
0
  0
LTYPE
  5
4D
100
AcDbSymbolTableRecord
100
AcDbLinetypeTableRecord
  2
DASHED
 70
0
  3
Dashed __ __ __ __ __ __ __ __ __ __ __ __ __ _
 72
65
 73
2
 40
19.0499999999999972
 49
12.6999999999999993
 74
0
 49
-6.3499999999999996
 74
0
  0
LTYPE
  5
4E
100
AcDbSymbolTableRecord
100
AcDbLinetypeTableRecord
  2
ACAD_ISO11W100
 70
0
  3
ISO double-dash dot __ __ . __ __ . __ __ . __ _
 72
65
 73
6
 40
33.0
 49
12.0
 74
0
 49
-3.0
 74
0
 49
12.0
 74
0
 49
-3.0
 74
0
 49
0.0
 74
0
 49
-3.0
 74
0
  0
LTYPE
  5
4F
100
AcDbSymbolTableRecord
100
AcDbLinetypeTableRecord
  2
CENTERX2
 70
0
  3
Center (2x) ________  __  ________  __  _____
 72
65
 73
4
 40
101.6000000000000085
 49
63.5
 74
0
 49
-12.6999999999999993
 74
0
 49
12.6999999999999993
 74
0
 49
-12.6999999999999993
 74
0
  0
LTYPE
  5
50
100
AcDbSymbolTableRecord
100
AcDbLinetypeTableRecord
  2
ACAD_ISO08W100
 70
0
  3
ISO long-dash short-dash ____ __ ____ __ ____ _
 72
65
 73
4
 40
36.0
 49
24.0
 74
0
 49
-3.0
 74
0
 49
6.0
 74
0
 49
-3.0
 74
0
  0
LTYPE
  5
51
100
AcDbSymbolTableRecord
100
AcDbLinetypeTableRecord
  2
DASHEDX2
 70
0
  3
Dashed (2x) ____  ____  ____  ____  ____  ___
 72
65
 73
2
 40
38.0999999999999943
 49
25.3999999999999986
 74
0
 49
-12.6999999999999993
 74
0
  0
LTYPE
  5
52
100
AcDbSymbolTableRecord
100
AcDbLinetypeTableRecord
  2
HIDDENX2
 70
0
  3
Hidden (2x) ____ ____ ____ ____ ____ ____ ____ 
 72
65
 73
2
 40
19.0499999999999972
 49
12.6999999999999993
 74
0
 49
-6.3499999999999996
 74
0
  0
LTYPE
  5
53
100
AcDbSymbolTableRecord
100
AcDbLinetypeTableRecord
  2
ACAD_ISO09W100
 70
0
  3
ISO long-dash double-short-dash ____ __ __ ____
 72
65
 73
6
 40
45.0
 49
24.0
 74
0
 49
-3.0
 74
0
 49
6.0
 74
0
 49
-3.0
 74
0
 49
6.0
 74
0
 49
-3.0
 74
0
  0
LTYPE
  5
54
100
AcDbSymbolTableRecord
100
AcDbLinetypeTableRecord
  2
ACAD_ISO07W100
 70
0
  3
ISO dot . . . . . . . . . . . . . . . . . . . . 
 72
65
 73
2
 40
3.0
 49
0.0
 74
0
 49
-3.0
 74
0
  0
LTYPE
  5
55
100
AcDbSymbolTableRecord
100
AcDbLinetypeTableRecord
  2
ACAD_ISO04W100
 70
0
  3
ISO long-dash dot ____ . ____ . ____ . ____ . _
 72
65
 73
4
 40
30.0
 49
24.0
 74
0
 49
-3.0
 74
0
 49
0.0
 74
0
 49
-3.0
 74
0
  0
LTYPE
  5
56
100
AcDbSymbolTableRecord
100
AcDbLinetypeTableRecord
  2
ACAD_ISO12W100
 70
0
  3
ISO dash double-dot __ . . __ . . __ . . __ . . 
 72
65
 73
6
 40
21.0
 49
12.0
 74
0
 49
-3.0
 74
0
 49
0.0
 74
0
 49
-3.0
 74
0
 49
0.0
 74
0
 49
-3.0
 74
0
  0
ENDTAB
  0
TABLE
  2
LAYER
  5
2
100
AcDbSymbolTable
 70
1
  0
LAYER
  5
10
100
AcDbSymbolTableRecord
100
AcDbLayerTableRecord
  2
0
 70
0
 62
7
420
16777215
  6
Continuous
370
25
390
F
  0
ENDTAB
  0
TABLE
  2
STYLE
  5
3
100
AcDbSymbolTable
 70
1
  0
STYLE
  5
57
100
AcDbSymbolTableRecord
100
AcDbTextStyleTableRecord
  2
Standard
 70
0
 40
0.0
 41
1.0
 50
0.0
 71
0
 42
2.5
  3

  4

1001
ACAD
1000
txt
1071
0
  0
ENDTAB
  0
TABLE
  2
VIEW
  5
6
100
AcDbSymbolTable
 70
0
  0
ENDTAB
  0
TABLE
  2
UCS
  5
7
100
AcDbSymbolTable
 70
0
  0
ENDTAB
  0
TABLE
  2
APPID
  5
9
100
AcDbSymbolTable
 70
1
  0
APPID
  5
12
100
AcDbSymbolTableRecord
100
AcDbRegAppTableRecord
  2
ACAD
 70
0
  0
APPID
  5
58
100
AcDbSymbolTableRecord
100
AcDbRegAppTableRecord
  2
QCAD
 70
0
  0
ENDTAB
  0
TABLE
  2
DIMSTYLE
  5
A
100
AcDbSymbolTable
 70
1
100
AcDbDimStyleTable
 71
0
  0
DIMSTYLE
105
27
100
AcDbSymbolTableRecord
100
AcDbDimStyleTableRecord
  2
Standard
 41
25.0
 42
6.25
 43
3.75
 44
12.5
 70
0
 73
0
 74
0
 77
1
 78
8
140
25.0
141
2.5
143
0.03937007874016
147
6.25
171
3
172
1
271
2
272
2
274
3
278
44
283
0
284
8
340
57
  0
ENDTAB
  0
TABLE
  2
BLOCK_RECORD
  5
1
100
AcDbSymbolTable
 70
1
  0
BLOCK_RECORD
  5
1F
100
AcDbSymbolTableRecord
100
AcDbBlockTableRecord
  2
*Model_Space
340
22
  0
BLOCK_RECORD
  5
1B
100
AcDbSymbolTableRecord
100
AcDbBlockTableRecord
  2
*Paper_Space
340
1E
  0
BLOCK_RECORD
  5
23
100
AcDbSymbolTableRecord
100
AcDbBlockTableRecord
  2
*Paper_Space0
340
26
  0
ENDTAB
  0
ENDSEC
  0
SECTION
  2
BLOCKS
  0
BLOCK
  5
20
100
AcDbEntity
  8
0
100
AcDbBlockBegin
  2
*Model_Space
 70
0
 10
0.0
 20
0.0
 30
0.0
  3
*Model_Space
  1

  0
ENDBLK
  5
21
100
AcDbEntity
  8
0
100
AcDbBlockEnd
  0
BLOCK
  5
1C
100
AcDbEntity
 67
1
  8
0
100
AcDbBlockBegin
  2
*Paper_Space
 70
0
 10
0.0
 20
0.0
 30
0.0
  3
*Paper_Space
  1

  0
ENDBLK
  5
1D
100
AcDbEntity
 67
1
  8
0
100
AcDbBlockEnd
  0
BLOCK
  5
24
100
AcDbEntity
  8
0
100
AcDbBlockBegin
  2
*Paper_Space0
 70
0
 10
0.0
 20
0.0
 30
0.0
  3
*Paper_Space0
  1

  0
ENDBLK
  5
25
100
AcDbEntity
  8
0
100
AcDbBlockEnd
  0
ENDSEC
  0
SECTION
  2
ENTITIES
  0
LINE
  5
59
100
AcDbEntity
  8
0
 62
256
370
-1
 48
1.0
  6
BYLAYER
100
AcDbLine
 10
299.1253095892432157
 20
18.8699353718132556
 30
0.0
 11
261.765309589243202
 21
18.8699353718132556
 31
0.0
  0
LINE
  5
5A
100
AcDbEntity
  8
0
 62
256
370
-1
 48
1.0
  6
BYLAYER
100
AcDbLine
 10
261.765309589243202
 20
18.8699353718132556
 30
0.0
 11
261.765309589243202
 21
9.5299353718131101
 31
0.0
  0
LINE
  5
5B
100
AcDbEntity
  8
0
 62
256
370
-1
 48
1.0
  6
BYLAYER
100
AcDbLine
 10
224.4053095892431884
 20
9.5299353718131101
 30
0.0
 11
261.765309589243202
 21
9.5299353718131101
 31
0.0
  0
LINE
  5
5C
100
AcDbEntity
  8
0
 62
256
370
-1
 48
1.0
  6
BYLAYER
100
AcDbLine
 10
261.765309589243202
 20
9.5299353718131101
 30
0.0
 11
261.765309589243202
 21
18.8699353718132556
 31
0.0
  0
LINE
  5
5D
100
AcDbEntity
  8
0
 62
256
370
-1
 48
1.0
  6
BYLAYER
100
AcDbLine
 10
224.4053095892431884
 20
18.8699353718132556
 30
0.0
 11
224.4053095892431884
 21
9.5299353718131101
 31
0.0
  0
LINE
  5
5E
100
AcDbEntity
  8
0
 62
256
370
-1
 48
1.0
  6
BYLAYER
100
AcDbLine
 10
224.4053095892431884
 20
9.5299353718131101
 30
0.0
 11
224.4053095892431884
 21
18.8699353718132556
 31
0.0
  0
LINE
  5
5F
100
AcDbEntity
  8
0
 62
256
370
-1
 48
1.0
  6
BYLAYER
100
AcDbLine
 10
224.4053095892431884
 20
18.8699353718132556
 30
0.0
 11
187.0453095892431747
 21
18.8699353718132556
 31
0.0
  0
LINE
  5
60
100
AcDbEntity
  8
0
 62
256
370
-1
 48
1.0
  6
BYLAYER
100
AcDbLine
 10
187.0453095892431747
 20
18.8699353718132556
 30
0.0
 11
187.0453095892431747
 21
9.5299353718131101
 31
0.0
  0
LINE
  5
61
100
AcDbEntity
  8
0
 62
256
370
-1
 48
1.0
  6
BYLAYER
100
AcDbLine
 10
149.6853095892433885
 20
9.5299353718131101
 30
0.0
 11
187.0453095892434021
 21
9.5299353718131101
 31
0.0
  0
LINE
  5
62
100
AcDbEntity
  8
0
 62
256
370
-1
 48
1.0
  6
BYLAYER
100
AcDbLine
 10
187.0453095892434021
 20
9.5299353718131101
 30
0.0
 11
187.0453095892434021
 21
18.8699353718132556
 31
0.0
  0
LINE
  5
63
100
AcDbEntity
  8
0
 62
256
370
-1
 48
1.0
  6
BYLAYER
100
AcDbLine
 10
149.6853095892433885
 20
18.8699353718132556
 30
0.0
 11
149.6853095892433885
 21
9.5299353718131101
 31
0.0
  0
LINE
  5
64
100
AcDbEntity
  8
0
 62
256
370
-1
 48
1.0
  6
BYLAYER
100
AcDbLine
 10
149.6853095892436158
 20
9.5299353718131101
 30
0.0
 11
149.6853095892436158
 21
18.8699353718132556
 31
0.0
  0
LINE
  5
65
100
AcDbEntity
  8
0
 62
256
370
-1
 48
1.0
  6
BYLAYER
100
AcDbLine
 10
149.6853095892436158
 20
18.8699353718132556
 30
0.0
 11
112.3253095892436022
 21
18.8699353718132556
 31
0.0
  0
LINE
  5
66
100
AcDbEntity
  8
0
 62
256
370
-1
 48
1.0
  6
BYLAYER
100
AcDbLine
 10
112.3253095892436022
 20
18.8699353718132556
 30
0.0
 11
112.3253095892436022
 21
9.5299353718131101
 31
0.0
  0
LINE
  5
67
100
AcDbEntity
  8
0
 62
256
370
-1
 48
1.0
  6
BYLAYER
100
AcDbLine
 10
74.9653095892433612
 20
9.5299353718131101
 30
0.0
 11
112.3253095892433748
 21
9.5299353718131101
 31
0.0
  0
LINE
  5
68
100
AcDbEntity
  8
0
 62
256
370
-1
 48
1.0
  6
BYLAYER
100
AcDbLine
 10
112.3253095892433748
 20
9.5299353718131101
 30
0.0
 11
112.3253095892433748
 21
18.8699353718132556
 31
0.0
  0
LINE
  5
69
100
AcDbEntity
  8
0
 62
256
370
-1
 48
1.0
  6
BYLAYER
100
AcDbLine
 10
74.9653095892433612
 20
18.8699353718132556
 30
0.0
 11
74.9653095892433612
 21
9.5299353718131101
 31
0.0
  0
LINE
  5
6A
100
AcDbEntity
  8
0
 62
256
370
-1
 48
1.0
  6
BYLAYER
100
AcDbLine
 10
74.9653095892433612
 20
9.5299353718131101
 30
0.0
 11
74.9653095892433612
 21
18.8699353718132556
 31
0.0
  0
LINE
  5
6B
100
AcDbEntity
  8
0
 62
256
370
-1
 48
1.0
  6
BYLAYER
100
AcDbLine
 10
74.9653095892433612
 20
18.8699353718132556
 30
0.0
 11
37.6053095892433475
 21
18.8699353718132556
 31
0.0
  0
LINE
  5
6C
100
AcDbEntity
  8
0
 62
256
370
-1
 48
1.0
  6
BYLAYER
100
AcDbLine
 10
37.6053095892433475
 20
18.8699353718132556
 30
0.0
 11
37.6053095892433475
 21
9.5299353718131101
 31
0.0
  0
LINE
  5
6D
100
AcDbEntity
  8
0
 62
256
370
-1
 48
1.0
  6
BYLAYER
100
AcDbLine
 10
23.5874677252431866
 20
9.5299353718131101
 30
0.0
 11
37.6053095892432339
 21
9.5299353718131101
 31
0.0
  0
LINE
  5
6E
100
AcDbEntity
  8
0
 62
256
370
-1
 48
1.0
  6
BYLAYER
100
AcDbLine
 10
37.6053095892432339
 20
9.5299353718131101
 30
0.0
 11
37.6053095892432339
 21
18.8699353718132556
 31
0.0
  0
LINE
  5
6F
100
AcDbEntity
  8
0
 62
256
370
-1
 48
1.0
  6
BYLAYER
100
AcDbLine
 10
23.5874677252431866
 20
9.5299353718131101
 30
0.0
 11
23.5874677252431866
 21
51.5599353718133102
 31
0.0
  0
LINE
  5
70
100
AcDbEntity
  8
0
 62
256
370
-1
 48
1.0
  6
BYLAYER
100
AcDbLine
 10
23.5874677252431866
 20
51.5599353718133102
 30
0.0
 11
14.2474677252432684
 21
51.5599353718133102
 31
0.0
  0
LINE
  5
71
100
AcDbEntity
  8
0
 62
256
370
-1
 48
1.0
  6
BYLAYER
100
AcDbLine
 10
14.2474677252430411
 20
51.5599353718133102
 30
0.0
 11
23.5874677252429592
 21
51.5599353718133102
 31
0.0
  0
LINE
  5
72
100
AcDbEntity
  8
0
 62
256
370
-1
 48
1.0
  6
BYLAYER
100
AcDbLine
 10
23.5874677252429592
 20
88.9199353718134375
 30
0.0
 11
14.2474677252430411
 21
88.9199353718134375
 31
0.0
  0
LINE
  5
73
100
AcDbEntity
  8
0
 62
256
370
-1
 48
1.0
  6
BYLAYER
100
AcDbLine
 10
14.2474677252430411
 20
88.9199353718134375
 30
0.0
 11
14.2474677252430411
 21
51.5599353718133102
 31
0.0
  0
LINE
  5
74
100
AcDbEntity
  8
0
 62
256
370
-1
 48
1.0
  6
BYLAYER
100
AcDbLine
 10
14.2474677252430411
 20
88.919935371814347
 30
0.0
 11
23.5874677252429592
 21
88.919935371814347
 31
0.0
  0
LINE
  5
75
100
AcDbEntity
  8
0
 62
256
370
-1
 48
1.0
  6
BYLAYER
100
AcDbLine
 10
23.5874677252429592
 20
88.919935371814347
 30
0.0
 11
23.5874677252429592
 21
126.2799353718140196
 31
0.0
  0
LINE
  5
76
100
AcDbEntity
  8
0
 62
256
370
-1
 48
1.0
  6
BYLAYER
100
AcDbLine
 10
23.5874677252429592
 20
126.2799353718140196
 30
0.0
 11
14.2474677252430411
 21
126.2799353718140196
 31
0.0
  0
LINE
  5
77
100
AcDbEntity
  8
0
 62
256
370
-1
 48
1.0
  6
BYLAYER
100
AcDbLine
 10
14.2474677252430411
 20
126.2799353718140196
 30
0.0
 11
23.5874677252429592
 21
126.2799353718140196
 31
0.0
  0
LINE
  5
78
100
AcDbEntity
  8
0
 62
256
370
-1
 48
1.0
  6
BYLAYER
100
AcDbLine
 10
23.5874677252429592
 20
163.6399353718141469
 30
0.0
 11
14.2474677252430411
 21
163.6399353718141469
 31
0.0
  0
LINE
  5
79
100
AcDbEntity
  8
0
 62
256
370
-1
 48
1.0
  6
BYLAYER
100
AcDbLine
 10
14.2474677252430411
 20
163.6399353718141469
 30
0.0
 11
14.2474677252430411
 21
126.2799353718140196
 31
0.0
  0
LINE
  5
7A
100
AcDbEntity
  8
0
 62
256
370
-1
 48
1.0
  6
BYLAYER
100
AcDbLine
 10
14.2474677252430411
 20
163.6399353718141469
 30
0.0
 11
23.5874677252429592
 21
163.6399353718141469
 31
0.0
  0
LINE
  5
7B
100
AcDbEntity
  8
0
 62
256
370
-1
 48
1.0
  6
BYLAYER
100
AcDbLine
 10
23.5874677252429592
 20
163.6399353718141469
 30
0.0
 11
23.5874677252429592
 21
200.9999353718142743
 31
0.0
  0
LINE
  5
7C
100
AcDbEntity
  8
0
 62
256
370
-1
 48
1.0
  6
BYLAYER
100
AcDbLine
 10
23.5874677252429592
 20
200.9999353718142743
 30
0.0
 11
14.2474677252430411
 21
200.9999353718142743
 31
0.0
  0
LINE
  5
7D
100
AcDbEntity
  8
0
 62
256
370
-1
 48
1.0
  6
BYLAYER
100
AcDbLine
 10
14.2474677252430411
 20
200.9999353718142743
 30
0.0
 11
23.5874677252429592
 21
200.9999353718142743
 31
0.0
  0
LINE
  5
7E
100
AcDbEntity
  8
0
 62
256
370
-1
 48
1.0
  6
BYLAYER
100
AcDbLine
 10
23.5874677252429592
 20
238.3599353718144016
 30
0.0
 11
14.2474677252430411
 21
238.3599353718144016
 31
0.0
  0
LINE
  5
7F
100
AcDbEntity
  8
0
 62
256
370
-1
 48
1.0
  6
BYLAYER
100
AcDbLine
 10
14.2474677252430411
 20
238.3599353718144016
 30
0.0
 11
14.2474677252430411
 21
200.9999353718142743
 31
0.0
  0
LINE
  5
80
100
AcDbEntity
  8
0
 62
256
370
-1
 48
1.0
  6
BYLAYER
100
AcDbLine
 10
14.2474677252430411
 20
238.3599353718144016
 30
0.0
 11
23.5874677252429592
 21
238.3599353718144016
 31
0.0
  0
LINE
  5
81
100
AcDbEntity
  8
0
 62
256
370
-1
 48
1.0
  6
BYLAYER
100
AcDbLine
 10
23.5874677252429592
 20
238.3599353718144016
 30
0.0
 11
23.5874677252429592
 21
275.7199353718140742
 31
0.0
  0
LINE
  5
82
100
AcDbEntity
  8
0
 62
256
370
-1
 48
1.0
  6
BYLAYER
100
AcDbLine
 10
23.5874677252429592
 20
275.7199353718140742
 30
0.0
 11
14.2474677252430411
 21
275.7199353718140742
 31
0.0
  0
LINE
  5
83
100
AcDbEntity
  8
0
 62
256
370
-1
 48
1.0
  6
BYLAYER
100
AcDbLine
 10
14.2474677252430411
 20
275.7199353718131647
 30
0.0
 11
23.5874677252429592
 21
275.7199353718131647
 31
0.0
  0
LINE
  5
84
100
AcDbEntity
  8
0
 62
256
370
-1
 48
1.0
  6
BYLAYER
100
AcDbLine
 10
23.5874677252429592
 20
313.079935371813292
 30
0.0
 11
14.2474677252430411
 21
313.079935371813292
 31
0.0
  0
LINE
  5
85
100
AcDbEntity
  8
0
 62
256
370
-1
 48
1.0
  6
BYLAYER
100
AcDbLine
 10
14.2474677252430411
 20
313.079935371813292
 30
0.0
 11
14.2474677252430411
 21
275.7199353718131647
 31
0.0
  0
LINE
  5
86
100
AcDbEntity
  8
0
 62
256
370
-1
 48
1.0
  6
BYLAYER
100
AcDbLine
 10
14.2474677252430411
 20
313.079935371813292
 30
0.0
 11
23.5874677252429592
 21
313.079935371813292
 31
0.0
  0
LINE
  5
87
100
AcDbEntity
  8
0
 62
256
370
-1
 48
1.0
  6
BYLAYER
100
AcDbLine
 10
23.5874677252429592
 20
313.079935371813292
 30
0.0
 11
23.5874677252429592
 21
350.4399353718134194
 31
0.0
  0
LINE
  5
88
100
AcDbEntity
  8
0
 62
256
370
-1
 48
1.0
  6
BYLAYER
100
AcDbLine
 10
23.5874677252429592
 20
350.4399353718134194
 30
0.0
 11
14.2474677252430411
 21
350.4399353718134194
 31
0.0
  0
LINE
  5
89
100
AcDbEntity
  8
0
 62
256
370
-1
 48
1.0
  6
BYLAYER
100
AcDbLine
 10
14.2474677252430411
 20
350.4399353718134194
 30
0.0
 11
23.5874677252429592
 21
350.4399353718134194
 31
0.0
  0
LINE
  5
8A
100
AcDbEntity
  8
0
 62
256
370
-1
 48
1.0
  6
BYLAYER
100
AcDbLine
 10
23.5874677252429592
 20
387.7999353718130919
 30
0.0
 11
14.2474677252430411
 21
387.7999353718130919
 31
0.0
  0
LINE
  5
8B
100
AcDbEntity
  8
0
 62
256
370
-1
 48
1.0
  6
BYLAYER
100
AcDbLine
 10
14.2474677252430411
 20
387.7999353718130919
 30
0.0
 11
14.2474677252430411
 21
350.4399353718134194
 31
0.0
  0
LINE
  5
8C
100
AcDbEntity
  8
0
 62
256
370
-1
 48
1.0
  6
BYLAYER
100
AcDbLine
 10
14.2474677252430411
 20
387.7999353718130919
 30
0.0
 11
23.5874677252429592
 21
387.7999353718130919
 31
0.0
  0
LINE
  5
8D
100
AcDbEntity
  8
0
 62
256
370
-1
 48
1.0
  6
BYLAYER
100
AcDbLine
 10
23.5874677252429592
 20
387.7999353718130919
 30
0.0
 11
23.5874677252429592
 21
425.1599353718132193
 31
0.0
  0
LINE
  5
8E
100
AcDbEntity
  8
0
 62
256
370
-1
 48
1.0
  6
BYLAYER
100
AcDbLine
 10
23.5874677252429592
 20
425.1599353718132193
 30
0.0
 11
14.2474677252430411
 21
425.1599353718132193
 31
0.0
  0
LINE
  5
8F
100
AcDbEntity
  8
0
 62
256
370
-1
 48
1.0
  6
BYLAYER
100
AcDbLine
 10
14.2474677252430411
 20
425.1599353718141288
 30
0.0
 11
23.5874677252429592
 21
425.1599353718141288
 31
0.0
  0
LINE
  5
90
100
AcDbEntity
  8
0
 62
256
370
-1
 48
1.0
  6
BYLAYER
100
AcDbLine
 10
23.5874677252429592
 20
462.5199353718142561
 30
0.0
 11
14.2474677252430411
 21
462.5199353718142561
 31
0.0
  0
LINE
  5
91
100
AcDbEntity
  8
0
 62
256
370
-1
 48
1.0
  6
BYLAYER
100
AcDbLine
 10
14.2474677252430411
 20
462.5199353718142561
 30
0.0
 11
14.2474677252430411
 21
425.1599353718141288
 31
0.0
  0
LINE
  5
92
100
AcDbEntity
  8
0
 62
256
370
-1
 48
1.0
  6
BYLAYER
100
AcDbLine
 10
14.2474677252430411
 20
462.5199353718142561
 30
0.0
 11
23.5874677252429592
 21
462.5199353718142561
 31
0.0
  0
LINE
  5
93
100
AcDbEntity
  8
0
 62
256
370
-1
 48
1.0
  6
BYLAYER
100
AcDbLine
 10
23.5874677252429592
 20
462.5199353718142561
 30
0.0
 11
23.5874677252428455
 21
466.2324125998150635
 31
0.0
  0
LINE
  5
94
100
AcDbEntity
  8
0
 62
256
370
-1
 48
1.0
  6
BYLAYER
100
AcDbLine
 10
14.2474677252430411
 20
495.9533165506020964
 30
0.0
 11
14.2474677252428137
 21
471.8756190998140596
 31
0.0
  0
LINE
  5
95
100
AcDbEntity
  8
0
 62
256
370
-1
 48
1.0
  6
BYLAYER
100
AcDbLine
 10
14.2474677252430411
 20
569.945619099813257
 30
0.0
 11
14.2474677252430411
 21
533.3133165506030764
 31
0.0
  0
LINE
  5
96
100
AcDbEntity
  8
0
 62
256
370
-1
 48
1.0
  6
BYLAYER
100
AcDbLine
 10
261.765309589243202
 20
569.9456190998141665
 30
0.0
 11
299.1253095892432157
 21
569.9456190998141665
 31
0.0
  0
LINE
  5
97
100
AcDbEntity
  8
0
 62
256
370
-1
 48
1.0
  6
BYLAYER
100
AcDbLine
 10
261.765309589243202
 20
579.285619099814312
 30
0.0
 11
261.765309589243202
 21
569.9456190998141665
 31
0.0
  0
LINE
  5
98
100
AcDbEntity
  8
0
 62
256
370
-1
 48
1.0
  6
BYLAYER
100
AcDbLine
 10
261.765309589243202
 20
569.945619099813257
 30
0.0
 11
261.765309589243202
 21
579.2856190998129478
 31
0.0
  0
LINE
  5
99
100
AcDbEntity
  8
0
 62
256
370
-1
 48
1.0
  6
BYLAYER
100
AcDbLine
 10
261.765309589243202
 20
579.2856190998129478
 30
0.0
 11
224.4053095892431884
 21
579.2856190998129478
 31
0.0
  0
LINE
  5
9A
100
AcDbEntity
  8
0
 62
256
370
-1
 48
1.0
  6
BYLAYER
100
AcDbLine
 10
224.4053095892431884
 20
579.2856190998129478
 30
0.0
 11
224.4053095892431884
 21
569.945619099813257
 31
0.0
  0
LINE
  5
9B
100
AcDbEntity
  8
0
 62
256
370
-1
 48
1.0
  6
BYLAYER
100
AcDbLine
 10
187.0453095892431747
 20
569.945619099813257
 30
0.0
 11
224.4053095892431884
 21
569.945619099813257
 31
0.0
  0
LINE
  5
9C
100
AcDbEntity
  8
0
 62
256
370
-1
 48
1.0
  6
BYLAYER
100
AcDbLine
 10
224.4053095892431884
 20
569.945619099813257
 30
0.0
 11
224.4053095892431884
 21
579.2856190998129478
 31
0.0
  0
LINE
  5
9D
100
AcDbEntity
  8
0
 62
256
370
-1
 48
1.0
  6
BYLAYER
100
AcDbLine
 10
187.0453095892431747
 20
579.2856190998129478
 30
0.0
 11
187.0453095892431747
 21
569.945619099813257
 31
0.0
  0
LINE
  5
9E
100
AcDbEntity
  8
0
 62
256
370
-1
 48
1.0
  6
BYLAYER
100
AcDbLine
 10
187.0453095892434021
 20
569.945619099813257
 30
0.0
 11
187.0453095892434021
 21
579.2856190998129478
 31
0.0
  0
LINE
  5
9F
100
AcDbEntity
  8
0
 62
256
370
-1
 48
1.0
  6
BYLAYER
100
AcDbLine
 10
187.0453095892434021
 20
579.2856190998129478
 30
0.0
 11
149.6853095892433885
 21
579.2856190998129478
 31
0.0
  0
LINE
  5
A0
100
AcDbEntity
  8
0
 62
256
370
-1
 48
1.0
  6
BYLAYER
100
AcDbLine
 10
149.6853095892433885
 20
579.2856190998129478
 30
0.0
 11
149.6853095892433885
 21
569.945619099813257
 31
0.0
  0
LINE
  5
A1
100
AcDbEntity
  8
0
 62
256
370
-1
 48
1.0
  6
BYLAYER
100
AcDbLine
 10
112.3253095892436022
 20
569.945619099813257
 30
0.0
 11
149.6853095892436158
 21
569.945619099813257
 31
0.0
  0
LINE
  5
A2
100
AcDbEntity
  8
0
 62
256
370
-1
 48
1.0
  6
BYLAYER
100
AcDbLine
 10
149.6853095892436158
 20
569.945619099813257
 30
0.0
 11
149.6853095892436158
 21
579.2856190998129478
 31
0.0
  0
LINE
  5
A3
100
AcDbEntity
  8
0
 62
256
370
-1
 48
1.0
  6
BYLAYER
100
AcDbLine
 10
112.3253095892436022
 20
579.2856190998129478
 30
0.0
 11
112.3253095892436022
 21
569.945619099813257
 31
0.0
  0
LINE
  5
A4
100
AcDbEntity
  8
0
 62
256
370
-1
 48
1.0
  6
BYLAYER
100
AcDbLine
 10
112.3253095892433748
 20
569.945619099813257
 30
0.0
 11
112.3253095892433748
 21
579.2856190998129478
 31
0.0
  0
LINE
  5
A5
100
AcDbEntity
  8
0
 62
256
370
-1
 48
1.0
  6
BYLAYER
100
AcDbLine
 10
112.3253095892433748
 20
579.2856190998129478
 30
0.0
 11
74.9653095892433612
 21
579.2856190998129478
 31
0.0
  0
LINE
  5
A6
100
AcDbEntity
  8
0
 62
256
370
-1
 48
1.0
  6
BYLAYER
100
AcDbLine
 10
74.9653095892433612
 20
579.2856190998129478
 30
0.0
 11
74.9653095892433612
 21
569.945619099813257
 31
0.0
  0
LINE
  5
A7
100
AcDbEntity
  8
0
 62
256
370
-1
 48
1.0
  6
BYLAYER
100
AcDbLine
 10
14.2474677252430411
 20
569.945619099813257
 30
0.0
 11
74.9653095892433612
 21
569.945619099813257
 31
0.0
  0
LINE
  5
A8
100
AcDbEntity
  8
0
 62
256
370
-1
 48
1.0
  6
BYLAYER
100
AcDbLine
 10
74.9653095892433612
 20
569.945619099813257
 30
0.0
 11
74.9653095892433612
 21
579.2856190998129478
 31
0.0
  0
LINE
  5
A9
100
AcDbEntity
  8
0
 62
256
370
-1
 48
1.0
  6
BYLAYER
100
AcDbLine
 10
299.1253095892432157
 20
273.8676190998142488
 30
0.0
 11
299.1253095892432157
 21
18.8699353718132556
 31
0.0
  0
LINE
  5
AA
100
AcDbEntity
  8
0
 62
256
370
-1
 48
1.0
  6
BYLAYER
100
AcDbLine
 10
14.2474677252428137
 20
471.8756190998140596
 30
0.0
 11
23.5874677252429592
 21
471.8756190998140596
 31
0.0
  0
LINE
  5
AB
100
AcDbEntity
  8
0
 62
256
370
-1
 48
1.0
  6
BYLAYER
100
AcDbLine
 10
23.5874677252428455
 20
466.2324125998150635
 30
0.0
 11
159.0174677252427955
 21
466.2324125998150635
 31
0.0
  0
LINE
  5
AC
100
AcDbEntity
  8
0
 62
256
370
-1
 48
1.0
  6
BYLAYER
100
AcDbLine
 10
159.0174677252427955
 20
471.7280255998142025
 30
0.0
 11
23.5874677252429592
 21
471.7280255998142025
 31
0.0
  0
LINE
  5
AD
100
AcDbEntity
  8
0
 62
256
370
-1
 48
1.0
  6
BYLAYER
100
AcDbLine
 10
159.0174677252431366
 20
471.7280255998142025
 30
0.0
 11
159.0174677252430229
 21
466.2324125998150635
 31
0.0
  0
LINE
  5
AE
100
AcDbEntity
  8
0
 62
256
370
-1
 48
1.0
  6
BYLAYER
100
AcDbLine
 10
299.1253095892432157
 20
569.9456190998141665
 30
0.0
 11
299.1253095892432157
 21
533.3133165506030764
 31
0.0
  0
LINE
  5
AF
100
AcDbEntity
  8
0
 62
256
370
-1
 48
1.0
  6
BYLAYER
100
AcDbLine
 10
299.1253095892429883
 20
352.3236190998152892
 30
0.0
 11
299.1253095892432157
 21
364.4656190998142051
 31
0.0
  0
LINE
  5
B0
100
AcDbEntity
  8
0
 62
256
370
-1
 48
1.0
  6
BYLAYER
100
AcDbLine
 10
261.7653095892430883
 20
364.878425599814193
 30
0.0
 11
261.765309589243202
 21
359.382812599815054
 31
0.0
  0
LINE
  5
B1
100
AcDbEntity
  8
0
 62
256
370
-1
 48
1.0
  6
BYLAYER
100
AcDbLine
 10
261.7653095892430315
 20
266.8084255998140293
 30
0.0
 11
261.80782742703542
 21
261.4597381181582136
 31
0.0
  0
LINE
  5
B2
100
AcDbEntity
  8
0
 62
256
370
-1
 48
1.0
  6
BYLAYER
100
AcDbLine
 10
224.4053095892429042
 20
359.382812599815054
 30
0.0
 11
261.7653095892430315
 21
359.382812599815054
 31
0.0
  0
LINE
  5
B3
100
AcDbEntity
  8
0
 62
256
370
-1
 48
1.0
  6
BYLAYER
100
AcDbLine
 10
224.44782742703552
 20
261.4597381181582136
 30
0.0
 11
261.80782742703542
 21
261.4597381181582136
 31
0.0
  0
LINE
  5
B4
100
AcDbEntity
  8
0
 62
256
370
-1
 48
1.0
  6
BYLAYER
100
AcDbLine
 10
261.7653095892430315
 20
364.878425599814193
 30
0.0
 11
224.4053095892429042
 21
364.878425599814193
 31
0.0
  0
LINE
  5
B5
100
AcDbEntity
  8
0
 62
256
370
-1
 48
1.0
  6
BYLAYER
100
AcDbLine
 10
261.7653095892430315
 20
266.8084255998140293
 30
0.0
 11
224.4053095892429042
 21
266.8084255998140293
 31
0.0
  0
LINE
  5
B6
100
AcDbEntity
  8
0
 62
256
370
-1
 48
1.0
  6
BYLAYER
100
AcDbLine
 10
224.4053095892431884
 20
359.382812599815054
 30
0.0
 11
224.4053095892431884
 21
364.878425599814193
 31
0.0
  0
LINE
  5
B7
100
AcDbEntity
  8
0
 62
256
370
-1
 48
1.0
  6
BYLAYER
100
AcDbLine
 10
224.44782742703552
 20
261.4597381181582136
 30
0.0
 11
224.4053095892429042
 21
266.8084255998140293
 31
0.0
  0
LINE
  5
B8
100
AcDbEntity
  8
0
 62
256
370
-1
 48
1.0
  6
BYLAYER
100
AcDbLine
 10
149.7278274270355496
 20
359.5297381181601963
 30
0.0
 11
187.0878274270354495
 21
359.5297381181601963
 31
0.0
  0
LINE
  5
B9
100
AcDbEntity
  8
0
 62
256
370
-1
 48
1.0
  6
BYLAYER
100
AcDbLine
 10
149.7278274270355496
 20
261.4597381181591231
 30
0.0
 11
187.0878274270354495
 21
261.4597381181591231
 31
0.0
  0
LINE
  5
BA
100
AcDbEntity
  8
0
 62
256
370
-1
 48
1.0
  6
BYLAYER
100
AcDbLine
 10
187.0878274270354495
 20
359.5297381181601963
 30
0.0
 11
187.0453095892429474
 21
364.8784255998151025
 31
0.0
  0
LINE
  5
BB
100
AcDbEntity
  8
0
 62
256
370
-1
 48
1.0
  6
BYLAYER
100
AcDbLine
 10
187.0866856810963554
 20
261.4597381181591231
 30
0.0
 11
187.0453095892429474
 21
266.8084255998153935
 31
0.0
  0
LINE
  5
BC
100
AcDbEntity
  8
0
 62
256
370
-1
 48
1.0
  6
BYLAYER
100
AcDbLine
 10
187.0453095892429474
 20
364.8784255998151025
 30
0.0
 11
149.6853095892429337
 21
364.8784255998151025
 31
0.0
  0
LINE
  5
BD
100
AcDbEntity
  8
0
 62
256
370
-1
 48
1.0
  6
BYLAYER
100
AcDbLine
 10
187.0453095892429474
 20
266.8084255998153935
 30
0.0
 11
149.6853095892429337
 21
266.8084255998153935
 31
0.0
  0
LINE
  5
BE
100
AcDbEntity
  8
0
 62
256
370
-1
 48
1.0
  6
BYLAYER
100
AcDbLine
 10
149.6864214772755304
 20
364.878425599816012
 30
0.0
 11
149.7278274270355496
 21
359.5297381181601963
 31
0.0
  0
LINE
  5
BF
100
AcDbEntity
  8
0
 62
256
370
-1
 48
1.0
  6
BYLAYER
100
AcDbLine
 10
149.6864214772755304
 20
266.8084255998153935
 30
0.0
 11
149.7278274270355496
 21
261.4597381181591231
 31
0.0
  0
LINE
  5
C0
100
AcDbEntity
  8
0
 62
256
370
-1
 48
1.0
  6
BYLAYER
100
AcDbLine
 10
183.3093095892429574
 20
352.3236190998152892
 30
0.0
 11
299.1253095892429883
 21
352.3236190998152892
 31
0.0
  0
LINE
  5
C1
100
AcDbEntity
  8
0
 62
256
370
-1
 48
1.0
  6
BYLAYER
100
AcDbLine
 10
299.1253095892432157
 20
361.6636190998154348
 30
0.0
 11
299.125309589243102
 21
472.4360190998143594
 31
0.0
  0
LINE
  5
C2
100
AcDbEntity
  8
0
 62
256
370
-1
 48
1.0
  6
BYLAYER
100
AcDbLine
 10
299.1253095892429883
 20
273.8676190998142488
 30
0.0
 11
183.3093095892429574
 21
273.8676190998142488
 31
0.0
  0
LINE
  5
C3
100
AcDbEntity
  8
0
 62
256
370
-1
 48
1.0
  6
BYLAYER
100
AcDbLine
 10
183.3093095892429574
 20
273.8676190998142488
 30
0.0
 11
183.3093095892429574
 21
352.3236190998152892
 31
0.0
  0
LINE
  5
C4
100
AcDbEntity
  8
0
 62
256
370
-1
 48
1.0
  6
BYLAYER
100
AcDbLine
 10
299.1253095892433294
 20
466.6452190998150513
 30
0.0
 11
299.1253095892432157
 21
364.4656190998142051
 31
0.0
  0
LINE
  5
C5
100
AcDbEntity
  8
0
 62
256
370
-1
 48
1.0
  6
BYLAYER
100
AcDbLine
 10
294.4553095892431998
 20
495.9533165506030059
 30
0.0
 11
299.1253095892432157
 21
495.9533165506030059
 31
0.0
  0
LINE
  5
C6
100
AcDbEntity
  8
0
 62
256
370
-1
 48
1.0
  6
BYLAYER
100
AcDbLine
 10
299.1253095892433294
 20
495.9533165506030059
 30
0.0
 11
299.125309589243102
 21
472.4360190998143594
 31
0.0
  0
LINE
  5
C7
100
AcDbEntity
  8
0
 62
256
370
-1
 48
1.0
  6
BYLAYER
100
AcDbLine
 10
299.1253095892432157
 20
533.3133165506030764
 30
0.0
 11
294.4553095892431998
 21
533.3133165506030764
 31
0.0
  0
LINE
  5
C8
100
AcDbEntity
  8
0
 62
256
370
-1
 48
1.0
  6
BYLAYER
100
AcDbLine
 10
294.4553095892431998
 20
533.3133165506030764
 30
0.0
 11
294.4553095892431998
 21
495.9533165506030059
 31
0.0
  0
LINE
  5
C9
100
AcDbEntity
  8
0
 62
256
370
-1
 48
1.0
  6
BYLAYER
100
AcDbLine
 10
14.2474677252430411
 20
495.9533165506030059
 30
0.0
 11
18.9174677252430001
 21
495.9533165506030059
 31
0.0
  0
LINE
  5
CA
100
AcDbEntity
  8
0
 62
256
370
-1
 48
1.0
  6
BYLAYER
100
AcDbLine
 10
18.9174677252430001
 20
495.9533165506030059
 30
0.0
 11
18.9174677252430001
 21
533.3133165506030764
 31
0.0
  0
LINE
  5
CB
100
AcDbEntity
  8
0
 62
256
370
-1
 48
1.0
  6
BYLAYER
100
AcDbLine
 10
18.9174677252430001
 20
533.3133165506030764
 30
0.0
 11
14.2474677252430411
 21
533.3133165506030764
 31
0.0
  0
LINE
  5
CC
100
AcDbEntity
  8
0
 62
256
370
-1
 48
1.0
  6
BYLAYER
100
AcDbLine
 10
23.5874677252429592
 20
471.8756190998140596
 30
0.0
 11
23.5874677252429592
 21
471.7280255998142025
 31
0.0
  0
ENDSEC
  0
SECTION
  2
OBJECTS
  0
DICTIONARY
  5
C
100
AcDbDictionary
280
0
281
1
  3
ACAD_GROUP
350
D
  3
ACAD_LAYOUT
350
1A
  3
ACAD_MLINESTYLE
350
17
  3
ACAD_PLOTSETTINGS
350
19
  3
ACAD_PLOTSTYLENAME
350
E
  3
AcDbVariableDictionary
350
CD
  3
QCAD_OBJECTS
350
CE
  0
DICTIONARY
  5
D
100
AcDbDictionary
280
0
281
1
  0
ACDBDICTIONARYWDFLT
  5
E
100
AcDbDictionary
281
1
  3
Normal
350
F
100
AcDbDictionaryWithDefault
340
F
  0
ACDBPLACEHOLDER
  5
F
  0
DICTIONARY
  5
17
100
AcDbDictionary
280
0
281
1
  3
Standard
350
18
  0
MLINESTYLE
  5
18
100
AcDbMlineStyle
  2
STANDARD
 70
0
  3

 62
256
 51
90.0
 52
90.0
 71
2
 49
0.5
 62
256
  6
BYLAYER
 49
-0.5
 62
256
  6
BYLAYER
  0
DICTIONARY
  5
19
100
AcDbDictionary
280
0
281
1
  0
DICTIONARY
  5
1A
100
AcDbDictionary
281
1
  3
Layout1
350
1E
  3
Layout2
350
26
  3
Model
350
22
  0
LAYOUT
  5
1E
100
AcDbPlotSettings
  1

  2
none_device
  4

  6

 40
0.0
 41
0.0
 42
0.0
 43
0.0
 44
0.0
 45
0.0
 46
0.0
 47
0.0
 48
0.0
 49
0.0
140
0.0
141
0.0
142
1.0
143
1.0
 70
688
 72
0
 73
0
 74
5
  7

 75
16
147
1.0
148
0.0
149
0.0
100
AcDbLayout
  1
Layout1
 70
1
 71
1
 10
0.0
 20
0.0
 11
420.0
 21
297.0
 12
0.0
 22
0.0
 32
0.0
 14
100000000000000000000.0
 24
100000000000000000000.0
 34
100000000000000000000.0
 15
-100000000000000000000.0
 25
-100000000000000000000.0
 35
-100000000000000000000.0
146
0.0
 13
0.0
 23
0.0
 33
0.0
 16
1.0
 26
0.0
 36
0.0
 17
0.0
 27
1.0
 37
0.0
 76
0
330
1B
  0
LAYOUT
  5
22
100
AcDbPlotSettings
  1

  2
none_device
  4

  6

 40
0.0
 41
0.0
 42
0.0
 43
0.0
 44
0.0
 45
0.0
 46
0.0
 47
0.0
 48
0.0
 49
0.0
140
0.0
141
0.0
142
1.0
143
1.0
 70
1712
 72
0
 73
0
 74
0
  7

 75
0
147
1.0
148
0.0
149
0.0
100
AcDbLayout
  1
Model
 70
1
 71
0
 10
0.0
 20
0.0
 11
12.0
 21
9.0
 12
0.0
 22
0.0
 32
0.0
 14
0.0
 24
0.0
 34
0.0
 15
0.0
 25
0.0
 35
0.0
146
0.0
 13
0.0
 23
0.0
 33
0.0
 16
1.0
 26
0.0
 36
0.0
 17
0.0
 27
1.0
 37
0.0
 76
0
330
1F
  0
LAYOUT
  5
26
100
AcDbPlotSettings
  1

  2
none_device
  4

  6

 40
0.0
 41
0.0
 42
0.0
 43
0.0
 44
0.0
 45
0.0
 46
0.0
 47
0.0
 48
0.0
 49
0.0
140
0.0
141
0.0
142
1.0
143
1.0
 70
688
 72
0
 73
0
 74
5
  7

 75
16
147
1.0
148
0.0
149
0.0
100
AcDbLayout
  1
Layout2
 70
1
 71
2
 10
0.0
 20
0.0
 11
12.0
 21
9.0
 12
0.0
 22
0.0
 32
0.0
 14
0.0
 24
0.0
 34
0.0
 15
0.0
 25
0.0
 35
0.0
146
0.0
 13
0.0
 23
0.0
 33
0.0
 16
1.0
 26
0.0
 36
0.0
 17
0.0
 27
1.0
 37
0.0
 76
0
330
23
  0
DICTIONARY
  5
CD
100
AcDbDictionary
281
1
  3
DIMASSOC
350
D0
  3
HIDETEXT
350
CF
  0
DICTIONARYVAR
  5
CF
100
DictionaryVariables
280
0
  1
2
  0
DICTIONARYVAR
  5
D0
100
DictionaryVariables
280
0
  1
1
  0
DICTIONARY
  5
CE
100
AcDbDictionary
281
1
  3
ColorSettings/BackgroundColor
350
D1
  3
ColorSettings/ColorMode
350
D2
  3
Grid/DisplayGrid00
350
D3
  3
Grid/DisplayGrid01
350
D4
  3
Grid/DisplayGrid02
350
D5
  3
Grid/DisplayGrid03
350
D6
  3
Grid/GridSpacingX00
350
D7
  3
Grid/GridSpacingX01
350
D8
  3
Grid/GridSpacingX02
350
D9
  3
Grid/GridSpacingX03
350
DA
  3
Grid/GridSpacingY00
350
DB
  3
Grid/GridSpacingY01
350
DC
  3
Grid/GridSpacingY02
350
DD
  3
Grid/GridSpacingY03
350
DE
  3
Grid/IsometricGrid00
350
DF
  3
Grid/IsometricGrid01
350
E0
  3
Grid/IsometricGrid02
350
E1
  3
Grid/IsometricGrid03
350
E2
  3
Grid/IsometricProjection00
350
E3
  3
Grid/IsometricProjection01
350
E4
  3
Grid/IsometricProjection02
350
E5
  3
Grid/IsometricProjection03
350
E6
  3
Grid/MetaGridSpacingX00
350
E7
  3
Grid/MetaGridSpacingX01
350
E8
  3
Grid/MetaGridSpacingX02
350
E9
  3
Grid/MetaGridSpacingX03
350
EA
  3
Grid/MetaGridSpacingY00
350
EB
  3
Grid/MetaGridSpacingY01
350
EC
  3
Grid/MetaGridSpacingY02
350
ED
  3
Grid/MetaGridSpacingY03
350
EE
  3
MultiPageSettings/Columns
350
EF
  3
MultiPageSettings/GlueMarginsBottom
350
F0
  3
MultiPageSettings/GlueMarginsLeft
350
F1
  3
MultiPageSettings/GlueMarginsRight
350
F2
  3
MultiPageSettings/GlueMarginsTop
350
F3
  3
MultiPageSettings/PrintCropMarks
350
F4
  3
MultiPageSettings/Rows
350
F5
  3
PageSettings/OffsetX
350
F6
  3
PageSettings/OffsetY
350
F7
  3
PageSettings/PageOrientation
350
F8
  3
PageSettings/PaperHeight
350
F9
  3
PageSettings/PaperWidth
350
FA
  3
PageSettings/Scale
350
FB
  3
PageSettings/ShowPaperBorders
350
FC
  3
UnitSettings/PaperUnit
350
FD
  3
ViewportCenter
350
FE
  3
ViewportHeight
350
FF
  3
ViewportWidth
350
100
  0
XRECORD
  5
D1
330
CE
100
AcDbXrecord
280
1
1000
\U+0411\U+0435\U+043b\U+044b\U+0439
  0
XRECORD
  5
D2
330
CE
100
AcDbXrecord
280
1
1000
FullColor
  0
XRECORD
  5
D3
330
CE
100
AcDbXrecord
280
1
290
1
  0
XRECORD
  5
D4
330
CE
100
AcDbXrecord
280
1
290
1
  0
XRECORD
  5
D5
330
CE
100
AcDbXrecord
280
1
290
1
  0
XRECORD
  5
D6
330
CE
100
AcDbXrecord
280
1
290
1
  0
XRECORD
  5
D7
330
CE
100
AcDbXrecord
280
1
1000
auto
  0
XRECORD
  5
D8
330
CE
100
AcDbXrecord
280
1
1000
auto
  0
XRECORD
  5
D9
330
CE
100
AcDbXrecord
280
1
1000
auto
  0
XRECORD
  5
DA
330
CE
100
AcDbXrecord
280
1
1000
auto
  0
XRECORD
  5
DB
330
CE
100
AcDbXrecord
280
1
1000
auto
  0
XRECORD
  5
DC
330
CE
100
AcDbXrecord
280
1
1000
auto
  0
XRECORD
  5
DD
330
CE
100
AcDbXrecord
280
1
1000
auto
  0
XRECORD
  5
DE
330
CE
100
AcDbXrecord
280
1
1000
auto
  0
XRECORD
  5
DF
330
CE
100
AcDbXrecord
280
1
290
0
  0
XRECORD
  5
E0
330
CE
100
AcDbXrecord
280
1
290
0
  0
XRECORD
  5
E1
330
CE
100
AcDbXrecord
280
1
290
0
  0
XRECORD
  5
E2
330
CE
100
AcDbXrecord
280
1
290
0
  0
XRECORD
  5
E3
330
CE
100
AcDbXrecord
280
1
 90
65537
  0
XRECORD
  5
E4
330
CE
100
AcDbXrecord
280
1
 90
65537
  0
XRECORD
  5
E5
330
CE
100
AcDbXrecord
280
1
 90
65537
  0
XRECORD
  5
E6
330
CE
100
AcDbXrecord
280
1
 90
65537
  0
XRECORD
  5
E7
330
CE
100
AcDbXrecord
280
1
1000
auto
  0
XRECORD
  5
E8
330
CE
100
AcDbXrecord
280
1
1000
auto
  0
XRECORD
  5
E9
330
CE
100
AcDbXrecord
280
1
1000
auto
  0
XRECORD
  5
EA
330
CE
100
AcDbXrecord
280
1
1000
auto
  0
XRECORD
  5
EB
330
CE
100
AcDbXrecord
280
1
1000
auto
  0
XRECORD
  5
EC
330
CE
100
AcDbXrecord
280
1
1000
auto
  0
XRECORD
  5
ED
330
CE
100
AcDbXrecord
280
1
1000
auto
  0
XRECORD
  5
EE
330
CE
100
AcDbXrecord
280
1
1000
auto
  0
XRECORD
  5
EF
330
CE
100
AcDbXrecord
280
1
 90
1
  0
XRECORD
  5
F0
330
CE
100
AcDbXrecord
280
1
 40
10.0
  0
XRECORD
  5
F1
330
CE
100
AcDbXrecord
280
1
 40
10.0
  0
XRECORD
  5
F2
330
CE
100
AcDbXrecord
280
1
 40
10.0
  0
XRECORD
  5
F3
330
CE
100
AcDbXrecord
280
1
 40
10.0
  0
XRECORD
  5
F4
330
CE
100
AcDbXrecord
280
1
290
0
  0
XRECORD
  5
F5
330
CE
100
AcDbXrecord
280
1
 90
1
  0
XRECORD
  5
F6
330
CE
100
AcDbXrecord
280
1
 40
0.0
  0
XRECORD
  5
F7
330
CE
100
AcDbXrecord
280
1
 40
0.0
  0
XRECORD
  5
F8
330
CE
100
AcDbXrecord
280
1
1000
Portrait
  0
XRECORD
  5
F9
330
CE
100
AcDbXrecord
280
1
 40
297.0
  0
XRECORD
  5
FA
330
CE
100
AcDbXrecord
280
1
 40
210.0
  0
XRECORD
  5
FB
330
CE
100
AcDbXrecord
280
1
1000
1:1
  0
XRECORD
  5
FC
330
CE
100
AcDbXrecord
280
1
290
1
  0
XRECORD
  5
FD
330
CE
100
AcDbXrecord
280
1
 90
4
  0
XRECORD
  5
FF
330
CE
100
AcDbXrecord
280
1
 40
1076.0263867691107862
  0
XRECORD
  5
100
330
CE
100
AcDbXrecord
280
1
 40
1959.0336072518039146
  0
ENDSEC
  0
EOF
