999
dxflib 3.17.0.0
  0
SECTION
  2
HEADER
  9
$ACADVER
  1
AC1015
  9
$HANDSEED
  5
FFFF
  9
$DIMADEC
 70
0
  9
$DIMASZ
 40
25.0
  9
$DIMAUNIT
 70
0
  9
$DIMAZIN
 70
2
  9
$DIMDEC
 70
4
  9
$DIMDLI
 40
5.0
  9
$DIMDSEP
 70
46
  9
$DIMEXE
 40
12.5
  9
$DIMEXO
 40
6.25
  9
$DIMGAP
 40
6.25
  9
$DIMLUNIT
 70
2
  9
$DIMSCALE
 40
1.0
  9
$DIMTSZ
 40
0.0
  9
$DIMTXT
 40
25.0
  9
$DIMZIN
 70
8
  9
$DWGCODEPAGE
  3
ANSI_1252
  9
$INSUNITS
 70
4
  9
$LTSCALE
 40
1.0
  9
$MAXACTVP
 70
64
  9
$MEASUREMENT
 70
1
  9
$PDMODE
 70
0
  9
$PDSIZE
 40
0.0
  0
ENDSEC
  0
SECTION
  2
TABLES
  0
TABLE
  2
VPORT
  5
8
100
AcDbSymbolTable
 70
1
  0
VPORT
  5
30
100
AcDbSymbolTableRecord
100
AcDbViewportTableRecord
  2
*Active
 70
0
 10
0.0
 20
0.0
 11
1.0
 21
1.0
 12
286.3055555555554861
 22
148.5
 13
0.0
 23
0.0
 14
10.0
 24
10.0
 15
10.0
 25
10.0
 16
0.0
 26
0.0
 36
1.0
 17
0.0
 27
0.0
 37
0.0
 40
297.0
 41
1.92798353909465
 42
50.0
 43
0.0
 44
0.0
 50
0.0
 51
0.0
 71
0
 72
100
 73
1
 74
3
 75
1
 76
1
 77
0
 78
0
281
0
 65
1
110
0.0
120
0.0
130
0.0
111
1.0
121
0.0
131
0.0
112
0.0
122
1.0
132
0.0
 79
0
146
0.0
  0
ENDTAB
  0
TABLE
  2
LTYPE
  5
5
100
AcDbSymbolTable
 70
41
  0
LTYPE
  5
16
100
AcDbSymbolTableRecord
100
AcDbLinetypeTableRecord
  2
Continuous
 70
0
  3
Solid line
 72
65
 73
0
 40
0.0
  0
LTYPE
  5
31
100
AcDbSymbolTableRecord
100
AcDbLinetypeTableRecord
  2
ACAD_ISO14W100
 70
0
  3
ISO dash triple-dot __ . . . __ . . . __ . . . _
 72
65
 73
8
 40
24.0
 49
12.0
 74
0
 49
-3.0
 74
0
 49
0.0
 74
0
 49
-3.0
 74
0
 49
0.0
 74
0
 49
-3.0
 74
0
 49
0.0
 74
0
 49
-3.0
 74
0
  0
LTYPE
  5
32
100
AcDbSymbolTableRecord
100
AcDbLinetypeTableRecord
  2
CENTER2
 70
0
  3
Center (.5x) ___ _ ___ _ ___ _ ___ _ ___ _ ___
 72
65
 73
4
 40
28.5750000000000028
 49
19.0500000000000007
 74
0
 49
-3.1749999999999998
 74
0
 49
3.1749999999999998
 74
0
 49
-3.1749999999999998
 74
0
  0
LTYPE
  5
33
100
AcDbSymbolTableRecord
100
AcDbLinetypeTableRecord
  2
BORDER2
 70
0
  3
Border (.5x) __.__.__.__.__.__.__.__.__.__.__.
 72
65
 73
6
 40
22.2249999999999979
 49
6.3499999999999996
 74
0
 49
-3.1749999999999998
 74
0
 49
6.3499999999999996
 74
0
 49
-3.1749999999999998
 74
0
 49
0.0
 74
0
 49
-3.1749999999999998
 74
0
  0
LTYPE
  5
34
100
AcDbSymbolTableRecord
100
AcDbLinetypeTableRecord
  2
ACAD_ISO13W100
 70
0
  3
ISO double-dash double-dot __ __ . . __ __ . . _
 72
65
 73
8
 40
36.0
 49
12.0
 74
0
 49
-3.0
 74
0
 49
12.0
 74
0
 49
-3.0
 74
0
 49
0.0
 74
0
 49
-3.0
 74
0
 49
0.0
 74
0
 49
-3.0
 74
0
  0
LTYPE
  5
35
100
AcDbSymbolTableRecord
100
AcDbLinetypeTableRecord
  2
HIDDEN2
 70
0
  3
Hidden (.5x) _ _ _ _ _ _ _ _ _ _ _ _ _ _ _ _ _ 
 72
65
 73
2
 40
4.7624999999999993
 49
3.1749999999999998
 74
0
 49
-1.5874999999999999
 74
0
  0
LTYPE
  5
36
100
AcDbSymbolTableRecord
100
AcDbLinetypeTableRecord
  2
ACAD_ISO02W100
 70
0
  3
ISO dash __ __ __ __ __ __ __ __ __ __ __ __ __
 72
65
 73
2
 40
15.0
 49
12.0
 74
0
 49
-3.0
 74
0
  0
LTYPE
  5
37
100
AcDbSymbolTableRecord
100
AcDbLinetypeTableRecord
  2
ACAD_ISO15W100
 70
0
  3
ISO double-dash triple-dot __ __ . . . __ __ . .
 72
65
 73
10
 40
39.0
 49
12.0
 74
0
 49
-3.0
 74
0
 49
12.0
 74
0
 49
-3.0
 74
0
 49
0.0
 74
0
 49
-3.0
 74
0
 49
0.0
 74
0
 49
-3.0
 74
0
 49
0.0
 74
0
 49
-3.0
 74
0
  0
LTYPE
  5
38
100
AcDbSymbolTableRecord
100
AcDbLinetypeTableRecord
  2
PHANTOMX2
 70
0
  3
Phantom (2x) ____________    ____    ____   _
 72
65
 73
6
 40
127.0000000000000142
 49
63.5
 74
0
 49
-12.6999999999999993
 74
0
 49
12.6999999999999993
 74
0
 49
-12.6999999999999993
 74
0
 49
12.6999999999999993
 74
0
 49
-12.6999999999999993
 74
0
  0
LTYPE
  5
39
100
AcDbSymbolTableRecord
100
AcDbLinetypeTableRecord
  2
DASHED2
 70
0
  3
Dashed (.5x) _ _ _ _ _ _ _ _ _ _ _ _ _ _ _ _ _ 
 72
65
 73
2
 40
9.5249999999999986
 49
6.3499999999999996
 74
0
 49
-3.1749999999999998
 74
0
  0
LTYPE
  5
14
100
AcDbSymbolTableRecord
100
AcDbLinetypeTableRecord
  2
BYBLOCK
 70
0
  3

 72
65
 73
0
 40
0.0
  0
LTYPE
  5
15
100
AcDbSymbolTableRecord
100
AcDbLinetypeTableRecord
  2
BYLAYER
 70
0
  3

 72
65
 73
0
 40
0.0
  0
LTYPE
  5
3A
100
AcDbSymbolTableRecord
100
AcDbLinetypeTableRecord
  2
CENTER
 70
0
  3
Center ____ _ ____ _ ____ _ ____ _ ____ _ ____
 72
65
 73
4
 40
50.8000000000000043
 49
31.75
 74
0
 49
-6.3499999999999996
 74
0
 49
6.3499999999999996
 74
0
 49
-6.3499999999999996
 74
0
  0
LTYPE
  5
3B
100
AcDbSymbolTableRecord
100
AcDbLinetypeTableRecord
  2
HIDDEN
 70
0
  3
Hidden __ __ __ __ __ __ __ __ __ __ __ __ __ __
 72
65
 73
2
 40
9.5249999999999986
 49
6.3499999999999996
 74
0
 49
-3.1749999999999998
 74
0
  0
LTYPE
  5
3C
100
AcDbSymbolTableRecord
100
AcDbLinetypeTableRecord
  2
DOTX2
 70
0
  3
Dot (2x) .  .  .  .  .  .  .  .  .  .  .  .  .  .
 72
65
 73
2
 40
12.6999999999999993
 49
0.0
 74
0
 49
-12.6999999999999993
 74
0
  0
LTYPE
  5
3D
100
AcDbSymbolTableRecord
100
AcDbLinetypeTableRecord
  2
DOT2
 70
0
  3
Dot (.5x) ........................................
 72
65
 73
2
 40
3.1749999999999998
 49
0.0
 74
0
 49
-3.1749999999999998
 74
0
  0
LTYPE
  5
3E
100
AcDbSymbolTableRecord
100
AcDbLinetypeTableRecord
  2
DASHDOT
 70
0
  3
Dash dot __ . __ . __ . __ . __ . __ . __ . __
 72
65
 73
4
 40
25.3999999999999986
 49
12.6999999999999993
 74
0
 49
-6.3499999999999996
 74
0
 49
0.0
 74
0
 49
-6.3499999999999996
 74
0
  0
LTYPE
  5
3F
100
AcDbSymbolTableRecord
100
AcDbLinetypeTableRecord
  2
DASHDOTX2
 70
0
  3
Dash dot (2x) ____  .  ____  .  ____  .  ___
 72
65
 73
4
 40
50.7999999999999972
 49
25.3999999999999986
 74
0
 49
-12.6999999999999993
 74
0
 49
0.0
 74
0
 49
-12.6999999999999993
 74
0
  0
LTYPE
  5
40
100
AcDbSymbolTableRecord
100
AcDbLinetypeTableRecord
  2
DIVIDEX2
 70
0
  3
Divide (2x) ________  .  .  ________  .  .  _
 72
65
 73
6
 40
63.5
 49
25.3999999999999986
 74
0
 49
-12.6999999999999993
 74
0
 49
0.0
 74
0
 49
-12.6999999999999993
 74
0
 49
0.0
 74
0
 49
-12.6999999999999993
 74
0
  0
LTYPE
  5
41
100
AcDbSymbolTableRecord
100
AcDbLinetypeTableRecord
  2
ACAD_ISO06W100
 70
0
  3
ISO long-dash triple-dot ____ ... ____ ... ____
 72
65
 73
8
 40
36.0
 49
24.0
 74
0
 49
-3.0
 74
0
 49
0.0
 74
0
 49
-3.0
 74
0
 49
0.0
 74
0
 49
-3.0
 74
0
 49
0.0
 74
0
 49
-3.0
 74
0
  0
LTYPE
  5
42
100
AcDbSymbolTableRecord
100
AcDbLinetypeTableRecord
  2
PHANTOM2
 70
0
  3
Phantom (.5x) ___ _ _ ___ _ _ ___ _ _ ___ _ _
 72
65
 73
6
 40
31.7500000000000036
 49
15.875
 74
0
 49
-3.1749999999999998
 74
0
 49
3.1749999999999998
 74
0
 49
-3.1749999999999998
 74
0
 49
3.1749999999999998
 74
0
 49
-3.1749999999999998
 74
0
  0
LTYPE
  5
43
100
AcDbSymbolTableRecord
100
AcDbLinetypeTableRecord
  2
ACAD_ISO03W100
 70
0
  3
ISO dash space __    __    __    __    __    __
 72
65
 73
2
 40
30.0
 49
12.0
 74
0
 49
-18.0
 74
0
  0
LTYPE
  5
44
100
AcDbSymbolTableRecord
100
AcDbLinetypeTableRecord
  2
BORDERX2
 70
0
  3
Border (2x) ____  ____  .  ____  ____  .  ___
 72
65
 73
6
 40
88.8999999999999915
 49
25.3999999999999986
 74
0
 49
-12.6999999999999993
 74
0
 49
25.3999999999999986
 74
0
 49
-12.6999999999999993
 74
0
 49
0.0
 74
0
 49
-12.6999999999999993
 74
0
  0
LTYPE
  5
45
100
AcDbSymbolTableRecord
100
AcDbLinetypeTableRecord
  2
ACAD_ISO10W100
 70
0
  3
ISO dash dot __ . __ . __ . __ . __ . __ . __ . 
 72
65
 73
4
 40
18.0
 49
12.0
 74
0
 49
-3.0
 74
0
 49
0.0
 74
0
 49
-3.0
 74
0
  0
LTYPE
  5
46
100
AcDbSymbolTableRecord
100
AcDbLinetypeTableRecord
  2
BORDER
 70
0
  3
Border __ __ . __ __ . __ __ . __ __ . __ __ .
 72
65
 73
6
 40
44.4499999999999957
 49
12.6999999999999993
 74
0
 49
-6.3499999999999996
 74
0
 49
12.6999999999999993
 74
0
 49
-6.3499999999999996
 74
0
 49
0.0
 74
0
 49
-6.3499999999999996
 74
0
  0
LTYPE
  5
47
100
AcDbSymbolTableRecord
100
AcDbLinetypeTableRecord
  2
DOT
 70
0
  3
Dot . . . . . . . . . . . . . . . . . . . . . . . .
 72
65
 73
2
 40
6.3499999999999996
 49
0.0
 74
0
 49
-6.3499999999999996
 74
0
  0
LTYPE
  5
48
100
AcDbSymbolTableRecord
100
AcDbLinetypeTableRecord
  2
DIVIDE2
 70
0
  3
Divide (.5x) __..__..__..__..__..__..__..__.._
 72
65
 73
6
 40
15.875
 49
6.3499999999999996
 74
0
 49
-3.1749999999999998
 74
0
 49
0.0
 74
0
 49
-3.1749999999999998
 74
0
 49
0.0
 74
0
 49
-3.1749999999999998
 74
0
  0
LTYPE
  5
49
100
AcDbSymbolTableRecord
100
AcDbLinetypeTableRecord
  2
PHANTOM
 70
0
  3
Phantom ______  __  __  ______  __  __  ______ 
 72
65
 73
6
 40
63.5000000000000071
 49
31.75
 74
0
 49
-6.3499999999999996
 74
0
 49
6.3499999999999996
 74
0
 49
-6.3499999999999996
 74
0
 49
6.3499999999999996
 74
0
 49
-6.3499999999999996
 74
0
  0
LTYPE
  5
4A
100
AcDbSymbolTableRecord
100
AcDbLinetypeTableRecord
  2
DIVIDE
 70
0
  3
Divide ____ . . ____ . . ____ . . ____ . . ____
 72
65
 73
6
 40
31.75
 49
12.6999999999999993
 74
0
 49
-6.3499999999999996
 74
0
 49
0.0
 74
0
 49
-6.3499999999999996
 74
0
 49
0.0
 74
0
 49
-6.3499999999999996
 74
0
  0
LTYPE
  5
4B
100
AcDbSymbolTableRecord
100
AcDbLinetypeTableRecord
  2
DASHDOT2
 70
0
  3
Dash dot (.5x) _._._._._._._._._._._._._._._.
 72
65
 73
4
 40
12.6999999999999993
 49
6.3499999999999996
 74
0
 49
-3.1749999999999998
 74
0
 49
0.0
 74
0
 49
-3.1749999999999998
 74
0
  0
LTYPE
  5
4C
100
AcDbSymbolTableRecord
100
AcDbLinetypeTableRecord
  2
ACAD_ISO05W100
 70
0
  3
ISO long-dash double-dot ____ .. ____ .. ____ . 
 72
65
 73
6
 40
33.0
 49
24.0
 74
0
 49
-3.0
 74
0
 49
0.0
 74
0
 49
-3.0
 74
0
 49
0.0
 74
0
 49
-3.0
 74
0
  0
LTYPE
  5
4D
100
AcDbSymbolTableRecord
100
AcDbLinetypeTableRecord
  2
DASHED
 70
0
  3
Dashed __ __ __ __ __ __ __ __ __ __ __ __ __ _
 72
65
 73
2
 40
19.0499999999999972
 49
12.6999999999999993
 74
0
 49
-6.3499999999999996
 74
0
  0
LTYPE
  5
4E
100
AcDbSymbolTableRecord
100
AcDbLinetypeTableRecord
  2
ACAD_ISO11W100
 70
0
  3
ISO double-dash dot __ __ . __ __ . __ __ . __ _
 72
65
 73
6
 40
33.0
 49
12.0
 74
0
 49
-3.0
 74
0
 49
12.0
 74
0
 49
-3.0
 74
0
 49
0.0
 74
0
 49
-3.0
 74
0
  0
LTYPE
  5
4F
100
AcDbSymbolTableRecord
100
AcDbLinetypeTableRecord
  2
CENTERX2
 70
0
  3
Center (2x) ________  __  ________  __  _____
 72
65
 73
4
 40
101.6000000000000085
 49
63.5
 74
0
 49
-12.6999999999999993
 74
0
 49
12.6999999999999993
 74
0
 49
-12.6999999999999993
 74
0
  0
LTYPE
  5
50
100
AcDbSymbolTableRecord
100
AcDbLinetypeTableRecord
  2
ACAD_ISO08W100
 70
0
  3
ISO long-dash short-dash ____ __ ____ __ ____ _
 72
65
 73
4
 40
36.0
 49
24.0
 74
0
 49
-3.0
 74
0
 49
6.0
 74
0
 49
-3.0
 74
0
  0
LTYPE
  5
51
100
AcDbSymbolTableRecord
100
AcDbLinetypeTableRecord
  2
DASHEDX2
 70
0
  3
Dashed (2x) ____  ____  ____  ____  ____  ___
 72
65
 73
2
 40
38.0999999999999943
 49
25.3999999999999986
 74
0
 49
-12.6999999999999993
 74
0
  0
LTYPE
  5
52
100
AcDbSymbolTableRecord
100
AcDbLinetypeTableRecord
  2
HIDDENX2
 70
0
  3
Hidden (2x) ____ ____ ____ ____ ____ ____ ____ 
 72
65
 73
2
 40
19.0499999999999972
 49
12.6999999999999993
 74
0
 49
-6.3499999999999996
 74
0
  0
LTYPE
  5
53
100
AcDbSymbolTableRecord
100
AcDbLinetypeTableRecord
  2
ACAD_ISO09W100
 70
0
  3
ISO long-dash double-short-dash ____ __ __ ____
 72
65
 73
6
 40
45.0
 49
24.0
 74
0
 49
-3.0
 74
0
 49
6.0
 74
0
 49
-3.0
 74
0
 49
6.0
 74
0
 49
-3.0
 74
0
  0
LTYPE
  5
54
100
AcDbSymbolTableRecord
100
AcDbLinetypeTableRecord
  2
ACAD_ISO07W100
 70
0
  3
ISO dot . . . . . . . . . . . . . . . . . . . . 
 72
65
 73
2
 40
3.0
 49
0.0
 74
0
 49
-3.0
 74
0
  0
LTYPE
  5
55
100
AcDbSymbolTableRecord
100
AcDbLinetypeTableRecord
  2
ACAD_ISO04W100
 70
0
  3
ISO long-dash dot ____ . ____ . ____ . ____ . _
 72
65
 73
4
 40
30.0
 49
24.0
 74
0
 49
-3.0
 74
0
 49
0.0
 74
0
 49
-3.0
 74
0
  0
LTYPE
  5
56
100
AcDbSymbolTableRecord
100
AcDbLinetypeTableRecord
  2
ACAD_ISO12W100
 70
0
  3
ISO dash double-dot __ . . __ . . __ . . __ . . 
 72
65
 73
6
 40
21.0
 49
12.0
 74
0
 49
-3.0
 74
0
 49
0.0
 74
0
 49
-3.0
 74
0
 49
0.0
 74
0
 49
-3.0
 74
0
  0
ENDTAB
  0
TABLE
  2
LAYER
  5
2
100
AcDbSymbolTable
 70
1
  0
LAYER
  5
10
100
AcDbSymbolTableRecord
100
AcDbLayerTableRecord
  2
0
 70
0
 62
7
420
16777215
  6
Continuous
370
25
390
F
  0
ENDTAB
  0
TABLE
  2
STYLE
  5
3
100
AcDbSymbolTable
 70
1
  0
STYLE
  5
57
100
AcDbSymbolTableRecord
100
AcDbTextStyleTableRecord
  2
Standard
 70
0
 40
0.0
 41
1.0
 50
0.0
 71
0
 42
2.5
  3

  4

1001
ACAD
1000
txt
1071
0
  0
ENDTAB
  0
TABLE
  2
VIEW
  5
6
100
AcDbSymbolTable
 70
0
  0
ENDTAB
  0
TABLE
  2
UCS
  5
7
100
AcDbSymbolTable
 70
0
  0
ENDTAB
  0
TABLE
  2
APPID
  5
9
100
AcDbSymbolTable
 70
1
  0
APPID
  5
12
100
AcDbSymbolTableRecord
100
AcDbRegAppTableRecord
  2
ACAD
 70
0
  0
APPID
  5
58
100
AcDbSymbolTableRecord
100
AcDbRegAppTableRecord
  2
QCAD
 70
0
  0
ENDTAB
  0
TABLE
  2
DIMSTYLE
  5
A
100
AcDbSymbolTable
 70
1
100
AcDbDimStyleTable
 71
0
  0
DIMSTYLE
105
27
100
AcDbSymbolTableRecord
100
AcDbDimStyleTableRecord
  2
Standard
 41
25.0
 42
6.25
 43
3.75
 44
12.5
 70
0
 73
0
 74
0
 77
1
 78
8
140
25.0
141
2.5
143
0.03937007874016
147
6.25
171
3
172
1
271
2
272
2
274
3
278
44
283
0
284
8
340
57
  0
ENDTAB
  0
TABLE
  2
BLOCK_RECORD
  5
1
100
AcDbSymbolTable
 70
1
  0
BLOCK_RECORD
  5
1F
100
AcDbSymbolTableRecord
100
AcDbBlockTableRecord
  2
*Model_Space
340
22
  0
BLOCK_RECORD
  5
1B
100
AcDbSymbolTableRecord
100
AcDbBlockTableRecord
  2
*Paper_Space
340
1E
  0
BLOCK_RECORD
  5
23
100
AcDbSymbolTableRecord
100
AcDbBlockTableRecord
  2
*Paper_Space0
340
26
  0
ENDTAB
  0
ENDSEC
  0
SECTION
  2
BLOCKS
  0
BLOCK
  5
20
100
AcDbEntity
  8
0
100
AcDbBlockBegin
  2
*Model_Space
 70
0
 10
0.0
 20
0.0
 30
0.0
  3
*Model_Space
  1

  0
ENDBLK
  5
21
100
AcDbEntity
  8
0
100
AcDbBlockEnd
  0
BLOCK
  5
1C
100
AcDbEntity
 67
1
  8
0
100
AcDbBlockBegin
  2
*Paper_Space
 70
0
 10
0.0
 20
0.0
 30
0.0
  3
*Paper_Space
  1

  0
ENDBLK
  5
1D
100
AcDbEntity
 67
1
  8
0
100
AcDbBlockEnd
  0
BLOCK
  5
24
100
AcDbEntity
  8
0
100
AcDbBlockBegin
  2
*Paper_Space0
 70
0
 10
0.0
 20
0.0
 30
0.0
  3
*Paper_Space0
  1

  0
ENDBLK
  5
25
100
AcDbEntity
  8
0
100
AcDbBlockEnd
  0
ENDSEC
  0
SECTION
  2
ENTITIES
  0
LWPOLYLINE
  5
59
100
AcDbEntity
  8
0
 62
7
420
16777215
370
-1
 48
1.0
  6
BYLAYER
100
AcDbPolyline
 90
500
 70
1
 10
214.9435698099830461
 20
94.1497917041439791
 10
214.9435698099830461
 20
94.7900813941438969
 10
214.9435698099830461
 20
95.4303710841438146
 10
214.9188580379832274
 20
96.0704141981447606
 10
214.8694335599832357
 20
96.7102107361449157
 10
214.8447217879831896
 20
97.3495122541436899
 10
214.7952973099831979
 20
97.9883196861439387
 10
214.7458728319832062
 20
98.6266320981437161
 10
214.6717365819831684
 20
99.2642038481437226
 10
214.5976003319831307
 20
99.9007874261439497
 10
214.4987523099830469
 20
100.5366294081438241
 10
214.4246160599832365
 20
101.1714822841437922
 10
214.3257680379831527
 20
101.8051004121450092
 10
214.2022073099831232
 20
102.4377294341449556
 10
214.0786465819830937
 20
103.0688761981447783
 10
213.9550867879831912
 20
103.6987872801448134
 10
213.8315260599831618
 20
104.3269685941447165
 10
213.6832535599842231
 20
104.9536667161448236
 10
213.5349810599832381
 20
105.5786360041449257
 10
213.3619967879831165
 20
106.2016270801438509
 10
213.1890115819830953
 20
106.8228893221441353
 10
213.0160273099832011
 20
107.4421733521450619
 10
212.8183303319831339
 20
108.0592344621438201
 10
212.6206342879831936
 20
108.6743182941438022
 10
212.4229373099831264
 20
109.2869307621437542
 10
212.2005285599832405
 20
109.8973193761436846
 10
211.9781198099831272
 20
110.5049891161449409
 10
211.7557110599832413
 20
111.1101884261440205
 10
211.508590537983082
 20
111.7126688621439712
 10
211.261469081983023
 20
112.3124313581440106
 10
211.014348559983091
 20
112.9092284041441303
 10
210.7425153319832134
 20
113.503306576143757
 10
210.4706830379832354
 20
114.0941727221440374
 10
210.1988498099831304
 20
114.6818259081439351
 10
209.9023048099832067
 20
115.2662661341439048
 10
209.6057598099830557
 20
115.8474943341440735
 10
209.309214809983132
 20
116.4250164221440969
 10
209.0126698099832083
 20
116.9993246161449747
 10
208.6914130379832386
 20
117.5699266981438882
 10
208.3454435599830958
 20
118.136821734144803
 10
208.0241867879831261
 20
118.6997631481437452
 10
207.6782173099832107
 20
119.2589975161437792
 10
207.332247831983068
 20
119.8142782621450237
 10
206.9615665819831065
 20
120.3656044521437138
 10
206.5908853319831451
 20
120.9124829341437248
 10
206.2202040819831836
 20
121.4554077941449464
 10
205.8495228319832222
 20
121.9938840121437238
 10
205.4541298099832147
 20
122.5281590981450677
 10
205.0587367879832073
 20
123.0577389661440861
 10
204.6633428319830728
 20
123.5828711261448802
 10
204.2432380379832466
 20
124.1033071341441314
 10
203.8231323099830661
 20
124.6188013481448138
 10
203.4030265819831129
 20
125.1298478541440886
 10
202.9829217879830594
 20
125.6357041221451141
 10
202.5381042879830602
 20
126.1368651721447236
 10
202.093286787983061
 20
126.63283598414381
 10
201.6484692879830618
 20
127.1236184261449012
 10
201.1789390819831169
 20
127.6092106301450144
 10
200.7094098099830717
 20
128.0896135301447316
 10
200.2398805379830264
 20
128.5645796161440444
 10
199.7703503319830816
 20
129.0341098221448988
 10
199.2761092879832177
 20
129.4982022801438575
 10
198.7818673099832267
 20
129.9566113481438947
 10
198.2876253319832358
 20
130.4095845361450188
 10
197.7933842879831445
 20
130.8566258901439028
 10
197.2744305379831076
 20
131.2979838541447748
 10
196.7554767879830706
 20
131.733409984144771
 10
196.2365230379830336
 20
132.1629061481436906
 10
195.7175692879832241
 20
132.5862239021450364
 10
195.1739028319832414
 20
133.0036116901439414
 10
194.6302373099831584
 20
133.415067644144699
 10
194.0865717879830754
 20
133.8200986121439087
 10
193.5429053319830928
 20
134.218952104144762
 10
192.9745280379831911
 20
134.6113796761448498
 10
192.4061498099831624
 20
134.9973822621438444
 10
191.8624842879830794
 20
135.3772073721440279
 10
191.2693942879832321
 20
135.7503590521438923
 10
190.7010160599832034
 20
136.1168401041438187
 10
190.1079260599831287
 20
136.4768943021451264
 10
189.5395478319831
 20
136.8300303621451235
 10
188.9464578319830252
 20
137.176493926144019
 10
188.3533678319831779
 20
137.5162849941449963
 10
187.7355660599830571
 20
137.8491569901440812
 10
187.1424760599832098
 20
138.1751089801438752
 10
186.524674287983089
 20
138.4941418981449601
 10
185.9068715819830686
 20
138.8062557441436979
 10
185.2890698099831752
 20
139.1112030081450825
 10
184.6712680379830545
 20
139.4089836901450212
 10
184.0287535599832154
 20
139.69984436614385
 10
183.4109517879830946
 20
139.9832918841440801
 10
182.7684373099830282
 20
140.2595737541439007
 10
182.1259228319831891
 20
140.5286881081439674
 10
181.4834092879830223
 20
140.790389304144071
 10
180.8408948099831832
 20
141.0446764081440847
 10
180.1983803319831168
 20
141.2915503541441353
 10
179.5311540819832317
 20
141.5310102081440959
 10
178.8886405379830649
 20
141.7630569041440936
 10
178.2214142879831797
 20
141.9874419981439928
 10
177.5541880379830673
 20
142.2044139341439291
 10
176.8869617879831821
 20
142.413726136144021
 10
176.2197355379830697
 20
142.6153758021438875
 10
175.5525092879831845
 20
142.8096132441448276
 10
174.8852830379830721
 20
142.995942508143969
 10
174.218056787983187
 20
143.1746111041440486
 10
173.5261178319831288
 20
143.345371522145058
 10
172.8588915819832437
 20
143.5087178481437036
 10
172.1669535599830851
 20
143.6639103541439795
 10
171.475015537983154
 20
143.8114412581437023
 10
170.7830765819830958
 20
143.9513114941439085
 10
170.0911385599831647
 20
144.0830269761437989
 10
169.3992005379832335
 20
144.2070817901450823
 10
168.7072615819831753
 20
144.3229809161450135
 10
168.0153235599832442
 20
144.431220308143736
 10
167.3233855379830857
 20
144.5313040121438348
 10
166.6314465819830275
 20
144.623480472144081
 10
165.9395085599830963
 20
144.7077487541438927
 10
165.2228578319832195
 20
144.7841088581437248
 10
164.530919809983061
 20
144.8523142081436959
 10
163.8389817879831298
 20
144.9126113801436873
 10
163.1223310599830256
 20
144.9647537981438177
 10
162.4303930379830945
 20
145.0089889721450049
 10
161.7137423099832176
 20
145.0453150341438118
 10
161.0218042879830591
 20
145.0734872761437941
 10
160.3298653319832283
 20
145.0935038301437885
 10
159.6132155379830238
 20
145.1056131401439302
 10
158.921276581983193
 20
145.1095667621449934
 10
158.2046267879832158
 20
145.1056131401439302
 10
157.5126878319831576
 20
145.093503830144698
 10
156.7960380379831804
 20
145.0734872761437941
 10
156.1040990819831222
 20
145.0453150341447213
 10
155.387449287983145
 20
145.0089889721440954
 10
154.6955103319830869
 20
144.9647537981438177
 10
153.9788605379831097
 20
144.9126113801450515
 10
153.2869215819830515
 20
144.8523142081436959
 10
152.5949835599831204
 20
144.7841088581437248
 10
151.8783328319832435
 20
144.7077487541438927
 10
151.186394809983085
 20
144.623480472144081
 10
150.4944567879831538
 20
144.5313040121438348
 10
149.8025178319830957
 20
144.431220308143736
 10
149.1105798099831645
 20
144.3229809161450135
 10
148.4186417879832334
 20
144.2070817901450823
 10
147.7267028319831752
 20
144.0830269761437989
 10
147.034764809983244
 20
143.9513114941439085
 10
146.3428267879830855
 20
143.8114412581437023
 10
145.6508878319830274
 20
143.6639103541439795
 10
144.9836615819831422
 20
143.5087178481437036
 10
144.2917235599832111
 20
143.3453715221436937
 10
143.6244973099830986
 20
143.1746111041440486
 10
142.9325592879831675
 20
142.9959425081448785
 10
142.265333037983055
 20
142.8096132441439181
 10
141.5981067879831699
 20
142.6153758021438875
 10
140.9308805379830574
 20
142.413726136144021
 10
140.2636542879831723
 20
142.2044139341439291
 10
139.5964280379830598
 20
141.9874419981439928
 10
138.9292017879831747
 20
141.7630569041440936
 10
138.2866873099831082
 20
141.5310102081440959
 10
137.6194610599832231
 20
141.2915503541441353
 10
136.9769465819831566
 20
141.0446764081440847
 10
136.3344330379832172
 20
140.790389304144071
 10
135.6919185599831508
 20
140.5286881081439674
 10
135.0494040819830843
 20
140.2595737541439007
 10
134.4068905379831449
 20
139.9832918841440801
 10
133.7890878319831245
 20
139.69984436614385
 10
133.1465742879831851
 20
139.4089836901441117
 10
132.5287715819831647
 20
139.1112030081437183
 10
131.9109698099830439
 20
138.8062557441436979
 10
131.2931680379831505
 20
138.4941418981440506
 10
130.6753653319831301
 20
138.1751089801438752
 10
130.0822753319830554
 20
137.8491569901440812
 10
129.489185331983208
 20
137.5162849941440868
 10
128.8713835599830873
 20
137.1764939261449285
 10
128.2782935599832399
 20
136.8300303621437592
 10
127.7099153319832112
 20
136.4768943021437622
 10
127.1168253319831365
 20
136.1168401041438187
 10
126.5484480379832348
 20
135.7503590521438923
 10
125.9800698099832061
 20
135.3772073721440279
 10
125.4116915819831775
 20
134.9973822621438444
 10
124.8433142879830484
 20
134.6113796761439403
 10
124.2749360599832471
 20
134.2189521041438525
 10
123.7312705379831641
 20
133.8200986121439087
 10
123.1876040819831815
 20
133.4150676441437895
 10
122.6439385599830985
 20
133.0036116901439414
 10
122.1249848099830615
 20
132.5862239021441269
 10
121.5813192879832059
 20
132.1629061481436906
 10
121.0623655379831689
 20
131.7334099841438615
 10
120.5434117879831319
 20
131.2979838541438653
 10
120.024458037983095
 20
130.8566258901439028
 10
119.5302160599831041
 20
130.4095845361441093
 10
119.0359740819831131
 20
129.9566113481438947
 10
118.5417330379832492
 20
129.4982022801438575
 10
118.0474910599830309
 20
129.0341098221439893
 10
117.5779617879832131
 20
128.5645796161440444
 10
117.1084315819830408
 20
128.0896135301438221
 10
116.6389023099832229
 20
127.6092106301441049
 10
116.1693730379831777
 20
127.1236184261439917
 10
115.7245555379831785
 20
126.63283598414381
 10
115.2797380379831793
 20
126.1368651721438141
 10
114.8349205379831801
 20
125.6357041221437498
 10
114.414814809983227
 20
125.1298478541440886
 10
113.9947090819830464
 20
124.6188013481439043
 10
113.5746042879832203
 20
124.1033071341441314
 10
113.1544985599830397
 20
123.5828711261439707
 10
112.7591055379830323
 20
123.0577389661440861
 10
112.3637115819831251
 20
122.5281590981437034
 10
111.9683185599831177
 20
121.9938840121437238
 10
111.5976373099831562
 20
121.4554077941440369
 10
111.2269560599831948
 20
120.9124829341437248
 10
110.8562748099832334
 20
120.3656044521437138
 10
110.4855935599830445
 20
119.8142782621441143
 10
110.1396240819831291
 20
119.2589975161437792
 10
109.7936555379831134
 20
118.6997631481437452
 10
109.472397831983244
 20
118.1368217341438935
 10
109.1264292879832283
 20
117.5699266981438882
 10
108.8298842879830772
 20
116.9993246161440652
 10
108.5086265819841174
 20
116.4250164221440969
 10
108.2120815819830568
 20
115.8474943341440735
 10
107.9155365819831331
 20
115.2662661341439048
 10
107.6189915819832095
 20
114.6818259081439351
 10
107.3471592879832315
 20
114.0941727221440374
 10
107.0753260599831265
 20
113.503306576143757
 10
106.8034928319832488
 20
112.9092284041441303
 10
106.5563723099830895
 20
112.3124313581440106
 10
106.3092517879831576
 20
111.7126688621439712
 10
106.0621303319830986
 20
111.1101884261440205
 10
105.8397215819832127
 20
110.5049891161440314
 10
105.6173128319830994
 20
109.8973193761436846
 10
105.3949040819832135
 20
109.2869307621437542
 10
105.1972080379830459
 20
108.6743182941438022
 10
104.9995110599841155
 20
108.0592344621438201
 10
104.8018140819840482
 20
107.4421733521436977
 10
104.6288298099832446
 20
106.8228893221441353
 10
104.455845537983123
 20
106.2016270801438509
 10
104.3075730379830475
 20
105.5786360041440162
 10
104.1345878319830263
 20
104.9536667161439141
 10
103.9863153319831781
 20
104.326968594143807
 10
103.8627555379841851
 20
103.6987872801439039
 10
103.7391948099832462
 20
103.0688761981438688
 10
103.6156340819841262
 20
102.4377294341440461
 10
103.5167860599831329
 20
101.8051004121440997
 10
103.3932253319831034
 20
101.1714822841437922
 10
103.3190890819830656
 20
100.5366294081438241
 10
103.2202410599832092
 20
99.9007874261439497
 10
103.1461048099840809
 20
99.2642038481437226
 10
103.0966803319831797
 20
98.6266320981437161
 10
103.022544081983142
 20
97.9883196861439387
 10
102.9731205379830499
 20
97.3495122541436899
 10
102.9484078319842411
 20
96.7102107361440062
 10
102.8989842879832395
 20
96.0704141981438511
 10
102.8742715819830664
 20
95.4303710841438146
 10
102.8742715819830664
 20
94.7900813941438969
 10
102.8742715819830664
 20
94.1497917041439791
 10
102.8742715819830664
 20
93.509254504144053
 10
102.8742715819830664
 20
92.8692113901440166
 10
102.8989842879832395
 20
92.2291682761439802
 10
102.9484078319831042
 20
91.5893726721439521
 10
102.9731205379830499
 20
90.9498236441438053
 10
103.022544081983142
 20
90.3110162121440112
 10
103.0966803319831797
 20
89.6729503761441151
 10
103.1461048099831714
 20
89.0353786261441087
 10
103.2202410599832092
 20
88.3985484721440002
 10
103.3190890819830656
 20
87.7627064901441258
 10
103.3932253319831034
 20
87.1278526801440307
 10
103.5167860599831329
 20
86.4942345521437232
 10
103.6156340819841262
 20
85.8618530401437852
 10
103.7391948099832462
 20
85.2307062761439624
 10
103.8627555379841851
 20
84.6007951941439273
 10
103.9863153319831781
 20
83.9726138801440243
 10
104.1345878319830263
 20
83.3459157581439172
 10
104.3075730379830475
 20
82.7209474041439421
 10
104.455845537983123
 20
82.097707884143972
 10
104.6288298099832446
 20
81.4764465761438146
 10
104.8018140819840482
 20
80.8574091221441336
 10
104.9995110599841155
 20
80.2401014361441298
 10
105.1972080379830459
 20
79.6252641801440291
 10
105.3949040819832135
 20
79.012651712144077
 10
105.6173128319830994
 20
78.4022630981436919
 10
105.8397215819832127
 20
77.7945933581437998
 10
106.0621303319830986
 20
77.1893940481438108
 10
106.3092517879831576
 20
76.5866670361439787
 10
106.5563723099830895
 20
75.9871511161438207
 10
106.8034928319832488
 20
75.3901074941438196
 10
107.0753260599831265
 20
74.7962758981440743
 10
107.3471592879832315
 20
74.2054097521437939
 10
107.6189915819832095
 20
73.6177565661438962
 10
107.9155365819831331
 20
73.0333163401439265
 10
108.2120815819830568
 20
72.4520881401437578
 10
108.5086265819841174
 20
71.8743194761438531
 10
108.8298842879830772
 20
71.300257858143766
 10
109.1264292879832283
 20
70.7296557761439431
 10
109.472397831983244
 20
70.1627607401439377
 10
109.7936555379831134
 20
69.5995718161440777
 10
110.1396240819831291
 20
69.0403374481440437
 10
110.4855935599830445
 20
68.4850576361438357
 10
110.8562748099832334
 20
67.9339780221441174
 10
111.2269560599831948
 20
67.3868520301440981
 10
111.5976373099831562
 20
66.8441746801437944
 10
111.9683185599831177
 20
66.3054509521440991
 10
112.3637115819831251
 20
65.7714233761441278
 10
112.7591055379830323
 20
65.2418435081437451
 10
113.1544985599830397
 20
64.7167113481438605
 10
113.5746042879832203
 20
64.1962753401450641
 10
113.9947090819830464
 20
63.6805336161439186
 10
114.414814809983227
 20
63.1697355541438696
 10
114.8349205379831801
 20
62.6636317761437454
 10
115.2797380379831793
 20
62.1627182361436894
 10
115.7245555379831785
 20
61.6667464901440212
 10
116.1693730379840872
 20
61.1759640481438396
 10
116.6389023099832229
 20
60.690124334143718
 10
117.1084315819830408
 20
60.2099689441440091
 10
117.5779617879832131
 20
59.734755348144688
 10
118.0474910599830309
 20
59.2652260761439607
 10
118.5417330379832492
 20
58.8011326841439654
 10
119.0359740819831131
 20
58.3427236161439282
 10
119.5302160599831041
 20
57.889998872143849
 10
120.024458037983095
 20
57.4429565841439285
 10
120.5434117879840414
 20
57.001599554144093
 10
121.0623655379831689
 20
56.5661724901439698
 10
121.5813192879832059
 20
56.1366763261436859
 10
122.1249848099830615
 20
55.713111062143696
 10
122.6439385599830985
 20
55.2957242081440086
 10
123.1876040819831815
 20
54.8845148301440418
 10
123.7312705379831641
 20
54.4794838621448321
 10
124.2749360599832471
 20
54.0806313041441058
 10
124.8433142879830484
 20
53.688202798143891
 10
125.4116915819831775
 20
53.3019536361441055
 10
125.9800698099832061
 20
52.9223751021438034
 10
126.5484480379832348
 20
52.5492234221439389
 10
127.1168253319831365
 20
52.1824957941441312
 10
127.7099153319841207
 20
51.8226881721440691
 10
128.2782935599832399
 20
51.4693046021440637
 10
128.8713835599830873
 20
51.1228419721448404
 10
129.489185331983208
 20
50.7830509041438631
 10
130.0822753319830554
 20
50.4501789081438687
 10
130.6753653319831301
 20
50.1242259841439477
 10
131.2931680379831505
 20
49.8051930661446818
 10
131.9109698099830439
 20
49.4933267301441333
 10
132.5287715819831647
 20
49.1883794661441129
 10
133.1465742879831851
 20
48.8903522081447477
 10
133.7890878319831245
 20
48.5997381081439812
 10
134.4068905379831449
 20
48.3160430801437428
 10
135.0494040819830843
 20
48.0397621441449587
 10
135.6919185599831508
 20
47.7708943661438639
 10
136.3344330379832172
 20
47.5091941041438872
 10
136.9769465819840661
 20
47.2549060661437466
 10
137.6194610599832231
 20
47.0080330541438229
 10
138.2866873099831082
 20
46.768325690143854
 10
138.9292017879831747
 20
46.5365265041438647
 10
139.5964280379830598
 20
46.3118929661438301
 10
140.2636542879840817
 20
46.0951685401448117
 10
140.9308805379841942
 20
45.8856097621439289
 10
141.5981067879831699
 20
45.6839591621448449
 10
142.265333037983055
 20
45.4899692301439131
 10
142.9325592879831675
 20
45.3036399661438622
 10
143.6244973099830986
 20
45.1249723041439097
 10
144.2917235599832111
 20
44.953964376144711
 10
144.9836615819831422
 20
44.7908646261450372
 10
145.6508878319830274
 20
44.6354255441439705
 10
146.3428267879830855
 20
44.4878946401437929
 10
147.034764809983244
 20
44.3482709801448323
 10
147.7267028319831752
 20
44.2165554981449418
 10
148.4186417879832334
 20
44.0925006841441132
 10
149.1105798099831645
 20
43.976354048143719
 10
149.8025178319830957
 20
43.8683621661440952
 10
150.4944567879831538
 20
43.7682784621439964
 10
151.186394809983085
 20
43.675855426143869
 10
151.878332831984153
 20
43.5915871441440572
 10
152.5949835599831204
 20
43.5154736161441065
 10
153.2869215819830515
 20
43.4472682661441354
 10
153.9788605379831097
 20
43.3869710941436892
 10
154.6955103319830869
 20
43.3345811661449147
 10
155.387449287983145
 20
43.290346926144764
 10
156.1040990819831222
 20
43.2542674401440195
 10
156.7960380379831804
 20
43.2260951981449466
 10
157.5126878319831576
 20
43.2058311341440344
 10
158.2046267879832158
 20
43.1939693341448105
 10
158.921276581983193
 20
43.189768202143739
 10
159.6132155379830238
 20
43.1939693341448105
 10
160.3298653319832283
 20
43.2058311341440344
 10
161.0218042879830591
 20
43.2260951981449466
 10
161.7137423099832176
 20
43.2542674401440195
 10
162.4303930379830945
 20
43.2903469261438545
 10
163.1223310599830256
 20
43.3345811661449147
 10
163.8389817879831298
 20
43.3869710941436892
 10
164.530919809983061
 20
43.4472682661441354
 10
165.2228578319832195
 20
43.515473616145016
 10
165.9395085599830963
 20
43.5915871441440572
 10
166.6314465819841644
 20
43.6758554261447784
 10
167.3233855379830857
 20
43.7682784621449059
 10
168.0153235599841537
 20
43.8683621661450047
 10
168.7072615819831753
 20
43.976354048143719
 10
169.3992005379832335
 20
44.0925006841441132
 10
170.0911385599831647
 20
44.2165554981449418
 10
170.7830765819830958
 20
44.3482709801448323
 10
171.475015537983154
 20
44.4878946401437929
 10
172.1669535599830851
 20
44.6354255441439705
 10
172.8588915819841532
 20
44.7908646261441277
 10
173.5261178319831288
 20
44.953964376144711
 10
174.218056787983187
 20
45.1249723041439097
 10
174.8852830379830721
 20
45.3036399661438622
 10
175.5525092879831845
 20
45.4899692301439131
 10
176.2197355379830697
 20
45.6839591621439354
 10
176.8869617879831821
 20
45.8856097621439289
 10
177.5541880379830673
 20
46.0951685401448117
 10
178.2214142879840892
 20
46.3118929661447396
 10
178.8886405379830649
 20
46.5365265041438647
 10
179.5311540819832317
 20
46.768325690143854
 10
180.1983803319831168
 20
47.0080330541447324
 10
180.8408948099831832
 20
47.2549060661437466
 10
181.4834092879830223
 20
47.5091941041447967
 10
182.1259228319840986
 20
47.7708943661447734
 10
182.7684373099830282
 20
48.0397621441449587
 10
183.4109517879830946
 20
48.3160430801451071
 10
184.0287535599841249
 20
48.5997381081439812
 10
184.6712680379830545
 20
48.8903522081447477
 10
185.2890698099831752
 20
49.1883794661441129
 10
185.9068715819842055
 20
49.4933267301450428
 10
186.524674287983089
 20
49.8051930661446818
 10
187.1424760599832098
 20
50.1242259841439477
 10
187.735566059984194
 20
50.4501789081438687
 10
188.3533678319831779
 20
50.7830509041447726
 10
188.9464578319830252
 20
51.1228419721448404
 10
189.5395478319842368
 20
51.4693046021449732
 10
190.1079260599831287
 20
51.8226881721440691
 10
190.7010160599832034
 20
52.1824957941441312
 10
191.2693942879832321
 20
52.5492234221448484
 10
191.8624842879830794
 20
52.9223751021447129
 10
192.4061498099831624
 20
53.3019536361441055
 10
192.9745280379831911
 20
53.688202798143891
 10
193.5429053319830928
 20
54.0806313041441058
 10
194.0865717879830754
 20
54.4794838621448321
 10
194.6302373099831584
 20
54.8845148301440418
 10
195.1739028319832414
 20
55.2957242081440086
 10
195.7175692879832241
 20
55.7131110621450603
 10
196.2365230379830336
 20
56.1366763261450501
 10
196.7554767879830706
 20
56.5661724901439698
 10
197.2744305379831076
 20
57.001599554144093
 10
197.7933842879831445
 20
57.4429565841439285
 10
198.2876253319832358
 20
57.889998872143849
 10
198.7818673099832267
 20
58.3427236161448377
 10
199.2761092879832177
 20
58.8011326841439654
 10
199.7703503319830816
 20
59.2652260761448701
 10
200.2398805379841633
 20
59.734755348144688
 10
200.7094098099842086
 20
60.2099689441440091
 10
201.1789390819840264
 20
60.6901243341450822
 10
201.6484692879830618
 20
61.1759640481438396
 10
202.0932867879841979
 20
61.6667464901449307
 10
202.5381042879830602
 20
62.1627182361450537
 10
202.9829217879830594
 20
62.6636317761451096
 10
203.4030265819831129
 20
63.1697355541447791
 10
203.8231323099830661
 20
63.6805336161439186
 10
204.2432380379832466
 20
64.1962753401450641
 10
204.6633428319830728
 20
64.7167113481438605
 10
205.0587367879832073
 20
65.2418435081451094
 10
205.4541298099832147
 20
65.7714233761441278
 10
205.8495228319832222
 20
66.3054509521450086
 10
206.2202040819840931
 20
66.8441746801437944
 10
206.5908853319831451
 20
67.3868520301440981
 10
206.9615665819831065
 20
67.9339780221450269
 10
207.332247831983068
 20
68.4850576361447452
 10
207.6782173099832107
 20
69.0403374481449532
 10
208.0241867879831261
 20
69.5995718161440777
 10
208.3454435599830958
 20
70.1627607401439377
 10
208.6914130379832386
 20
70.7296557761439431
 10
209.0126698099832083
 20
71.300257858143766
 10
209.309214809983132
 20
71.8743194761438531
 10
209.6057598099830557
 20
72.452088140145122
 10
209.9023048099832067
 20
73.0333163401439265
 10
210.1988498099831304
 20
73.6177565661448057
 10
210.4706830379832354
 20
74.2054097521437939
 10
210.7425153319832134
 20
74.7962758981449838
 10
211.014348559983091
 20
75.3901074941438196
 10
211.261469081983023
 20
75.9871511161438207
 10
211.508590537983082
 20
76.5866670361439787
 10
211.7557110599832413
 20
77.1893940481438108
 10
211.9781198099831272
 20
77.7945933581437998
 10
212.2005285599832405
 20
78.4022630981450561
 10
212.4229373099831264
 20
79.0126517121449865
 10
212.6206342879831936
 20
79.6252641801449386
 10
212.8183303319831339
 20
80.2401014361441298
 10
213.0160273099832011
 20
80.8574091221441336
 10
213.1890115819830953
 20
81.4764465761438146
 10
213.3619967879831165
 20
82.0977078841448815
 10
213.5349810599832381
 20
82.7209474041439421
 10
213.6832535599842231
 20
83.3459157581439172
 10
213.8315260599831618
 20
83.9726138801440243
 10
213.9550867879831912
 20
84.6007951941439273
 10
214.0786465819830937
 20
85.2307062761439624
 10
214.2022073099831232
 20
85.8618530401437852
 10
214.3257680379831527
 20
86.4942345521437232
 10
214.4246160599832365
 20
87.1278526801449402
 10
214.4987523099830469
 20
87.7627064901441258
 10
214.5976003319831307
 20
88.3985484721440002
 10
214.6717365819831684
 20
89.0353786261450182
 10
214.7458728319832062
 20
89.6729503761450246
 10
214.7952973099831979
 20
90.3110162121440112
 10
214.8447217879831896
 20
90.9498236441438053
 10
214.8694335599832357
 20
91.5893726721448616
 10
214.9188580379832274
 20
92.2291682761439802
 10
214.9435698099830461
 20
92.8692113901449261
 10
214.9435698099830461
 20
93.509254504144053
  0
LWPOLYLINE
  5
5A
100
AcDbEntity
  8
0
 62
7
420
16777215
370
-1
 48
1.0
  6
BYLAYER
100
AcDbPolyline
 90
4
 70
1
 10
93.523764081983245
 20
314.3287857581437379
 10
239.2326320899830989
 20
314.3287857581437379
 10
239.2326320899830989
 20
379.710779848144
 10
93.523764081983245
 20
379.710779848144
  0
LWPOLYLINE
  5
5B
100
AcDbEntity
  8
0
 62
7
420
16777215
370
-1
 48
1.0
  6
BYLAYER
100
AcDbPolyline
 90
4
 70
1
 10
99.128464581983053
 20
318.9991219981440622
 10
99.128464581983053
 20
344.6848617261441063
 10
163.5765894319831659
 20
344.6848617261441063
 10
163.5765894319831659
 20
318.9991219981440622
  0
LWPOLYLINE
  5
5C
100
AcDbEntity
  8
0
 62
7
420
16777215
370
-1
 48
1.0
  6
BYLAYER
100
AcDbPolyline
 90
4
 70
1
 10
99.128464581983053
 20
349.3549513901440946
 10
99.128464581983053
 20
375.0406901841440117
 10
163.5765894319831659
 20
375.0406901841440117
 10
163.5765894319831659
 20
349.3549513901440946
  0
LWPOLYLINE
  5
5D
100
AcDbEntity
  8
0
 62
7
420
16777215
370
-1
 48
1.0
  6
BYLAYER
100
AcDbPolyline
 90
4
 70
1
 10
169.1807958459830843
 20
318.9991219981440622
 10
169.1807958459830843
 20
344.6848617261441063
 10
233.6284256759831806
 20
344.6848617261441063
 10
233.6284256759831806
 20
318.9991219981440622
  0
LWPOLYLINE
  5
5E
100
AcDbEntity
  8
0
 62
7
420
16777215
370
-1
 48
1.0
  6
BYLAYER
100
AcDbPolyline
 90
4
 70
1
 10
169.1807958459830843
 20
349.3549513901440946
 10
169.1807958459830843
 20
375.0406901841440117
 10
233.6284256759831806
 20
375.0406901841440117
 10
233.6284256759831806
 20
349.3549513901440946
  0
LWPOLYLINE
  5
5F
100
AcDbEntity
  8
0
 62
7
420
16777215
370
-1
 48
1.0
  6
BYLAYER
100
AcDbPolyline
 90
4
 70
1
 10
93.523764081983245
 20
389.0482916721441029
 10
239.2326320899830989
 20
389.0482916721441029
 10
239.2326320899830989
 20
454.4307798481437999
 10
93.523764081983245
 20
454.4307798481437999
  0
LWPOLYLINE
  5
60
100
AcDbEntity
  8
0
 62
7
420
16777215
370
-1
 48
1.0
  6
BYLAYER
100
AcDbPolyline
 90
4
 70
1
 10
99.128464581983053
 20
393.7183813361440912
 10
99.128464581983053
 20
419.4041201301440083
 10
163.5765894319831659
 20
419.4041201301440083
 10
163.5765894319831659
 20
393.7183813361440912
  0
LWPOLYLINE
  5
61
100
AcDbEntity
  8
0
 62
7
420
16777215
370
-1
 48
1.0
  6
BYLAYER
100
AcDbPolyline
 90
4
 70
1
 10
99.128464581983053
 20
424.0742097941439965
 10
99.128464581983053
 20
449.760196098143922
 10
163.5765894319831659
 20
449.760196098143922
 10
163.5765894319831659
 20
424.0742097941439965
  0
LWPOLYLINE
  5
62
100
AcDbEntity
  8
0
 62
7
420
16777215
370
-1
 48
1.0
  6
BYLAYER
100
AcDbPolyline
 90
4
 70
1
 10
169.1807958459830843
 20
393.7183813361440912
 10
169.1807958459830843
 20
419.4041201301440083
 10
233.6284256759831806
 20
419.4041201301440083
 10
233.6284256759831806
 20
393.7183813361440912
  0
LWPOLYLINE
  5
63
100
AcDbEntity
  8
0
 62
7
420
16777215
370
-1
 48
1.0
  6
BYLAYER
100
AcDbPolyline
 90
4
 70
1
 10
169.1807958459830843
 20
424.0742097941439965
 10
169.1807958459830843
 20
449.760196098143922
 10
233.6284256759831806
 20
449.760196098143922
 10
233.6284256759831806
 20
424.0742097941439965
  0
LINE
  5
64
100
AcDbEntity
  8
0
 62
256
370
-1
 48
1.0
  6
BYLAYER
100
AcDbLine
 10
299.0037640819831495
 20
204.1986779441437534
 30
0.0
 11
261.6437640819831358
 21
204.1986779441437534
 31
0.0
  0
LINE
  5
65
100
AcDbEntity
  8
0
 62
256
370
-1
 48
1.0
  6
BYLAYER
100
AcDbLine
 10
261.6437640819831358
 20
204.1986779441437534
 30
0.0
 11
261.6437640819831358
 21
190.1886779441439899
 31
0.0
  0
LINE
  5
66
100
AcDbEntity
  8
0
 62
256
370
-1
 48
1.0
  6
BYLAYER
100
AcDbLine
 10
224.2837640819832359
 20
190.1886779441439899
 30
0.0
 11
261.6437640819831358
 21
190.1886779441439899
 31
0.0
  0
LINE
  5
67
100
AcDbEntity
  8
0
 62
256
370
-1
 48
1.0
  6
BYLAYER
100
AcDbLine
 10
224.2837640819832359
 20
204.1986779441437534
 30
0.0
 11
224.2837640819832359
 21
190.1886779441439899
 31
0.0
  0
LINE
  5
68
100
AcDbEntity
  8
0
 62
256
370
-1
 48
1.0
  6
BYLAYER
100
AcDbLine
 10
224.2837640819832359
 20
204.1986779441437534
 30
0.0
 11
186.9237640819831086
 21
204.1986779441437534
 31
0.0
  0
LINE
  5
69
100
AcDbEntity
  8
0
 62
256
370
-1
 48
1.0
  6
BYLAYER
100
AcDbLine
 10
186.9237640819831086
 20
204.1986779441437534
 30
0.0
 11
186.9237640819831086
 21
190.1886779441439899
 31
0.0
  0
LINE
  5
6A
100
AcDbEntity
  8
0
 62
256
370
-1
 48
1.0
  6
BYLAYER
100
AcDbLine
 10
149.5637640819832086
 20
190.1886779441439899
 30
0.0
 11
186.9237640819831086
 21
190.1886779441439899
 31
0.0
  0
LINE
  5
6B
100
AcDbEntity
  8
0
 62
256
370
-1
 48
1.0
  6
BYLAYER
100
AcDbLine
 10
149.5637640819832086
 20
204.1986779441437534
 30
0.0
 11
149.5637640819832086
 21
190.1886779441439899
 31
0.0
  0
LINE
  5
6C
100
AcDbEntity
  8
0
 62
256
370
-1
 48
1.0
  6
BYLAYER
100
AcDbLine
 10
149.5637640819832086
 20
204.1986779441437534
 30
0.0
 11
112.2037640819830813
 21
204.1986779441437534
 31
0.0
  0
LINE
  5
6D
100
AcDbEntity
  8
0
 62
256
370
-1
 48
1.0
  6
BYLAYER
100
AcDbLine
 10
112.2037640819830813
 20
204.1986779441437534
 30
0.0
 11
112.2037640819830813
 21
190.1886779441439899
 31
0.0
  0
LINE
  5
6E
100
AcDbEntity
  8
0
 62
256
370
-1
 48
1.0
  6
BYLAYER
100
AcDbLine
 10
74.8437640819831813
 20
190.1886779441439899
 30
0.0
 11
112.2037640819830813
 21
190.1886779441439899
 31
0.0
  0
LINE
  5
6F
100
AcDbEntity
  8
0
 62
256
370
-1
 48
1.0
  6
BYLAYER
100
AcDbLine
 10
74.8437640819831813
 20
204.1986779441437534
 30
0.0
 11
74.8437640819831813
 21
190.1886779441439899
 31
0.0
  0
LINE
  5
70
100
AcDbEntity
  8
0
 62
256
370
-1
 48
1.0
  6
BYLAYER
100
AcDbLine
 10
74.8437640819831813
 20
204.1986779441437534
 30
0.0
 11
37.483764081983054
 21
204.1986779441437534
 31
0.0
  0
LINE
  5
71
100
AcDbEntity
  8
0
 62
256
370
-1
 48
1.0
  6
BYLAYER
100
AcDbLine
 10
37.483764081983054
 20
204.1986779441437534
 30
0.0
 11
37.483764081983054
 21
190.1886779441439899
 31
0.0
  0
LINE
  5
72
100
AcDbEntity
  8
0
 62
256
370
-1
 48
1.0
  6
BYLAYER
100
AcDbLine
 10
23.4659222179832341
 20
190.1886779441448994
 30
0.0
 11
37.483764081983054
 21
190.1886779441439899
 31
0.0
  0
LINE
  5
73
100
AcDbEntity
  8
0
 62
256
370
-1
 48
1.0
  6
BYLAYER
100
AcDbLine
 10
261.6437640819831358
 20
510.4707798481437635
 30
0.0
 11
299.0037640819831495
 21
510.4707798481437635
 31
0.0
  0
LINE
  5
74
100
AcDbEntity
  8
0
 62
256
370
-1
 48
1.0
  6
BYLAYER
100
AcDbLine
 10
261.6437640819831358
 20
510.4707798481437635
 30
0.0
 11
261.6437640819831358
 21
524.4807798481440386
 31
0.0
  0
LINE
  5
75
100
AcDbEntity
  8
0
 62
256
370
-1
 48
1.0
  6
BYLAYER
100
AcDbLine
 10
261.6437640819831358
 20
524.4807798481440386
 30
0.0
 11
224.2837640819832359
 21
524.4807798481440386
 31
0.0
  0
LINE
  5
76
100
AcDbEntity
  8
0
 62
256
370
-1
 48
1.0
  6
BYLAYER
100
AcDbLine
 10
186.9237640819831086
 20
510.4707798481437635
 30
0.0
 11
224.2837640819832359
 21
510.4707798481437635
 31
0.0
  0
LINE
  5
77
100
AcDbEntity
  8
0
 62
256
370
-1
 48
1.0
  6
BYLAYER
100
AcDbLine
 10
224.2837640819832359
 20
510.4707798481437635
 30
0.0
 11
224.2837640819832359
 21
524.4807798481440386
 31
0.0
  0
LINE
  5
78
100
AcDbEntity
  8
0
 62
256
370
-1
 48
1.0
  6
BYLAYER
100
AcDbLine
 10
186.9237640819831086
 20
510.4707798481437635
 30
0.0
 11
186.9237640819831086
 21
524.4807798481440386
 31
0.0
  0
LINE
  5
79
100
AcDbEntity
  8
0
 62
256
370
-1
 48
1.0
  6
BYLAYER
100
AcDbLine
 10
186.9237640819831086
 20
524.4807798481440386
 30
0.0
 11
149.5637640819832086
 21
524.4807798481440386
 31
0.0
  0
LINE
  5
7A
100
AcDbEntity
  8
0
 62
256
370
-1
 48
1.0
  6
BYLAYER
100
AcDbLine
 10
112.2037640819830813
 20
510.4707798481437635
 30
0.0
 11
149.5637640819832086
 21
510.4707798481437635
 31
0.0
  0
LINE
  5
7B
100
AcDbEntity
  8
0
 62
256
370
-1
 48
1.0
  6
BYLAYER
100
AcDbLine
 10
149.5637640819832086
 20
510.4707798481437635
 30
0.0
 11
149.5637640819832086
 21
524.4807798481440386
 31
0.0
  0
LINE
  5
7C
100
AcDbEntity
  8
0
 62
256
370
-1
 48
1.0
  6
BYLAYER
100
AcDbLine
 10
112.2037640819830813
 20
510.4707798481437635
 30
0.0
 11
112.2037640819830813
 21
524.4807798481440386
 31
0.0
  0
LINE
  5
7D
100
AcDbEntity
  8
0
 62
256
370
-1
 48
1.0
  6
BYLAYER
100
AcDbLine
 10
112.2037640819830813
 20
524.4807798481440386
 30
0.0
 11
74.8437640819831813
 21
524.4807798481440386
 31
0.0
  0
LINE
  5
7E
100
AcDbEntity
  8
0
 62
256
370
-1
 48
1.0
  6
BYLAYER
100
AcDbLine
 10
37.483764081983054
 20
510.4707798481437635
 30
0.0
 11
74.8437640819831813
 21
510.4707798481437635
 31
0.0
  0
LINE
  5
7F
100
AcDbEntity
  8
0
 62
256
370
-1
 48
1.0
  6
BYLAYER
100
AcDbLine
 10
74.8437640819831813
 20
510.4707798481437635
 30
0.0
 11
74.8437640819831813
 21
524.4807798481440386
 31
0.0
  0
LINE
  5
80
100
AcDbEntity
  8
0
 62
256
370
-1
 48
1.0
  6
BYLAYER
100
AcDbLine
 10
37.483764081983054
 20
519.8107798481439659
 30
0.0
 11
37.483764081983054
 21
510.4707798481437635
 31
0.0
  0
LINE
  5
81
100
AcDbEntity
  8
0
 62
256
370
-1
 48
1.0
  6
BYLAYER
100
AcDbLine
 10
37.483764081983054
 20
510.4707798481437635
 30
0.0
 11
37.483764081983054
 21
524.4807798481440386
 31
0.0
  0
LINE
  5
82
100
AcDbEntity
  8
0
 62
256
370
-1
 48
1.0
  6
BYLAYER
100
AcDbLine
 10
37.483764081983054
 20
524.4807798481440386
 30
0.0
 11
23.4659222179832341
 21
524.4807798481440386
 31
0.0
  0
LINE
  5
83
100
AcDbEntity
  8
0
 62
256
370
-1
 48
1.0
  6
BYLAYER
100
AcDbLine
 10
23.4659222179832341
 20
190.1886779441448994
 30
0.0
 11
23.4659222179832341
 21
236.888677944143808
 31
0.0
  0
LINE
  5
84
100
AcDbEntity
  8
0
 62
256
370
-1
 48
1.0
  6
BYLAYER
100
AcDbLine
 10
23.4659222179832341
 20
236.888677944143808
 30
0.0
 11
14.1259222179830886
 21
236.888677944143808
 31
0.0
  0
LINE
  5
85
100
AcDbEntity
  8
0
 62
256
370
-1
 48
1.0
  6
BYLAYER
100
AcDbLine
 10
14.1259222179830886
 20
236.888677944143808
 30
0.0
 11
23.4659222179832341
 21
236.888677944143808
 31
0.0
  0
LINE
  5
86
100
AcDbEntity
  8
0
 62
256
370
-1
 48
1.0
  6
BYLAYER
100
AcDbLine
 10
23.4659222179832341
 20
274.2486779441439353
 30
0.0
 11
14.1259222179830886
 21
274.2486779441439353
 31
0.0
  0
LINE
  5
87
100
AcDbEntity
  8
0
 62
256
370
-1
 48
1.0
  6
BYLAYER
100
AcDbLine
 10
14.1259222179830886
 20
274.2486779441439353
 30
0.0
 11
14.1259222179830886
 21
236.888677944143808
 31
0.0
  0
LINE
  5
88
100
AcDbEntity
  8
0
 62
256
370
-1
 48
1.0
  6
BYLAYER
100
AcDbLine
 10
14.1259222179830886
 20
274.2486779441439353
 30
0.0
 11
23.4659222179832341
 21
274.2486779441439353
 31
0.0
  0
LINE
  5
89
100
AcDbEntity
  8
0
 62
256
370
-1
 48
1.0
  6
BYLAYER
100
AcDbLine
 10
23.4659222179832341
 20
274.2486779441439353
 30
0.0
 11
23.4659222179832341
 21
311.6086779441440626
 31
0.0
  0
LINE
  5
8A
100
AcDbEntity
  8
0
 62
256
370
-1
 48
1.0
  6
BYLAYER
100
AcDbLine
 10
23.4659222179832341
 20
311.6086779441440626
 30
0.0
 11
14.1259222179830886
 21
311.6086779441440626
 31
0.0
  0
LINE
  5
8B
100
AcDbEntity
  8
0
 62
256
370
-1
 48
1.0
  6
BYLAYER
100
AcDbLine
 10
14.1259222179830886
 20
311.6086779441440626
 30
0.0
 11
23.4659222179832341
 21
311.6086779441440626
 31
0.0
  0
LINE
  5
8C
100
AcDbEntity
  8
0
 62
256
370
-1
 48
1.0
  6
BYLAYER
100
AcDbLine
 10
23.4659222179832341
 20
348.9686779441437352
 30
0.0
 11
14.1259222179830886
 21
348.9686779441437352
 31
0.0
  0
LINE
  5
8D
100
AcDbEntity
  8
0
 62
256
370
-1
 48
1.0
  6
BYLAYER
100
AcDbLine
 10
14.1259222179830886
 20
348.9686779441437352
 30
0.0
 11
14.1259222179830886
 21
311.6086779441440626
 31
0.0
  0
LINE
  5
8E
100
AcDbEntity
  8
0
 62
256
370
-1
 48
1.0
  6
BYLAYER
100
AcDbLine
 10
14.1259222179830886
 20
348.9686779441437352
 30
0.0
 11
23.4659222179832341
 21
348.9686779441437352
 31
0.0
  0
LINE
  5
8F
100
AcDbEntity
  8
0
 62
256
370
-1
 48
1.0
  6
BYLAYER
100
AcDbLine
 10
23.4659222179832341
 20
348.9686779441437352
 30
0.0
 11
23.4659222179832341
 21
386.3286779441438625
 31
0.0
  0
LINE
  5
90
100
AcDbEntity
  8
0
 62
256
370
-1
 48
1.0
  6
BYLAYER
100
AcDbLine
 10
23.4659222179832341
 20
386.3286779441438625
 30
0.0
 11
14.1259222179830886
 21
386.3286779441438625
 31
0.0
  0
LINE
  5
91
100
AcDbEntity
  8
0
 62
256
370
-1
 48
1.0
  6
BYLAYER
100
AcDbLine
 10
14.1259222179830886
 20
386.3286779441438625
 30
0.0
 11
23.4659222179832341
 21
386.3286779441438625
 31
0.0
  0
LINE
  5
92
100
AcDbEntity
  8
0
 62
256
370
-1
 48
1.0
  6
BYLAYER
100
AcDbLine
 10
23.4659222179832341
 20
423.6886779441439899
 30
0.0
 11
14.1259222179830886
 21
423.6886779441439899
 31
0.0
  0
LINE
  5
93
100
AcDbEntity
  8
0
 62
256
370
-1
 48
1.0
  6
BYLAYER
100
AcDbLine
 10
14.1259222179830886
 20
423.6886779441439899
 30
0.0
 11
14.1259222179830886
 21
386.3286779441438625
 31
0.0
  0
LINE
  5
94
100
AcDbEntity
  8
0
 62
256
370
-1
 48
1.0
  6
BYLAYER
100
AcDbLine
 10
14.1259222179830886
 20
423.6886779441439899
 30
0.0
 11
23.4659222179832341
 21
423.6886779441439899
 31
0.0
  0
LINE
  5
95
100
AcDbEntity
  8
0
 62
256
370
-1
 48
1.0
  6
BYLAYER
100
AcDbLine
 10
23.4659222179832341
 20
423.6886779441439899
 30
0.0
 11
23.4659222179832341
 21
461.0486779441441172
 31
0.0
  0
LINE
  5
96
100
AcDbEntity
  8
0
 62
256
370
-1
 48
1.0
  6
BYLAYER
100
AcDbLine
 10
23.4659222179832341
 20
461.0486779441441172
 30
0.0
 11
14.1259222179830886
 21
461.0486779441441172
 31
0.0
  0
LINE
  5
97
100
AcDbEntity
  8
0
 62
256
370
-1
 48
1.0
  6
BYLAYER
100
AcDbLine
 10
14.1259222179830886
 20
461.0486779441441172
 30
0.0
 11
23.4659222179832341
 21
461.0486779441441172
 31
0.0
  0
LINE
  5
98
100
AcDbEntity
  8
0
 62
256
370
-1
 48
1.0
  6
BYLAYER
100
AcDbLine
 10
23.4659222179832341
 20
498.4086779441437898
 30
0.0
 11
14.1259222179830886
 21
498.4086779441437898
 31
0.0
  0
LINE
  5
99
100
AcDbEntity
  8
0
 62
256
370
-1
 48
1.0
  6
BYLAYER
100
AcDbLine
 10
14.1259222179830886
 20
498.4086779441437898
 30
0.0
 11
14.1259222179830886
 21
461.0486779441441172
 31
0.0
  0
LINE
  5
9A
100
AcDbEntity
  8
0
 62
256
370
-1
 48
1.0
  6
BYLAYER
100
AcDbLine
 10
14.1259222179830886
 20
498.4086779441437898
 30
0.0
 11
23.4659222179832341
 21
498.4086779441437898
 31
0.0
  0
LINE
  5
9B
100
AcDbEntity
  8
0
 62
256
370
-1
 48
1.0
  6
BYLAYER
100
AcDbLine
 10
23.4659222179832341
 20
498.4086779441437898
 30
0.0
 11
23.4659222179832341
 21
524.4807798481440386
 31
0.0
  0
LINE
  5
9C
100
AcDbEntity
  8
0
 62
256
370
-1
 48
1.0
  6
BYLAYER
100
AcDbLine
 10
299.0037640819831495
 20
510.4707798481437635
 30
0.0
 11
299.0037640819831495
 21
204.1986779441437534
 31
0.0
  0
LINE
  5
9D
100
AcDbEntity
  8
0
 62
256
370
-1
 48
1.0
  6
BYLAYER
100
AcDbLine
 10
214.9398431499830622
 20
481.5601137121427087
 30
0.0
 11
260.7080324459832354
 21
481.5601137121440729
 31
0.0
  0
LINE
  5
9E
100
AcDbEntity
  8
0
 62
256
370
-1
 48
1.0
  6
BYLAYER
100
AcDbLine
 10
57.091653853983189
 20
481.5601137121427087
 30
0.0
 11
102.8598431499831349
 21
481.5601137121427087
 31
0.0
  0
LINE
  5
9F
100
AcDbEntity
  8
0
 62
256
370
-1
 48
1.0
  6
BYLAYER
100
AcDbLine
 10
57.091653853983189
 20
254.5909312521441166
 30
0.0
 11
47.7516538539830435
 21
254.5909312521441166
 31
0.0
  0
LINE
  5
A0
100
AcDbEntity
  8
0
 62
256
370
-1
 48
1.0
  6
BYLAYER
100
AcDbLine
 10
57.091653853983189
 20
217.2309312521439892
 30
0.0
 11
57.091653853983189
 21
254.5909312521441166
 31
0.0
  0
LINE
  5
A1
100
AcDbEntity
  8
0
 62
256
370
-1
 48
1.0
  6
BYLAYER
100
AcDbLine
 10
57.091653853983189
 20
291.9509312521437892
 30
0.0
 11
47.7516538539830435
 21
291.9509312521437892
 31
0.0
  0
LINE
  5
A2
100
AcDbEntity
  8
0
 62
256
370
-1
 48
1.0
  6
BYLAYER
100
AcDbLine
 10
47.7516538539830435
 20
291.9509312521437892
 30
0.0
 11
47.7516538539830435
 21
254.5909312521441166
 31
0.0
  0
LINE
  5
A3
100
AcDbEntity
  8
0
 62
256
370
-1
 48
1.0
  6
BYLAYER
100
AcDbLine
 10
47.7516538539830435
 20
254.5909312521441166
 30
0.0
 11
57.091653853983189
 21
254.5909312521441166
 31
0.0
  0
LINE
  5
A4
100
AcDbEntity
  8
0
 62
256
370
-1
 48
1.0
  6
BYLAYER
100
AcDbLine
 10
57.091653853983189
 20
329.3109312521439165
 30
0.0
 11
47.7516538539830435
 21
329.3109312521439165
 31
0.0
  0
LINE
  5
A5
100
AcDbEntity
  8
0
 62
256
370
-1
 48
1.0
  6
BYLAYER
100
AcDbLine
 10
47.7516538539830435
 20
291.9509312521437892
 30
0.0
 11
57.091653853983189
 21
291.9509312521437892
 31
0.0
  0
LINE
  5
A6
100
AcDbEntity
  8
0
 62
256
370
-1
 48
1.0
  6
BYLAYER
100
AcDbLine
 10
57.091653853983189
 20
291.9509312521437892
 30
0.0
 11
57.091653853983189
 21
329.3109312521439165
 31
0.0
  0
LINE
  5
A7
100
AcDbEntity
  8
0
 62
256
370
-1
 48
1.0
  6
BYLAYER
100
AcDbLine
 10
57.091653853983189
 20
366.6709312521440438
 30
0.0
 11
47.7516538539830435
 21
366.6709312521440438
 31
0.0
  0
LINE
  5
A8
100
AcDbEntity
  8
0
 62
256
370
-1
 48
1.0
  6
BYLAYER
100
AcDbLine
 10
47.7516538539830435
 20
366.6709312521440438
 30
0.0
 11
47.7516538539830435
 21
329.3109312521439165
 31
0.0
  0
LINE
  5
A9
100
AcDbEntity
  8
0
 62
256
370
-1
 48
1.0
  6
BYLAYER
100
AcDbLine
 10
47.7516538539830435
 20
329.3109312521439165
 30
0.0
 11
57.091653853983189
 21
329.3109312521439165
 31
0.0
  0
LINE
  5
AA
100
AcDbEntity
  8
0
 62
256
370
-1
 48
1.0
  6
BYLAYER
100
AcDbLine
 10
57.091653853983189
 20
404.0309312521437164
 30
0.0
 11
47.7516538539830435
 21
404.0309312521437164
 31
0.0
  0
LINE
  5
AB
100
AcDbEntity
  8
0
 62
256
370
-1
 48
1.0
  6
BYLAYER
100
AcDbLine
 10
47.7516538539830435
 20
366.6709312521440438
 30
0.0
 11
57.091653853983189
 21
366.6709312521440438
 31
0.0
  0
LINE
  5
AC
100
AcDbEntity
  8
0
 62
256
370
-1
 48
1.0
  6
BYLAYER
100
AcDbLine
 10
57.091653853983189
 20
366.6709312521440438
 30
0.0
 11
57.091653853983189
 21
404.0309312521437164
 31
0.0
  0
LINE
  5
AD
100
AcDbEntity
  8
0
 62
256
370
-1
 48
1.0
  6
BYLAYER
100
AcDbLine
 10
57.091653853983189
 20
441.3909312521438437
 30
0.0
 11
47.7516538539830435
 21
441.3909312521438437
 31
0.0
  0
LINE
  5
AE
100
AcDbEntity
  8
0
 62
256
370
-1
 48
1.0
  6
BYLAYER
100
AcDbLine
 10
47.7516538539830435
 20
441.3909312521438437
 30
0.0
 11
47.7516538539830435
 21
404.0309312521437164
 31
0.0
  0
LINE
  5
AF
100
AcDbEntity
  8
0
 62
256
370
-1
 48
1.0
  6
BYLAYER
100
AcDbLine
 10
47.7516538539830435
 20
404.0309312521437164
 30
0.0
 11
57.091653853983189
 21
404.0309312521437164
 31
0.0
  0
LINE
  5
B0
100
AcDbEntity
  8
0
 62
256
370
-1
 48
1.0
  6
BYLAYER
100
AcDbLine
 10
47.7516538539830435
 20
441.3909312521438437
 30
0.0
 11
57.091653853983189
 21
441.3909312521438437
 31
0.0
  0
LINE
  5
B1
100
AcDbEntity
  8
0
 62
256
370
-1
 48
1.0
  6
BYLAYER
100
AcDbLine
 10
57.091653853983189
 20
441.3909312521438437
 30
0.0
 11
57.091653853983189
 21
481.5601137121427087
 31
0.0
  0
LINE
  5
B2
100
AcDbEntity
  8
0
 62
256
370
-1
 48
1.0
  6
BYLAYER
100
AcDbLine
 10
270.0480324459822441
 20
254.5909312521441166
 30
0.0
 11
260.7080324459820986
 21
254.5909312521441166
 31
0.0
  0
LINE
  5
B3
100
AcDbEntity
  8
0
 62
256
370
-1
 48
1.0
  6
BYLAYER
100
AcDbLine
 10
260.7080324459820986
 20
254.5909312521441166
 30
0.0
 11
260.7080324459820986
 21
217.2309312521439892
 31
0.0
  0
LINE
  5
B4
100
AcDbEntity
  8
0
 62
256
370
-1
 48
1.0
  6
BYLAYER
100
AcDbLine
 10
270.0480324459831536
 20
291.9509312521437892
 30
0.0
 11
260.7080324459832354
 21
291.9509312521437892
 31
0.0
  0
LINE
  5
B5
100
AcDbEntity
  8
0
 62
256
370
-1
 48
1.0
  6
BYLAYER
100
AcDbLine
 10
260.7080324459832354
 20
254.5909312521441166
 30
0.0
 11
270.0480324459831536
 21
254.5909312521441166
 31
0.0
  0
LINE
  5
B6
100
AcDbEntity
  8
0
 62
256
370
-1
 48
1.0
  6
BYLAYER
100
AcDbLine
 10
270.0480324459831536
 20
254.5909312521441166
 30
0.0
 11
270.0480324459831536
 21
291.9509312521437892
 31
0.0
  0
LINE
  5
B7
100
AcDbEntity
  8
0
 62
256
370
-1
 48
1.0
  6
BYLAYER
100
AcDbLine
 10
270.0480324459831536
 20
329.3109312521439165
 30
0.0
 11
260.7080324459832354
 21
329.3109312521439165
 31
0.0
  0
LINE
  5
B8
100
AcDbEntity
  8
0
 62
256
370
-1
 48
1.0
  6
BYLAYER
100
AcDbLine
 10
260.7080324459832354
 20
329.3109312521439165
 30
0.0
 11
260.7080324459832354
 21
291.9509312521437892
 31
0.0
  0
LINE
  5
B9
100
AcDbEntity
  8
0
 62
256
370
-1
 48
1.0
  6
BYLAYER
100
AcDbLine
 10
260.7080324459832354
 20
291.9509312521437892
 30
0.0
 11
270.0480324459831536
 21
291.9509312521437892
 31
0.0
  0
LINE
  5
BA
100
AcDbEntity
  8
0
 62
256
370
-1
 48
1.0
  6
BYLAYER
100
AcDbLine
 10
270.0480324459831536
 20
366.6709312521440438
 30
0.0
 11
260.7080324459832354
 21
366.6709312521440438
 31
0.0
  0
LINE
  5
BB
100
AcDbEntity
  8
0
 62
256
370
-1
 48
1.0
  6
BYLAYER
100
AcDbLine
 10
260.7080324459832354
 20
329.3109312521439165
 30
0.0
 11
270.0480324459831536
 21
329.3109312521439165
 31
0.0
  0
LINE
  5
BC
100
AcDbEntity
  8
0
 62
256
370
-1
 48
1.0
  6
BYLAYER
100
AcDbLine
 10
270.0480324459831536
 20
329.3109312521439165
 30
0.0
 11
270.0480324459831536
 21
366.6709312521440438
 31
0.0
  0
LINE
  5
BD
100
AcDbEntity
  8
0
 62
256
370
-1
 48
1.0
  6
BYLAYER
100
AcDbLine
 10
270.0480324459831536
 20
404.0309312521437164
 30
0.0
 11
260.7080324459832354
 21
404.0309312521437164
 31
0.0
  0
LINE
  5
BE
100
AcDbEntity
  8
0
 62
256
370
-1
 48
1.0
  6
BYLAYER
100
AcDbLine
 10
260.7080324459832354
 20
404.0309312521437164
 30
0.0
 11
260.7080324459832354
 21
366.6709312521440438
 31
0.0
  0
LINE
  5
BF
100
AcDbEntity
  8
0
 62
256
370
-1
 48
1.0
  6
BYLAYER
100
AcDbLine
 10
260.7080324459832354
 20
366.6709312521440438
 30
0.0
 11
270.0480324459831536
 21
366.6709312521440438
 31
0.0
  0
LINE
  5
C0
100
AcDbEntity
  8
0
 62
256
370
-1
 48
1.0
  6
BYLAYER
100
AcDbLine
 10
270.0480324459831536
 20
441.3909312521438437
 30
0.0
 11
260.7080324459832354
 21
441.3909312521438437
 31
0.0
  0
LINE
  5
C1
100
AcDbEntity
  8
0
 62
256
370
-1
 48
1.0
  6
BYLAYER
100
AcDbLine
 10
260.7080324459832354
 20
404.0309312521437164
 30
0.0
 11
270.0480324459831536
 21
404.0309312521437164
 31
0.0
  0
LINE
  5
C2
100
AcDbEntity
  8
0
 62
256
370
-1
 48
1.0
  6
BYLAYER
100
AcDbLine
 10
270.0480324459831536
 20
404.0309312521437164
 30
0.0
 11
270.0480324459831536
 21
441.3909312521438437
 31
0.0
  0
LINE
  5
C3
100
AcDbEntity
  8
0
 62
256
370
-1
 48
1.0
  6
BYLAYER
100
AcDbLine
 10
260.7080324459832354
 20
481.5601137121440729
 30
0.0
 11
260.7080324459832354
 21
441.3909312521438437
 31
0.0
  0
LINE
  5
C4
100
AcDbEntity
  8
0
 62
256
370
-1
 48
1.0
  6
BYLAYER
100
AcDbLine
 10
260.7080324459832354
 20
441.3909312521438437
 30
0.0
 11
270.0480324459831536
 21
441.3909312521438437
 31
0.0
  0
LINE
  5
C5
100
AcDbEntity
  8
0
 62
256
370
-1
 48
1.0
  6
BYLAYER
100
AcDbLine
 10
57.091653853983189
 20
217.2309312521439892
 30
0.0
 11
260.7080324459820986
 21
217.2309312521439892
 31
0.0
  0
LINE
  5
C6
100
AcDbEntity
  8
0
 62
256
370
-1
 48
1.0
  6
BYLAYER
100
AcDbLine
 10
177.5798431499831622
 20
481.5601137121427087
 30
0.0
 11
177.5798431499831622
 21
490.9001137121428542
 31
0.0
  0
LINE
  5
C7
100
AcDbEntity
  8
0
 62
256
370
-1
 48
1.0
  6
BYLAYER
100
AcDbLine
 10
140.2198431499830349
 20
490.9001137121428542
 30
0.0
 11
140.2198431499830349
 21
481.5601137121427087
 31
0.0
  0
LINE
  5
C8
100
AcDbEntity
  8
0
 62
256
370
-1
 48
1.0
  6
BYLAYER
100
AcDbLine
 10
140.2198431499830349
 20
481.5601137121427087
 30
0.0
 11
177.5798431499831622
 21
481.5601137121427087
 31
0.0
  0
LINE
  5
C9
100
AcDbEntity
  8
0
 62
256
370
-1
 48
1.0
  6
BYLAYER
100
AcDbLine
 10
140.2198431499830349
 20
481.5601137121427087
 30
0.0
 11
140.2198431499830349
 21
490.9001137121428542
 31
0.0
  0
LINE
  5
CA
100
AcDbEntity
  8
0
 62
256
370
-1
 48
1.0
  6
BYLAYER
100
AcDbLine
 10
140.2198431499830349
 20
490.9001137121428542
 30
0.0
 11
102.8598431499831349
 21
490.9001137121428542
 31
0.0
  0
LINE
  5
CB
100
AcDbEntity
  8
0
 62
256
370
-1
 48
1.0
  6
BYLAYER
100
AcDbLine
 10
102.8598431499831349
 20
490.9001137121428542
 30
0.0
 11
102.8598431499831349
 21
481.5601137121427087
 31
0.0
  0
LINE
  5
CC
100
AcDbEntity
  8
0
 62
256
370
-1
 48
1.0
  6
BYLAYER
100
AcDbLine
 10
214.9398431499830622
 20
481.5601137121427087
 30
0.0
 11
214.9398431499830622
 21
490.9001137121428542
 31
0.0
  0
LINE
  5
CD
100
AcDbEntity
  8
0
 62
256
370
-1
 48
1.0
  6
BYLAYER
100
AcDbLine
 10
214.9398431499830622
 20
490.9001137121428542
 30
0.0
 11
177.5798431499831622
 21
490.9001137121428542
 31
0.0
  0
LINE
  5
CE
100
AcDbEntity
  8
0
 62
256
370
-1
 48
1.0
  6
BYLAYER
100
AcDbLine
 10
177.5798431499831622
 20
490.9001137121428542
 30
0.0
 11
177.5798431499831622
 21
481.5601137121427087
 31
0.0
  0
LINE
  5
CF
100
AcDbEntity
  8
0
 62
256
370
-1
 48
1.0
  6
BYLAYER
100
AcDbLine
 10
56.1637640819831176
 20
3.9885525201440828
 30
0.0
 11
18.8037640819832177
 21
3.9885525201440828
 31
0.0
  0
LINE
  5
D0
100
AcDbEntity
  8
0
 62
256
370
-1
 48
1.0
  6
BYLAYER
100
AcDbLine
 10
18.8037640819832177
 20
3.9885525201440828
 30
0.0
 11
18.8037640819832177
 21
13.3285525201437736
 31
0.0
  0
LINE
  5
D1
100
AcDbEntity
  8
0
 62
256
370
-1
 48
1.0
  6
BYLAYER
100
AcDbLine
 10
56.1637640819831176
 20
13.3285525201437736
 30
0.0
 11
56.1637640819831176
 21
3.9885525201440828
 31
0.0
  0
LINE
  5
D2
100
AcDbEntity
  8
0
 62
256
370
-1
 48
1.0
  6
BYLAYER
100
AcDbLine
 10
56.1637640819831176
 20
3.9885525201440828
 30
0.0
 11
56.1637640819831176
 21
13.3285525201437736
 31
0.0
  0
LINE
  5
D3
100
AcDbEntity
  8
0
 62
256
370
-1
 48
1.0
  6
BYLAYER
100
AcDbLine
 10
56.1637640819831176
 20
13.3285525201437736
 30
0.0
 11
93.523764081983245
 21
13.3285525201437736
 31
0.0
  0
LINE
  5
D4
100
AcDbEntity
  8
0
 62
256
370
-1
 48
1.0
  6
BYLAYER
100
AcDbLine
 10
93.523764081983245
 20
13.3285525201437736
 30
0.0
 11
93.523764081983245
 21
3.9885525201440828
 31
0.0
  0
LINE
  5
D5
100
AcDbEntity
  8
0
 62
256
370
-1
 48
1.0
  6
BYLAYER
100
AcDbLine
 10
130.8837640819831449
 20
3.9885525201440828
 30
0.0
 11
93.523764081983245
 21
3.9885525201440828
 31
0.0
  0
LINE
  5
D6
100
AcDbEntity
  8
0
 62
256
370
-1
 48
1.0
  6
BYLAYER
100
AcDbLine
 10
93.523764081983245
 20
3.9885525201440828
 30
0.0
 11
93.523764081983245
 21
13.3285525201437736
 31
0.0
  0
LINE
  5
D7
100
AcDbEntity
  8
0
 62
256
370
-1
 48
1.0
  6
BYLAYER
100
AcDbLine
 10
130.8837640819831449
 20
13.3285525201437736
 30
0.0
 11
130.8837640819831449
 21
3.9885525201440828
 31
0.0
  0
LINE
  5
D8
100
AcDbEntity
  8
0
 62
256
370
-1
 48
1.0
  6
BYLAYER
100
AcDbLine
 10
130.8837640819831449
 20
3.9885525201440828
 30
0.0
 11
130.8837640819831449
 21
13.3285525201437736
 31
0.0
  0
LINE
  5
D9
100
AcDbEntity
  8
0
 62
256
370
-1
 48
1.0
  6
BYLAYER
100
AcDbLine
 10
130.8837640819831449
 20
13.3285525201437736
 30
0.0
 11
168.2437640819830449
 21
13.3285525201446831
 31
0.0
  0
LINE
  5
DA
100
AcDbEntity
  8
0
 62
256
370
-1
 48
1.0
  6
BYLAYER
100
AcDbLine
 10
168.2437640819830449
 20
13.3285525201446831
 30
0.0
 11
168.2437640819830449
 21
3.9885525201449923
 31
0.0
  0
LINE
  5
DB
100
AcDbEntity
  8
0
 62
256
370
-1
 48
1.0
  6
BYLAYER
100
AcDbLine
 10
205.6037640819831722
 20
3.9885525201449923
 30
0.0
 11
168.2437640819830449
 21
3.9885525201449923
 31
0.0
  0
LINE
  5
DC
100
AcDbEntity
  8
0
 62
256
370
-1
 48
1.0
  6
BYLAYER
100
AcDbLine
 10
168.2437640819830449
 20
3.9885525201449923
 30
0.0
 11
168.2437640819830449
 21
13.3285525201446831
 31
0.0
  0
LINE
  5
DD
100
AcDbEntity
  8
0
 62
256
370
-1
 48
1.0
  6
BYLAYER
100
AcDbLine
 10
205.6037640819831722
 20
13.3285525201446831
 30
0.0
 11
205.6037640819831722
 21
3.9885525201449923
 31
0.0
  0
LINE
  5
DE
100
AcDbEntity
  8
0
 62
256
370
-1
 48
1.0
  6
BYLAYER
100
AcDbLine
 10
205.6037640819831722
 20
3.9885525201449923
 30
0.0
 11
205.6037640819831722
 21
13.3285525201446831
 31
0.0
  0
LINE
  5
DF
100
AcDbEntity
  8
0
 62
256
370
-1
 48
1.0
  6
BYLAYER
100
AcDbLine
 10
205.6037640819831722
 20
13.3285525201446831
 30
0.0
 11
242.9637640819830722
 21
13.3285525201446831
 31
0.0
  0
LINE
  5
E0
100
AcDbEntity
  8
0
 62
256
370
-1
 48
1.0
  6
BYLAYER
100
AcDbLine
 10
242.9637640819830722
 20
13.3285525201446831
 30
0.0
 11
242.9637640819830722
 21
3.9885525201449923
 31
0.0
  0
LINE
  5
E1
100
AcDbEntity
  8
0
 62
256
370
-1
 48
1.0
  6
BYLAYER
100
AcDbLine
 10
280.3237640819831995
 20
3.9885525201449923
 30
0.0
 11
242.9637640819830722
 21
3.9885525201449923
 31
0.0
  0
LINE
  5
E2
100
AcDbEntity
  8
0
 62
256
370
-1
 48
1.0
  6
BYLAYER
100
AcDbLine
 10
242.9637640819830722
 20
3.9885525201449923
 30
0.0
 11
242.9637640819830722
 21
13.3285525201446831
 31
0.0
  0
LINE
  5
E3
100
AcDbEntity
  8
0
 62
256
370
-1
 48
1.0
  6
BYLAYER
100
AcDbLine
 10
280.3237640819831995
 20
13.3285525201446831
 30
0.0
 11
280.3237640819831995
 21
3.9885525201449923
 31
0.0
  0
LINE
  5
E4
100
AcDbEntity
  8
0
 62
256
370
-1
 48
1.0
  6
BYLAYER
100
AcDbLine
 10
280.3237640819831995
 20
3.9885525201449923
 30
0.0
 11
280.3237640819831995
 21
13.3285525201446831
 31
0.0
  0
LINE
  5
E5
100
AcDbEntity
  8
0
 62
256
370
-1
 48
1.0
  6
BYLAYER
100
AcDbLine
 10
280.3237640819831995
 20
13.3285525201446831
 30
0.0
 11
299.0140773099831222
 21
13.3310229501450408
 31
0.0
  0
LINE
  5
E6
100
AcDbEntity
  8
0
 62
256
370
-1
 48
1.0
  6
BYLAYER
100
AcDbLine
 10
18.8037640819832177
 20
174.2307798481439818
 30
0.0
 11
18.8037640819832177
 21
183.5707798481441273
 31
0.0
  0
LINE
  5
E7
100
AcDbEntity
  8
0
 62
256
370
-1
 48
1.0
  6
BYLAYER
100
AcDbLine
 10
18.8037640819832177
 20
183.5707798481441273
 30
0.0
 11
56.1637640819831176
 21
183.5707798481441273
 31
0.0
  0
LINE
  5
E8
100
AcDbEntity
  8
0
 62
256
370
-1
 48
1.0
  6
BYLAYER
100
AcDbLine
 10
56.1637640819831176
 20
183.5707798481441273
 30
0.0
 11
56.1637640819831176
 21
174.2307798481439818
 31
0.0
  0
LINE
  5
E9
100
AcDbEntity
  8
0
 62
256
370
-1
 48
1.0
  6
BYLAYER
100
AcDbLine
 10
93.523764081983245
 20
174.2307798481439818
 30
0.0
 11
56.1637640819831176
 21
174.2307798481439818
 31
0.0
  0
LINE
  5
EA
100
AcDbEntity
  8
0
 62
256
370
-1
 48
1.0
  6
BYLAYER
100
AcDbLine
 10
56.1637640819831176
 20
174.2307798481439818
 30
0.0
 11
56.1637640819831176
 21
183.5707798481441273
 31
0.0
  0
LINE
  5
EB
100
AcDbEntity
  8
0
 62
256
370
-1
 48
1.0
  6
BYLAYER
100
AcDbLine
 10
93.523764081983245
 20
183.5707798481441273
 30
0.0
 11
93.523764081983245
 21
174.2307798481439818
 31
0.0
  0
LINE
  5
EC
100
AcDbEntity
  8
0
 62
256
370
-1
 48
1.0
  6
BYLAYER
100
AcDbLine
 10
93.523764081983245
 20
174.2307798481439818
 30
0.0
 11
93.523764081983245
 21
183.5707798481441273
 31
0.0
  0
LINE
  5
ED
100
AcDbEntity
  8
0
 62
256
370
-1
 48
1.0
  6
BYLAYER
100
AcDbLine
 10
93.523764081983245
 20
183.5707798481441273
 30
0.0
 11
130.8837640819831449
 21
183.5707798481441273
 31
0.0
  0
LINE
  5
EE
100
AcDbEntity
  8
0
 62
256
370
-1
 48
1.0
  6
BYLAYER
100
AcDbLine
 10
130.8837640819831449
 20
183.5707798481441273
 30
0.0
 11
130.8837640819831449
 21
174.2307798481439818
 31
0.0
  0
LINE
  5
EF
100
AcDbEntity
  8
0
 62
256
370
-1
 48
1.0
  6
BYLAYER
100
AcDbLine
 10
168.2437640819830449
 20
174.2307798481439818
 30
0.0
 11
130.8837640819831449
 21
174.2307798481439818
 31
0.0
  0
LINE
  5
F0
100
AcDbEntity
  8
0
 62
256
370
-1
 48
1.0
  6
BYLAYER
100
AcDbLine
 10
130.8837640819831449
 20
174.2307798481439818
 30
0.0
 11
130.8837640819831449
 21
183.5707798481441273
 31
0.0
  0
LINE
  5
F1
100
AcDbEntity
  8
0
 62
256
370
-1
 48
1.0
  6
BYLAYER
100
AcDbLine
 10
168.2437640819830449
 20
183.5707798481441273
 30
0.0
 11
168.2437640819830449
 21
174.2307798481439818
 31
0.0
  0
LINE
  5
F2
100
AcDbEntity
  8
0
 62
256
370
-1
 48
1.0
  6
BYLAYER
100
AcDbLine
 10
168.2437640819830449
 20
174.2307798481439818
 30
0.0
 11
168.2437640819830449
 21
183.5707798481441273
 31
0.0
  0
LINE
  5
F3
100
AcDbEntity
  8
0
 62
256
370
-1
 48
1.0
  6
BYLAYER
100
AcDbLine
 10
168.2437640819830449
 20
183.5707798481441273
 30
0.0
 11
205.6037640819831722
 21
183.5707798481441273
 31
0.0
  0
LINE
  5
F4
100
AcDbEntity
  8
0
 62
256
370
-1
 48
1.0
  6
BYLAYER
100
AcDbLine
 10
205.6037640819831722
 20
183.5707798481441273
 30
0.0
 11
205.6037640819831722
 21
174.2307798481439818
 31
0.0
  0
LINE
  5
F5
100
AcDbEntity
  8
0
 62
256
370
-1
 48
1.0
  6
BYLAYER
100
AcDbLine
 10
242.9637640819830722
 20
174.2307798481439818
 30
0.0
 11
205.6037640819831722
 21
174.2307798481439818
 31
0.0
  0
LINE
  5
F6
100
AcDbEntity
  8
0
 62
256
370
-1
 48
1.0
  6
BYLAYER
100
AcDbLine
 10
205.6037640819831722
 20
174.2307798481439818
 30
0.0
 11
205.6037640819831722
 21
183.5707798481441273
 31
0.0
  0
LINE
  5
F7
100
AcDbEntity
  8
0
 62
256
370
-1
 48
1.0
  6
BYLAYER
100
AcDbLine
 10
242.9637640819830722
 20
183.5707798481441273
 30
0.0
 11
242.9637640819830722
 21
174.2307798481439818
 31
0.0
  0
LINE
  5
F8
100
AcDbEntity
  8
0
 62
256
370
-1
 48
1.0
  6
BYLAYER
100
AcDbLine
 10
242.9637640819830722
 20
174.2307798481439818
 30
0.0
 11
242.9637640819830722
 21
183.5707798481441273
 31
0.0
  0
LINE
  5
F9
100
AcDbEntity
  8
0
 62
256
370
-1
 48
1.0
  6
BYLAYER
100
AcDbLine
 10
242.9637640819830722
 20
183.5707798481441273
 30
0.0
 11
280.3237640819831995
 21
183.5707798481441273
 31
0.0
  0
LINE
  5
FA
100
AcDbEntity
  8
0
 62
256
370
-1
 48
1.0
  6
BYLAYER
100
AcDbLine
 10
280.3237640819831995
 20
183.5707798481441273
 30
0.0
 11
280.3237640819831995
 21
174.2307798481439818
 31
0.0
  0
LINE
  5
FB
100
AcDbEntity
  8
0
 62
256
370
-1
 48
1.0
  6
BYLAYER
100
AcDbLine
 10
303.6840773098610953
 20
174.2238607761457274
 30
0.0
 11
280.3237640819831995
 21
174.2307798481439818
 31
0.0
  0
LINE
  5
FC
100
AcDbEntity
  8
0
 62
256
370
-1
 48
1.0
  6
BYLAYER
100
AcDbLine
 10
280.3237640819831995
 20
174.2307798481439818
 30
0.0
 11
280.3237640819831995
 21
183.5707798481441273
 31
0.0
  0
LINE
  5
FD
100
AcDbEntity
  8
0
 62
256
370
-1
 48
1.0
  6
BYLAYER
100
AcDbLine
 10
280.3237640819831995
 20
174.2307798481439818
 30
0.0
 11
280.3237640819831995
 21
183.5707798481441273
 31
0.0
  0
LINE
  5
FE
100
AcDbEntity
  8
0
 62
256
370
-1
 48
1.0
  6
BYLAYER
100
AcDbLine
 10
280.3237640819831995
 20
183.5707798481441273
 30
0.0
 11
242.9637640819830722
 21
183.5707798481441273
 31
0.0
  0
LINE
  5
FF
100
AcDbEntity
  8
0
 62
256
370
-1
 48
1.0
  6
BYLAYER
100
AcDbLine
 10
242.9637640819830722
 20
183.5707798481441273
 30
0.0
 11
242.9637640819830722
 21
174.2307798481439818
 31
0.0
  0
LINE
  5
100
100
AcDbEntity
  8
0
 62
256
370
-1
 48
1.0
  6
BYLAYER
100
AcDbLine
 10
242.9637640819830722
 20
174.2307798481439818
 30
0.0
 11
205.6037640819831722
 21
174.2307798481439818
 31
0.0
  0
LINE
  5
101
100
AcDbEntity
  8
0
 62
256
370
-1
 48
1.0
  6
BYLAYER
100
AcDbLine
 10
205.6037640819831722
 20
174.2307798481439818
 30
0.0
 11
205.6037640819831722
 21
183.5707798481441273
 31
0.0
  0
LINE
  5
102
100
AcDbEntity
  8
0
 62
256
370
-1
 48
1.0
  6
BYLAYER
100
AcDbLine
 10
205.6037640819831722
 20
183.5707798481441273
 30
0.0
 11
168.2437640819830449
 21
183.5707798481441273
 31
0.0
  0
LINE
  5
103
100
AcDbEntity
  8
0
 62
256
370
-1
 48
1.0
  6
BYLAYER
100
AcDbLine
 10
168.2437640819830449
 20
183.5707798481441273
 30
0.0
 11
168.2437640819830449
 21
174.2307798481439818
 31
0.0
  0
LINE
  5
104
100
AcDbEntity
  8
0
 62
256
370
-1
 48
1.0
  6
BYLAYER
100
AcDbLine
 10
168.2437640819830449
 20
174.2307798481439818
 30
0.0
 11
130.8837640819831449
 21
174.2307798481439818
 31
0.0
  0
LINE
  5
105
100
AcDbEntity
  8
0
 62
256
370
-1
 48
1.0
  6
BYLAYER
100
AcDbLine
 10
130.8837640819831449
 20
174.2307798481439818
 30
0.0
 11
130.8837640819831449
 21
183.5707798481441273
 31
0.0
  0
LINE
  5
106
100
AcDbEntity
  8
0
 62
256
370
-1
 48
1.0
  6
BYLAYER
100
AcDbLine
 10
130.8837640819831449
 20
183.5707798481441273
 30
0.0
 11
93.523764081983245
 21
183.5707798481441273
 31
0.0
  0
LINE
  5
107
100
AcDbEntity
  8
0
 62
256
370
-1
 48
1.0
  6
BYLAYER
100
AcDbLine
 10
93.523764081983245
 20
183.5707798481441273
 30
0.0
 11
93.523764081983245
 21
174.2307798481439818
 31
0.0
  0
LINE
  5
108
100
AcDbEntity
  8
0
 62
256
370
-1
 48
1.0
  6
BYLAYER
100
AcDbLine
 10
93.523764081983245
 20
174.2307798481439818
 30
0.0
 11
56.1637640819831176
 21
174.2307798481439818
 31
0.0
  0
LINE
  5
109
100
AcDbEntity
  8
0
 62
256
370
-1
 48
1.0
  6
BYLAYER
100
AcDbLine
 10
56.1637640819831176
 20
174.2307798481439818
 30
0.0
 11
56.1637640819831176
 21
183.5707798481441273
 31
0.0
  0
LINE
  5
10A
100
AcDbEntity
  8
0
 62
256
370
-1
 48
1.0
  6
BYLAYER
100
AcDbLine
 10
56.1637640819831176
 20
183.5707798481441273
 30
0.0
 11
18.8037640819832177
 21
183.5707798481441273
 31
0.0
  0
LINE
  5
10B
100
AcDbEntity
  8
0
 62
256
370
-1
 48
1.0
  6
BYLAYER
100
AcDbLine
 10
18.8037640819832177
 20
183.5707798481441273
 30
0.0
 11
18.8037640819832177
 21
3.9885525201440828
 31
0.0
  0
LINE
  5
10C
100
AcDbEntity
  8
0
 62
256
370
-1
 48
1.0
  6
BYLAYER
100
AcDbLine
 10
18.8037640819832177
 20
3.9885525201440828
 30
0.0
 11
56.1637640819831176
 21
3.9885525201440828
 31
0.0
  0
LINE
  5
10D
100
AcDbEntity
  8
0
 62
256
370
-1
 48
1.0
  6
BYLAYER
100
AcDbLine
 10
56.1637640819831176
 20
3.9885525201440828
 30
0.0
 11
56.1637640819831176
 21
13.3285525201437736
 31
0.0
  0
LINE
  5
10E
100
AcDbEntity
  8
0
 62
256
370
-1
 48
1.0
  6
BYLAYER
100
AcDbLine
 10
56.1637640819831176
 20
13.3285525201437736
 30
0.0
 11
93.523764081983245
 21
13.3285525201437736
 31
0.0
  0
LINE
  5
10F
100
AcDbEntity
  8
0
 62
256
370
-1
 48
1.0
  6
BYLAYER
100
AcDbLine
 10
93.523764081983245
 20
13.3285525201437736
 30
0.0
 11
93.523764081983245
 21
3.9885525201440828
 31
0.0
  0
LINE
  5
110
100
AcDbEntity
  8
0
 62
256
370
-1
 48
1.0
  6
BYLAYER
100
AcDbLine
 10
93.523764081983245
 20
3.9885525201440828
 30
0.0
 11
130.8837640819831449
 21
3.9885525201440828
 31
0.0
  0
LINE
  5
111
100
AcDbEntity
  8
0
 62
256
370
-1
 48
1.0
  6
BYLAYER
100
AcDbLine
 10
130.8837640819831449
 20
3.9885525201440828
 30
0.0
 11
130.8837640819831449
 21
13.3285525201437736
 31
0.0
  0
LINE
  5
112
100
AcDbEntity
  8
0
 62
256
370
-1
 48
1.0
  6
BYLAYER
100
AcDbLine
 10
130.8837640819831449
 20
13.3285525201437736
 30
0.0
 11
168.2437640819830449
 21
13.3285525201446831
 31
0.0
  0
LINE
  5
113
100
AcDbEntity
  8
0
 62
256
370
-1
 48
1.0
  6
BYLAYER
100
AcDbLine
 10
168.2437640819830449
 20
13.3285525201446831
 30
0.0
 11
168.2437640819830449
 21
3.9885525201449923
 31
0.0
  0
LINE
  5
114
100
AcDbEntity
  8
0
 62
256
370
-1
 48
1.0
  6
BYLAYER
100
AcDbLine
 10
168.2437640819830449
 20
3.9885525201449923
 30
0.0
 11
205.6037640819831722
 21
3.9885525201449923
 31
0.0
  0
LINE
  5
115
100
AcDbEntity
  8
0
 62
256
370
-1
 48
1.0
  6
BYLAYER
100
AcDbLine
 10
205.6037640819831722
 20
3.9885525201449923
 30
0.0
 11
205.6037640819831722
 21
13.3285525201446831
 31
0.0
  0
LINE
  5
116
100
AcDbEntity
  8
0
 62
256
370
-1
 48
1.0
  6
BYLAYER
100
AcDbLine
 10
205.6037640819831722
 20
13.3285525201446831
 30
0.0
 11
242.9637640819830722
 21
13.3285525201446831
 31
0.0
  0
LINE
  5
117
100
AcDbEntity
  8
0
 62
256
370
-1
 48
1.0
  6
BYLAYER
100
AcDbLine
 10
242.9637640819830722
 20
13.3285525201446831
 30
0.0
 11
242.9637640819830722
 21
3.9885525201449923
 31
0.0
  0
LINE
  5
118
100
AcDbEntity
  8
0
 62
256
370
-1
 48
1.0
  6
BYLAYER
100
AcDbLine
 10
242.9637640819830722
 20
3.9885525201449923
 30
0.0
 11
280.3237640819831995
 21
3.9885525201449923
 31
0.0
  0
LINE
  5
119
100
AcDbEntity
  8
0
 62
256
370
-1
 48
1.0
  6
BYLAYER
100
AcDbLine
 10
280.3237640819831995
 20
3.9885525201449923
 30
0.0
 11
280.3237640781342179
 21
13.3285525201446831
 31
0.0
  0
LINE
  5
11A
100
AcDbEntity
  8
0
 62
256
370
-1
 48
1.0
  6
BYLAYER
100
AcDbLine
 10
303.6840773099841044
 20
13.3310229501450408
 30
0.0
 11
294.3440773099841863
 21
13.3310229501450408
 31
0.0
  0
LINE
  5
11B
100
AcDbEntity
  8
0
 62
256
370
-1
 48
1.0
  6
BYLAYER
100
AcDbLine
 10
294.3440773099841863
 20
50.6910229501447134
 30
0.0
 11
303.6840773099841044
 21
50.6910229501447134
 31
0.0
  0
LINE
  5
11C
100
AcDbEntity
  8
0
 62
256
370
-1
 48
1.0
  6
BYLAYER
100
AcDbLine
 10
303.6840773099841044
 20
50.6910229501447134
 30
0.0
 11
303.6840773099841044
 21
13.3310229501450408
 31
0.0
  0
LINE
  5
11D
100
AcDbEntity
  8
0
 62
256
370
-1
 48
1.0
  6
BYLAYER
100
AcDbLine
 10
303.6840773099221451
 20
50.6910229501447134
 30
0.0
 11
294.3440773099221133
 21
50.6910229501447134
 31
0.0
  0
LINE
  5
11E
100
AcDbEntity
  8
0
 62
256
370
-1
 48
1.0
  6
BYLAYER
100
AcDbLine
 10
294.3440773099221133
 20
50.6910229501447134
 30
0.0
 11
294.3440773099221133
 21
88.0510229501448407
 31
0.0
  0
LINE
  5
11F
100
AcDbEntity
  8
0
 62
256
370
-1
 48
1.0
  6
BYLAYER
100
AcDbLine
 10
294.3440773099221133
 20
88.0510229501448407
 30
0.0
 11
303.6840773099221451
 21
88.0510229501448407
 31
0.0
  0
LINE
  5
120
100
AcDbEntity
  8
0
 62
256
370
-1
 48
1.0
  6
BYLAYER
100
AcDbLine
 10
303.6840773098610953
 20
88.0510229501448407
 30
0.0
 11
294.3440773098601539
 21
88.0510229501448407
 31
0.0
  0
LINE
  5
121
100
AcDbEntity
  8
0
 62
256
370
-1
 48
1.0
  6
BYLAYER
100
AcDbLine
 10
294.3440773098601539
 20
125.411022950144968
 30
0.0
 11
303.6840773098610953
 21
125.411022950144968
 31
0.0
  0
LINE
  5
122
100
AcDbEntity
  8
0
 62
256
370
-1
 48
1.0
  6
BYLAYER
100
AcDbLine
 10
303.6840773098610953
 20
125.411022950144968
 30
0.0
 11
303.6840773098610953
 21
88.0510229501448407
 31
0.0
  0
LINE
  5
123
100
AcDbEntity
  8
0
 62
256
370
-1
 48
1.0
  6
BYLAYER
100
AcDbLine
 10
303.6840773098610953
 20
125.411022950144968
 30
0.0
 11
294.3440773098601539
 21
125.411022950144968
 31
0.0
  0
LINE
  5
124
100
AcDbEntity
  8
0
 62
256
370
-1
 48
1.0
  6
BYLAYER
100
AcDbLine
 10
294.3440773098601539
 20
125.411022950144968
 30
0.0
 11
294.3440773098601539
 21
162.7710229501450954
 31
0.0
  0
LINE
  5
125
100
AcDbEntity
  8
0
 62
256
370
-1
 48
1.0
  6
BYLAYER
100
AcDbLine
 10
294.3440773098601539
 20
162.7710229501450954
 30
0.0
 11
303.6840773098610953
 21
162.7710229501450954
 31
0.0
  0
LINE
  5
126
100
AcDbEntity
  8
0
 62
256
370
-1
 48
1.0
  6
BYLAYER
100
AcDbLine
 10
303.6840773098610953
 20
162.7710229501450954
 30
0.0
 11
294.3440773098601539
 21
162.7710229501450954
 31
0.0
  0
LINE
  5
127
100
AcDbEntity
  8
0
 62
256
370
-1
 48
1.0
  6
BYLAYER
100
AcDbLine
 10
303.6840773098610953
 20
174.2238607761457274
 30
0.0
 11
303.6840773098610953
 21
162.7710229501450954
 31
0.0
  0
LINE
  5
128
100
AcDbEntity
  8
0
 62
256
370
-1
 48
1.0
  6
BYLAYER
100
AcDbLine
 10
299.0140773098611362
 20
162.7710229501450954
 30
0.0
 11
294.3440773098601539
 21
162.7710229501450954
 31
0.0
  0
ENDSEC
  0
SECTION
  2
OBJECTS
  0
DICTIONARY
  5
C
100
AcDbDictionary
280
0
281
1
  3
ACAD_GROUP
350
D
  3
ACAD_LAYOUT
350
1A
  3
ACAD_MLINESTYLE
350
17
  3
ACAD_PLOTSETTINGS
350
19
  3
ACAD_PLOTSTYLENAME
350
E
  3
AcDbVariableDictionary
350
129
  3
QCAD_OBJECTS
350
12A
  0
DICTIONARY
  5
D
100
AcDbDictionary
280
0
281
1
  0
ACDBDICTIONARYWDFLT
  5
E
100
AcDbDictionary
281
1
  3
Normal
350
F
100
AcDbDictionaryWithDefault
340
F
  0
ACDBPLACEHOLDER
  5
F
  0
DICTIONARY
  5
17
100
AcDbDictionary
280
0
281
1
  3
Standard
350
18
  0
MLINESTYLE
  5
18
100
AcDbMlineStyle
  2
STANDARD
 70
0
  3

 62
256
 51
90.0
 52
90.0
 71
2
 49
0.5
 62
256
  6
BYLAYER
 49
-0.5
 62
256
  6
BYLAYER
  0
DICTIONARY
  5
19
100
AcDbDictionary
280
0
281
1
  0
DICTIONARY
  5
1A
100
AcDbDictionary
281
1
  3
Layout1
350
1E
  3
Layout2
350
26
  3
Model
350
22
  0
LAYOUT
  5
1E
100
AcDbPlotSettings
  1

  2
none_device
  4

  6

 40
0.0
 41
0.0
 42
0.0
 43
0.0
 44
0.0
 45
0.0
 46
0.0
 47
0.0
 48
0.0
 49
0.0
140
0.0
141
0.0
142
1.0
143
1.0
 70
688
 72
0
 73
0
 74
5
  7

 75
16
147
1.0
148
0.0
149
0.0
100
AcDbLayout
  1
Layout1
 70
1
 71
1
 10
0.0
 20
0.0
 11
420.0
 21
297.0
 12
0.0
 22
0.0
 32
0.0
 14
100000000000000000000.0
 24
100000000000000000000.0
 34
100000000000000000000.0
 15
-100000000000000000000.0
 25
-100000000000000000000.0
 35
-100000000000000000000.0
146
0.0
 13
0.0
 23
0.0
 33
0.0
 16
1.0
 26
0.0
 36
0.0
 17
0.0
 27
1.0
 37
0.0
 76
0
330
1B
  0
LAYOUT
  5
22
100
AcDbPlotSettings
  1

  2
none_device
  4

  6

 40
0.0
 41
0.0
 42
0.0
 43
0.0
 44
0.0
 45
0.0
 46
0.0
 47
0.0
 48
0.0
 49
0.0
140
0.0
141
0.0
142
1.0
143
1.0
 70
1712
 72
0
 73
0
 74
0
  7

 75
0
147
1.0
148
0.0
149
0.0
100
AcDbLayout
  1
Model
 70
1
 71
0
 10
0.0
 20
0.0
 11
12.0
 21
9.0
 12
0.0
 22
0.0
 32
0.0
 14
0.0
 24
0.0
 34
0.0
 15
0.0
 25
0.0
 35
0.0
146
0.0
 13
0.0
 23
0.0
 33
0.0
 16
1.0
 26
0.0
 36
0.0
 17
0.0
 27
1.0
 37
0.0
 76
0
330
1F
  0
LAYOUT
  5
26
100
AcDbPlotSettings
  1

  2
none_device
  4

  6

 40
0.0
 41
0.0
 42
0.0
 43
0.0
 44
0.0
 45
0.0
 46
0.0
 47
0.0
 48
0.0
 49
0.0
140
0.0
141
0.0
142
1.0
143
1.0
 70
688
 72
0
 73
0
 74
5
  7

 75
16
147
1.0
148
0.0
149
0.0
100
AcDbLayout
  1
Layout2
 70
1
 71
2
 10
0.0
 20
0.0
 11
12.0
 21
9.0
 12
0.0
 22
0.0
 32
0.0
 14
0.0
 24
0.0
 34
0.0
 15
0.0
 25
0.0
 35
0.0
146
0.0
 13
0.0
 23
0.0
 33
0.0
 16
1.0
 26
0.0
 36
0.0
 17
0.0
 27
1.0
 37
0.0
 76
0
330
23
  0
DICTIONARY
  5
129
100
AcDbDictionary
281
1
  3
DIMASSOC
350
12C
  3
HIDETEXT
350
12B
  0
DICTIONARYVAR
  5
12B
100
DictionaryVariables
280
0
  1
2
  0
DICTIONARYVAR
  5
12C
100
DictionaryVariables
280
0
  1
1
  0
DICTIONARY
  5
12A
100
AcDbDictionary
281
1
  3
ColorSettings/BackgroundColor
350
12D
  3
ColorSettings/ColorMode
350
12E
  3
Grid/DisplayGrid00
350
12F
  3
Grid/DisplayGrid01
350
130
  3
Grid/DisplayGrid02
350
131
  3
Grid/DisplayGrid03
350
132
  3
Grid/GridSpacingX00
350
133
  3
Grid/GridSpacingX01
350
134
  3
Grid/GridSpacingX02
350
135
  3
Grid/GridSpacingX03
350
136
  3
Grid/GridSpacingY00
350
137
  3
Grid/GridSpacingY01
350
138
  3
Grid/GridSpacingY02
350
139
  3
Grid/GridSpacingY03
350
13A
  3
Grid/IsometricGrid00
350
13B
  3
Grid/IsometricGrid01
350
13C
  3
Grid/IsometricGrid02
350
13D
  3
Grid/IsometricGrid03
350
13E
  3
Grid/IsometricProjection00
350
13F
  3
Grid/IsometricProjection01
350
140
  3
Grid/IsometricProjection02
350
141
  3
Grid/IsometricProjection03
350
142
  3
Grid/MetaGridSpacingX00
350
143
  3
Grid/MetaGridSpacingX01
350
144
  3
Grid/MetaGridSpacingX02
350
145
  3
Grid/MetaGridSpacingX03
350
146
  3
Grid/MetaGridSpacingY00
350
147
  3
Grid/MetaGridSpacingY01
350
148
  3
Grid/MetaGridSpacingY02
350
149
  3
Grid/MetaGridSpacingY03
350
14A
  3
MultiPageSettings/Columns
350
14B
  3
MultiPageSettings/GlueMarginsBottom
350
14C
  3
MultiPageSettings/GlueMarginsLeft
350
14D
  3
MultiPageSettings/GlueMarginsRight
350
14E
  3
MultiPageSettings/GlueMarginsTop
350
14F
  3
MultiPageSettings/PrintCropMarks
350
150
  3
MultiPageSettings/Rows
350
151
  3
PageSettings/OffsetX
350
152
  3
PageSettings/OffsetY
350
153
  3
PageSettings/PageOrientation
350
154
  3
PageSettings/PaperHeight
350
155
  3
PageSettings/PaperWidth
350
156
  3
PageSettings/Scale
350
157
  3
PageSettings/ShowPaperBorders
350
158
  3
UnitSettings/PaperUnit
350
159
  3
ViewportCenter
350
15A
  3
ViewportHeight
350
15B
  3
ViewportWidth
350
15C
  0
XRECORD
  5
12D
330
12A
100
AcDbXrecord
280
1
1000
\U+0411\U+0435\U+043b\U+044b\U+0439
  0
XRECORD
  5
12E
330
12A
100
AcDbXrecord
280
1
1000
FullColor
  0
XRECORD
  5
12F
330
12A
100
AcDbXrecord
280
1
290
1
  0
XRECORD
  5
130
330
12A
100
AcDbXrecord
280
1
290
1
  0
XRECORD
  5
131
330
12A
100
AcDbXrecord
280
1
290
1
  0
XRECORD
  5
132
330
12A
100
AcDbXrecord
280
1
290
1
  0
XRECORD
  5
133
330
12A
100
AcDbXrecord
280
1
1000
auto
  0
XRECORD
  5
134
330
12A
100
AcDbXrecord
280
1
1000
auto
  0
XRECORD
  5
135
330
12A
100
AcDbXrecord
280
1
1000
auto
  0
XRECORD
  5
136
330
12A
100
AcDbXrecord
280
1
1000
auto
  0
XRECORD
  5
137
330
12A
100
AcDbXrecord
280
1
1000
auto
  0
XRECORD
  5
138
330
12A
100
AcDbXrecord
280
1
1000
auto
  0
XRECORD
  5
139
330
12A
100
AcDbXrecord
280
1
1000
auto
  0
XRECORD
  5
13A
330
12A
100
AcDbXrecord
280
1
1000
auto
  0
XRECORD
  5
13B
330
12A
100
AcDbXrecord
280
1
290
0
  0
XRECORD
  5
13C
330
12A
100
AcDbXrecord
280
1
290
0
  0
XRECORD
  5
13D
330
12A
100
AcDbXrecord
280
1
290
0
  0
XRECORD
  5
13E
330
12A
100
AcDbXrecord
280
1
290
0
  0
XRECORD
  5
13F
330
12A
100
AcDbXrecord
280
1
 90
65537
  0
XRECORD
  5
140
330
12A
100
AcDbXrecord
280
1
 90
65537
  0
XRECORD
  5
141
330
12A
100
AcDbXrecord
280
1
 90
65537
  0
XRECORD
  5
142
330
12A
100
AcDbXrecord
280
1
 90
65537
  0
XRECORD
  5
143
330
12A
100
AcDbXrecord
280
1
1000
auto
  0
XRECORD
  5
144
330
12A
100
AcDbXrecord
280
1
1000
auto
  0
XRECORD
  5
145
330
12A
100
AcDbXrecord
280
1
1000
auto
  0
XRECORD
  5
146
330
12A
100
AcDbXrecord
280
1
1000
auto
  0
XRECORD
  5
147
330
12A
100
AcDbXrecord
280
1
1000
auto
  0
XRECORD
  5
148
330
12A
100
AcDbXrecord
280
1
1000
auto
  0
XRECORD
  5
149
330
12A
100
AcDbXrecord
280
1
1000
auto
  0
XRECORD
  5
14A
330
12A
100
AcDbXrecord
280
1
1000
auto
  0
XRECORD
  5
14B
330
12A
100
AcDbXrecord
280
1
 90
1
  0
XRECORD
  5
14C
330
12A
100
AcDbXrecord
280
1
 40
10.0
  0
XRECORD
  5
14D
330
12A
100
AcDbXrecord
280
1
 40
10.0
  0
XRECORD
  5
14E
330
12A
100
AcDbXrecord
280
1
 40
10.0
  0
XRECORD
  5
14F
330
12A
100
AcDbXrecord
280
1
 40
10.0
  0
XRECORD
  5
150
330
12A
100
AcDbXrecord
280
1
290
0
  0
XRECORD
  5
151
330
12A
100
AcDbXrecord
280
1
 90
1
  0
XRECORD
  5
152
330
12A
100
AcDbXrecord
280
1
 40
0.0
  0
XRECORD
  5
153
330
12A
100
AcDbXrecord
280
1
 40
0.0
  0
XRECORD
  5
154
330
12A
100
AcDbXrecord
280
1
1000
Portrait
  0
XRECORD
  5
155
330
12A
100
AcDbXrecord
280
1
 40
297.0
  0
XRECORD
  5
156
330
12A
100
AcDbXrecord
280
1
 40
210.0
  0
XRECORD
  5
157
330
12A
100
AcDbXrecord
280
1
1000
1:1
  0
XRECORD
  5
158
330
12A
100
AcDbXrecord
280
1
290
1
  0
XRECORD
  5
159
330
12A
100
AcDbXrecord
280
1
 90
4
  0
XRECORD
  5
15B
330
12A
100
AcDbXrecord
280
1
 40
1291.2316641229331253
  0
XRECORD
  5
15C
330
12A
100
AcDbXrecord
280
1
 40
2350.8403287021646975
  0
ENDSEC
  0
EOF
