999
dxflib 3.17.0.0
  0
SECTION
  2
HEADER
  9
$ACADVER
  1
AC1015
  9
$HANDSEED
  5
FFFF
  9
$DIMADEC
 70
0
  9
$DIMASZ
 40
25.0
  9
$DIMAUNIT
 70
0
  9
$DIMAZIN
 70
2
  9
$DIMDEC
 70
4
  9
$DIMDLI
 40
5.0
  9
$DIMDSEP
 70
46
  9
$DIMEXE
 40
12.5
  9
$DIMEXO
 40
6.25
  9
$DIMGAP
 40
6.25
  9
$DIMLUNIT
 70
2
  9
$DIMSCALE
 40
1.0
  9
$DIMTSZ
 40
0.0
  9
$DIMTXT
 40
25.0
  9
$DIMZIN
 70
8
  9
$DWGCODEPAGE
  3
ANSI_1252
  9
$INSUNITS
 70
4
  9
$LTSCALE
 40
1.0
  9
$MAXACTVP
 70
64
  9
$MEASUREMENT
 70
1
  9
$PDMODE
 70
0
  9
$PDSIZE
 40
0.0
  0
ENDSEC
  0
SECTION
  2
TABLES
  0
TABLE
  2
VPORT
  5
8
100
AcDbSymbolTable
 70
1
  0
VPORT
  5
30
100
AcDbSymbolTableRecord
100
AcDbViewportTableRecord
  2
*Active
 70
0
 10
0.0
 20
0.0
 11
1.0
 21
1.0
 12
286.3055555555554861
 22
148.5
 13
0.0
 23
0.0
 14
10.0
 24
10.0
 15
10.0
 25
10.0
 16
0.0
 26
0.0
 36
1.0
 17
0.0
 27
0.0
 37
0.0
 40
297.0
 41
1.92798353909465
 42
50.0
 43
0.0
 44
0.0
 50
0.0
 51
0.0
 71
0
 72
100
 73
1
 74
3
 75
1
 76
1
 77
0
 78
0
281
0
 65
1
110
0.0
120
0.0
130
0.0
111
1.0
121
0.0
131
0.0
112
0.0
122
1.0
132
0.0
 79
0
146
0.0
  0
ENDTAB
  0
TABLE
  2
LTYPE
  5
5
100
AcDbSymbolTable
 70
41
  0
LTYPE
  5
16
100
AcDbSymbolTableRecord
100
AcDbLinetypeTableRecord
  2
Continuous
 70
0
  3
Solid line
 72
65
 73
0
 40
0.0
  0
LTYPE
  5
31
100
AcDbSymbolTableRecord
100
AcDbLinetypeTableRecord
  2
ACAD_ISO14W100
 70
0
  3
ISO dash triple-dot __ . . . __ . . . __ . . . _
 72
65
 73
8
 40
24.0000000000000036
 49
12.0
 74
0
 49
-2.9500000000000002
 74
0
 49
0.1
 74
0
 49
-2.9000000000000004
 74
0
 49
0.1
 74
0
 49
-2.9000000000000004
 74
0
 49
0.1
 74
0
 49
-2.9500000000000002
 74
0
  0
LTYPE
  5
32
100
AcDbSymbolTableRecord
100
AcDbLinetypeTableRecord
  2
CENTER2
 70
0
  3
Center (.5x) ___ _ ___ _ ___ _ ___ _ ___ _ ___
 72
65
 73
4
 40
28.5750000000000028
 49
19.0500000000000007
 74
0
 49
-3.1749999999999998
 74
0
 49
3.1749999999999998
 74
0
 49
-3.1749999999999998
 74
0
  0
LTYPE
  5
33
100
AcDbSymbolTableRecord
100
AcDbLinetypeTableRecord
  2
BORDER2
 70
0
  3
Border (.5x) __.__.__.__.__.__.__.__.__.__.__.
 72
65
 73
6
 40
22.2250000000000014
 49
6.3499999999999996
 74
0
 49
-3.1749999999999998
 74
0
 49
6.3499999999999996
 74
0
 49
-3.125
 74
0
 49
0.1
 74
0
 49
-3.125
 74
0
  0
LTYPE
  5
34
100
AcDbSymbolTableRecord
100
AcDbLinetypeTableRecord
  2
ACAD_ISO13W100
 70
0
  3
ISO double-dash double-dot __ __ . . __ __ . . _
 72
65
 73
8
 40
36.0000000000000071
 49
12.0
 74
0
 49
-3.0
 74
0
 49
12.0
 74
0
 49
-2.9500000000000002
 74
0
 49
0.1
 74
0
 49
-2.9000000000000004
 74
0
 49
0.1
 74
0
 49
-2.9500000000000002
 74
0
  0
LTYPE
  5
35
100
AcDbSymbolTableRecord
100
AcDbLinetypeTableRecord
  2
HIDDEN2
 70
0
  3
Hidden (.5x) _ _ _ _ _ _ _ _ _ _ _ _ _ _ _ _ _ 
 72
65
 73
2
 40
4.7624999999999993
 49
3.1749999999999998
 74
0
 49
-1.5874999999999999
 74
0
  0
LTYPE
  5
36
100
AcDbSymbolTableRecord
100
AcDbLinetypeTableRecord
  2
ACAD_ISO02W100
 70
0
  3
ISO dash __ __ __ __ __ __ __ __ __ __ __ __ __
 72
65
 73
2
 40
15.0
 49
12.0
 74
0
 49
-3.0
 74
0
  0
LTYPE
  5
37
100
AcDbSymbolTableRecord
100
AcDbLinetypeTableRecord
  2
ACAD_ISO15W100
 70
0
  3
ISO double-dash triple-dot __ __ . . . __ __ . .
 72
65
 73
10
 40
39.0000000000000071
 49
12.0
 74
0
 49
-3.0
 74
0
 49
12.0
 74
0
 49
-2.9500000000000002
 74
0
 49
0.1
 74
0
 49
-2.9000000000000004
 74
0
 49
0.1
 74
0
 49
-2.9000000000000004
 74
0
 49
0.1
 74
0
 49
-2.9500000000000002
 74
0
  0
LTYPE
  5
38
100
AcDbSymbolTableRecord
100
AcDbLinetypeTableRecord
  2
PHANTOMX2
 70
0
  3
Phantom (2x) ____________    ____    ____   _
 72
65
 73
6
 40
127.0000000000000142
 49
63.5
 74
0
 49
-12.6999999999999993
 74
0
 49
12.6999999999999993
 74
0
 49
-12.6999999999999993
 74
0
 49
12.6999999999999993
 74
0
 49
-12.6999999999999993
 74
0
  0
LTYPE
  5
39
100
AcDbSymbolTableRecord
100
AcDbLinetypeTableRecord
  2
DASHED2
 70
0
  3
Dashed (.5x) _ _ _ _ _ _ _ _ _ _ _ _ _ _ _ _ _ 
 72
65
 73
2
 40
9.5249999999999986
 49
6.3499999999999996
 74
0
 49
-3.1749999999999998
 74
0
  0
LTYPE
  5
14
100
AcDbSymbolTableRecord
100
AcDbLinetypeTableRecord
  2
BYBLOCK
 70
0
  3

 72
65
 73
0
 40
0.0
  0
LTYPE
  5
15
100
AcDbSymbolTableRecord
100
AcDbLinetypeTableRecord
  2
BYLAYER
 70
0
  3

 72
65
 73
0
 40
0.0
  0
LTYPE
  5
3A
100
AcDbSymbolTableRecord
100
AcDbLinetypeTableRecord
  2
CENTER
 70
0
  3
Center ____ _ ____ _ ____ _ ____ _ ____ _ ____
 72
65
 73
4
 40
50.8000000000000043
 49
31.75
 74
0
 49
-6.3499999999999996
 74
0
 49
6.3499999999999996
 74
0
 49
-6.3499999999999996
 74
0
  0
LTYPE
  5
3B
100
AcDbSymbolTableRecord
100
AcDbLinetypeTableRecord
  2
HIDDEN
 70
0
  3
Hidden __ __ __ __ __ __ __ __ __ __ __ __ __ __
 72
65
 73
2
 40
9.5249999999999986
 49
6.3499999999999996
 74
0
 49
-3.1749999999999998
 74
0
  0
LTYPE
  5
3C
100
AcDbSymbolTableRecord
100
AcDbLinetypeTableRecord
  2
DOTX2
 70
0
  3
Dot (2x) .  .  .  .  .  .  .  .  .  .  .  .  .  .
 72
65
 73
2
 40
12.6999999999999993
 49
0.1
 74
0
 49
-12.5999999999999996
 74
0
  0
LTYPE
  5
3D
100
AcDbSymbolTableRecord
100
AcDbLinetypeTableRecord
  2
DOT2
 70
0
  3
Dot (.5x) ........................................
 72
65
 73
2
 40
3.1749999999999998
 49
0.1
 74
0
 49
-3.0749999999999997
 74
0
  0
LTYPE
  5
3E
100
AcDbSymbolTableRecord
100
AcDbLinetypeTableRecord
  2
DASHDOT
 70
0
  3
Dash dot __ . __ . __ . __ . __ . __ . __ . __
 72
65
 73
4
 40
25.4000000000000021
 49
12.6999999999999993
 74
0
 49
-6.2999999999999998
 74
0
 49
0.1
 74
0
 49
-6.2999999999999998
 74
0
  0
LTYPE
  5
3F
100
AcDbSymbolTableRecord
100
AcDbLinetypeTableRecord
  2
DASHDOTX2
 70
0
  3
Dash dot (2x) ____  .  ____  .  ____  .  ___
 72
65
 73
4
 40
50.7999999999999972
 49
25.3999999999999986
 74
0
 49
-12.6499999999999986
 74
0
 49
0.1
 74
0
 49
-12.6499999999999986
 74
0
  0
LTYPE
  5
40
100
AcDbSymbolTableRecord
100
AcDbLinetypeTableRecord
  2
DIVIDEX2
 70
0
  3
Divide (2x) ________  .  .  ________  .  .  _
 72
65
 73
6
 40
63.5
 49
25.3999999999999986
 74
0
 49
-12.6499999999999986
 74
0
 49
0.1
 74
0
 49
-12.5999999999999979
 74
0
 49
0.1
 74
0
 49
-12.6499999999999986
 74
0
  0
LTYPE
  5
41
100
AcDbSymbolTableRecord
100
AcDbLinetypeTableRecord
  2
ACAD_ISO06W100
 70
0
  3
ISO long-dash triple-dot ____ ... ____ ... ____
 72
65
 73
8
 40
36.0000000000000071
 49
24.0
 74
0
 49
-2.9500000000000002
 74
0
 49
0.1
 74
0
 49
-2.9000000000000004
 74
0
 49
0.1
 74
0
 49
-2.9000000000000004
 74
0
 49
0.1
 74
0
 49
-2.9500000000000002
 74
0
  0
LTYPE
  5
42
100
AcDbSymbolTableRecord
100
AcDbLinetypeTableRecord
  2
PHANTOM2
 70
0
  3
Phantom (.5x) ___ _ _ ___ _ _ ___ _ _ ___ _ _
 72
65
 73
6
 40
31.7500000000000036
 49
15.875
 74
0
 49
-3.1749999999999998
 74
0
 49
3.1749999999999998
 74
0
 49
-3.1749999999999998
 74
0
 49
3.1749999999999998
 74
0
 49
-3.1749999999999998
 74
0
  0
LTYPE
  5
43
100
AcDbSymbolTableRecord
100
AcDbLinetypeTableRecord
  2
ACAD_ISO03W100
 70
0
  3
ISO dash space __    __    __    __    __    __
 72
65
 73
2
 40
30.0
 49
12.0
 74
0
 49
-18.0
 74
0
  0
LTYPE
  5
44
100
AcDbSymbolTableRecord
100
AcDbLinetypeTableRecord
  2
BORDERX2
 70
0
  3
Border (2x) ____  ____  .  ____  ____  .  ___
 72
65
 73
6
 40
88.8999999999999773
 49
25.3999999999999986
 74
0
 49
-12.6999999999999993
 74
0
 49
25.3999999999999986
 74
0
 49
-12.6499999999999986
 74
0
 49
0.1
 74
0
 49
-12.6499999999999986
 74
0
  0
LTYPE
  5
45
100
AcDbSymbolTableRecord
100
AcDbLinetypeTableRecord
  2
ACAD_ISO10W100
 70
0
  3
ISO dash dot __ . __ . __ . __ . __ . __ . __ . 
 72
65
 73
4
 40
18.0
 49
12.0
 74
0
 49
-2.9500000000000002
 74
0
 49
0.1
 74
0
 49
-2.9500000000000002
 74
0
  0
LTYPE
  5
46
100
AcDbSymbolTableRecord
100
AcDbLinetypeTableRecord
  2
BORDER
 70
0
  3
Border __ __ . __ __ . __ __ . __ __ . __ __ .
 72
65
 73
6
 40
44.4499999999999957
 49
12.6999999999999993
 74
0
 49
-6.3499999999999996
 74
0
 49
12.6999999999999993
 74
0
 49
-6.2999999999999998
 74
0
 49
0.1
 74
0
 49
-6.2999999999999998
 74
0
  0
LTYPE
  5
47
100
AcDbSymbolTableRecord
100
AcDbLinetypeTableRecord
  2
DOT
 70
0
  3
Dot . . . . . . . . . . . . . . . . . . . . . . . .
 72
65
 73
2
 40
6.3499999999999996
 49
0.1
 74
0
 49
-6.25
 74
0
  0
LTYPE
  5
48
100
AcDbSymbolTableRecord
100
AcDbLinetypeTableRecord
  2
DIVIDE2
 70
0
  3
Divide (.5x) __..__..__..__..__..__..__..__.._
 72
65
 73
6
 40
15.8749999999999982
 49
6.3499999999999996
 74
0
 49
-3.125
 74
0
 49
0.1
 74
0
 49
-3.0750000000000002
 74
0
 49
0.1
 74
0
 49
-3.125
 74
0
  0
LTYPE
  5
49
100
AcDbSymbolTableRecord
100
AcDbLinetypeTableRecord
  2
PHANTOM
 70
0
  3
Phantom ______  __  __  ______  __  __  ______ 
 72
65
 73
6
 40
63.5000000000000071
 49
31.75
 74
0
 49
-6.3499999999999996
 74
0
 49
6.3499999999999996
 74
0
 49
-6.3499999999999996
 74
0
 49
6.3499999999999996
 74
0
 49
-6.3499999999999996
 74
0
  0
LTYPE
  5
4A
100
AcDbSymbolTableRecord
100
AcDbLinetypeTableRecord
  2
DIVIDE
 70
0
  3
Divide ____ . . ____ . . ____ . . ____ . . ____
 72
65
 73
6
 40
31.7500000000000036
 49
12.6999999999999993
 74
0
 49
-6.2999999999999998
 74
0
 49
0.1
 74
0
 49
-6.25
 74
0
 49
0.1
 74
0
 49
-6.2999999999999998
 74
0
  0
LTYPE
  5
4B
100
AcDbSymbolTableRecord
100
AcDbLinetypeTableRecord
  2
DASHDOT2
 70
0
  3
Dash dot (.5x) _._._._._._._._._._._._._._._.
 72
65
 73
4
 40
12.6999999999999993
 49
6.3499999999999996
 74
0
 49
-3.125
 74
0
 49
0.1
 74
0
 49
-3.125
 74
0
  0
LTYPE
  5
4C
100
AcDbSymbolTableRecord
100
AcDbLinetypeTableRecord
  2
ACAD_ISO05W100
 70
0
  3
ISO long-dash double-dot ____ .. ____ .. ____ . 
 72
65
 73
6
 40
33.0000000000000071
 49
24.0
 74
0
 49
-2.9500000000000002
 74
0
 49
0.1
 74
0
 49
-2.9000000000000004
 74
0
 49
0.1
 74
0
 49
-2.9500000000000002
 74
0
  0
LTYPE
  5
4D
100
AcDbSymbolTableRecord
100
AcDbLinetypeTableRecord
  2
DASHED
 70
0
  3
Dashed __ __ __ __ __ __ __ __ __ __ __ __ __ _
 72
65
 73
2
 40
19.0499999999999972
 49
12.6999999999999993
 74
0
 49
-6.3499999999999996
 74
0
  0
LTYPE
  5
4E
100
AcDbSymbolTableRecord
100
AcDbLinetypeTableRecord
  2
ACAD_ISO11W100
 70
0
  3
ISO double-dash dot __ __ . __ __ . __ __ . __ _
 72
65
 73
6
 40
33.0
 49
12.0
 74
0
 49
-3.0
 74
0
 49
12.0
 74
0
 49
-2.9500000000000002
 74
0
 49
0.1
 74
0
 49
-2.9500000000000002
 74
0
  0
LTYPE
  5
4F
100
AcDbSymbolTableRecord
100
AcDbLinetypeTableRecord
  2
CENTERX2
 70
0
  3
Center (2x) ________  __  ________  __  _____
 72
65
 73
4
 40
101.6000000000000085
 49
63.5
 74
0
 49
-12.6999999999999993
 74
0
 49
12.6999999999999993
 74
0
 49
-12.6999999999999993
 74
0
  0
LTYPE
  5
50
100
AcDbSymbolTableRecord
100
AcDbLinetypeTableRecord
  2
ACAD_ISO08W100
 70
0
  3
ISO long-dash short-dash ____ __ ____ __ ____ _
 72
65
 73
4
 40
36.0
 49
24.0
 74
0
 49
-3.0
 74
0
 49
6.0
 74
0
 49
-3.0
 74
0
  0
LTYPE
  5
51
100
AcDbSymbolTableRecord
100
AcDbLinetypeTableRecord
  2
DASHEDX2
 70
0
  3
Dashed (2x) ____  ____  ____  ____  ____  ___
 72
65
 73
2
 40
38.0999999999999943
 49
25.3999999999999986
 74
0
 49
-12.6999999999999993
 74
0
  0
LTYPE
  5
52
100
AcDbSymbolTableRecord
100
AcDbLinetypeTableRecord
  2
HIDDENX2
 70
0
  3
Hidden (2x) ____ ____ ____ ____ ____ ____ ____ 
 72
65
 73
2
 40
19.0499999999999972
 49
12.6999999999999993
 74
0
 49
-6.3499999999999996
 74
0
  0
LTYPE
  5
53
100
AcDbSymbolTableRecord
100
AcDbLinetypeTableRecord
  2
ACAD_ISO09W100
 70
0
  3
ISO long-dash double-short-dash ____ __ __ ____
 72
65
 73
6
 40
45.0
 49
24.0
 74
0
 49
-3.0
 74
0
 49
6.0
 74
0
 49
-3.0
 74
0
 49
6.0
 74
0
 49
-3.0
 74
0
  0
LTYPE
  5
54
100
AcDbSymbolTableRecord
100
AcDbLinetypeTableRecord
  2
ACAD_ISO07W100
 70
0
  3
ISO dot . . . . . . . . . . . . . . . . . . . . 
 72
65
 73
2
 40
3.0
 49
0.1
 74
0
 49
-2.8999999999999999
 74
0
  0
LTYPE
  5
55
100
AcDbSymbolTableRecord
100
AcDbLinetypeTableRecord
  2
ACAD_ISO04W100
 70
0
  3
ISO long-dash dot ____ . ____ . ____ . ____ . _
 72
65
 73
4
 40
30.0
 49
24.0
 74
0
 49
-2.9500000000000002
 74
0
 49
0.1
 74
0
 49
-2.9500000000000002
 74
0
  0
LTYPE
  5
56
100
AcDbSymbolTableRecord
100
AcDbLinetypeTableRecord
  2
ACAD_ISO12W100
 70
0
  3
ISO dash double-dot __ . . __ . . __ . . __ . . 
 72
65
 73
6
 40
21.0
 49
12.0
 74
0
 49
-2.9500000000000002
 74
0
 49
0.1
 74
0
 49
-2.9000000000000004
 74
0
 49
0.1
 74
0
 49
-2.9500000000000002
 74
0
  0
ENDTAB
  0
TABLE
  2
LAYER
  5
2
100
AcDbSymbolTable
 70
1
  0
LAYER
  5
10
100
AcDbSymbolTableRecord
100
AcDbLayerTableRecord
  2
0
 70
0
 62
7
420
16777215
  6
Continuous
370
25
390
F
  0
ENDTAB
  0
TABLE
  2
STYLE
  5
3
100
AcDbSymbolTable
 70
1
  0
STYLE
  5
57
100
AcDbSymbolTableRecord
100
AcDbTextStyleTableRecord
  2
Standard
 70
0
 40
0.0
 41
1.0
 50
0.0
 71
0
 42
2.5
  3

  4

1001
ACAD
1000
txt
1071
0
  0
ENDTAB
  0
TABLE
  2
VIEW
  5
6
100
AcDbSymbolTable
 70
0
  0
ENDTAB
  0
TABLE
  2
UCS
  5
7
100
AcDbSymbolTable
 70
0
  0
ENDTAB
  0
TABLE
  2
APPID
  5
9
100
AcDbSymbolTable
 70
1
  0
APPID
  5
12
100
AcDbSymbolTableRecord
100
AcDbRegAppTableRecord
  2
ACAD
 70
0
  0
APPID
  5
58
100
AcDbSymbolTableRecord
100
AcDbRegAppTableRecord
  2
QCAD
 70
0
  0
ENDTAB
  0
TABLE
  2
DIMSTYLE
  5
A
100
AcDbSymbolTable
 70
1
100
AcDbDimStyleTable
 71
0
  0
DIMSTYLE
105
27
100
AcDbSymbolTableRecord
100
AcDbDimStyleTableRecord
  2
Standard
 41
25.0
 42
6.25
 43
3.75
 44
12.5
 70
0
 73
0
 74
0
 77
1
 78
8
140
25.0
141
2.5
143
0.03937007874016
147
6.25
171
3
172
1
271
2
272
2
274
3
278
44
283
0
284
8
340
57
  0
ENDTAB
  0
TABLE
  2
BLOCK_RECORD
  5
1
100
AcDbSymbolTable
 70
1
  0
BLOCK_RECORD
  5
1F
100
AcDbSymbolTableRecord
100
AcDbBlockTableRecord
  2
*Model_Space
340
22
  0
BLOCK_RECORD
  5
1B
100
AcDbSymbolTableRecord
100
AcDbBlockTableRecord
  2
*Paper_Space
340
1E
  0
BLOCK_RECORD
  5
23
100
AcDbSymbolTableRecord
100
AcDbBlockTableRecord
  2
*Paper_Space0
340
26
  0
ENDTAB
  0
ENDSEC
  0
SECTION
  2
BLOCKS
  0
BLOCK
  5
20
100
AcDbEntity
  8
0
100
AcDbBlockBegin
  2
*Model_Space
 70
0
 10
0.0
 20
0.0
 30
0.0
  3
*Model_Space
  1

  0
ENDBLK
  5
21
100
AcDbEntity
  8
0
100
AcDbBlockEnd
  0
BLOCK
  5
1C
100
AcDbEntity
 67
1
  8
0
100
AcDbBlockBegin
  2
*Paper_Space
 70
0
 10
0.0
 20
0.0
 30
0.0
  3
*Paper_Space
  1

  0
ENDBLK
  5
1D
100
AcDbEntity
 67
1
  8
0
100
AcDbBlockEnd
  0
BLOCK
  5
24
100
AcDbEntity
  8
0
100
AcDbBlockBegin
  2
*Paper_Space0
 70
0
 10
0.0
 20
0.0
 30
0.0
  3
*Paper_Space0
  1

  0
ENDBLK
  5
25
100
AcDbEntity
  8
0
100
AcDbBlockEnd
  0
ENDSEC
  0
SECTION
  2
ENTITIES
  0
LWPOLYLINE
  5
59
100
AcDbEntity
  8
0
 62
7
420
16777215
370
-1
 48
1.0
  6
BYLAYER
100
AcDbPolyline
 90
4
 70
1
 10
15.8101764938062388
 20
10.3664872524358884
 10
296.020489721806257
 20
10.3664872524358884
 10
296.020489721806257
 20
288.7055118664356428
 10
15.8101764938062388
 20
288.7055118664356428
  0
LWPOLYLINE
  5
5A
100
AcDbEntity
  8
0
 62
7
420
16777215
370
-1
 48
1.0
  6
BYLAYER
100
AcDbPolyline
 90
4
 70
1
 10
21.4198197218063342
 20
178.4911030804359484
 10
21.4198197218063342
 20
209.3139903804357687
 10
43.8336789938064157
 20
209.3139903804357687
 10
43.8336789938064157
 20
178.4911030804359484
  0
LWPOLYLINE
  5
5B
100
AcDbEntity
  8
0
 62
7
420
16777215
370
-1
 48
1.0
  6
BYLAYER
100
AcDbPolyline
 90
4
 70
1
 10
21.4198197218063342
 20
213.9840800444357569
 10
21.4198197218063342
 20
284.0349281164357649
 10
290.4108464938062752
 20
284.0349281164357649
 10
290.4108464938062752
 20
213.9840800444357569
  0
LWPOLYLINE
  5
5C
100
AcDbEntity
  8
0
 62
7
420
16777215
370
-1
 48
1.0
  6
BYLAYER
100
AcDbPolyline
 90
4
 70
1
 10
49.4433222218062838
 20
178.4911030804359484
 10
49.4433222218062838
 20
209.3139903804357687
 10
71.8571814938063653
 20
209.3139903804357687
 10
71.8571814938063653
 20
178.4911030804359484
  0
LWPOLYLINE
  5
5D
100
AcDbEntity
  8
0
 62
7
420
16777215
370
-1
 48
1.0
  6
BYLAYER
100
AcDbPolyline
 90
4
 70
1
 10
77.4668247218062334
 20
178.4911030804359484
 10
77.4668247218062334
 20
209.3139903804357687
 10
99.8806839938054054
 20
209.3139903804357687
 10
99.8806839938054054
 20
178.4911030804359484
  0
LWPOLYLINE
  5
5E
100
AcDbEntity
  8
0
 62
7
420
16777215
370
-1
 48
1.0
  6
BYLAYER
100
AcDbPolyline
 90
4
 70
1
 10
105.4656145158062373
 20
178.4911030804359484
 10
105.4656145158062373
 20
209.3139903804357687
 10
127.9041864938062645
 20
209.3139903804357687
 10
127.9041864938062645
 20
178.4911030804359484
  0
LWPOLYLINE
  5
5F
100
AcDbEntity
  8
0
 62
7
420
16777215
370
-1
 48
1.0
  6
BYLAYER
100
AcDbPolyline
 90
4
 70
1
 10
133.4891170158064142
 20
178.4911030804359484
 10
133.4891170158064142
 20
209.3139903804357687
 10
155.9029772218063954
 20
209.3139903804357687
 10
155.9029772218063954
 20
178.4911030804359484
  0
LWPOLYLINE
  5
60
100
AcDbEntity
  8
0
 62
7
420
16777215
370
-1
 48
1.0
  6
BYLAYER
100
AcDbPolyline
 90
4
 70
1
 10
161.5126195158052269
 20
178.4911030804359484
 10
161.5126195158052269
 20
209.3139903804357687
 10
183.926479721806345
 20
209.3139903804357687
 10
183.926479721806345
 20
178.4911030804359484
  0
LWPOLYLINE
  5
61
100
AcDbEntity
  8
0
 62
7
420
16777215
370
-1
 48
1.0
  6
BYLAYER
100
AcDbPolyline
 90
4
 70
1
 10
189.5361220158063134
 20
178.4911030804359484
 10
189.5361220158063134
 20
209.3139903804357687
 10
211.9499822218062945
 20
209.3139903804357687
 10
211.9499822218062945
 20
178.4911030804359484
  0
LWPOLYLINE
  5
62
100
AcDbEntity
  8
0
 62
7
420
16777215
370
-1
 48
1.0
  6
BYLAYER
100
AcDbPolyline
 90
4
 70
1
 10
217.5596245158062629
 20
178.4911030804359484
 10
217.5596245158062629
 20
209.3139903804357687
 10
239.9734847218062441
 20
209.3139903804357687
 10
239.9734847218062441
 20
178.4911030804359484
  0
LWPOLYLINE
  5
63
100
AcDbEntity
  8
0
 62
7
420
16777215
370
-1
 48
1.0
  6
BYLAYER
100
AcDbPolyline
 90
4
 70
1
 10
245.5831270158062125
 20
178.4911030804359484
 10
245.5831270158062125
 20
209.3139903804357687
 10
267.9969872218064211
 20
209.3139903804357687
 10
267.9969872218064211
 20
178.4911030804359484
  0
LWPOLYLINE
  5
64
100
AcDbEntity
  8
0
 62
7
420
16777215
370
-1
 48
1.0
  6
BYLAYER
100
AcDbPolyline
 90
4
 70
1
 10
273.6066295158062758
 20
178.4911030804359484
 10
273.6066295158062758
 20
209.3139903804357687
 10
290.4108464938062752
 20
209.3139903804357687
 10
290.4108464938062752
 20
178.4911030804359484
  0
LWPOLYLINE
  5
65
100
AcDbEntity
  8
0
 62
7
420
16777215
370
-1
 48
1.0
  6
BYLAYER
100
AcDbPolyline
 90
500
 70
1
 10
99.8806839938063149
 20
386.084523722436586
 10
99.8806839938063149
 20
386.7248134124355943
 10
99.8806839938063149
 20
387.3651031024359668
 10
99.9053957658063609
 20
388.0051462164369127
 10
99.9548202438063527
 20
388.6449427544366131
 10
99.9795320158063987
 20
389.284244272435842
 10
100.0289564938063904
 20
389.9230517044356361
 10
100.0783809718063821
 20
390.5613641164358683
 10
100.1525172218064199
 20
391.1989358664358747
 10
100.2266534718062303
 20
391.8355194444356471
 10
100.3255014938063141
 20
392.4713614264359762
 10
100.3996377438063519
 20
393.1062143024359443
 10
100.4984857658064357
 20
393.7398324304367065
 10
100.6220464938062378
 20
394.372461452436653
 10
100.7456072218062673
 20
395.0036082164369304
 10
100.8691670158063971
 20
395.6335192984369655
 10
100.9927277438064266
 20
396.2617006124368686
 10
101.1410002438062747
 20
396.8883987344369757
 10
101.2892727438063503
 20
397.5133680224366231
 10
101.4622570158062445
 20
398.1363590984369125
 10
101.6352422218062657
 20
398.7576213404358327
 10
101.8082264938063872
 20
399.3769053704367593
 10
102.0059234718062271
 20
399.9939664804359722
 10
102.2036195158063947
 20
400.6090503124359543
 10
102.4013164938062346
 20
401.2216627804359064
 10
102.6237252438063479
 20
401.8320513944358368
 10
102.8461339938062338
 20
402.4397211344366383
 10
103.0685427438063471
 20
403.0449204444357179
 10
103.315663265806279
 20
403.6474008804356686
 10
103.562784721806338
 20
404.247163376435708
 10
103.8099052438062699
 20
404.8439604224358277
 10
104.0817384718063749
 20
405.4380385944359091
 10
104.3535707658063529
 20
406.0289047404357348
 10
104.6254039938062306
 20
406.6165579264356325
 10
104.9219489938063816
 20
407.2009981524356022
 10
105.2184939938063053
 20
407.7822263524357709
 10
105.515038993806229
 20
408.3597484404357942
 10
105.81158399380638
 20
408.9340566344366721
 10
106.1328407658063497
 20
409.5046587164355856
 10
106.4788102438062651
 20
410.0715537524369552
 10
106.8000670158062348
 20
410.6344951664358973
 10
107.1460364938063776
 20
411.1937295344359313
 10
107.492005971806293
 20
411.7490102804367211
 10
107.8626872218062545
 20
412.300336470435866
 10
108.2333684718062159
 20
412.847214952435877
 10
108.6040497218064047
 20
413.3901398124366438
 10
108.9747309718063661
 20
413.9286160304358759
 10
109.3701239938063736
 20
414.4628911164367651
 10
109.7655170158063811
 20
414.9924709844357835
 10
110.1609109718062882
 20
415.5176031444365776
 10
110.5810157658063417
 20
416.0380391524358288
 10
111.0011214938062949
 20
416.5535333664369659
 10
111.4212272218062481
 20
417.064579872435786
 10
111.8413320158063016
 20
417.5704361404368115
 10
112.2861495158063008
 20
418.0715971904368757
 10
112.7309670158063
 20
418.5675680024359622
 10
113.1757845158062992
 20
419.0583504444365985
 10
113.6453147218062441
 20
419.5439426484367118
 10
114.1148439938062893
 20
420.0243455484368837
 10
114.5843732658063345
 20
420.4993116344357418
 10
115.0539034718062794
 20
420.9688418404365962
 10
115.5481445158063707
 20
421.4329342984360096
 10
116.0423864938063616
 20
421.8913433664355921
 10
116.5366284718063525
 20
422.3443165544367162
 10
117.0308695158062164
 20
422.7913579084369644
 10
117.5498232658062534
 20
423.2327158724369269
 10
118.0687770158062904
 20
423.6681420024369231
 10
118.5877307658063273
 20
424.0976381664358428
 10
119.1066845158063643
 20
424.5209559204367338
 10
119.6503509718063469
 20
424.9383437084356387
 10
120.1940164938064299
 20
425.3497996624368511
 10
120.7376820158062856
 20
425.7548306304356061
 10
121.2813484718062682
 20
426.1536841224369141
 10
121.8497257658063972
 20
426.5461116944370019
 10
122.4181039938064259
 20
426.9321142804359965
 10
122.9617695158062816
 20
427.3119393904357253
 10
123.5548595158063563
 20
427.6850910704355897
 10
124.123237743806385
 20
428.0515721224359709
 10
124.7163277438062323
 20
428.4116263204368238
 10
125.284705971806261
 20
428.7647623804368209
 10
125.8777959718063357
 20
429.1112259444366259
 10
126.4708859718064105
 20
429.4510170124366937
 10
127.0886877438063038
 20
429.7838890084357786
 10
127.6817777438063786
 20
430.1098409984369368
 10
128.299579515806272
 20
430.4288739164366575
 10
128.9173822218062924
 20
430.7409877624358501
 10
129.5351839938064131
 20
431.0459350264367799
 10
130.1529857658063065
 20
431.3437157084367186
 10
130.795500243806373
 20
431.6345763844360022
 10
131.4133020158062664
 20
431.9180239024357775
 10
132.0558164938063328
 20
432.1943057724369623
 10
132.6983309718063992
 20
432.4634201264356648
 10
133.3408445158063387
 20
432.7251213224357684
 10
133.9833589938064051
 20
432.9794084264357821
 10
134.6258734718062442
 20
433.2262823724358327
 10
135.2930997218063567
 20
433.4657422264357933
 10
135.9356132658062961
 20
433.6977889224357909
 10
136.6028395158064086
 20
433.9221740164356902
 10
137.2700657658062937
 20
434.1391459524356264
 10
137.9372920158064062
 20
434.3484581544357184
 10
138.6045182658062913
 20
434.5501078204369492
 10
139.2717445158064038
 20
434.7443452624369797
 10
139.9389707658062889
 20
434.9306745264365759
 10
140.6061970158064014
 20
435.109343122435746
 10
141.2981359718062322
 20
435.2801035404367553
 10
141.9653622218063447
 20
435.4434498664358557
 10
142.6573002438062758
 20
435.5986423724356769
 10
143.3492382658064344
 20
435.7461732764358544
 10
144.0411772218062652
 20
435.8860435124356059
 10
144.7331152438064237
 20
436.0177589944359511
 10
145.4250532658063548
 20
436.1418138084367797
 10
146.116992221806413
 20
436.2577129344367108
 10
146.8089302438063442
 20
436.3659523264358882
 10
147.5008682658062753
 20
436.466036030435987
 10
148.1928072218063335
 20
436.5582124904366879
 10
148.8847452438062646
 20
436.6424807724355901
 10
149.6013959718063688
 20
436.7188408764358769
 10
150.2933339938063
 20
436.7870462264367575
 10
150.9852720158062311
 20
436.8473433984367489
 10
151.7019227438063353
 20
436.8994858164368793
 10
152.3938607658062665
 20
436.9437209904367023
 10
153.1105114938063707
 20
436.9800470524368734
 10
153.8024495158063019
 20
437.0082192944359463
 10
154.49438847180636
 20
437.0282358484368501
 10
155.2110382658063372
 20
437.0403451584356276
 10
155.9029772218063954
 20
437.0442987804366908
 10
156.6196270158063726
 20
437.0403451584356276
 10
157.3115659718064308
 20
437.0282358484368501
 10
158.0282157658064079
 20
437.0082192944359463
 10
158.7201547218062387
 20
436.9800470524368734
 10
159.4368045158062159
 20
436.9437209904367023
 10
160.1287434718062741
 20
436.8994858164368793
 10
160.8453932658062513
 20
436.8473433984367489
 10
161.5373322218063095
 20
436.7870462264367575
 10
162.2292702438062406
 20
436.7188408764358769
 10
162.9459209718063448
 20
436.6424807724355901
 10
163.637858993806276
 20
436.5582124904366879
 10
164.3297970158064345
 20
436.466036030435987
 10
165.0217359718062653
 20
436.3659523264358882
 10
165.7136739938064238
 20
436.2577129344367108
 10
166.405612015806355
 20
436.1418138084367797
 10
167.0975509718064131
 20
436.0177589944359511
 10
167.7894889938063443
 20
435.8860435124356059
 10
168.4814270158062754
 20
435.7461732764358544
 10
169.1733659718063336
 20
435.5986423724356769
 10
169.8405922218062187
 20
435.4434498664358557
 10
170.5325302438063773
 20
435.2801035404367553
 10
171.1997564938062624
 20
435.109343122435746
 10
171.8916945158064209
 20
434.9306745264365759
 10
172.558920765806306
 20
434.7443452624369797
 10
173.2261470158064185
 20
434.5501078204369492
 10
173.8933732658063036
 20
434.3484581544357184
 10
174.5605995158064161
 20
434.1391459524356264
 10
175.2278257658063012
 20
433.9221740164356902
 10
175.8950520158064137
 20
433.6977889224357909
 10
176.5375664938062528
 20
433.4657422264357933
 10
177.2047927438063653
 20
433.2262823724358327
 10
177.8473072218064317
 20
432.9794084264357821
 10
178.4898207658063711
 20
432.7251213224357684
 10
179.1323352438064376
 20
432.4634201264356648
 10
179.7748497218062766
 20
432.1943057724369623
 10
180.4173632658062161
 20
431.9180239024357775
 10
181.0351659718062365
 20
431.6345763844360022
 10
181.6776795158064033
 20
431.3437157084367186
 10
182.2954822218064237
 20
431.0459350264367799
 10
182.9132839938063171
 20
430.7409877624358501
 10
183.5310857658064378
 20
430.4288739164366575
 10
184.1488884718062309
 20
430.1098409984369368
 10
184.7419784718063056
 20
429.7838890084357786
 10
185.3350684718063803
 20
429.4510170124366937
 10
185.9528702438062737
 20
429.1112259444366259
 10
186.5459602438063484
 20
428.7647623804368209
 10
187.1143384718063771
 20
428.4116263204368238
 10
187.7074284718062245
 20
428.0515721224359709
 10
188.2758057658063535
 20
427.6850910704355897
 10
188.8441839938063822
 20
427.3119393904357253
 10
189.4125622218064109
 20
426.9321142804359965
 10
189.9809395158063126
 20
426.5461116944370019
 10
190.5493177438063412
 20
426.1536841224369141
 10
191.0929832658064242
 20
425.7548306304356061
 10
191.6366497218064069
 20
425.3497996624368511
 10
192.1803152438062625
 20
424.9383437084356387
 10
192.6992689938062995
 20
424.5209559204367338
 10
193.2429345158063825
 20
424.0976381664358428
 10
193.7618882658064194
 20
423.6681420024369231
 10
194.280842015806229
 20
423.2327158724369269
 10
194.799795765806266
 20
422.7913579084369644
 10
195.2940377438062569
 20
422.3443165544367162
 10
195.7882797218062478
 20
421.8913433664355921
 10
196.2825207658063391
 20
421.4329342984360096
 10
196.77676274380633
 20
420.9688418404365962
 10
197.2462920158063753
 20
420.4993116344357418
 10
197.7158222218063202
 20
420.0243455484368837
 10
198.1853514938063654
 20
419.5439426484367118
 10
198.6548807658064106
 20
419.0583504444365985
 10
199.0996982658064098
 20
418.5675680024359622
 10
199.544515765806409
 20
418.0715971904368757
 10
199.9893332658064082
 20
417.5704361404368115
 10
200.4094389938063614
 20
417.064579872435786
 10
200.8295447218063146
 20
416.5535333664369659
 10
201.2496495158063681
 20
416.0380391524358288
 10
201.6697552438063212
 20
415.5176031444365776
 10
202.0651482658063287
 20
414.9924709844357835
 10
202.4605422218062358
 20
414.4628911164367651
 10
202.8559352438062433
 20
413.9286160304358759
 10
203.2266164938064321
 20
413.3901398124366438
 10
203.5972977438063936
 20
412.847214952435877
 10
203.967978993806355
 20
412.300336470435866
 10
204.3386602438063164
 20
411.7490102804367211
 10
204.6846297218062318
 20
411.1937295344359313
 10
205.0305982658062476
 20
410.6344951664358973
 10
205.3518559718063443
 20
410.0715537524369552
 10
205.6978245158063601
 20
409.5046587164355856
 10
205.9943695158062837
 20
408.9340566344366721
 10
206.3156272218063805
 20
408.3597484404357942
 10
206.6121722218063042
 20
407.7822263524357709
 10
206.9087172218062278
 20
407.2009981524356022
 10
207.2052622218063789
 20
406.6165579264356325
 10
207.4770945158063569
 20
406.0289047404357348
 10
207.7489277438062345
 20
405.4380385944359091
 10
208.0207609718063395
 20
404.8439604224358277
 10
208.2678814938062715
 20
404.247163376435708
 10
208.5150020158064308
 20
403.6474008804356686
 10
208.7621234718062624
 20
403.0449204444357179
 10
208.9845322218063757
 20
402.4397211344366383
 10
209.2069409718062616
 20
401.8320513944358368
 10
209.4293497218063749
 20
401.2216627804359064
 10
209.6270457658063151
 20
400.6090503124359543
 10
209.8247427438063824
 20
399.9939664804359722
 10
210.0224397218062222
 20
399.3769053704367593
 10
210.1954239938063438
 20
398.7576213404358327
 10
210.368408265806238
 20
398.1363590984369125
 10
210.5166807658063135
 20
397.5133680224366231
 10
210.6896659718063347
 20
396.8883987344369757
 10
210.8379384718064102
 20
396.2617006124368686
 10
210.9614982658063127
 20
395.6335192984369655
 10
211.0850589938063422
 20
395.0036082164369304
 10
211.2086197218063717
 20
394.372461452436653
 10
211.3074677438062281
 20
393.7398324304367065
 10
211.4310284718062576
 20
393.1062143024359443
 10
211.5051647218062953
 20
392.4713614264359762
 10
211.6040127438063791
 20
391.8355194444356471
 10
211.6781489938064169
 20
391.1989358664358747
 10
211.7275734718064086
 20
390.5613641164358683
 10
211.801709721806219
 20
389.9230517044356361
 10
211.8511332658063111
 20
389.284244272435842
 10
211.8758459718062568
 20
388.6449427544366131
 10
211.9252695158063489
 20
388.0051462164369127
 10
211.9499822218062945
 20
387.3651031024359668
 10
211.9499822218062945
 20
386.7248134124355943
 10
211.9499822218062945
 20
386.084523722436586
 10
211.9499822218062945
 20
385.4439865224357504
 10
211.9499822218062945
 20
384.8039434084366235
 10
211.9252695158063489
 20
384.1639002944356776
 10
211.8758459718062568
 20
383.5241046904370137
 10
211.8511332658063111
 20
382.8845556624359574
 10
211.801709721806219
 20
382.2457482304357086
 10
211.7275734718064086
 20
381.607682394436722
 10
211.6781489938064169
 20
380.9701106444367156
 10
211.6040127438063791
 20
380.3332804904356976
 10
211.5051647218062953
 20
379.6974385084358232
 10
211.4310284718062576
 20
379.0625846984366376
 10
211.3074677438062281
 20
378.4289665704358754
 10
211.2086197218063717
 20
377.7965850584359373
 10
211.0850589938063422
 20
377.1654382944356598
 10
210.9614982658063127
 20
376.5355272124356247
 10
210.8379384718064102
 20
375.9073458984357217
 10
210.6896659718063347
 20
375.2806477764356146
 10
210.5166807658063135
 20
374.6556794224356395
 10
210.368408265806238
 20
374.0324399024365789
 10
210.1954239938063438
 20
373.4111785944359667
 10
210.0224397218062222
 20
372.7921411404358309
 10
209.8247427438063824
 20
372.1748334544358272
 10
209.6270457658063151
 20
371.559996198436636
 10
209.4293497218063749
 20
370.9473837304366839
 10
209.2069409718062616
 20
370.3369951164367535
 10
208.9845322218063757
 20
369.729325376435952
 10
208.7621234718062624
 20
369.1241260664359629
 10
208.5150020158064308
 20
368.5213990544356761
 10
208.2678814938062715
 20
367.9218831344359728
 10
208.0207609718063395
 20
367.3248395124359718
 10
207.7489277438062345
 20
366.7310079164366812
 10
207.4770945158063569
 20
366.1401417704368555
 10
207.2052622218063789
 20
365.5524885844369578
 10
206.9087172218062278
 20
364.9680483584369881
 10
206.6121722218063042
 20
364.3868201584368194
 10
206.3156272218063805
 20
363.8090514944360052
 10
205.9943695158062837
 20
363.2349898764359182
 10
205.6978245158063601
 20
362.6643877944370047
 10
205.3518559718063443
 20
362.0974927584356351
 10
205.0305982658062476
 20
361.5343038344357751
 10
204.6846297218062318
 20
360.9750694664366506
 10
204.3386602438063164
 20
360.4197896544368973
 10
203.967978993806355
 20
359.8687100404367243
 10
203.5972977438063936
 20
359.3215840484357955
 10
203.2266164938064321
 20
358.7789066984359465
 10
202.8559352438062433
 20
358.240182970436706
 10
202.4605422218062358
 20
357.7061553944358252
 10
202.0651482658063287
 20
357.1765755264368067
 10
201.6697552438063212
 20
356.6514433664360126
 10
201.2496495158063681
 20
356.1310073584367615
 10
200.8295447218063146
 20
355.615265634435616
 10
200.4094389938063614
 20
355.1044675724369313
 10
199.9893332658064082
 20
354.598363794436807
 10
199.544515765806409
 20
354.097450254436751
 10
199.0996982658064098
 20
353.6014785084366281
 10
198.6548807658064106
 20
353.1106960664359917
 10
198.1853514938063654
 20
352.6248563524367796
 10
197.7158222218063202
 20
352.1447009624357065
 10
197.2462920158063753
 20
351.6694873664368401
 10
196.77676274380633
 20
351.1999580944365675
 10
196.2825207658063391
 20
350.7358647024356628
 10
195.7882797218062478
 20
350.2774556344369898
 10
195.2940377438062569
 20
349.8247308904369106
 10
194.799795765806266
 20
349.3776886024356259
 10
194.280842015806229
 20
348.9363315724357903
 10
193.7618882658064194
 20
348.5009045084356671
 10
193.2429345158063825
 20
348.0714083444367475
 10
192.6992689938062995
 20
347.6478430804367576
 10
192.1803152438062625
 20
347.230456226435706
 10
191.6366497218064069
 20
346.8192468484357391
 10
191.0929832658064242
 20
346.4142158804369842
 10
190.5493177438063412
 20
346.0153633224358032
 10
189.9809395158063126
 20
345.6229348164355883
 10
189.4125622218064109
 20
345.2366856544358029
 10
188.8441839938063822
 20
344.857107120436865
 10
188.2758057658063535
 20
344.4839554404370006
 10
187.7074284718062245
 20
344.1172278124358286
 10
187.1143384718063771
 20
343.7574201904357665
 10
186.5459602438063484
 20
343.4040366204366705
 10
185.9528702438062737
 20
343.0575739904369925
 10
185.3350684718063803
 20
342.7177829224369248
 10
184.7419784718063056
 20
342.3849109264355661
 10
184.1488884718062309
 20
342.0589580024356451
 10
183.5310857658064378
 20
341.7399250844368339
 10
182.9132839938063171
 20
341.4280587484367402
 10
182.2954822218064237
 20
341.1231114844358103
 10
181.6776795158064033
 20
340.8250842264368998
 10
181.0351659718062365
 20
340.5344701264365881
 10
180.4173632658062161
 20
340.2507750984368045
 10
179.7748497218062766
 20
339.9744941624366561
 10
179.1323352438064376
 20
339.7056263844369255
 10
178.4898207658063711
 20
339.4439261224369488
 10
177.8473072218064317
 20
339.1896380844368082
 10
177.2047927438063653
 20
338.9427650724368846
 10
176.5375664938062528
 20
338.7030577084360061
 10
175.8950520158064137
 20
338.4712585224369263
 10
175.2278257658063012
 20
338.2466249844368917
 10
174.5605995158064161
 20
338.0299005584369638
 10
173.8933732658063036
 20
337.8203417804356263
 10
173.2261470158064185
 20
337.618691180436997
 10
172.558920765806306
 20
337.4247012484356105
 10
171.8916945158064209
 20
337.2383719844360144
 10
171.1997564938062624
 20
337.0597043224356071
 10
170.5325302438063773
 20
336.8886963944368631
 10
169.8405922218062187
 20
336.7255966444367346
 10
169.1733659718063336
 20
336.5701575624356678
 10
168.4814270158062754
 20
336.422626658435945
 10
167.7894889938063443
 20
336.2830029984369844
 10
167.0975509718064131
 20
336.1512875164366392
 10
166.405612015806355
 20
336.0272327024358106
 10
165.7136739938064238
 20
335.9110860664358711
 10
165.0217359718062653
 20
335.8030941844367021
 10
164.3297970158064345
 20
335.7030104804366033
 10
163.637858993806276
 20
335.6105874444369306
 10
162.9459209718063448
 20
335.5263191624357546
 10
162.2292702438062406
 20
335.4502056344367134
 10
161.5373322218063095
 20
335.3820002844358328
 10
160.8453932658062513
 20
335.3217031124358414
 10
160.1287434718062741
 20
335.2693131844366121
 10
159.4368045158062159
 20
335.2250789444369161
 10
158.7201547218062387
 20
335.1889994584357169
 10
158.0282157658064079
 20
335.160827216436644
 10
157.3115659718064308
 20
335.1405631524357318
 10
156.6196270158063726
 20
335.1287013524369627
 10
155.9029772218063954
 20
335.1245002204358912
 10
155.2110382658063372
 20
335.1287013524369627
 10
154.49438847180636
 20
335.1405631524357318
 10
153.8024495158063019
 20
335.160827216436644
 10
153.1105114938063707
 20
335.1889994584357169
 10
152.3938607658062665
 20
335.2250789444369161
 10
151.7019227438063353
 20
335.2693131844366121
 10
150.9852720158062311
 20
335.3217031124358414
 10
150.2933339938063
 20
335.3820002844358328
 10
149.6013959718063688
 20
335.4502056344367134
 10
148.8847452438062646
 20
335.5263191624357546
 10
148.1928072218063335
 20
335.6105874444369306
 10
147.5008682658062753
 20
335.7030104804366033
 10
146.8089302438063442
 20
335.8030941844367021
 10
146.116992221806413
 20
335.9110860664358711
 10
145.4250532658063548
 20
336.0272327024358106
 10
144.7331152438064237
 20
336.1512875164366392
 10
144.0411772218062652
 20
336.2830029984369844
 10
143.3492382658064344
 20
336.422626658435945
 10
142.6573002438062758
 20
336.5701575624356678
 10
141.9653622218063447
 20
336.7255966444367346
 10
141.2981359718062322
 20
336.8886963944368631
 10
140.6061970158064014
 20
337.0597043224356071
 10
139.9389707658062889
 20
337.2383719844360144
 10
139.2717445158064038
 20
337.4247012484356105
 10
138.6045182658062913
 20
337.618691180436997
 10
137.9372920158064062
 20
337.8203417804356263
 10
137.2700657658062937
 20
338.0299005584369638
 10
136.6028395158064086
 20
338.2466249844368917
 10
135.9356132658062961
 20
338.4712585224369263
 10
135.2930997218063567
 20
338.7030577084360061
 10
134.6258734718062442
 20
338.9427650724368846
 10
133.9833589938064051
 20
339.1896380844368082
 10
133.3408445158063387
 20
339.4439261224369488
 10
132.6983309718063992
 20
339.7056263844369255
 10
132.0558164938063328
 20
339.9744941624366561
 10
131.4133020158062664
 20
340.2507750984368045
 10
130.795500243806373
 20
340.5344701264365881
 10
130.1529857658063065
 20
340.8250842264368998
 10
129.5351839938064131
 20
341.1231114844358103
 10
128.9173822218062924
 20
341.4280587484367402
 10
128.299579515806272
 20
341.7399250844368339
 10
127.6817777438063786
 20
342.0589580024356451
 10
127.0886877438063038
 20
342.3849109264355661
 10
126.4708859718064105
 20
342.7177829224369248
 10
125.8777959718063357
 20
343.0575739904369925
 10
125.284705971806261
 20
343.4040366204366705
 10
124.7163277438062323
 20
343.7574201904357665
 10
124.123237743806385
 20
344.1172278124358286
 10
123.5548595158063563
 20
344.4839554404370006
 10
122.9617695158062816
 20
344.857107120436865
 10
122.4181039938064259
 20
345.2366856544358029
 10
121.8497257658063972
 20
345.6229348164355883
 10
121.2813484718062682
 20
346.0153633224358032
 10
120.7376820158062856
 20
346.4142158804369842
 10
120.1940164938064299
 20
346.8192468484357391
 10
119.6503509718063469
 20
347.230456226435706
 10
119.1066845158063643
 20
347.6478430804367576
 10
118.5877307658063273
 20
348.0714083444367475
 10
118.0687770158062904
 20
348.5009045084356671
 10
117.5498232658062534
 20
348.9363315724357903
 10
117.0308695158062164
 20
349.3776886024356259
 10
116.5366284718063525
 20
349.8247308904369106
 10
116.0423864938063616
 20
350.2774556344369898
 10
115.5481445158063707
 20
350.7358647024356628
 10
115.0539034718062794
 20
351.1999580944365675
 10
114.5843732658063345
 20
351.6694873664368401
 10
114.1148439938062893
 20
352.1447009624357065
 10
113.6453147218062441
 20
352.6248563524367796
 10
113.1757845158062992
 20
353.1106960664359917
 10
112.7309670158063
 20
353.6014785084366281
 10
112.2861495158063008
 20
354.097450254436751
 10
111.8413320158063016
 20
354.598363794436807
 10
111.4212272218062481
 20
355.1044675724369313
 10
111.0011214938062949
 20
355.615265634435616
 10
110.5810157658063417
 20
356.1310073584367615
 10
110.1609109718062882
 20
356.6514433664360126
 10
109.7655170158063811
 20
357.1765755264368067
 10
109.3701239938063736
 20
357.7061553944358252
 10
108.9747309718063661
 20
358.240182970436706
 10
108.6040497218064047
 20
358.7789066984359465
 10
108.2333684718062159
 20
359.3215840484357955
 10
107.8626872218062545
 20
359.8687100404367243
 10
107.492005971806293
 20
360.4197896544368973
 10
107.1460364938063776
 20
360.9750694664366506
 10
106.8000670158062348
 20
361.5343038344357751
 10
106.4788102438062651
 20
362.0974927584356351
 10
106.1328407658063497
 20
362.6643877944370047
 10
105.81158399380638
 20
363.2349898764359182
 10
105.515038993806229
 20
363.8090514944360052
 10
105.2184939938063053
 20
364.3868201584368194
 10
104.9219489938063816
 20
364.9680483584369881
 10
104.6254039938062306
 20
365.5524885844369578
 10
104.3535707658063529
 20
366.1401417704368555
 10
104.0817384718063749
 20
366.7310079164366812
 10
103.8099052438062699
 20
367.3248395124359718
 10
103.562784721806338
 20
367.9218831344359728
 10
103.315663265806279
 20
368.5213990544356761
 10
103.0685427438063471
 20
369.1241260664359629
 10
102.8461339938062338
 20
369.729325376435952
 10
102.6237252438063479
 20
370.3369951164367535
 10
102.4013164938062346
 20
370.9473837304366839
 10
102.2036195158063947
 20
371.559996198436636
 10
102.0059234718062271
 20
372.1748334544358272
 10
101.8082264938063872
 20
372.7921411404358309
 10
101.6352422218062657
 20
373.4111785944359667
 10
101.4622570158062445
 20
374.0324399024365789
 10
101.2892727438063503
 20
374.6556794224356395
 10
101.1410002438062747
 20
375.2806477764356146
 10
100.9927277438064266
 20
375.9073458984357217
 10
100.8691670158063971
 20
376.5355272124356247
 10
100.7456072218062673
 20
377.1654382944356598
 10
100.6220464938062378
 20
377.7965850584359373
 10
100.4984857658064357
 20
378.4289665704358754
 10
100.3996377438063519
 20
379.0625846984366376
 10
100.3255014938063141
 20
379.6974385084358232
 10
100.2266534718062303
 20
380.3332804904356976
 10
100.1525172218064199
 20
380.9701106444367156
 10
100.0783809718063821
 20
381.607682394436722
 10
100.0289564938063904
 20
382.2457482304357086
 10
99.9795320158063987
 20
382.8845556624359574
 10
99.9548202438063527
 20
383.5241046904370137
 10
99.9053957658063609
 20
384.1639002944356776
 10
99.8806839938063149
 20
384.8039434084366235
 10
99.8806839938063149
 20
385.4439865224357504
  0
LWPOLYLINE
  5
66
100
AcDbEntity
  8
0
 62
7
420
16777215
370
-1
 48
1.0
  6
BYLAYER
100
AcDbPolyline
 90
100
 70
1
 10
30.046477221806299
 20
98.5484683564358761
 10
30.1700379498063285
 20
95.0287267164357559
 10
30.5407191998062899
 20
91.5228232204357823
 10
31.1338091998063646
 20
88.0445978804359015
 10
31.9740197218063713
 20
84.6078879064356784
 10
33.061351699806437
 20
81.2262867344356323
 10
34.3710914938062615
 20
77.9128909124360121
 10
35.9032409718063263
 20
74.6810444984357105
 10
37.6577991998062771
 20
71.5433508884356684
 10
39.6347652438062141
 20
68.5121669024355811
 10
41.8094291998063454
 20
65.599600916435918
 10
44.1817891998064169
 20
62.8170197104358863
 10
46.7518452438064287
 20
60.1755453564359755
 10
49.4948864938062343
 20
57.6853089524356051
 10
52.3862002438063428
 20
55.3566891064355673
 10
55.4504991998062451
 20
53.1983355924357397
 10
58.6630697218063233
 20
51.2188981844360001
 10
61.999200971806431
 20
49.4262831924356192
 10
65.4341802438063951
 20
47.827411556435834
 10
68.9927202438063887
 20
46.4289548384358
 10
72.6501091998063657
 20
45.2361023424359132
 10
76.3569216998064348
 20
44.2535502204358977
 10
80.1378704498063144
 20
43.4854986704357884
 10
83.9682427438062859
 20
42.9344190564356154
 10
87.8233277438064306
 20
42.6030302524358717
 10
91.6784127438063479
 20
42.4925670064357632
 10
95.5582104498064382
 20
42.6030302524358717
 10
99.4132954498063555
 20
42.9344190564356154
 10
103.2436677438063271
 20
43.4854986704357884
 10
107.0246220978062865
 20
44.2535502204358977
 10
110.7314345978063557
 20
45.2361023424359132
 10
114.3888226198064331
 20
46.4289548384358
 10
117.9473626198064267
 20
47.827411556435834
 10
121.3823418918063908
 20
49.4262831924356192
 10
124.7184731418062711
 20
51.2188981844360001
 10
127.9310445978062489
 20
53.1983355924357397
 10
130.9953426198062516
 20
55.3566891064355673
 10
133.8866563698063601
 20
57.6853089524356051
 10
136.629697619806393
 20
60.1755453564359755
 10
139.1997545978063044
 20
62.8170197104358863
 10
141.572114597806376
 20
65.599600916435918
 10
143.7467776198063802
 20
68.5121669024355811
 10
145.6990318918062712
 20
71.5433508884356684
 10
147.478301891806268
 20
74.6810444984357105
 10
149.0104513698063329
 20
77.9128909124360121
 10
150.3201920978062844
 20
81.2262867344356323
 10
151.4075231418062231
 20
84.6078879064356784
 10
152.2477345978063568
 20
88.0445978804359015
 10
152.8408245978064315
 20
91.5228232204357823
 10
153.2115058478063929
 20
95.0287267164357559
 10
153.3350656418062954
 20
98.5484683564358761
 10
153.2115058478063929
 20
102.0682109304356686
 10
152.8408245978064315
 20
105.5741134924359699
 10
152.2477345978063568
 20
109.0520922564359694
 10
151.4075231418062231
 20
112.4888022304357378
 10
150.3201920978062844
 20
115.8706499784356652
 10
149.0104513698063329
 20
119.1840467344358672
 10
147.478301891806268
 20
122.415893148435714
 10
145.6990318918062712
 20
125.5535858244356291
 10
143.7467776198063802
 20
128.5845232344358351
 10
141.572114597806376
 20
131.4970892204359529
 10
139.1997545978063044
 20
134.2796694924358576
 10
136.629697619806393
 20
136.9213913564357767
 10
133.8866563698063601
 20
139.4113811844358111
 10
130.9953426198062516
 20
141.7402476064357302
 10
127.9310445978062489
 20
143.8986011204360125
 10
124.7184731418062711
 20
145.8780385284357521
 10
121.3823418918063908
 20
147.6704060104356699
 10
117.9473626198064267
 20
149.2692785804355822
 10
114.3888226198064331
 20
150.6677352984356162
 10
110.7314345978063557
 20
151.8605868604358307
 10
107.0246220978062865
 20
152.8431399164359732
 10
103.2436677438063271
 20
153.6114380424359638
 10
99.4132954498063555
 20
154.1622710804358007
 10
95.5582104498064382
 20
154.4936598844359992
 10
91.6784127438063479
 20
154.604369706435989
 10
87.8233277438064306
 20
154.4936598844359992
 10
83.9682427438062859
 20
154.1622710804358007
 10
80.1378704498063144
 20
153.6114380424359638
 10
76.3569216998064348
 20
152.8431399164359732
 10
72.6501091998063657
 20
151.8605868604358307
 10
68.9927202438063887
 20
150.6677352984356162
 10
65.4341802438063951
 20
149.2692785804355822
 10
61.999200971806431
 20
147.6704060104356699
 10
58.6630697218063233
 20
145.8780385284357521
 10
55.4504991998062451
 20
143.8986011204360125
 10
52.3862002438063428
 20
141.7402476064357302
 10
49.4948864938062343
 20
139.4113811844358111
 10
46.7518452438064287
 20
136.9213913564357767
 10
44.1817891998064169
 20
134.2796694924358576
 10
41.8094291998063454
 20
131.4970892204359529
 10
39.6347652438062141
 20
128.5845232344358351
 10
37.6577991998062771
 20
125.5535858244356291
 10
35.9032409718063263
 20
122.415893148435714
 10
34.3710914938062615
 20
119.1840467344358672
 10
33.061351699806437
 20
115.8706499784356652
 10
31.9740197218063713
 20
112.4888022304357378
 10
31.1338091998063646
 20
109.0520922564359694
 10
30.5407191998062899
 20
105.5741134924359699
 10
30.1700379498063285
 20
102.0682109304356686
  0
LWPOLYLINE
  5
67
100
AcDbEntity
  8
0
 62
7
420
16777215
370
-1
 48
1.0
  6
BYLAYER
100
AcDbPolyline
 90
243
 70
1
 10
35.7302566998064322
 20
95.9183617164357543
 10
147.6512870978062892
 20
95.9183617164357543
 10
147.6265743918063436
 20
95.3485012304358293
 10
147.5771508478062515
 20
94.7096937984355804
 10
147.5030145978062137
 20
94.071380452435676
 10
147.453590119806222
 20
93.4340552784360057
 10
147.3794538698064116
 20
92.7972251244358972
 10
147.2806058478063278
 20
92.1613831424355681
 10
147.20646959780629
 20
91.5265302664356
 10
147.0829088698062606
 20
90.8929121384357472
 10
146.9840608478064041
 20
90.2605296924356821
 10
146.8605001198063746
 20
89.6291363524359781
 10
146.7369393918063452
 20
88.9994727804359513
 10
146.6133795978062153
 20
88.3712914664355935
 10
146.4651070978063672
 20
87.7445924104358141
 10
146.292121891806346
 20
87.1196240564358391
 10
146.1438493918062704
 20
86.496385470435996
 10
145.9708651198063762
 20
85.8751241624358386
 10
145.7978808478062547
 20
85.2558391984356945
 10
145.6001838698064148
 20
84.638778088435572
 10
145.4024868918063476
 20
84.0239417664355983
 10
145.2047908478064073
 20
83.4110817884356379
 10
144.982382097806294
 20
82.8009406844357159
 10
144.7599733478064081
 20
82.1930234344358155
 10
144.5375645978062948
 20
81.5878241244358264
 10
144.2904431418062359
 20
80.9853436884358757
 10
144.0433226198063039
 20
80.3855811924358363
 10
143.796202097806372
 20
79.7887850804358436
 10
143.524368869806267
 20
79.1949534844356435
 10
143.2525356418063893
 20
78.6040873384358179
 10
142.9807033478064113
 20
78.0164341524359202
 10
142.6841583478062603
 20
77.4317464164359421
 10
142.3876133478063366
 20
76.8507647924356547
 10
142.0910683478064129
 20
76.2729961284357501
 10
141.7698106418063162
 20
75.698934510435663
 10
141.4732656418063925
 20
75.12833242843584
 10
141.1272970978063768
 20
74.5614373924358347
 10
140.80603939180628
 20
73.998249402435647
 10
140.4600708478062643
 20
73.439015034435613
 10
140.1141013698063489
 20
72.8837342884357327
 10
139.7434201198063874
 20
72.3326546744360144
 10
139.372738869806426
 20
71.7855296164356673
 10
139.0020576198062372
 20
71.24260475643581
 10
138.6313763698062758
 20
70.7041285384356684
 10
138.2359833478062683
 20
70.17010002843557
 10
137.8405893918063612
 20
69.6405201604356421
 10
137.4451963698063537
 20
69.1153889344358845
 10
137.0250906418064005
 20
68.5949519924355968
 10
136.604985847806347
 20
68.0792112024359426
 10
136.1848801198063939
 20
67.5684122064357666
 10
135.7647743918062133
 20
67.0623084284356423
 10
135.3199568918062141
 20
66.5613948884355864
 10
134.8751393918062149
 20
66.0654231424359182
 10
134.4303218918062157
 20
65.5743941244358552
 10
133.9607926198063979
 20
65.088801920435742
 10
133.4912633478063526
 20
64.60839902043557
 10
133.0217331418064077
 20
64.1334329344358025
 10
132.5522038698063625
 20
63.6639027284358576
 10
132.0579618918063716
 20
63.1998102704359894
 10
131.5637208478062803
 20
62.7414012024359522
 10
131.0694788698062894
 20
62.288675524435746
 10
130.5752368918062984
 20
61.8416341704359525
 10
130.0562831418062615
 20
61.4002762064359899
 10
129.5373293918062245
 20
60.9648491424358667
 10
129.0183756418064149
 20
60.5353529784355828
 10
128.4747101198063319
 20
60.11178864843572
 10
127.955756369806295
 20
59.6944008604359055
 10
127.412090847806212
 20
59.283192416435611
 10
126.8684243918062293
 20
58.8779139384359382
 10
126.3247588698063737
 20
58.4793079564360028
 10
125.756380641806345
 20
58.0866328744359066
 10
125.188003347806216
 20
57.7006302884360025
 10
124.6196251198064147
 20
57.3210526884358273
 10
124.051246891806386
 20
56.9479000744358359
 10
123.4828695978062569
 20
56.5811733804357004
 10
122.8897795978064096
 20
56.2213648244359661
 10
122.3214013698063809
 20
55.8679821884356329
 10
121.7283113698063062
 20
55.5215186244358279
 10
121.1105095978064128
 20
55.1817275564357601
 10
120.5174195978063381
 20
54.8488555604357657
 10
119.9243295978062633
 20
54.5229035704359717
 10
119.3065268918062429
 20
54.2038706524357963
 10
118.6887251198063495
 20
53.8920043164357025
 10
118.0709233478062288
 20
53.5868095424356738
 10
117.4531206418064357
 20
53.2890288604357352
 10
116.8106070978062689
 20
52.9984147604358782
 10
116.1928043918062485
 20
52.7147206664357668
 10
115.5502908478063091
 20
52.4384397304356185
 10
114.9077763698062427
 20
52.1695719524358879
 10
114.2652618918064036
 20
51.9078707564357842
 10
113.6227483478062368
 20
51.6535836524357705
 10
112.9802338698063977
 20
51.4064631304358386
 10
112.3130076198062852
 20
51.167002342435751
 10
111.6704931418062188
 20
50.9352031564357617
 10
111.0032668918063337
 20
50.7105705524358541
 10
110.3360406418062212
 20
50.4935986164359178
 10
109.6688143918063361
 20
50.2842873484359529
 10
109.0015881418062236
 20
50.0826367484359594
 10
108.3343618918063385
 20
49.8886468164359371
 10
107.667135641806226
 20
49.7023175524358862
 10
106.9751976198062948
 20
49.5236489564358067
 10
106.3079713698064097
 20
49.3526410284356984
 10
105.6160277438063986
 20
49.1895412784355699
 10
104.9488014938062861
 20
49.0341031304359944
 10
104.2568634718063549
 20
48.8865712924356899
 10
103.5649254498064238
 20
48.7469485664359468
 10
102.8729864938063656
 20
48.6149855744355932
 10
102.1810484718064345
 20
48.4911782704356824
 10
101.4891104498062759
 20
48.3750316344357429
 10
100.7971714938062178
 20
48.2670397524356645
 10
100.1052334718062866
 20
48.1667085384360121
 10
99.4132954498063555
 20
48.0745320784357659
 10
98.7213564938062973
 20
47.9902647304356265
 10
98.0047066998063201
 20
47.9141512024356757
 10
97.3127677438062619
 20
47.8456983424356963
 10
96.6208297218063308
 20
47.7856486804357132
 10
95.9041789938062266
 20
47.7332587524355745
 10
95.2122409718062954
 20
47.6890235784357515
 10
94.4955902438064186
 20
47.6529440924359164
 10
93.8036522218062601
 20
47.6247727844356064
 10
93.0870014938063832
 20
47.6045087204356037
 10
92.3950634718062247
 20
47.5923994104359167
 10
91.6784127438063479
 20
47.588445788435763
 10
90.9864747218064167
 20
47.5923994104359167
 10
90.2698239938063125
 20
47.6045087204356037
 10
89.5778859718063813
 20
47.6247727844356064
 10
88.8859479498062228
 20
47.6529440924359164
 10
88.169297221806346
 20
47.6890235784357515
 10
87.4773591998064148
 20
47.7332587524355745
 10
86.7607084718063106
 20
47.7856486804357132
 10
86.0687704498063795
 20
47.8456983424356963
 10
85.3768314938063213
 20
47.9141512024356757
 10
84.6601816998063441
 20
47.9902647304356265
 10
83.9682427438062859
 20
48.0745320784357659
 10
83.2763047218063548
 20
48.1667085384360121
 10
82.5843666998064236
 20
48.2670397524356645
 10
81.8924277438063655
 20
48.3750316344357429
 10
81.2004897218064343
 20
48.4911782704356824
 10
80.5085516998062758
 20
48.6149855744355932
 10
79.8166127438062176
 20
48.7469485664359468
 10
79.1246747218062865
 20
48.8865712924356899
 10
78.4327366998063553
 20
49.0341031304359944
 10
77.7407977438062971
 20
49.1895412784355699
 10
77.073571493806412
 20
49.3526410284356984
 10
76.3816334718062535
 20
49.5236489564358067
 10
75.7144072218063684
 20
49.7023175524358862
 10
75.0471809718062559
 20
49.8886468164359371
 10
74.3799547218063708
 20
50.0826367484359594
 10
73.7127284718062583
 20
50.2842873484359529
 10
73.0455022218063732
 20
50.4935986164359178
 10
72.3782759718062607
 20
50.7105705524358541
 10
71.7110497218063756
 20
50.9352031564357617
 10
71.0685352438063092
 20
51.167002342435751
 10
70.401308993806424
 20
51.4064631304358386
 10
69.7587954498062572
 20
51.6535836524357705
 10
69.1162809718064182
 20
51.9078707564357842
 10
68.4737664938063517
 20
52.1695719524358879
 10
67.8312529498064123
 20
52.4384397304356185
 10
67.1887384718063458
 20
52.7147206664357668
 10
66.5709366998062251
 20
52.9984147604358782
 10
65.928422221806386
 20
53.2890288604357352
 10
65.3106204498062652
 20
53.5868095424356738
 10
64.6928177438062448
 20
53.8920043164357025
 10
64.0750159718063514
 20
54.2038706524357963
 10
63.4572141998062307
 20
54.5229035704359717
 10
62.8641241998063833
 20
54.8488555604357657
 10
62.2463214938063629
 20
55.1817275564357601
 10
61.6532314938062882
 20
55.5215186244358279
 10
61.0601414938062135
 20
55.8679821884356329
 10
60.4917641998063118
 20
56.2213648244359661
 10
59.8986741998062371
 20
56.5811733804357004
 10
59.3302959718064358
 20
56.9479000744358359
 10
58.737205971806361
 20
57.3210526884358273
 10
58.193540449806278
 20
57.7006302884360025
 10
57.6251622218062494
 20
58.0866328744359066
 10
57.0567839938062207
 20
58.4793079564360028
 10
56.5131184718063651
 20
58.8779139384359382
 10
55.969452949806282
 20
59.283192416435611
 10
55.4257864938062994
 20
59.6944008604359055
 10
54.8821209718062164
 20
60.11178864843572
 10
54.3631672218064068
 20
60.5353529784355828
 10
53.8442134718063699
 20
60.9648491424358667
 10
53.3252597218063329
 20
61.4002762064359899
 10
52.8063059718062959
 20
61.8416341704359525
 10
52.312063993806305
 20
62.288675524435746
 10
51.8178229498062137
 20
62.7414012024359522
 10
51.3235809718062228
 20
63.1998102704359894
 10
50.8293389938062319
 20
63.6639027284358576
 10
50.359809721806414
 20
64.1334329344358025
 10
49.8902804498063688
 20
64.60839902043557
 10
49.4207502438064239
 20
65.088801920435742
 10
48.9512209718063787
 20
65.5743941244358552
 10
48.5064034718063795
 20
66.0654231424359182
 10
48.0615859718063803
 20
66.5613948884355864
 10
47.6167684718063811
 20
67.0623084284356423
 10
47.1966627438064279
 20
67.5684122064357666
 10
46.7765579498063744
 20
68.0792112024359426
 10
46.3564522218064212
 20
68.5949519924355968
 10
45.9363464938062407
 20
69.1153889344358845
 10
45.5409534718062332
 20
69.6405201604356421
 10
45.1455604498062257
 20
70.17010002843557
 10
44.7501664938063186
 20
70.7041285384356684
 10
44.3794852438063572
 20
71.24260475643581
 10
44.0088039938063957
 20
71.7855296164356673
 10
43.6381227438064343
 20
72.3326546744360144
 10
43.2674414938062455
 20
72.8837342884357327
 10
42.9214729498062297
 20
73.439015034435613
 10
42.5755034718063143
 20
73.998249402435647
 10
42.2542466998063446
 20
74.5614373924358347
 10
41.9082772218064292
 20
75.12833242843584
 10
41.5870204498062321
 20
75.698934510435663
 10
41.2904754498063085
 20
76.2729961284357501
 10
40.9939304498063848
 20
76.8507647924356547
 10
40.6973854498062337
 20
77.4317464164359421
 10
40.4008404498063101
 20
78.0164341524359202
 10
40.1290072218064324
 20
78.6040873384358179
 10
39.8571739938063274
 20
79.1949534844356435
 10
39.5853416998063494
 20
79.7887850804358436
 10
39.3382202438062905
 20
80.3855811924358363
 10
39.0910997218063585
 20
80.9853436884358757
 10
38.8439791998064265
 20
81.5878241244358264
 10
38.6215704498063133
 20
82.1930234344358155
 10
38.3991616998064274
 20
82.8009406844357159
 10
38.1767529498063141
 20
83.4110817884356379
 10
37.9790559718062468
 20
84.0239417664355983
 10
37.7813589938064069
 20
84.638778088435572
 10
37.5836629498062393
 20
85.2558391984356945
 10
37.4106777438062181
 20
85.8751241624358386
 10
37.2376934718063239
 20
86.496385470435996
 10
37.0647091998064298
 20
87.1196240564358391
 10
36.9164366998063542
 20
87.7445924104358141
 10
36.7681641998062787
 20
88.3712914664355935
 10
36.6446034718062492
 20
88.9994727804359513
 10
36.5210427438062197
 20
89.6291363524359781
 10
36.3974829498063173
 20
90.2605296924356821
 10
36.2739222218062878
 20
90.8929121384357472
 10
36.1750741998064314
 20
91.5265302664356
 10
36.1009379498063936
 20
92.1613831424355681
 10
36.0020889938064101
 20
92.7972251244358972
 10
35.9279527438063724
 20
93.4340552784360057
 10
35.8538164938063346
 20
94.071380452435676
 10
35.8043929498062425
 20
94.7096937984355804
 10
35.7549684718062508
 20
95.3485012304358293
  0
LWPOLYLINE
  5
68
100
AcDbEntity
  8
0
 62
7
420
16777215
370
-1
 48
1.0
  6
BYLAYER
100
AcDbPolyline
 90
231
 70
1
 10
36.1750741998064314
 20
105.4957761104359975
 10
36.1750741998064314
 20
105.5701598704358162
 10
36.2739222218062878
 20
106.2037779984356689
 10
36.3974829498063173
 20
106.8364070204356153
 10
36.5210427438062197
 20
107.4675537844358928
 10
36.6446034718062492
 20
108.0972173564359196
 10
36.7681641998062787
 20
108.725646180435831
 10
36.9164366998063542
 20
109.3523443024359381
 10
37.0647091998064298
 20
109.9773126564359131
 10
37.2376934718063239
 20
110.6003046664358749
 10
37.4106777438062181
 20
111.2215659744355776
 10
37.5836629498062393
 20
111.8408509384357217
 10
37.7813589938064069
 20
112.4579120484358441
 10
37.9790559718062468
 20
113.0729958804358262
 10
38.1767529498063141
 20
113.6856083484357782
 10
38.3991616998064274
 20
114.2957494524357003
 10
38.6215704498063133
 20
114.9036667024356007
 10
38.8439791998064265
 20
115.5088650784359174
 10
39.0910997218063585
 20
116.1113464484359952
 10
39.3382202438062905
 20
116.7111080104359075
 10
39.5853416998063494
 20
117.3079050564355725
 10
39.8571739938063274
 20
117.9019841624357809
 10
40.1290072218064324
 20
118.4928493744359344
 10
40.4008404498063101
 20
119.080502560435832
 10
40.6973854498062337
 20
119.6649437204359288
 10
40.9939304498063848
 20
120.2459244104356344
 10
41.2904754498063085
 20
120.8236930744359938
 10
41.5870204498062321
 20
121.3980022024356344
 10
41.9082772218064292
 20
121.9686042844359122
 10
42.2542466998063446
 20
122.5354993204359175
 10
42.5755034718063143
 20
123.0984407344357692
 10
42.9214729498062297
 20
123.6576751024358032
 10
43.2674414938062455
 20
124.2129558484356835
 10
43.6381227438064343
 20
124.7642820384348283
 10
44.0088039938063957
 20
125.3111605204357488
 10
44.3794852438063572
 20
125.8540853804356061
 10
44.7501664938063186
 20
126.3925615984357478
 10
45.1455604498062257
 20
126.9265891744357191
 10
45.5409534718062332
 20
127.4564165524356554
 10
45.9363464938062407
 20
127.9813012024359864
 10
46.3564522218064212
 20
128.5017372104356923
 10
46.7765579498063744
 20
129.0174789344359283
 10
47.1966627438064279
 20
129.5285245064359856
 10
47.6167684718063811
 20
130.0343807744356468
 10
48.0615859718063803
 20
130.5355418244357111
 10
48.5064034718063795
 20
131.031513570435834
 10
48.9512209718063787
 20
131.5222960124360156
 10
49.4207502438064239
 20
132.0078882164356742
 10
49.8902804498063688
 20
132.4882911164358461
 10
50.359809721806414
 20
132.9632572024356136
 10
50.8293389938062319
 20
133.4327864744358862
 10
51.3235809718062228
 20
133.8968798664358815
 10
51.8178229498062137
 20
134.3552889344359187
 10
52.312063993806305
 20
134.8082611884360063
 10
52.8063059718062959
 20
135.2553025424357998
 10
53.3252597218063329
 20
135.6966605064357623
 10
53.8442134718063699
 20
136.1318400604358771
 10
54.3631672218064068
 20
136.5613362244357063
 10
54.8821209718062164
 20
136.9849014884356961
 10
55.4257864938062994
 20
137.4022883424358383
 10
55.969452949806282
 20
137.8137452304358135
 10
56.5131184718063651
 20
138.2187761984359327
 10
57.0567839938062207
 20
138.6176287564357494
 10
57.6251622218062494
 20
139.0100572624359643
 10
58.193540449806278
 20
139.3960598484358684
 10
58.737205971806361
 20
139.7758840244359249
 10
59.3302959718064358
 20
140.1490366384359163
 10
59.8986741998062371
 20
140.5155167564357157
 10
60.4917641998063118
 20
140.8755718884357861
 10
61.0601414938062135
 20
141.2287079484357832
 10
61.6532314938062882
 20
141.5751715124355883
 10
62.2463214938063629
 20
141.914962580435656
 10
62.8641241998063833
 20
142.2478336424359782
 10
63.4572141998062307
 20
142.5737865664358992
 10
64.0750159718063514
 20
142.8928194844356199
 10
64.6928177438062448
 20
143.2049333304357219
 10
65.3106204498062652
 20
143.5098796604356153
 10
65.928422221806386
 20
143.8076603424360087
 10
66.5709366998062251
 20
144.098521952435874
 10
67.1887384718063458
 20
144.3819694704356493
 10
67.8312529498064123
 20
144.6582504064357977
 10
68.4737664938063517
 20
144.9273647604358644
 10
69.1162809718064182
 20
145.189065956435968
 10
69.7587954498062572
 20
145.4433530604359817
 10
70.401308993806424
 20
145.6902270064355776
 10
71.0685352438063092
 20
145.9296868604359929
 10
71.7110497218063756
 20
146.1617335564359905
 10
72.3782759718062607
 20
146.386119584435562
 10
73.0455022218063732
 20
146.603091520435953
 10
73.7127284718062583
 20
146.812402788435918
 10
74.3799547218063708
 20
147.0140533884359115
 10
75.0471809718062559
 20
147.2082908304359421
 10
75.7144072218063684
 20
147.394619160435866
 10
76.3816334718062535
 20
147.5732877564359455
 10
77.073571493806412
 20
147.7440481744355907
 10
77.7407977438062971
 20
147.9071479244357192
 10
78.4327366998063553
 20
148.0625870064358764
 10
79.1246747218062865
 20
148.2101179104355992
 10
79.8166127438062176
 20
148.3497415704359241
 10
80.5085516998062758
 20
148.4817045624358229
 10
81.2004897218064343
 20
148.6055118664357337
 10
81.8924277438063655
 20
148.7216585024356732
 10
82.5843666998064236
 20
148.829896960435633
 10
83.2763047218063548
 20
148.9299815984358588
 10
83.9682427438062859
 20
149.0221571244359779
 10
84.6601816998063441
 20
149.1064254064357897
 10
85.3768314938063213
 20
149.1827855104356217
 10
86.0687704498063795
 20
149.2509908604355928
 10
86.7607084718063106
 20
149.3112889664357112
 10
87.4773591998064148
 20
149.3634313844358417
 10
88.169297221806346
 20
149.4076656244359924
 10
88.8859479498062228
 20
149.4439926204358358
 10
89.5778859718063813
 20
149.4721648624358181
 10
90.2698239938063125
 20
149.4921814164358125
 10
90.9864747218064167
 20
149.5042897924358272
 10
91.6784127438063479
 20
149.5082443484356531
 10
92.3950634718062247
 20
149.5042897924358272
 10
93.0870014938063832
 20
149.4921814164358125
 10
93.8036522218062601
 20
149.4721648624358181
 10
94.4955902438064186
 20
149.4439926204358358
 10
95.2122409718062954
 20
149.4076656244359924
 10
95.9041789938062266
 20
149.3634313844358417
 10
96.6208297218063308
 20
149.3112889664357112
 10
97.3127677438062619
 20
149.2509908604355928
 10
98.0047066998063201
 20
149.1827855104356217
 10
98.7213564938062973
 20
149.1064254064357897
 10
99.4132954498063555
 20
149.0221571244359779
 10
100.1052334718062866
 20
148.9299815984358588
 10
100.7971714938062178
 20
148.829896960435633
 10
101.4891104498062759
 20
148.7216585024356732
 10
102.1810484718064345
 20
148.6055118664357337
 10
102.8729864938063656
 20
148.4817045624358229
 10
103.5649254498064238
 20
148.3497415704359241
 10
104.2568634718063549
 20
148.2101179104355992
 10
104.9488014938062861
 20
148.0625870064358764
 10
105.6160277438063986
 20
147.9071479244357192
 10
106.3079713698064097
 20
147.7440481744355907
 10
106.9751976198062948
 20
147.5732877564359455
 10
107.667135641806226
 20
147.394619160435866
 10
108.3343618918063385
 20
147.2082908304359421
 10
109.0015881418062236
 20
147.0140533884359115
 10
109.6688143918063361
 20
146.812402788435918
 10
110.3360406418062212
 20
146.603091520435953
 10
111.0032668918063337
 20
146.386119584435562
 10
111.6704931418062188
 20
146.1617335564359905
 10
112.3130076198062852
 20
145.9296868604359929
 10
112.9802338698063977
 20
145.6902270064355776
 10
113.6227483478062368
 20
145.4433530604359817
 10
114.2652618918064036
 20
145.189065956435968
 10
114.9077763698062427
 20
144.9273647604358644
 10
115.5502908478063091
 20
144.6582504064357977
 10
116.1928043918062485
 20
144.3819694704356493
 10
116.8106070978062689
 20
144.098521952435874
 10
117.4531206418064357
 20
143.8076603424360087
 10
118.0709233478062288
 20
143.5098796604356153
 10
118.6887251198063495
 20
143.2049333304357219
 10
119.3065268918062429
 20
142.8928194844356199
 10
119.9243295978062633
 20
142.5737865664358992
 10
120.5174195978063381
 20
142.2478336424359782
 10
121.1105095978064128
 20
141.914962580435656
 10
121.7283113698063062
 20
141.5751715124355883
 10
122.3214013698063809
 20
141.2287079484357832
 10
122.8897795978064096
 20
140.8755718884357861
 10
123.4828695978062569
 20
140.5155167564357157
 10
124.051246891806386
 20
140.1490366384359163
 10
124.6196251198064147
 20
139.7758840244359249
 10
125.188003347806216
 20
139.3960598484358684
 10
125.756380641806345
 20
139.0100572624359643
 10
126.3247588698063737
 20
138.6176287564357494
 10
126.8684243918062293
 20
138.2187761984359327
 10
127.412090847806212
 20
137.8137452304358135
 10
127.955756369806295
 20
137.4022883424358383
 10
128.4747101198063319
 20
136.9849014884356961
 10
129.0183756418064149
 20
136.5613362244357063
 10
129.5373293918062245
 20
136.1318400604358771
 10
130.0562831418062615
 20
135.6966605064357623
 10
130.5752368918062984
 20
135.2553025424357998
 10
131.0694788698062894
 20
134.8082611884360063
 10
131.5637208478062803
 20
134.3552889344359187
 10
132.0579618918063716
 20
133.8968798664358815
 10
132.5522038698063625
 20
133.4327864744358862
 10
133.0217331418064077
 20
132.9632572024356136
 10
133.4912633478063526
 20
132.4882911164358461
 10
133.9607926198063979
 20
132.0078882164356742
 10
134.4303218918062157
 20
131.5222960124360156
 10
134.8751393918062149
 20
131.031513570435834
 10
135.3199568918062141
 20
130.5355418244357111
 10
135.7647743918062133
 20
130.0343807744356468
 10
136.1848801198063939
 20
129.5285245064359856
 10
136.604985847806347
 20
129.0174789344359283
 10
137.0250906418064005
 20
128.5017372104356923
 10
137.4451963698063537
 20
127.9813012024359864
 10
137.8405893918063612
 20
127.4564165524356554
 10
138.2359833478062683
 20
126.9265891744357191
 10
138.6313763698062758
 20
126.3925615984357478
 10
139.0020576198062372
 20
125.8540853804356061
 10
139.372738869806426
 20
125.3111605204357488
 10
139.7434201198063874
 20
124.7642820384348283
 10
140.1141013698063489
 20
124.2129558484356835
 10
140.4600708478062643
 20
123.6576751024358032
 10
140.80603939180628
 20
123.0984407344357692
 10
141.1272970978063768
 20
122.5354993204359175
 10
141.4732656418063925
 20
121.9686042844359122
 10
141.7698106418063162
 20
121.3980022024356344
 10
142.0910683478064129
 20
120.8236930744359938
 10
142.3876133478063366
 20
120.2459244104356344
 10
142.6841583478062603
 20
119.6649437204359288
 10
142.9807033478064113
 20
119.080502560435832
 10
143.2525356418063893
 20
118.4928493744359344
 10
143.524368869806267
 20
117.9019841624357809
 10
143.796202097806372
 20
117.3079050564355725
 10
144.0433226198063039
 20
116.7111080104359075
 10
144.2904431418062359
 20
116.1113464484359952
 10
144.5375645978062948
 20
115.5088650784359174
 10
144.7599733478064081
 20
114.9036667024356007
 10
144.982382097806294
 20
114.2957494524357003
 10
145.2047908478064073
 20
113.6856083484357782
 10
145.4024868918063476
 20
113.0729958804358262
 10
145.6001838698064148
 20
112.4579120484358441
 10
145.7978808478062547
 20
111.8408509384357217
 10
145.9708651198063762
 20
111.2215659744355776
 10
146.1438493918062704
 20
110.6003046664358749
 10
146.292121891806346
 20
109.9773126564359131
 10
146.4651070978063672
 20
109.3523443024359381
 10
146.6133795978062153
 20
108.725646180435831
 10
146.7369393918063452
 20
108.0972173564359196
 10
146.8605001198063746
 20
107.4675537844358928
 10
146.9840608478064041
 20
106.8364070204356153
 10
147.0829088698062606
 20
106.2037779984356689
 10
147.20646959780629
 20
105.5701598704358162
 10
147.20646959780629
 20
105.4957761104359975
  0
LWPOLYLINE
  5
69
100
AcDbEntity
  8
0
 62
7
420
16777215
370
-1
 48
1.0
  6
BYLAYER
100
AcDbPolyline
 90
4
 70
1
 10
176.4505049164092725
 20
82.1720381981148762
 10
176.4505049164092725
 20
98.9861396981149824
 10
207.2733922164102296
 20
98.9861396981149824
 10
207.2733922164102296
 20
82.1720381981148762
  0
LWPOLYLINE
  5
6A
100
AcDbEntity
  8
0
 62
7
420
16777215
370
-1
 48
1.0
  6
BYLAYER
100
AcDbPolyline
 90
4
 70
1
 10
272.1034076230682786
 20
83.6482552677766193
 10
272.1034076230682786
 20
100.462356767777635
 10
241.2805203230682309
 20
100.462356767777635
 10
241.2805203230682309
 20
83.6482552677766193
  0
LWPOLYLINE
  5
6B
100
AcDbEntity
  8
0
 62
7
420
16777215
370
-1
 48
1.0
  6
BYLAYER
100
AcDbPolyline
 90
4
 70
1
 10
176.4505049164092725
 20
104.5883688341149877
 10
176.4505049164092725
 20
121.4024703341146392
 10
207.2733922164102296
 20
121.4024703341146392
 10
207.2733922164102296
 20
104.5883688341149877
  0
LWPOLYLINE
  5
6C
100
AcDbEntity
  8
0
 62
7
420
16777215
370
-1
 48
1.0
  6
BYLAYER
100
AcDbPolyline
 90
4
 70
1
 10
272.1034076230682786
 20
106.0645859037767309
 10
272.1034076230682786
 20
122.8786874037768371
 10
241.2805203230682309
 20
122.8786874037768371
 10
241.2805203230682309
 20
106.0645859037767309
  0
LWPOLYLINE
  5
6D
100
AcDbEntity
  8
0
 62
7
420
16777215
370
-1
 48
1.0
  6
BYLAYER
100
AcDbPolyline
 90
4
 70
1
 10
176.4505049164092725
 20
127.0071708341146746
 10
176.4505049164092725
 20
143.8188009701147507
 10
207.2733922164102296
 20
143.8188009701147507
 10
207.2733922164102296
 20
127.0071708341146746
  0
LWPOLYLINE
  5
6E
100
AcDbEntity
  8
0
 62
7
420
16777215
370
-1
 48
1.0
  6
BYLAYER
100
AcDbPolyline
 90
4
 70
1
 10
272.1034076230682786
 20
128.483387903777782
 10
272.1034076230682786
 20
145.2950180397769486
 10
241.2805203230682309
 20
145.2950180397769486
 10
241.2805203230682309
 20
128.483387903777782
  0
LINE
  5
6F
100
AcDbEntity
  8
0
 62
256
370
-1
 48
1.0
  6
BYLAYER
100
AcDbLine
 10
167.1101686764093301
 20
123.2704320401148266
 30
0.0
 11
171.7801686764103124
 21
123.2704320401148266
 31
0.0
  0
LINE
  5
70
100
AcDbEntity
  8
0
 62
256
370
-1
 48
1.0
  6
BYLAYER
100
AcDbLine
 10
281.4437438630683346
 20
124.7466491097765697
 30
0.0
 11
276.7737438630683755
 21
124.7466491097765697
 31
0.0
  0
LINE
  5
71
100
AcDbEntity
  8
0
 62
256
370
-1
 48
1.0
  6
BYLAYER
100
AcDbLine
 10
167.0203410844603695
 20
85.9104320401146992
 30
0.0
 11
171.6903410844602149
 21
85.9104320401146992
 31
0.0
  0
LINE
  5
72
100
AcDbEntity
  8
0
 62
256
370
-1
 48
1.0
  6
BYLAYER
100
AcDbLine
 10
281.533571455016272
 20
87.3866491097768971
 30
0.0
 11
276.8635714550163129
 21
87.3866491097768971
 31
0.0
  0
LINE
  5
73
100
AcDbEntity
  8
0
 62
256
370
-1
 48
1.0
  6
BYLAYER
100
AcDbLine
 10
167.0203410844603695
 20
123.2704320401148266
 30
0.0
 11
167.0203410844603695
 21
85.9104320401146992
 31
0.0
  0
LINE
  5
74
100
AcDbEntity
  8
0
 62
256
370
-1
 48
1.0
  6
BYLAYER
100
AcDbLine
 10
281.533571455016272
 20
124.7466491097765697
 30
0.0
 11
281.533571455016272
 21
87.3866491097768971
 31
0.0
  0
LINE
  5
75
100
AcDbEntity
  8
0
 62
256
370
-1
 48
1.0
  6
BYLAYER
100
AcDbLine
 10
171.6903410844602149
 20
123.2704320401148266
 30
0.0
 11
171.7801686764103124
 21
160.6304320401149539
 31
0.0
  0
LINE
  5
76
100
AcDbEntity
  8
0
 62
256
370
-1
 48
1.0
  6
BYLAYER
100
AcDbLine
 10
276.8635714550163129
 20
124.7466491097765697
 30
0.0
 11
276.7737438630683755
 21
162.1066491097766971
 31
0.0
  0
LINE
  5
77
100
AcDbEntity
  8
0
 62
256
370
-1
 48
1.0
  6
BYLAYER
100
AcDbLine
 10
171.7801686764103124
 20
160.6304320401149539
 30
0.0
 11
176.4505049164092725
 21
160.6304320401149539
 31
0.0
  0
LINE
  5
78
100
AcDbEntity
  8
0
 62
256
370
-1
 48
1.0
  6
BYLAYER
100
AcDbLine
 10
276.7737438630683755
 20
162.1066491097766971
 30
0.0
 11
272.1034076230682786
 21
162.1066491097766971
 31
0.0
  0
LINE
  5
79
100
AcDbEntity
  8
0
 62
256
370
-1
 48
1.0
  6
BYLAYER
100
AcDbLine
 10
176.4505049164092725
 20
160.6304320401149539
 30
0.0
 11
176.4505049164092725
 21
149.4235014701147861
 31
0.0
  0
LINE
  5
7A
100
AcDbEntity
  8
0
 62
256
370
-1
 48
1.0
  6
BYLAYER
100
AcDbLine
 10
272.1034076230682786
 20
162.1066491097766971
 30
0.0
 11
272.1034076230682786
 21
150.899718539776984
 31
0.0
  0
LINE
  5
7B
100
AcDbEntity
  8
0
 62
256
370
-1
 48
1.0
  6
BYLAYER
100
AcDbLine
 10
176.4505049164092725
 20
149.4235014701147861
 30
0.0
 11
207.2733922164102296
 21
149.4235014701147861
 31
0.0
  0
LINE
  5
7C
100
AcDbEntity
  8
0
 62
256
370
-1
 48
1.0
  6
BYLAYER
100
AcDbLine
 10
272.1034076230682786
 20
150.899718539776984
 30
0.0
 11
241.2805203230682309
 21
150.899718539776984
 31
0.0
  0
LINE
  5
7D
100
AcDbEntity
  8
0
 62
256
370
-1
 48
1.0
  6
BYLAYER
100
AcDbLine
 10
207.2733922164102296
 20
149.4235014701147861
 30
0.0
 11
207.2733922164102296
 21
160.6304320401149539
 31
0.0
  0
LINE
  5
7E
100
AcDbEntity
  8
0
 62
256
370
-1
 48
1.0
  6
BYLAYER
100
AcDbLine
 10
241.2805203230682309
 20
150.899718539776984
 30
0.0
 11
241.2805203230682309
 21
162.1066491097766971
 31
0.0
  0
LINE
  5
7F
100
AcDbEntity
  8
0
 62
256
370
-1
 48
1.0
  6
BYLAYER
100
AcDbLine
 10
207.2733922164102296
 20
160.6304320401149539
 30
0.0
 11
211.9434818804083989
 21
160.6304320401149539
 31
0.0
  0
LINE
  5
80
100
AcDbEntity
  8
0
 62
256
370
-1
 48
1.0
  6
BYLAYER
100
AcDbLine
 10
241.2805203230682309
 20
162.1066491097766971
 30
0.0
 11
236.6104306590682427
 21
162.1066491097766971
 31
0.0
  0
LINE
  5
81
100
AcDbEntity
  8
0
 62
256
370
-1
 48
1.0
  6
BYLAYER
100
AcDbLine
 10
211.9434818804083989
 20
160.6304320401149539
 30
0.0
 11
211.9434818804083989
 21
54.1510070621138198
 31
0.0
  0
LINE
  5
82
100
AcDbEntity
  8
0
 62
256
370
-1
 48
1.0
  6
BYLAYER
100
AcDbLine
 10
236.6104306590682427
 20
162.1066491097766971
 30
0.0
 11
236.6104306590682427
 21
55.6272241317769272
 31
0.0
  0
LINE
  5
83
100
AcDbEntity
  8
0
 62
256
370
-1
 48
1.0
  6
BYLAYER
100
AcDbLine
 10
211.9434818804083989
 20
54.1510070621138198
 30
0.0
 11
207.2733922164102296
 21
54.1510070621138198
 31
0.0
  0
LINE
  5
84
100
AcDbEntity
  8
0
 62
256
370
-1
 48
1.0
  6
BYLAYER
100
AcDbLine
 10
236.6104306590682427
 20
55.6272241317769272
 30
0.0
 11
241.2805203230682309
 21
55.6272241317769272
 31
0.0
  0
LINE
  5
85
100
AcDbEntity
  8
0
 62
256
370
-1
 48
1.0
  6
BYLAYER
100
AcDbLine
 10
207.2733922164102296
 20
54.1510070621138198
 30
0.0
 11
207.2733922164102296
 21
76.5673376981148408
 31
0.0
  0
LINE
  5
86
100
AcDbEntity
  8
0
 62
256
370
-1
 48
1.0
  6
BYLAYER
100
AcDbLine
 10
241.2805203230682309
 20
55.6272241317769272
 30
0.0
 11
241.2805203230682309
 21
78.0435547677779482
 31
0.0
  0
LINE
  5
87
100
AcDbEntity
  8
0
 62
256
370
-1
 48
1.0
  6
BYLAYER
100
AcDbLine
 10
207.2733922164102296
 20
76.5673376981148408
 30
0.0
 11
176.4505049164092725
 21
76.5673376981148408
 31
0.0
  0
LINE
  5
88
100
AcDbEntity
  8
0
 62
256
370
-1
 48
1.0
  6
BYLAYER
100
AcDbLine
 10
241.2805203230682309
 20
78.0435547677779482
 30
0.0
 11
272.1034076230682786
 21
78.0435547677779482
 31
0.0
  0
LINE
  5
89
100
AcDbEntity
  8
0
 62
256
370
-1
 48
1.0
  6
BYLAYER
100
AcDbLine
 10
176.4505049164092725
 20
76.5673376981148408
 30
0.0
 11
176.4505049164092725
 21
54.1510070621138198
 31
0.0
  0
LINE
  5
8A
100
AcDbEntity
  8
0
 62
256
370
-1
 48
1.0
  6
BYLAYER
100
AcDbLine
 10
272.1034076230682786
 20
78.0435547677779482
 30
0.0
 11
272.1034076230682786
 21
55.6272241317769272
 31
0.0
  0
LINE
  5
8B
100
AcDbEntity
  8
0
 62
256
370
-1
 48
1.0
  6
BYLAYER
100
AcDbLine
 10
176.4505049164092725
 20
54.1510070621138198
 30
0.0
 11
171.5241518044083477
 21
54.1510070621138198
 31
0.0
  0
LINE
  5
8C
100
AcDbEntity
  8
0
 62
256
370
-1
 48
1.0
  6
BYLAYER
100
AcDbLine
 10
272.1034076230682786
 20
55.6272241317769272
 30
0.0
 11
277.0297607350682938
 21
55.6272241317769272
 31
0.0
  0
LINE
  5
8D
100
AcDbEntity
  8
0
 62
256
370
-1
 48
1.0
  6
BYLAYER
100
AcDbLine
 10
171.5241518044083477
 20
54.1510070621138198
 30
0.0
 11
171.6005134925112543
 21
85.9104320401146992
 31
0.0
  0
LINE
  5
8E
100
AcDbEntity
  8
0
 62
256
370
-1
 48
1.0
  6
BYLAYER
100
AcDbLine
 10
277.0297607350682938
 20
55.6272241317769272
 30
0.0
 11
276.9533990469673199
 21
87.3866491097768971
 31
0.0
  0
LINE
  5
8F
100
AcDbEntity
  8
0
 62
256
370
-1
 48
1.0
  6
BYLAYER
100
AcDbLine
 10
296.020489721806257
 20
169.1506771764356358
 30
0.0
 11
296.020489721806257
 21
173.8206771764357086
 31
0.0
  0
LINE
  5
90
100
AcDbEntity
  8
0
 62
256
370
-1
 48
1.0
  6
BYLAYER
100
AcDbLine
 10
239.9701764938054112
 20
173.8206771764366181
 30
0.0
 11
239.9701764938054112
 21
169.1506771764370001
 31
0.0
  0
LINE
  5
91
100
AcDbEntity
  8
0
 62
256
370
-1
 48
1.0
  6
BYLAYER
100
AcDbLine
 10
202.6101764938052838
 20
173.8206771764366181
 30
0.0
 11
202.6101764938052838
 21
169.1506771764370001
 31
0.0
  0
LINE
  5
92
100
AcDbEntity
  8
0
 62
256
370
-1
 48
1.0
  6
BYLAYER
100
AcDbLine
 10
202.6101764938052838
 20
169.1506771764370001
 30
0.0
 11
202.6101764938052838
 21
173.8206771764366181
 31
0.0
  0
LINE
  5
93
100
AcDbEntity
  8
0
 62
256
370
-1
 48
1.0
  6
BYLAYER
100
AcDbLine
 10
165.2501764938053839
 20
169.1506771764370001
 30
0.0
 11
165.2501764938053839
 21
173.8206771764366181
 31
0.0
  0
LINE
  5
94
100
AcDbEntity
  8
0
 62
256
370
-1
 48
1.0
  6
BYLAYER
100
AcDbLine
 10
165.2501764938053839
 20
173.8206771764366181
 30
0.0
 11
127.8901764938052565
 21
173.8206771764366181
 31
0.0
  0
LINE
  5
95
100
AcDbEntity
  8
0
 62
256
370
-1
 48
1.0
  6
BYLAYER
100
AcDbLine
 10
127.8901764938052565
 20
169.1506771764370001
 30
0.0
 11
127.8901764938052565
 21
173.8206771764366181
 31
0.0
  0
LINE
  5
96
100
AcDbEntity
  8
0
 62
256
370
-1
 48
1.0
  6
BYLAYER
100
AcDbLine
 10
90.5301764938053566
 20
173.8206771764366181
 30
0.0
 11
53.1701764938063661
 21
173.8206771764366181
 31
0.0
  0
LINE
  5
97
100
AcDbEntity
  8
0
 62
256
370
-1
 48
1.0
  6
BYLAYER
100
AcDbLine
 10
53.1701764938063661
 20
173.8206771764366181
 30
0.0
 11
53.1701764938063661
 21
169.1506771764370001
 31
0.0
  0
LINE
  5
98
100
AcDbEntity
  8
0
 62
256
370
-1
 48
1.0
  6
BYLAYER
100
AcDbLine
 10
90.5301764938053566
 20
173.8206771764366181
 30
0.0
 11
90.5301764938053566
 21
169.1506771764370001
 31
0.0
  0
LINE
  5
99
100
AcDbEntity
  8
0
 62
256
370
-1
 48
1.0
  6
BYLAYER
100
AcDbLine
 10
90.5301764938053566
 20
169.1506771764370001
 30
0.0
 11
127.8901764938052565
 21
169.1506771764370001
 31
0.0
  0
LINE
  5
9A
100
AcDbEntity
  8
0
 62
256
370
-1
 48
1.0
  6
BYLAYER
100
AcDbLine
 10
165.2501764938053839
 20
169.1506771764370001
 30
0.0
 11
202.6101764938052838
 21
169.1506771764370001
 31
0.0
  0
LINE
  5
9B
100
AcDbEntity
  8
0
 62
256
370
-1
 48
1.0
  6
BYLAYER
100
AcDbLine
 10
202.6101764938052838
 20
169.1506771764370001
 30
0.0
 11
202.6101764938052838
 21
173.8206771764366181
 31
0.0
  0
LINE
  5
9C
100
AcDbEntity
  8
0
 62
256
370
-1
 48
1.0
  6
BYLAYER
100
AcDbLine
 10
202.6101764938052838
 20
173.8206771764366181
 30
0.0
 11
239.9701764938054112
 21
173.8206771764366181
 31
0.0
  0
LINE
  5
9D
100
AcDbEntity
  8
0
 62
256
370
-1
 48
1.0
  6
BYLAYER
100
AcDbLine
 10
239.9701764938054112
 20
169.1506771764370001
 30
0.0
 11
290.4108464938062752
 21
169.1506771764356358
 31
0.0
  0
LINE
  5
9E
100
AcDbEntity
  8
0
 62
256
370
-1
 48
1.0
  6
BYLAYER
100
AcDbLine
 10
290.4108464938062752
 20
169.1506771764356358
 30
0.0
 11
290.4108464938062752
 21
24.376487252435652
 31
0.0
  0
LINE
  5
9F
100
AcDbEntity
  8
0
 62
256
370
-1
 48
1.0
  6
BYLAYER
100
AcDbLine
 10
21.4198197218063342
 20
24.376487252435652
 30
0.0
 11
21.4198197218063342
 21
169.1506771764356358
 31
0.0
  0
LINE
  5
A0
100
AcDbEntity
  8
0
 62
256
370
-1
 48
1.0
  6
BYLAYER
100
AcDbLine
 10
21.4198197218063342
 20
169.1506771764356358
 30
0.0
 11
53.1701764938063661
 21
169.1506771764356358
 31
0.0
  0
LINE
  5
A1
100
AcDbEntity
  8
0
 62
256
370
-1
 48
1.0
  6
BYLAYER
100
AcDbLine
 10
53.1701764938072756
 20
14.6236807524368828
 30
0.0
 11
90.5301764938074029
 21
14.6236807524368828
 31
0.0
  0
LINE
  5
A2
100
AcDbEntity
  8
0
 62
256
370
-1
 48
1.0
  6
BYLAYER
100
AcDbLine
 10
90.5301764938074029
 20
20.1192937524355671
 30
0.0
 11
53.1701764938072756
 21
20.1192937524355671
 31
0.0
  0
LINE
  5
A3
100
AcDbEntity
  8
0
 62
256
370
-1
 48
1.0
  6
BYLAYER
100
AcDbLine
 10
53.1701764938072756
 20
20.1192937524355671
 30
0.0
 11
53.1701764938072756
 21
14.6236807524368828
 31
0.0
  0
LINE
  5
A4
100
AcDbEntity
  8
0
 62
256
370
-1
 48
1.0
  6
BYLAYER
100
AcDbLine
 10
90.5301764938074029
 20
20.1192937524355671
 30
0.0
 11
90.5301764938074029
 21
14.6236807524368828
 31
0.0
  0
LINE
  5
A5
100
AcDbEntity
  8
0
 62
256
370
-1
 48
1.0
  6
BYLAYER
100
AcDbLine
 10
165.2501764938074302
 20
20.1192937524355671
 30
0.0
 11
127.8901764938073029
 21
20.1192937524355671
 31
0.0
  0
LINE
  5
A6
100
AcDbEntity
  8
0
 62
256
370
-1
 48
1.0
  6
BYLAYER
100
AcDbLine
 10
127.8901764938073029
 20
20.1192937524355671
 30
0.0
 11
127.8901764938073029
 21
14.6236807524368828
 31
0.0
  0
LINE
  5
A7
100
AcDbEntity
  8
0
 62
256
370
-1
 48
1.0
  6
BYLAYER
100
AcDbLine
 10
127.8901764938073029
 20
14.6236807524368828
 30
0.0
 11
165.2501764938074302
 21
14.6236807524368828
 31
0.0
  0
LINE
  5
A8
100
AcDbEntity
  8
0
 62
256
370
-1
 48
1.0
  6
BYLAYER
100
AcDbLine
 10
165.2501764938074302
 20
20.1192937524355671
 30
0.0
 11
165.2501764938074302
 21
14.6236807524368828
 31
0.0
  0
LINE
  5
A9
100
AcDbEntity
  8
0
 62
256
370
-1
 48
1.0
  6
BYLAYER
100
AcDbLine
 10
202.6101764938073302
 20
14.6236807524368828
 30
0.0
 11
239.9701764938072301
 21
14.6236807524368828
 31
0.0
  0
LINE
  5
AA
100
AcDbEntity
  8
0
 62
256
370
-1
 48
1.0
  6
BYLAYER
100
AcDbLine
 10
239.9701764938072301
 20
20.1192937524355671
 30
0.0
 11
202.6101764938073302
 21
20.1192937524355671
 31
0.0
  0
LINE
  5
AB
100
AcDbEntity
  8
0
 62
256
370
-1
 48
1.0
  6
BYLAYER
100
AcDbLine
 10
202.6101764938073302
 20
20.1192937524355671
 30
0.0
 11
202.6101764938073302
 21
14.6236807524368828
 31
0.0
  0
LINE
  5
AC
100
AcDbEntity
  8
0
 62
256
370
-1
 48
1.0
  6
BYLAYER
100
AcDbLine
 10
239.9701764938072301
 20
20.1192937524355671
 30
0.0
 11
239.9701764938072301
 21
14.6236807524368828
 31
0.0
  0
LINE
  5
AD
100
AcDbEntity
  8
0
 62
256
370
-1
 48
1.0
  6
BYLAYER
100
AcDbLine
 10
21.4198197218063342
 20
24.376487252435652
 30
0.0
 11
290.4108464938062752
 21
24.376487252435652
 31
0.0
  0
LINE
  5
AE
100
AcDbEntity
  8
0
 62
256
370
-1
 48
1.0
  6
BYLAYER
100
AcDbLine
 10
258.6604897218062433
 20
295.9232845384366897
 30
0.0
 11
296.020489721806257
 21
295.9232845384366897
 31
0.0
  0
LINE
  5
AF
100
AcDbEntity
  8
0
 62
256
370
-1
 48
1.0
  6
BYLAYER
100
AcDbLine
 10
296.020489721806257
 20
295.9232845384366897
 30
0.0
 11
296.020489721806257
 21
305.2632845384368352
 31
0.0
  0
LINE
  5
B0
100
AcDbEntity
  8
0
 62
256
370
-1
 48
1.0
  6
BYLAYER
100
AcDbLine
 10
258.6604897218062433
 20
305.2632845384368352
 30
0.0
 11
258.6604897218062433
 21
295.9232845384366897
 31
0.0
  0
LINE
  5
B1
100
AcDbEntity
  8
0
 62
256
370
-1
 48
1.0
  6
BYLAYER
100
AcDbLine
 10
258.6604897218062433
 20
295.9232845384366897
 30
0.0
 11
258.6604897218062433
 21
305.2632845384368352
 31
0.0
  0
LINE
  5
B2
100
AcDbEntity
  8
0
 62
256
370
-1
 48
1.0
  6
BYLAYER
100
AcDbLine
 10
258.6604897218062433
 20
305.2632845384368352
 30
0.0
 11
221.3004897218063434
 21
305.2632845384368352
 31
0.0
  0
LINE
  5
B3
100
AcDbEntity
  8
0
 62
256
370
-1
 48
1.0
  6
BYLAYER
100
AcDbLine
 10
221.3004897218063434
 20
305.2632845384368352
 30
0.0
 11
221.3004897218063434
 21
295.9232845384366897
 31
0.0
  0
LINE
  5
B4
100
AcDbEntity
  8
0
 62
256
370
-1
 48
1.0
  6
BYLAYER
100
AcDbLine
 10
183.940489721806216
 20
295.9232845384366897
 30
0.0
 11
221.3004897218063434
 21
295.9232845384366897
 31
0.0
  0
LINE
  5
B5
100
AcDbEntity
  8
0
 62
256
370
-1
 48
1.0
  6
BYLAYER
100
AcDbLine
 10
221.3004897218063434
 20
295.9232845384366897
 30
0.0
 11
221.3004897218063434
 21
305.2632845384368352
 31
0.0
  0
LINE
  5
B6
100
AcDbEntity
  8
0
 62
256
370
-1
 48
1.0
  6
BYLAYER
100
AcDbLine
 10
183.940489721806216
 20
305.2632845384368352
 30
0.0
 11
183.940489721806216
 21
295.9232845384366897
 31
0.0
  0
LINE
  5
B7
100
AcDbEntity
  8
0
 62
256
370
-1
 48
1.0
  6
BYLAYER
100
AcDbLine
 10
183.940489721806216
 20
295.9232845384366897
 30
0.0
 11
183.940489721806216
 21
305.2632845384368352
 31
0.0
  0
LINE
  5
B8
100
AcDbEntity
  8
0
 62
256
370
-1
 48
1.0
  6
BYLAYER
100
AcDbLine
 10
183.940489721806216
 20
305.2632845384368352
 30
0.0
 11
146.5804897218063161
 21
305.2632845384368352
 31
0.0
  0
LINE
  5
B9
100
AcDbEntity
  8
0
 62
256
370
-1
 48
1.0
  6
BYLAYER
100
AcDbLine
 10
146.5804897218063161
 20
305.2632845384368352
 30
0.0
 11
146.5804897218063161
 21
295.9232845384366897
 31
0.0
  0
LINE
  5
BA
100
AcDbEntity
  8
0
 62
256
370
-1
 48
1.0
  6
BYLAYER
100
AcDbLine
 10
109.2204897218064161
 20
295.9232845384366897
 30
0.0
 11
146.5804897218063161
 21
295.9232845384366897
 31
0.0
  0
LINE
  5
BB
100
AcDbEntity
  8
0
 62
256
370
-1
 48
1.0
  6
BYLAYER
100
AcDbLine
 10
146.5804897218063161
 20
295.9232845384366897
 30
0.0
 11
146.5804897218063161
 21
305.2632845384368352
 31
0.0
  0
LINE
  5
BC
100
AcDbEntity
  8
0
 62
256
370
-1
 48
1.0
  6
BYLAYER
100
AcDbLine
 10
109.2204897218064161
 20
305.2632845384368352
 30
0.0
 11
109.2204897218064161
 21
295.9232845384366897
 31
0.0
  0
LINE
  5
BD
100
AcDbEntity
  8
0
 62
256
370
-1
 48
1.0
  6
BYLAYER
100
AcDbLine
 10
109.2204897218064161
 20
295.9232845384366897
 30
0.0
 11
109.2204897218064161
 21
305.2632845384368352
 31
0.0
  0
LINE
  5
BE
100
AcDbEntity
  8
0
 62
256
370
-1
 48
1.0
  6
BYLAYER
100
AcDbLine
 10
109.2204897218064161
 20
305.2632845384368352
 30
0.0
 11
71.8604897218062888
 21
305.2632845384368352
 31
0.0
  0
LINE
  5
BF
100
AcDbEntity
  8
0
 62
256
370
-1
 48
1.0
  6
BYLAYER
100
AcDbLine
 10
71.8604897218062888
 20
305.2632845384368352
 30
0.0
 11
71.8604897218062888
 21
295.9232845384366897
 31
0.0
  0
LINE
  5
C0
100
AcDbEntity
  8
0
 62
256
370
-1
 48
1.0
  6
BYLAYER
100
AcDbLine
 10
34.5004897218063888
 20
295.9232845384366897
 30
0.0
 11
71.8604897218062888
 21
295.9232845384366897
 31
0.0
  0
LINE
  5
C1
100
AcDbEntity
  8
0
 62
256
370
-1
 48
1.0
  6
BYLAYER
100
AcDbLine
 10
71.8604897218062888
 20
295.9232845384366897
 30
0.0
 11
71.8604897218062888
 21
305.2632845384368352
 31
0.0
  0
LINE
  5
C2
100
AcDbEntity
  8
0
 62
256
370
-1
 48
1.0
  6
BYLAYER
100
AcDbLine
 10
34.5004897218063888
 20
305.2632845384368352
 30
0.0
 11
34.5004897218063888
 21
295.9232845384366897
 31
0.0
  0
LINE
  5
C3
100
AcDbEntity
  8
0
 62
256
370
-1
 48
1.0
  6
BYLAYER
100
AcDbLine
 10
34.5004897218063888
 20
295.9232845384366897
 30
0.0
 11
34.5004897218063888
 21
305.2632845384368352
 31
0.0
  0
LINE
  5
C4
100
AcDbEntity
  8
0
 62
256
370
-1
 48
1.0
  6
BYLAYER
100
AcDbLine
 10
34.5004897218063888
 20
305.2632845384368352
 30
0.0
 11
15.8101764938062388
 21
305.2657549684367382
 31
0.0
  0
LINE
  5
C5
100
AcDbEntity
  8
0
 62
256
370
-1
 48
1.0
  6
BYLAYER
100
AcDbLine
 10
296.020489721806257
 20
466.1655118664356792
 30
0.0
 11
296.020489721806257
 21
475.5055118664358247
 31
0.0
  0
LINE
  5
C6
100
AcDbEntity
  8
0
 62
256
370
-1
 48
1.0
  6
BYLAYER
100
AcDbLine
 10
296.020489721806257
 20
475.5055118664358247
 30
0.0
 11
258.6604897218062433
 21
475.5055118664358247
 31
0.0
  0
LINE
  5
C7
100
AcDbEntity
  8
0
 62
256
370
-1
 48
1.0
  6
BYLAYER
100
AcDbLine
 10
258.6604897218062433
 20
475.5055118664358247
 30
0.0
 11
258.6604897218062433
 21
466.1655118664356792
 31
0.0
  0
LINE
  5
C8
100
AcDbEntity
  8
0
 62
256
370
-1
 48
1.0
  6
BYLAYER
100
AcDbLine
 10
221.3004897218063434
 20
466.1655118664356792
 30
0.0
 11
258.6604897218062433
 21
466.1655118664356792
 31
0.0
  0
LINE
  5
C9
100
AcDbEntity
  8
0
 62
256
370
-1
 48
1.0
  6
BYLAYER
100
AcDbLine
 10
258.6604897218062433
 20
466.1655118664356792
 30
0.0
 11
258.6604897218062433
 21
475.5055118664358247
 31
0.0
  0
LINE
  5
CA
100
AcDbEntity
  8
0
 62
256
370
-1
 48
1.0
  6
BYLAYER
100
AcDbLine
 10
221.3004897218063434
 20
475.5055118664358247
 30
0.0
 11
221.3004897218063434
 21
466.1655118664356792
 31
0.0
  0
LINE
  5
CB
100
AcDbEntity
  8
0
 62
256
370
-1
 48
1.0
  6
BYLAYER
100
AcDbLine
 10
221.3004897218063434
 20
466.1655118664356792
 30
0.0
 11
221.3004897218063434
 21
475.5055118664358247
 31
0.0
  0
LINE
  5
CC
100
AcDbEntity
  8
0
 62
256
370
-1
 48
1.0
  6
BYLAYER
100
AcDbLine
 10
221.3004897218063434
 20
475.5055118664358247
 30
0.0
 11
183.940489721806216
 21
475.5055118664358247
 31
0.0
  0
LINE
  5
CD
100
AcDbEntity
  8
0
 62
256
370
-1
 48
1.0
  6
BYLAYER
100
AcDbLine
 10
183.940489721806216
 20
475.5055118664358247
 30
0.0
 11
183.940489721806216
 21
466.1655118664356792
 31
0.0
  0
LINE
  5
CE
100
AcDbEntity
  8
0
 62
256
370
-1
 48
1.0
  6
BYLAYER
100
AcDbLine
 10
146.5804897218063161
 20
466.1655118664356792
 30
0.0
 11
183.940489721806216
 21
466.1655118664356792
 31
0.0
  0
LINE
  5
CF
100
AcDbEntity
  8
0
 62
256
370
-1
 48
1.0
  6
BYLAYER
100
AcDbLine
 10
183.940489721806216
 20
466.1655118664356792
 30
0.0
 11
183.940489721806216
 21
475.5055118664358247
 31
0.0
  0
LINE
  5
D0
100
AcDbEntity
  8
0
 62
256
370
-1
 48
1.0
  6
BYLAYER
100
AcDbLine
 10
146.5804897218063161
 20
475.5055118664358247
 30
0.0
 11
146.5804897218063161
 21
466.1655118664356792
 31
0.0
  0
LINE
  5
D1
100
AcDbEntity
  8
0
 62
256
370
-1
 48
1.0
  6
BYLAYER
100
AcDbLine
 10
146.5804897218063161
 20
466.1655118664356792
 30
0.0
 11
146.5804897218063161
 21
475.5055118664358247
 31
0.0
  0
LINE
  5
D2
100
AcDbEntity
  8
0
 62
256
370
-1
 48
1.0
  6
BYLAYER
100
AcDbLine
 10
146.5804897218063161
 20
475.5055118664358247
 30
0.0
 11
109.2204897218064161
 21
475.5055118664358247
 31
0.0
  0
LINE
  5
D3
100
AcDbEntity
  8
0
 62
256
370
-1
 48
1.0
  6
BYLAYER
100
AcDbLine
 10
109.2204897218064161
 20
475.5055118664358247
 30
0.0
 11
109.2204897218064161
 21
466.1655118664356792
 31
0.0
  0
LINE
  5
D4
100
AcDbEntity
  8
0
 62
256
370
-1
 48
1.0
  6
BYLAYER
100
AcDbLine
 10
71.8604897218062888
 20
466.1655118664356792
 30
0.0
 11
109.2204897218064161
 21
466.1655118664356792
 31
0.0
  0
LINE
  5
D5
100
AcDbEntity
  8
0
 62
256
370
-1
 48
1.0
  6
BYLAYER
100
AcDbLine
 10
109.2204897218064161
 20
466.1655118664356792
 30
0.0
 11
109.2204897218064161
 21
475.5055118664358247
 31
0.0
  0
LINE
  5
D6
100
AcDbEntity
  8
0
 62
256
370
-1
 48
1.0
  6
BYLAYER
100
AcDbLine
 10
71.8604897218062888
 20
475.5055118664358247
 30
0.0
 11
71.8604897218062888
 21
466.1655118664356792
 31
0.0
  0
LINE
  5
D7
100
AcDbEntity
  8
0
 62
256
370
-1
 48
1.0
  6
BYLAYER
100
AcDbLine
 10
71.8604897218062888
 20
466.1655118664356792
 30
0.0
 11
71.8604897218062888
 21
475.5055118664358247
 31
0.0
  0
LINE
  5
D8
100
AcDbEntity
  8
0
 62
256
370
-1
 48
1.0
  6
BYLAYER
100
AcDbLine
 10
71.8604897218062888
 20
475.5055118664358247
 30
0.0
 11
34.5004897218063888
 21
475.5055118664358247
 31
0.0
  0
LINE
  5
D9
100
AcDbEntity
  8
0
 62
256
370
-1
 48
1.0
  6
BYLAYER
100
AcDbLine
 10
34.5004897218063888
 20
475.5055118664358247
 30
0.0
 11
34.5004897218063888
 21
466.1655118664356792
 31
0.0
  0
LINE
  5
DA
100
AcDbEntity
  8
0
 62
256
370
-1
 48
1.0
  6
BYLAYER
100
AcDbLine
 10
11.1401764939282657
 20
466.1585927944369701
 30
0.0
 11
34.5004897218063888
 21
466.1655118664356792
 31
0.0
  0
LINE
  5
DB
100
AcDbEntity
  8
0
 62
256
370
-1
 48
1.0
  6
BYLAYER
100
AcDbLine
 10
34.5004897218063888
 20
466.1655118664356792
 30
0.0
 11
34.5004897218063888
 21
475.5055118664358247
 31
0.0
  0
LINE
  5
DC
100
AcDbEntity
  8
0
 62
256
370
-1
 48
1.0
  6
BYLAYER
100
AcDbLine
 10
34.5004897218063888
 20
466.1655118664356792
 30
0.0
 11
34.5004897218063888
 21
475.5055118664358247
 31
0.0
  0
LINE
  5
DD
100
AcDbEntity
  8
0
 62
256
370
-1
 48
1.0
  6
BYLAYER
100
AcDbLine
 10
34.5004897218063888
 20
475.5055118664358247
 30
0.0
 11
71.8604897218062888
 21
475.5055118664358247
 31
0.0
  0
LINE
  5
DE
100
AcDbEntity
  8
0
 62
256
370
-1
 48
1.0
  6
BYLAYER
100
AcDbLine
 10
71.8604897218062888
 20
475.5055118664358247
 30
0.0
 11
71.8604897218062888
 21
466.1655118664356792
 31
0.0
  0
LINE
  5
DF
100
AcDbEntity
  8
0
 62
256
370
-1
 48
1.0
  6
BYLAYER
100
AcDbLine
 10
71.8604897218062888
 20
466.1655118664356792
 30
0.0
 11
109.2204897218064161
 21
466.1655118664356792
 31
0.0
  0
LINE
  5
E0
100
AcDbEntity
  8
0
 62
256
370
-1
 48
1.0
  6
BYLAYER
100
AcDbLine
 10
109.2204897218064161
 20
466.1655118664356792
 30
0.0
 11
109.2204897218064161
 21
475.5055118664358247
 31
0.0
  0
LINE
  5
E1
100
AcDbEntity
  8
0
 62
256
370
-1
 48
1.0
  6
BYLAYER
100
AcDbLine
 10
109.2204897218064161
 20
475.5055118664358247
 30
0.0
 11
146.5804897218063161
 21
475.5055118664358247
 31
0.0
  0
LINE
  5
E2
100
AcDbEntity
  8
0
 62
256
370
-1
 48
1.0
  6
BYLAYER
100
AcDbLine
 10
146.5804897218063161
 20
475.5055118664358247
 30
0.0
 11
146.5804897218063161
 21
466.1655118664356792
 31
0.0
  0
LINE
  5
E3
100
AcDbEntity
  8
0
 62
256
370
-1
 48
1.0
  6
BYLAYER
100
AcDbLine
 10
146.5804897218063161
 20
466.1655118664356792
 30
0.0
 11
183.940489721806216
 21
466.1655118664356792
 31
0.0
  0
LINE
  5
E4
100
AcDbEntity
  8
0
 62
256
370
-1
 48
1.0
  6
BYLAYER
100
AcDbLine
 10
183.940489721806216
 20
466.1655118664356792
 30
0.0
 11
183.940489721806216
 21
475.5055118664358247
 31
0.0
  0
LINE
  5
E5
100
AcDbEntity
  8
0
 62
256
370
-1
 48
1.0
  6
BYLAYER
100
AcDbLine
 10
183.940489721806216
 20
475.5055118664358247
 30
0.0
 11
221.3004897218063434
 21
475.5055118664358247
 31
0.0
  0
LINE
  5
E6
100
AcDbEntity
  8
0
 62
256
370
-1
 48
1.0
  6
BYLAYER
100
AcDbLine
 10
221.3004897218063434
 20
475.5055118664358247
 30
0.0
 11
221.3004897218063434
 21
466.1655118664356792
 31
0.0
  0
LINE
  5
E7
100
AcDbEntity
  8
0
 62
256
370
-1
 48
1.0
  6
BYLAYER
100
AcDbLine
 10
221.3004897218063434
 20
466.1655118664356792
 30
0.0
 11
258.6604897218062433
 21
466.1655118664356792
 31
0.0
  0
LINE
  5
E8
100
AcDbEntity
  8
0
 62
256
370
-1
 48
1.0
  6
BYLAYER
100
AcDbLine
 10
258.6604897218062433
 20
466.1655118664356792
 30
0.0
 11
258.6604897218062433
 21
475.5055118664358247
 31
0.0
  0
LINE
  5
E9
100
AcDbEntity
  8
0
 62
256
370
-1
 48
1.0
  6
BYLAYER
100
AcDbLine
 10
258.6604897218062433
 20
475.5055118664358247
 30
0.0
 11
296.020489721806257
 21
475.5055118664358247
 31
0.0
  0
LINE
  5
EA
100
AcDbEntity
  8
0
 62
256
370
-1
 48
1.0
  6
BYLAYER
100
AcDbLine
 10
296.020489721806257
 20
475.5055118664358247
 30
0.0
 11
296.020489721806257
 21
295.9232845384366897
 31
0.0
  0
LINE
  5
EB
100
AcDbEntity
  8
0
 62
256
370
-1
 48
1.0
  6
BYLAYER
100
AcDbLine
 10
296.020489721806257
 20
295.9232845384366897
 30
0.0
 11
258.6604897218062433
 21
295.9232845384366897
 31
0.0
  0
LINE
  5
EC
100
AcDbEntity
  8
0
 62
256
370
-1
 48
1.0
  6
BYLAYER
100
AcDbLine
 10
258.6604897218062433
 20
295.9232845384366897
 30
0.0
 11
258.6604897218062433
 21
305.2632845384368352
 31
0.0
  0
LINE
  5
ED
100
AcDbEntity
  8
0
 62
256
370
-1
 48
1.0
  6
BYLAYER
100
AcDbLine
 10
258.6604897218062433
 20
305.2632845384368352
 30
0.0
 11
221.3004897218063434
 21
305.2632845384368352
 31
0.0
  0
LINE
  5
EE
100
AcDbEntity
  8
0
 62
256
370
-1
 48
1.0
  6
BYLAYER
100
AcDbLine
 10
221.3004897218063434
 20
305.2632845384368352
 30
0.0
 11
221.3004897218063434
 21
295.9232845384366897
 31
0.0
  0
LINE
  5
EF
100
AcDbEntity
  8
0
 62
256
370
-1
 48
1.0
  6
BYLAYER
100
AcDbLine
 10
221.3004897218063434
 20
295.9232845384366897
 30
0.0
 11
183.940489721806216
 21
295.9232845384366897
 31
0.0
  0
LINE
  5
F0
100
AcDbEntity
  8
0
 62
256
370
-1
 48
1.0
  6
BYLAYER
100
AcDbLine
 10
183.940489721806216
 20
295.9232845384366897
 30
0.0
 11
183.940489721806216
 21
305.2632845384368352
 31
0.0
  0
LINE
  5
F1
100
AcDbEntity
  8
0
 62
256
370
-1
 48
1.0
  6
BYLAYER
100
AcDbLine
 10
183.940489721806216
 20
305.2632845384368352
 30
0.0
 11
146.5804897218063161
 21
305.2632845384368352
 31
0.0
  0
LINE
  5
F2
100
AcDbEntity
  8
0
 62
256
370
-1
 48
1.0
  6
BYLAYER
100
AcDbLine
 10
146.5804897218063161
 20
305.2632845384368352
 30
0.0
 11
146.5804897218063161
 21
295.9232845384366897
 31
0.0
  0
LINE
  5
F3
100
AcDbEntity
  8
0
 62
256
370
-1
 48
1.0
  6
BYLAYER
100
AcDbLine
 10
146.5804897218063161
 20
295.9232845384366897
 30
0.0
 11
109.2204897218064161
 21
295.9232845384366897
 31
0.0
  0
LINE
  5
F4
100
AcDbEntity
  8
0
 62
256
370
-1
 48
1.0
  6
BYLAYER
100
AcDbLine
 10
109.2204897218064161
 20
295.9232845384366897
 30
0.0
 11
109.2204897218064161
 21
305.2632845384368352
 31
0.0
  0
LINE
  5
F5
100
AcDbEntity
  8
0
 62
256
370
-1
 48
1.0
  6
BYLAYER
100
AcDbLine
 10
109.2204897218064161
 20
305.2632845384368352
 30
0.0
 11
71.8604897218062888
 21
305.2632845384368352
 31
0.0
  0
LINE
  5
F6
100
AcDbEntity
  8
0
 62
256
370
-1
 48
1.0
  6
BYLAYER
100
AcDbLine
 10
71.8604897218062888
 20
305.2632845384368352
 30
0.0
 11
71.8604897218062888
 21
295.9232845384366897
 31
0.0
  0
LINE
  5
F7
100
AcDbEntity
  8
0
 62
256
370
-1
 48
1.0
  6
BYLAYER
100
AcDbLine
 10
71.8604897218062888
 20
295.9232845384366897
 30
0.0
 11
34.5004897218063888
 21
295.9232845384366897
 31
0.0
  0
LINE
  5
F8
100
AcDbEntity
  8
0
 62
256
370
-1
 48
1.0
  6
BYLAYER
100
AcDbLine
 10
34.5004897218063888
 20
295.9232845384366897
 30
0.0
 11
34.5004897256553704
 21
305.2632845384368352
 31
0.0
  0
LINE
  5
F9
100
AcDbEntity
  8
0
 62
256
370
-1
 48
1.0
  6
BYLAYER
100
AcDbLine
 10
11.1401764938063934
 20
305.2657549684367382
 30
0.0
 11
20.4801764938063116
 21
305.2657549684367382
 31
0.0
  0
LINE
  5
FA
100
AcDbEntity
  8
0
 62
256
370
-1
 48
1.0
  6
BYLAYER
100
AcDbLine
 10
20.4801764938063116
 20
342.6257549684368655
 30
0.0
 11
11.1401764938063934
 21
342.6257549684368655
 31
0.0
  0
LINE
  5
FB
100
AcDbEntity
  8
0
 62
256
370
-1
 48
1.0
  6
BYLAYER
100
AcDbLine
 10
11.1401764938063934
 20
342.6257549684368655
 30
0.0
 11
11.1401764938063934
 21
305.2657549684367382
 31
0.0
  0
LINE
  5
FC
100
AcDbEntity
  8
0
 62
256
370
-1
 48
1.0
  6
BYLAYER
100
AcDbLine
 10
11.1401764938673296
 20
342.6257549684368655
 30
0.0
 11
20.4801764938672477
 21
342.6257549684368655
 31
0.0
  0
LINE
  5
FD
100
AcDbEntity
  8
0
 62
256
370
-1
 48
1.0
  6
BYLAYER
100
AcDbLine
 10
20.4801764938672477
 20
342.6257549684368655
 30
0.0
 11
20.4801764938672477
 21
379.9857549684369928
 31
0.0
  0
LINE
  5
FE
100
AcDbEntity
  8
0
 62
256
370
-1
 48
1.0
  6
BYLAYER
100
AcDbLine
 10
20.4801764938672477
 20
379.9857549684369928
 30
0.0
 11
11.1401764938673296
 21
379.9857549684369928
 31
0.0
  0
LINE
  5
FF
100
AcDbEntity
  8
0
 62
256
370
-1
 48
1.0
  6
BYLAYER
100
AcDbLine
 10
11.1401764939282657
 20
379.9857549684369928
 30
0.0
 11
20.4801764939284112
 21
379.9857549684369928
 31
0.0
  0
LINE
  5
100
100
AcDbEntity
  8
0
 62
256
370
-1
 48
1.0
  6
BYLAYER
100
AcDbLine
 10
20.4801764939284112
 20
417.3457549684366654
 30
0.0
 11
11.1401764939282657
 21
417.3457549684366654
 31
0.0
  0
LINE
  5
101
100
AcDbEntity
  8
0
 62
256
370
-1
 48
1.0
  6
BYLAYER
100
AcDbLine
 10
11.1401764939282657
 20
417.3457549684366654
 30
0.0
 11
11.1401764939282657
 21
379.9857549684369928
 31
0.0
  0
LINE
  5
102
100
AcDbEntity
  8
0
 62
256
370
-1
 48
1.0
  6
BYLAYER
100
AcDbLine
 10
11.1401764939282657
 20
417.3457549684366654
 30
0.0
 11
20.4801764939284112
 21
417.3457549684366654
 31
0.0
  0
LINE
  5
103
100
AcDbEntity
  8
0
 62
256
370
-1
 48
1.0
  6
BYLAYER
100
AcDbLine
 10
20.4801764939284112
 20
417.3457549684366654
 30
0.0
 11
20.4801764939284112
 21
454.7057549684367928
 31
0.0
  0
LINE
  5
104
100
AcDbEntity
  8
0
 62
256
370
-1
 48
1.0
  6
BYLAYER
100
AcDbLine
 10
20.4801764939284112
 20
454.7057549684367928
 30
0.0
 11
11.1401764939282657
 21
454.7057549684367928
 31
0.0
  0
LINE
  5
105
100
AcDbEntity
  8
0
 62
256
370
-1
 48
1.0
  6
BYLAYER
100
AcDbLine
 10
11.1401764939282657
 20
454.7057549684367928
 30
0.0
 11
20.4801764939284112
 21
454.7057549684367928
 31
0.0
  0
LINE
  5
106
100
AcDbEntity
  8
0
 62
256
370
-1
 48
1.0
  6
BYLAYER
100
AcDbLine
 10
11.1401764939282657
 20
466.1585927944369701
 30
0.0
 11
11.1401764939282657
 21
454.7057549684367928
 31
0.0
  0
LINE
  5
107
100
AcDbEntity
  8
0
 62
256
370
-1
 48
1.0
  6
BYLAYER
100
AcDbLine
 10
15.8101764939283385
 20
454.7057549684367928
 30
0.0
 11
20.4801764939284112
 21
454.7057549684367928
 31
0.0
  0
ENDSEC
  0
SECTION
  2
OBJECTS
  0
DICTIONARY
  5
C
100
AcDbDictionary
280
0
281
1
  3
ACAD_GROUP
350
D
  3
ACAD_LAYOUT
350
1A
  3
ACAD_MLINESTYLE
350
17
  3
ACAD_PLOTSETTINGS
350
19
  3
ACAD_PLOTSTYLENAME
350
E
  3
AcDbVariableDictionary
350
108
  3
QCAD_OBJECTS
350
109
  0
DICTIONARY
  5
D
100
AcDbDictionary
280
0
281
1
  0
ACDBDICTIONARYWDFLT
  5
E
100
AcDbDictionary
281
1
  3
Normal
350
F
100
AcDbDictionaryWithDefault
340
F
  0
ACDBPLACEHOLDER
  5
F
  0
DICTIONARY
  5
17
100
AcDbDictionary
280
0
281
1
  3
Standard
350
18
  0
MLINESTYLE
  5
18
100
AcDbMlineStyle
  2
STANDARD
 70
0
  3

 62
256
 51
90.0
 52
90.0
 71
2
 49
0.5
 62
256
  6
BYLAYER
 49
-0.5
 62
256
  6
BYLAYER
  0
DICTIONARY
  5
19
100
AcDbDictionary
280
0
281
1
  0
DICTIONARY
  5
1A
100
AcDbDictionary
281
1
  3
Layout1
350
1E
  3
Layout2
350
26
  3
Model
350
22
  0
LAYOUT
  5
1E
100
AcDbPlotSettings
  1

  2
none_device
  4

  6

 40
0.0
 41
0.0
 42
0.0
 43
0.0
 44
0.0
 45
0.0
 46
0.0
 47
0.0
 48
0.0
 49
0.0
140
0.0
141
0.0
142
1.0
143
1.0
 70
688
 72
0
 73
0
 74
5
  7

 75
16
147
1.0
148
0.0
149
0.0
100
AcDbLayout
  1
Layout1
 70
1
 71
1
 10
0.0
 20
0.0
 11
420.0
 21
297.0
 12
0.0
 22
0.0
 32
0.0
 14
100000000000000000000.0
 24
100000000000000000000.0
 34
100000000000000000000.0
 15
-100000000000000000000.0
 25
-100000000000000000000.0
 35
-100000000000000000000.0
146
0.0
 13
0.0
 23
0.0
 33
0.0
 16
1.0
 26
0.0
 36
0.0
 17
0.0
 27
1.0
 37
0.0
 76
0
330
1B
  0
LAYOUT
  5
22
100
AcDbPlotSettings
  1

  2
none_device
  4

  6

 40
0.0
 41
0.0
 42
0.0
 43
0.0
 44
0.0
 45
0.0
 46
0.0
 47
0.0
 48
0.0
 49
0.0
140
0.0
141
0.0
142
1.0
143
1.0
 70
1712
 72
0
 73
0
 74
0
  7

 75
0
147
1.0
148
0.0
149
0.0
100
AcDbLayout
  1
Model
 70
1
 71
0
 10
0.0
 20
0.0
 11
12.0
 21
9.0
 12
0.0
 22
0.0
 32
0.0
 14
0.0
 24
0.0
 34
0.0
 15
0.0
 25
0.0
 35
0.0
146
0.0
 13
0.0
 23
0.0
 33
0.0
 16
1.0
 26
0.0
 36
0.0
 17
0.0
 27
1.0
 37
0.0
 76
0
330
1F
  0
LAYOUT
  5
26
100
AcDbPlotSettings
  1

  2
none_device
  4

  6

 40
0.0
 41
0.0
 42
0.0
 43
0.0
 44
0.0
 45
0.0
 46
0.0
 47
0.0
 48
0.0
 49
0.0
140
0.0
141
0.0
142
1.0
143
1.0
 70
688
 72
0
 73
0
 74
5
  7

 75
16
147
1.0
148
0.0
149
0.0
100
AcDbLayout
  1
Layout2
 70
1
 71
2
 10
0.0
 20
0.0
 11
12.0
 21
9.0
 12
0.0
 22
0.0
 32
0.0
 14
0.0
 24
0.0
 34
0.0
 15
0.0
 25
0.0
 35
0.0
146
0.0
 13
0.0
 23
0.0
 33
0.0
 16
1.0
 26
0.0
 36
0.0
 17
0.0
 27
1.0
 37
0.0
 76
0
330
23
  0
DICTIONARY
  5
108
100
AcDbDictionary
281
1
  3
DIMASSOC
350
10B
  3
HIDETEXT
350
10A
  0
DICTIONARYVAR
  5
10A
100
DictionaryVariables
280
0
  1
2
  0
DICTIONARYVAR
  5
10B
100
DictionaryVariables
280
0
  1
1
  0
DICTIONARY
  5
109
100
AcDbDictionary
281
1
  3
ColorSettings/BackgroundColor
350
10C
  3
ColorSettings/ColorMode
350
10D
  3
Grid/DisplayGrid00
350
10E
  3
Grid/DisplayGrid01
350
10F
  3
Grid/DisplayGrid02
350
110
  3
Grid/DisplayGrid03
350
111
  3
Grid/GridSpacingX00
350
112
  3
Grid/GridSpacingX01
350
113
  3
Grid/GridSpacingX02
350
114
  3
Grid/GridSpacingX03
350
115
  3
Grid/GridSpacingY00
350
116
  3
Grid/GridSpacingY01
350
117
  3
Grid/GridSpacingY02
350
118
  3
Grid/GridSpacingY03
350
119
  3
Grid/IsometricGrid00
350
11A
  3
Grid/IsometricGrid01
350
11B
  3
Grid/IsometricGrid02
350
11C
  3
Grid/IsometricGrid03
350
11D
  3
Grid/IsometricProjection00
350
11E
  3
Grid/IsometricProjection01
350
11F
  3
Grid/IsometricProjection02
350
120
  3
Grid/IsometricProjection03
350
121
  3
Grid/MetaGridSpacingX00
350
122
  3
Grid/MetaGridSpacingX01
350
123
  3
Grid/MetaGridSpacingX02
350
124
  3
Grid/MetaGridSpacingX03
350
125
  3
Grid/MetaGridSpacingY00
350
126
  3
Grid/MetaGridSpacingY01
350
127
  3
Grid/MetaGridSpacingY02
350
128
  3
Grid/MetaGridSpacingY03
350
129
  3
MultiPageSettings/Columns
350
12A
  3
MultiPageSettings/GlueMarginsBottom
350
12B
  3
MultiPageSettings/GlueMarginsLeft
350
12C
  3
MultiPageSettings/GlueMarginsRight
350
12D
  3
MultiPageSettings/GlueMarginsTop
350
12E
  3
MultiPageSettings/PrintCropMarks
350
12F
  3
MultiPageSettings/Rows
350
130
  3
PageSettings/OffsetX
350
131
  3
PageSettings/OffsetY
350
132
  3
PageSettings/PageOrientation
350
133
  3
PageSettings/PaperHeight
350
134
  3
PageSettings/PaperWidth
350
135
  3
PageSettings/Scale
350
136
  3
PageSettings/ShowPaperBorders
350
137
  3
UnitSettings/PaperUnit
350
138
  3
ViewportCenter
350
139
  3
ViewportHeight
350
13A
  3
ViewportWidth
350
13B
  0
XRECORD
  5
10C
330
109
100
AcDbXrecord
280
1
1000
\U+0411\U+0435\U+043b\U+044b\U+0439
  0
XRECORD
  5
10D
330
109
100
AcDbXrecord
280
1
1000
FullColor
  0
XRECORD
  5
10E
330
109
100
AcDbXrecord
280
1
290
1
  0
XRECORD
  5
10F
330
109
100
AcDbXrecord
280
1
290
1
  0
XRECORD
  5
110
330
109
100
AcDbXrecord
280
1
290
1
  0
XRECORD
  5
111
330
109
100
AcDbXrecord
280
1
290
1
  0
XRECORD
  5
112
330
109
100
AcDbXrecord
280
1
1000
auto
  0
XRECORD
  5
113
330
109
100
AcDbXrecord
280
1
1000
auto
  0
XRECORD
  5
114
330
109
100
AcDbXrecord
280
1
1000
auto
  0
XRECORD
  5
115
330
109
100
AcDbXrecord
280
1
1000
auto
  0
XRECORD
  5
116
330
109
100
AcDbXrecord
280
1
1000
auto
  0
XRECORD
  5
117
330
109
100
AcDbXrecord
280
1
1000
auto
  0
XRECORD
  5
118
330
109
100
AcDbXrecord
280
1
1000
auto
  0
XRECORD
  5
119
330
109
100
AcDbXrecord
280
1
1000
auto
  0
XRECORD
  5
11A
330
109
100
AcDbXrecord
280
1
290
0
  0
XRECORD
  5
11B
330
109
100
AcDbXrecord
280
1
290
0
  0
XRECORD
  5
11C
330
109
100
AcDbXrecord
280
1
290
0
  0
XRECORD
  5
11D
330
109
100
AcDbXrecord
280
1
290
0
  0
XRECORD
  5
11E
330
109
100
AcDbXrecord
280
1
 90
65537
  0
XRECORD
  5
11F
330
109
100
AcDbXrecord
280
1
 90
65537
  0
XRECORD
  5
120
330
109
100
AcDbXrecord
280
1
 90
65537
  0
XRECORD
  5
121
330
109
100
AcDbXrecord
280
1
 90
65537
  0
XRECORD
  5
122
330
109
100
AcDbXrecord
280
1
1000
auto
  0
XRECORD
  5
123
330
109
100
AcDbXrecord
280
1
1000
auto
  0
XRECORD
  5
124
330
109
100
AcDbXrecord
280
1
1000
auto
  0
XRECORD
  5
125
330
109
100
AcDbXrecord
280
1
1000
auto
  0
XRECORD
  5
126
330
109
100
AcDbXrecord
280
1
1000
auto
  0
XRECORD
  5
127
330
109
100
AcDbXrecord
280
1
1000
auto
  0
XRECORD
  5
128
330
109
100
AcDbXrecord
280
1
1000
auto
  0
XRECORD
  5
129
330
109
100
AcDbXrecord
280
1
1000
auto
  0
XRECORD
  5
12A
330
109
100
AcDbXrecord
280
1
 90
1
  0
XRECORD
  5
12B
330
109
100
AcDbXrecord
280
1
 40
10.0
  0
XRECORD
  5
12C
330
109
100
AcDbXrecord
280
1
 40
10.0
  0
XRECORD
  5
12D
330
109
100
AcDbXrecord
280
1
 40
10.0
  0
XRECORD
  5
12E
330
109
100
AcDbXrecord
280
1
 40
10.0
  0
XRECORD
  5
12F
330
109
100
AcDbXrecord
280
1
290
0
  0
XRECORD
  5
130
330
109
100
AcDbXrecord
280
1
 90
1
  0
XRECORD
  5
131
330
109
100
AcDbXrecord
280
1
 40
0.0
  0
XRECORD
  5
132
330
109
100
AcDbXrecord
280
1
 40
0.0
  0
XRECORD
  5
133
330
109
100
AcDbXrecord
280
1
1000
Portrait
  0
XRECORD
  5
134
330
109
100
AcDbXrecord
280
1
 40
297.0
  0
XRECORD
  5
135
330
109
100
AcDbXrecord
280
1
 40
210.0
  0
XRECORD
  5
136
330
109
100
AcDbXrecord
280
1
1000
1:1
  0
XRECORD
  5
137
330
109
100
AcDbXrecord
280
1
290
1
  0
XRECORD
  5
138
330
109
100
AcDbXrecord
280
1
 90
4
  0
XRECORD
  5
13A
330
109
100
AcDbXrecord
280
1
 40
622.658419138730892
  0
XRECORD
  5
13B
330
109
100
AcDbXrecord
280
1
 40
1133.6234723701018083
  0
ENDSEC
  0
EOF
