999
dxflib 3.17.0.0
  0
SECTION
  2
HEADER
  9
$ACADVER
  1
AC1015
  9
$HANDSEED
  5
FFFF
  9
$DIMADEC
 70
0
  9
$DIMASZ
 40
25.0
  9
$DIMAUNIT
 70
0
  9
$DIMAZIN
 70
2
  9
$DIMDEC
 70
4
  9
$DIMDLI
 40
5.0
  9
$DIMDSEP
 70
46
  9
$DIMEXE
 40
12.5
  9
$DIMEXO
 40
6.25
  9
$DIMGAP
 40
6.25
  9
$DIMLUNIT
 70
2
  9
$DIMSCALE
 40
1.0
  9
$DIMTSZ
 40
0.0
  9
$DIMTXT
 40
25.0
  9
$DIMZIN
 70
8
  9
$DWGCODEPAGE
  3
ANSI_1252
  9
$INSUNITS
 70
4
  9
$LTSCALE
 40
1.0
  9
$MAXACTVP
 70
64
  9
$MEASUREMENT
 70
1
  9
$PDMODE
 70
0
  9
$PDSIZE
 40
0.0
  0
ENDSEC
  0
SECTION
  2
TABLES
  0
TABLE
  2
VPORT
  5
8
100
AcDbSymbolTable
 70
1
  0
VPORT
  5
30
100
AcDbSymbolTableRecord
100
AcDbViewportTableRecord
  2
*Active
 70
0
 10
0.0
 20
0.0
 11
1.0
 21
1.0
 12
286.3055555555554861
 22
148.5
 13
0.0
 23
0.0
 14
10.0
 24
10.0
 15
10.0
 25
10.0
 16
0.0
 26
0.0
 36
1.0
 17
0.0
 27
0.0
 37
0.0
 40
297.0
 41
1.92798353909465
 42
50.0
 43
0.0
 44
0.0
 50
0.0
 51
0.0
 71
0
 72
100
 73
1
 74
3
 75
1
 76
1
 77
0
 78
0
281
0
 65
1
110
0.0
120
0.0
130
0.0
111
1.0
121
0.0
131
0.0
112
0.0
122
1.0
132
0.0
 79
0
146
0.0
  0
ENDTAB
  0
TABLE
  2
LTYPE
  5
5
100
AcDbSymbolTable
 70
41
  0
LTYPE
  5
16
100
AcDbSymbolTableRecord
100
AcDbLinetypeTableRecord
  2
Continuous
 70
0
  3
Solid line
 72
65
 73
0
 40
0.0
  0
LTYPE
  5
31
100
AcDbSymbolTableRecord
100
AcDbLinetypeTableRecord
  2
ACAD_ISO14W100
 70
0
  3
ISO dash triple-dot __ . . . __ . . . __ . . . _
 72
65
 73
8
 40
24.0
 49
12.0
 74
0
 49
-3.0
 74
0
 49
0.0
 74
0
 49
-3.0
 74
0
 49
0.0
 74
0
 49
-3.0
 74
0
 49
0.0
 74
0
 49
-3.0
 74
0
  0
LTYPE
  5
32
100
AcDbSymbolTableRecord
100
AcDbLinetypeTableRecord
  2
CENTER2
 70
0
  3
Center (.5x) ___ _ ___ _ ___ _ ___ _ ___ _ ___
 72
65
 73
4
 40
28.5750000000000028
 49
19.0500000000000007
 74
0
 49
-3.1749999999999998
 74
0
 49
3.1749999999999998
 74
0
 49
-3.1749999999999998
 74
0
  0
LTYPE
  5
33
100
AcDbSymbolTableRecord
100
AcDbLinetypeTableRecord
  2
BORDER2
 70
0
  3
Border (.5x) __.__.__.__.__.__.__.__.__.__.__.
 72
65
 73
6
 40
22.2249999999999979
 49
6.3499999999999996
 74
0
 49
-3.1749999999999998
 74
0
 49
6.3499999999999996
 74
0
 49
-3.1749999999999998
 74
0
 49
0.0
 74
0
 49
-3.1749999999999998
 74
0
  0
LTYPE
  5
34
100
AcDbSymbolTableRecord
100
AcDbLinetypeTableRecord
  2
ACAD_ISO13W100
 70
0
  3
ISO double-dash double-dot __ __ . . __ __ . . _
 72
65
 73
8
 40
36.0
 49
12.0
 74
0
 49
-3.0
 74
0
 49
12.0
 74
0
 49
-3.0
 74
0
 49
0.0
 74
0
 49
-3.0
 74
0
 49
0.0
 74
0
 49
-3.0
 74
0
  0
LTYPE
  5
35
100
AcDbSymbolTableRecord
100
AcDbLinetypeTableRecord
  2
HIDDEN2
 70
0
  3
Hidden (.5x) _ _ _ _ _ _ _ _ _ _ _ _ _ _ _ _ _ 
 72
65
 73
2
 40
4.7624999999999993
 49
3.1749999999999998
 74
0
 49
-1.5874999999999999
 74
0
  0
LTYPE
  5
36
100
AcDbSymbolTableRecord
100
AcDbLinetypeTableRecord
  2
ACAD_ISO02W100
 70
0
  3
ISO dash __ __ __ __ __ __ __ __ __ __ __ __ __
 72
65
 73
2
 40
15.0
 49
12.0
 74
0
 49
-3.0
 74
0
  0
LTYPE
  5
37
100
AcDbSymbolTableRecord
100
AcDbLinetypeTableRecord
  2
ACAD_ISO15W100
 70
0
  3
ISO double-dash triple-dot __ __ . . . __ __ . .
 72
65
 73
10
 40
39.0
 49
12.0
 74
0
 49
-3.0
 74
0
 49
12.0
 74
0
 49
-3.0
 74
0
 49
0.0
 74
0
 49
-3.0
 74
0
 49
0.0
 74
0
 49
-3.0
 74
0
 49
0.0
 74
0
 49
-3.0
 74
0
  0
LTYPE
  5
38
100
AcDbSymbolTableRecord
100
AcDbLinetypeTableRecord
  2
PHANTOMX2
 70
0
  3
Phantom (2x) ____________    ____    ____   _
 72
65
 73
6
 40
127.0000000000000142
 49
63.5
 74
0
 49
-12.6999999999999993
 74
0
 49
12.6999999999999993
 74
0
 49
-12.6999999999999993
 74
0
 49
12.6999999999999993
 74
0
 49
-12.6999999999999993
 74
0
  0
LTYPE
  5
39
100
AcDbSymbolTableRecord
100
AcDbLinetypeTableRecord
  2
DASHED2
 70
0
  3
Dashed (.5x) _ _ _ _ _ _ _ _ _ _ _ _ _ _ _ _ _ 
 72
65
 73
2
 40
9.5249999999999986
 49
6.3499999999999996
 74
0
 49
-3.1749999999999998
 74
0
  0
LTYPE
  5
14
100
AcDbSymbolTableRecord
100
AcDbLinetypeTableRecord
  2
BYBLOCK
 70
0
  3

 72
65
 73
0
 40
0.0
  0
LTYPE
  5
15
100
AcDbSymbolTableRecord
100
AcDbLinetypeTableRecord
  2
BYLAYER
 70
0
  3

 72
65
 73
0
 40
0.0
  0
LTYPE
  5
3A
100
AcDbSymbolTableRecord
100
AcDbLinetypeTableRecord
  2
CENTER
 70
0
  3
Center ____ _ ____ _ ____ _ ____ _ ____ _ ____
 72
65
 73
4
 40
50.8000000000000043
 49
31.75
 74
0
 49
-6.3499999999999996
 74
0
 49
6.3499999999999996
 74
0
 49
-6.3499999999999996
 74
0
  0
LTYPE
  5
3B
100
AcDbSymbolTableRecord
100
AcDbLinetypeTableRecord
  2
HIDDEN
 70
0
  3
Hidden __ __ __ __ __ __ __ __ __ __ __ __ __ __
 72
65
 73
2
 40
9.5249999999999986
 49
6.3499999999999996
 74
0
 49
-3.1749999999999998
 74
0
  0
LTYPE
  5
3C
100
AcDbSymbolTableRecord
100
AcDbLinetypeTableRecord
  2
DOTX2
 70
0
  3
Dot (2x) .  .  .  .  .  .  .  .  .  .  .  .  .  .
 72
65
 73
2
 40
12.6999999999999993
 49
0.0
 74
0
 49
-12.6999999999999993
 74
0
  0
LTYPE
  5
3D
100
AcDbSymbolTableRecord
100
AcDbLinetypeTableRecord
  2
DOT2
 70
0
  3
Dot (.5x) ........................................
 72
65
 73
2
 40
3.1749999999999998
 49
0.0
 74
0
 49
-3.1749999999999998
 74
0
  0
LTYPE
  5
3E
100
AcDbSymbolTableRecord
100
AcDbLinetypeTableRecord
  2
DASHDOT
 70
0
  3
Dash dot __ . __ . __ . __ . __ . __ . __ . __
 72
65
 73
4
 40
25.3999999999999986
 49
12.6999999999999993
 74
0
 49
-6.3499999999999996
 74
0
 49
0.0
 74
0
 49
-6.3499999999999996
 74
0
  0
LTYPE
  5
3F
100
AcDbSymbolTableRecord
100
AcDbLinetypeTableRecord
  2
DASHDOTX2
 70
0
  3
Dash dot (2x) ____  .  ____  .  ____  .  ___
 72
65
 73
4
 40
50.7999999999999972
 49
25.3999999999999986
 74
0
 49
-12.6999999999999993
 74
0
 49
0.0
 74
0
 49
-12.6999999999999993
 74
0
  0
LTYPE
  5
40
100
AcDbSymbolTableRecord
100
AcDbLinetypeTableRecord
  2
DIVIDEX2
 70
0
  3
Divide (2x) ________  .  .  ________  .  .  _
 72
65
 73
6
 40
63.5
 49
25.3999999999999986
 74
0
 49
-12.6999999999999993
 74
0
 49
0.0
 74
0
 49
-12.6999999999999993
 74
0
 49
0.0
 74
0
 49
-12.6999999999999993
 74
0
  0
LTYPE
  5
41
100
AcDbSymbolTableRecord
100
AcDbLinetypeTableRecord
  2
ACAD_ISO06W100
 70
0
  3
ISO long-dash triple-dot ____ ... ____ ... ____
 72
65
 73
8
 40
36.0
 49
24.0
 74
0
 49
-3.0
 74
0
 49
0.0
 74
0
 49
-3.0
 74
0
 49
0.0
 74
0
 49
-3.0
 74
0
 49
0.0
 74
0
 49
-3.0
 74
0
  0
LTYPE
  5
42
100
AcDbSymbolTableRecord
100
AcDbLinetypeTableRecord
  2
PHANTOM2
 70
0
  3
Phantom (.5x) ___ _ _ ___ _ _ ___ _ _ ___ _ _
 72
65
 73
6
 40
31.7500000000000036
 49
15.875
 74
0
 49
-3.1749999999999998
 74
0
 49
3.1749999999999998
 74
0
 49
-3.1749999999999998
 74
0
 49
3.1749999999999998
 74
0
 49
-3.1749999999999998
 74
0
  0
LTYPE
  5
43
100
AcDbSymbolTableRecord
100
AcDbLinetypeTableRecord
  2
ACAD_ISO03W100
 70
0
  3
ISO dash space __    __    __    __    __    __
 72
65
 73
2
 40
30.0
 49
12.0
 74
0
 49
-18.0
 74
0
  0
LTYPE
  5
44
100
AcDbSymbolTableRecord
100
AcDbLinetypeTableRecord
  2
BORDERX2
 70
0
  3
Border (2x) ____  ____  .  ____  ____  .  ___
 72
65
 73
6
 40
88.8999999999999915
 49
25.3999999999999986
 74
0
 49
-12.6999999999999993
 74
0
 49
25.3999999999999986
 74
0
 49
-12.6999999999999993
 74
0
 49
0.0
 74
0
 49
-12.6999999999999993
 74
0
  0
LTYPE
  5
45
100
AcDbSymbolTableRecord
100
AcDbLinetypeTableRecord
  2
ACAD_ISO10W100
 70
0
  3
ISO dash dot __ . __ . __ . __ . __ . __ . __ . 
 72
65
 73
4
 40
18.0
 49
12.0
 74
0
 49
-3.0
 74
0
 49
0.0
 74
0
 49
-3.0
 74
0
  0
LTYPE
  5
46
100
AcDbSymbolTableRecord
100
AcDbLinetypeTableRecord
  2
BORDER
 70
0
  3
Border __ __ . __ __ . __ __ . __ __ . __ __ .
 72
65
 73
6
 40
44.4499999999999957
 49
12.6999999999999993
 74
0
 49
-6.3499999999999996
 74
0
 49
12.6999999999999993
 74
0
 49
-6.3499999999999996
 74
0
 49
0.0
 74
0
 49
-6.3499999999999996
 74
0
  0
LTYPE
  5
47
100
AcDbSymbolTableRecord
100
AcDbLinetypeTableRecord
  2
DOT
 70
0
  3
Dot . . . . . . . . . . . . . . . . . . . . . . . .
 72
65
 73
2
 40
6.3499999999999996
 49
0.0
 74
0
 49
-6.3499999999999996
 74
0
  0
LTYPE
  5
48
100
AcDbSymbolTableRecord
100
AcDbLinetypeTableRecord
  2
DIVIDE2
 70
0
  3
Divide (.5x) __..__..__..__..__..__..__..__.._
 72
65
 73
6
 40
15.875
 49
6.3499999999999996
 74
0
 49
-3.1749999999999998
 74
0
 49
0.0
 74
0
 49
-3.1749999999999998
 74
0
 49
0.0
 74
0
 49
-3.1749999999999998
 74
0
  0
LTYPE
  5
49
100
AcDbSymbolTableRecord
100
AcDbLinetypeTableRecord
  2
PHANTOM
 70
0
  3
Phantom ______  __  __  ______  __  __  ______ 
 72
65
 73
6
 40
63.5000000000000071
 49
31.75
 74
0
 49
-6.3499999999999996
 74
0
 49
6.3499999999999996
 74
0
 49
-6.3499999999999996
 74
0
 49
6.3499999999999996
 74
0
 49
-6.3499999999999996
 74
0
  0
LTYPE
  5
4A
100
AcDbSymbolTableRecord
100
AcDbLinetypeTableRecord
  2
DIVIDE
 70
0
  3
Divide ____ . . ____ . . ____ . . ____ . . ____
 72
65
 73
6
 40
31.75
 49
12.6999999999999993
 74
0
 49
-6.3499999999999996
 74
0
 49
0.0
 74
0
 49
-6.3499999999999996
 74
0
 49
0.0
 74
0
 49
-6.3499999999999996
 74
0
  0
LTYPE
  5
4B
100
AcDbSymbolTableRecord
100
AcDbLinetypeTableRecord
  2
DASHDOT2
 70
0
  3
Dash dot (.5x) _._._._._._._._._._._._._._._.
 72
65
 73
4
 40
12.6999999999999993
 49
6.3499999999999996
 74
0
 49
-3.1749999999999998
 74
0
 49
0.0
 74
0
 49
-3.1749999999999998
 74
0
  0
LTYPE
  5
4C
100
AcDbSymbolTableRecord
100
AcDbLinetypeTableRecord
  2
ACAD_ISO05W100
 70
0
  3
ISO long-dash double-dot ____ .. ____ .. ____ . 
 72
65
 73
6
 40
33.0
 49
24.0
 74
0
 49
-3.0
 74
0
 49
0.0
 74
0
 49
-3.0
 74
0
 49
0.0
 74
0
 49
-3.0
 74
0
  0
LTYPE
  5
4D
100
AcDbSymbolTableRecord
100
AcDbLinetypeTableRecord
  2
DASHED
 70
0
  3
Dashed __ __ __ __ __ __ __ __ __ __ __ __ __ _
 72
65
 73
2
 40
19.0499999999999972
 49
12.6999999999999993
 74
0
 49
-6.3499999999999996
 74
0
  0
LTYPE
  5
4E
100
AcDbSymbolTableRecord
100
AcDbLinetypeTableRecord
  2
ACAD_ISO11W100
 70
0
  3
ISO double-dash dot __ __ . __ __ . __ __ . __ _
 72
65
 73
6
 40
33.0
 49
12.0
 74
0
 49
-3.0
 74
0
 49
12.0
 74
0
 49
-3.0
 74
0
 49
0.0
 74
0
 49
-3.0
 74
0
  0
LTYPE
  5
4F
100
AcDbSymbolTableRecord
100
AcDbLinetypeTableRecord
  2
CENTERX2
 70
0
  3
Center (2x) ________  __  ________  __  _____
 72
65
 73
4
 40
101.6000000000000085
 49
63.5
 74
0
 49
-12.6999999999999993
 74
0
 49
12.6999999999999993
 74
0
 49
-12.6999999999999993
 74
0
  0
LTYPE
  5
50
100
AcDbSymbolTableRecord
100
AcDbLinetypeTableRecord
  2
ACAD_ISO08W100
 70
0
  3
ISO long-dash short-dash ____ __ ____ __ ____ _
 72
65
 73
4
 40
36.0
 49
24.0
 74
0
 49
-3.0
 74
0
 49
6.0
 74
0
 49
-3.0
 74
0
  0
LTYPE
  5
51
100
AcDbSymbolTableRecord
100
AcDbLinetypeTableRecord
  2
DASHEDX2
 70
0
  3
Dashed (2x) ____  ____  ____  ____  ____  ___
 72
65
 73
2
 40
38.0999999999999943
 49
25.3999999999999986
 74
0
 49
-12.6999999999999993
 74
0
  0
LTYPE
  5
52
100
AcDbSymbolTableRecord
100
AcDbLinetypeTableRecord
  2
HIDDENX2
 70
0
  3
Hidden (2x) ____ ____ ____ ____ ____ ____ ____ 
 72
65
 73
2
 40
19.0499999999999972
 49
12.6999999999999993
 74
0
 49
-6.3499999999999996
 74
0
  0
LTYPE
  5
53
100
AcDbSymbolTableRecord
100
AcDbLinetypeTableRecord
  2
ACAD_ISO09W100
 70
0
  3
ISO long-dash double-short-dash ____ __ __ ____
 72
65
 73
6
 40
45.0
 49
24.0
 74
0
 49
-3.0
 74
0
 49
6.0
 74
0
 49
-3.0
 74
0
 49
6.0
 74
0
 49
-3.0
 74
0
  0
LTYPE
  5
54
100
AcDbSymbolTableRecord
100
AcDbLinetypeTableRecord
  2
ACAD_ISO07W100
 70
0
  3
ISO dot . . . . . . . . . . . . . . . . . . . . 
 72
65
 73
2
 40
3.0
 49
0.0
 74
0
 49
-3.0
 74
0
  0
LTYPE
  5
55
100
AcDbSymbolTableRecord
100
AcDbLinetypeTableRecord
  2
ACAD_ISO04W100
 70
0
  3
ISO long-dash dot ____ . ____ . ____ . ____ . _
 72
65
 73
4
 40
30.0
 49
24.0
 74
0
 49
-3.0
 74
0
 49
0.0
 74
0
 49
-3.0
 74
0
  0
LTYPE
  5
56
100
AcDbSymbolTableRecord
100
AcDbLinetypeTableRecord
  2
ACAD_ISO12W100
 70
0
  3
ISO dash double-dot __ . . __ . . __ . . __ . . 
 72
65
 73
6
 40
21.0
 49
12.0
 74
0
 49
-3.0
 74
0
 49
0.0
 74
0
 49
-3.0
 74
0
 49
0.0
 74
0
 49
-3.0
 74
0
  0
ENDTAB
  0
TABLE
  2
LAYER
  5
2
100
AcDbSymbolTable
 70
1
  0
LAYER
  5
10
100
AcDbSymbolTableRecord
100
AcDbLayerTableRecord
  2
0
 70
0
 62
7
420
16777215
  6
Continuous
370
25
390
F
  0
ENDTAB
  0
TABLE
  2
STYLE
  5
3
100
AcDbSymbolTable
 70
1
  0
STYLE
  5
57
100
AcDbSymbolTableRecord
100
AcDbTextStyleTableRecord
  2
Standard
 70
0
 40
0.0
 41
1.0
 50
0.0
 71
0
 42
2.5
  3

  4

1001
ACAD
1000
txt
1071
0
  0
ENDTAB
  0
TABLE
  2
VIEW
  5
6
100
AcDbSymbolTable
 70
0
  0
ENDTAB
  0
TABLE
  2
UCS
  5
7
100
AcDbSymbolTable
 70
0
  0
ENDTAB
  0
TABLE
  2
APPID
  5
9
100
AcDbSymbolTable
 70
1
  0
APPID
  5
12
100
AcDbSymbolTableRecord
100
AcDbRegAppTableRecord
  2
ACAD
 70
0
  0
APPID
  5
58
100
AcDbSymbolTableRecord
100
AcDbRegAppTableRecord
  2
QCAD
 70
0
  0
ENDTAB
  0
TABLE
  2
DIMSTYLE
  5
A
100
AcDbSymbolTable
 70
1
100
AcDbDimStyleTable
 71
0
  0
DIMSTYLE
105
27
100
AcDbSymbolTableRecord
100
AcDbDimStyleTableRecord
  2
Standard
 41
25.0
 42
6.25
 43
3.75
 44
12.5
 70
0
 73
0
 74
0
 77
1
 78
8
140
25.0
141
2.5
143
0.03937007874016
147
6.25
171
3
172
1
271
2
272
2
274
3
278
44
283
0
284
8
340
57
  0
ENDTAB
  0
TABLE
  2
BLOCK_RECORD
  5
1
100
AcDbSymbolTable
 70
1
  0
BLOCK_RECORD
  5
1F
100
AcDbSymbolTableRecord
100
AcDbBlockTableRecord
  2
*Model_Space
340
22
  0
BLOCK_RECORD
  5
1B
100
AcDbSymbolTableRecord
100
AcDbBlockTableRecord
  2
*Paper_Space
340
1E
  0
BLOCK_RECORD
  5
23
100
AcDbSymbolTableRecord
100
AcDbBlockTableRecord
  2
*Paper_Space0
340
26
  0
ENDTAB
  0
ENDSEC
  0
SECTION
  2
BLOCKS
  0
BLOCK
  5
20
100
AcDbEntity
  8
0
100
AcDbBlockBegin
  2
*Model_Space
 70
0
 10
0.0
 20
0.0
 30
0.0
  3
*Model_Space
  1

  0
ENDBLK
  5
21
100
AcDbEntity
  8
0
100
AcDbBlockEnd
  0
BLOCK
  5
1C
100
AcDbEntity
 67
1
  8
0
100
AcDbBlockBegin
  2
*Paper_Space
 70
0
 10
0.0
 20
0.0
 30
0.0
  3
*Paper_Space
  1

  0
ENDBLK
  5
1D
100
AcDbEntity
 67
1
  8
0
100
AcDbBlockEnd
  0
BLOCK
  5
24
100
AcDbEntity
  8
0
100
AcDbBlockBegin
  2
*Paper_Space0
 70
0
 10
0.0
 20
0.0
 30
0.0
  3
*Paper_Space0
  1

  0
ENDBLK
  5
25
100
AcDbEntity
  8
0
100
AcDbBlockEnd
  0
ENDSEC
  0
SECTION
  2
ENTITIES
  0
LWPOLYLINE
  5
59
100
AcDbEntity
  8
0
 62
7
420
16777215
370
-1
 48
1.0
  6
BYLAYER
100
AcDbPolyline
 90
100
 70
1
 10
303.6917937732248447
 20
143.5569749935568211
 10
303.8153545012248742
 20
140.0372324195570286
 10
304.1860357512249493
 20
136.5313298575567273
 10
304.7791257512249103
 20
133.0531035835567195
 10
305.619336273224917
 20
129.6163945435570781
 10
306.7066682512249827
 20
126.234792437556905
 10
308.0164089792248205
 20
122.9213966155568301
 10
309.5485575232249857
 20
119.6895502015569832
 10
311.3031157512248228
 20
116.5518575255570681
 10
313.2800827292248869
 20
113.5206735395569808
 10
315.4547457512247775
 20
110.608106619556736
 10
317.8271057512249627
 20
107.8255263475568313
 10
320.3971627292249877
 20
105.1840519935569205
 10
323.140203979224907
 20
102.6938155895570048
 10
326.0315177292247881
 20
100.365195743556967
 10
329.0958157512247908
 20
98.2068422295571395
 10
332.308386273224869
 20
96.2274038875568181
 10
335.6445175232249767
 20
94.4347898295570189
 10
339.0794977292248404
 20
92.835918193556779
 10
342.6380377292249477
 20
91.437461475556745
 10
346.2954257512247978
 20
90.2446089795568582
 10
350.0047096152248969
 20
89.2620568575568427
 10
353.7831870012248601
 20
88.4940053075567334
 10
357.608617501224785
 20
87.9429256935570152
 10
361.4637025012248159
 20
87.6115368895568167
 10
365.3336147512248999
 20
87.501073643557163
 10
369.2059983652250139
 20
87.6115368895568167
 10
373.0610833652249312
 20
87.9429256935570152
 10
376.8865138652249698
 20
88.4940053075567334
 10
380.6649912512248193
 20
89.2620568575568427
 10
384.3841596372249114
 20
90.2446089795568582
 10
388.0291917732248521
 20
91.437461475556745
 10
391.582789979224799
 20
92.835918193556779
 10
395.0325965012248162
 20
94.4347898295570189
 10
398.3662563872248938
 20
96.2274038875568181
 10
401.568942387224979
 20
98.2068422295571395
 10
404.6282986152250487
 20
100.365195743556967
 10
407.5344396152249828
 20
102.6938155895570048
 10
410.2725381372247284
 20
105.1840519935569205
 10
412.8327105932249879
 20
107.8255263475568313
 10
415.2075410232250761
 20
110.608106619556736
 10
417.38467634322501
 20
113.5206735395569808
 10
419.3542292292247566
 20
116.5518575255570681
 10
421.1137292512248678
 20
119.6895502015569832
 10
422.6508205232248656
 20
122.9213966155568301
 10
423.9630326152248472
 20
126.234792437556905
 10
425.0429505012249365
 20
129.6163945435570781
 10
425.8881037512248895
 20
133.0531035835567195
 10
426.4935496372249872
 20
136.5313298575567273
 10
426.8592890932250157
 20
140.0372324195570286
 10
426.9803775232248881
 20
143.5569749935568211
 10
426.8592890932250157
 20
147.0767166335569414
 10
426.4935496372249872
 20
150.5826201295569149
 10
425.8881037512248895
 20
154.0605988935569144
 10
425.0429505012249365
 20
157.4973079335570105
 10
423.9630326152248472
 20
160.8791566155570649
 10
422.6508205232248656
 20
164.1925524375571399
 10
421.1137292512248678
 20
167.4243988515569868
 10
419.3542292292247566
 20
170.5620924615570289
 10
417.38467634322501
 20
173.5930289375571078
 10
415.2075410232250761
 20
176.505595857556898
 10
412.8327105932249879
 20
179.2881761295568026
 10
410.2725381372247284
 20
181.9298979935567218
 10
407.5344396152249828
 20
184.4198868875570838
 10
404.6282986152250487
 20
186.7487542435571299
 10
401.568942387224979
 20
188.9071077575569575
 10
398.3662563872248938
 20
190.8865451655571519
 10
395.0325965012248162
 20
192.6789126475570697
 10
391.582789979224799
 20
194.2777842835568549
 10
388.0291917732248521
 20
195.6762410015568889
 10
384.3841596372249114
 20
196.8690934975567757
 10
380.6649912512248193
 20
197.8516456195567912
 10
376.8865138652249698
 20
198.6199446795569088
 10
373.0610833652249312
 20
199.1707767835570735
 10
369.2059983652250139
 20
199.5021665215569442
 10
365.3336147512248999
 20
199.612876343556934
 10
361.4637025012248159
 20
199.5021665215569442
 10
357.608617501224785
 20
199.1707767835570735
 10
353.7831870012248601
 20
198.6199446795569088
 10
350.0047096152248969
 20
197.8516456195567912
 10
346.2954257512247978
 20
196.8690934975567757
 10
342.6380377292249477
 20
195.6762410015568889
 10
339.0794977292248404
 20
194.2777842835568549
 10
335.6445175232249767
 20
192.6789126475570697
 10
332.308386273224869
 20
190.8865451655571519
 10
329.0958157512247908
 20
188.9071077575569575
 10
326.0315177292247881
 20
186.7487542435571299
 10
323.140203979224907
 20
184.4198868875570838
 10
320.3971627292249877
 20
181.9298979935567218
 10
317.8271057512249627
 20
179.2881761295568026
 10
315.4547457512247775
 20
176.505595857556898
 10
313.2800827292248869
 20
173.5930289375571078
 10
311.3031157512248228
 20
170.5620924615570289
 10
309.5485575232249857
 20
167.4243988515569868
 10
308.0164089792248205
 20
164.1925524375571399
 10
306.7066682512249827
 20
160.8791566155570649
 10
305.619336273224917
 20
157.4973079335570105
 10
304.7791257512249103
 20
154.0605988935569144
 10
304.1860357512249493
 20
150.5826201295569149
 10
303.8153545012248742
 20
147.0767166335569414
  0
LWPOLYLINE
  5
5A
100
AcDbEntity
  8
0
 62
7
420
16777215
370
-1
 48
1.0
  6
BYLAYER
100
AcDbPolyline
 90
243
 70
1
 10
309.3755732512248642
 20
140.926867419557027
 10
421.3015407732250424
 20
140.926867419557027
 10
421.2669444792250033
 20
140.357006933557102
 10
421.2175200012250116
 20
139.7181995015568532
 10
421.1606823652249432
 20
139.0798870895570758
 10
421.0939592732249821
 20
138.4425619155569507
 10
421.0173525932249277
 20
137.8057317615568422
 10
420.9333308872249972
 20
137.1698897795569678
 10
420.8418960232247628
 20
136.5350359695568727
 10
420.7405766372248763
 20
135.901418775557147
 10
420.6293727292247695
 20
135.2690363295570819
 10
420.5107547292248
 20
134.6376429895569231
 10
420.3847226372249679
 20
134.0079784835567693
 10
420.2463355932250124
 20
133.3797971695568663
 10
420.1030048872248699
 20
132.7530990475567592
 10
419.9497905932248614
 20
132.1281306935567841
 10
419.7866908432247328
 20
131.504892107556941
 10
419.616177001224969
 20
130.8836298655571113
 10
419.4357786372248711
 20
130.2643449015569672
 10
419.2479671152249239
 20
129.6472847255569718
 10
419.0527415012247729
 20
129.0324474695568711
 10
418.8476313652249701
 20
128.4195884255570377
 10
418.6326357732249335
 20
127.8094463875569886
 10
418.4126983872249639
 20
127.2015291375570882
 10
418.1804051152248576
 20
126.5963307615567714
 10
417.9431691152250323
 20
125.9938503255568207
 10
417.696048593224873
 20
125.3940878295567813
 10
417.4415139792249647
 20
124.7972907835571164
 10
417.1770948432249497
 20
124.2034591875569163
 10
416.9052616152248447
 20
123.6125939755567629
 10
416.6260152292250041
 20
123.0249407895568652
 10
416.339354751224846
 20
122.4402521195567601
 10
416.0428097512249224
 20
121.8592714295570545
 10
415.7388515932250357
 20
121.2815027655571498
 10
415.4274793432248316
 20
120.7074411475570628
 10
415.1062216372249623
 20
120.136839065556785
 10
414.7800221372248188
 20
119.5699440295567797
 10
414.4439381152249098
 20
119.0067560395570467
 10
414.100440001224797
 20
118.4475207375568857
 10
413.7495287292248349
 20
117.8922409255571324
 10
413.3912033652247828
 20
117.3411613115569594
 10
413.0254648432247677
 20
116.7940353195569401
 10
412.65231222922489
 20
116.251111393556755
 10
412.2717455232249222
 20
115.7126351755570681
 10
411.883766593224891
 20
115.1786066655569698
 10
411.4859012732249539
 20
114.6490267975570418
 10
411.0830950932249834
 20
114.1238946375571572
 10
410.6728738872247959
 20
113.6034586295569966
 10
410.2552395232248728
 20
113.0877178395568876
 10
409.8301920012249866
 20
112.5769188435567116
 10
409.4002017512248131
 20
112.0708150655570421
 10
408.9603269792249876
 20
111.5699015255569861
 10
408.5155094792248747
 20
111.0739297795568632
 10
408.0632778872248991
 20
110.5829007615568003
 10
407.6036331372249606
 20
110.0973085575571417
 10
407.1390465932249754
 20
109.6169056575569698
 10
406.6670450232247731
 20
109.1419386375570753
 10
406.1876312292249622
 20
108.6724093655568026
 10
405.7032737732248506
 20
108.2083169075569344
 10
405.211504093224903
 20
107.7499078395568972
 10
404.7123193872248521
 20
107.2971821615571457
 10
404.2081928872248682
 20
106.8501408075568975
 10
403.6991245932249512
 20
106.4087828435569349
 10
403.1826412732248173
 20
105.9733557795568117
 10
402.658745729224961
 20
105.5438596155569826
 10
402.1299065232249177
 20
105.1202943515569928
 10
401.5961255232248277
 20
104.7029074975568506
 10
401.0574027292249184
 20
104.2916981195568837
 10
400.5112658432249191
 20
103.8864205755568833
 10
399.9601862292249734
 20
103.4878145935569478
 10
399.4041638872249678
 20
103.0951395115568516
 10
398.8431997512250291
 20
102.7091369255569475
 10
398.274821523224773
 20
102.3295593255567724
 10
397.7039728652248414
 20
101.9564067115567809
 10
397.1257101152248197
 20
101.5896790835569732
 10
396.5425046372249653
 20
101.2298714615569111
 10
395.9568287292248669
 20
100.8764888255570327
 10
395.3637387292249059
 20
100.5300252615567729
 10
394.7657060012247712
 20
100.1902341935571599
 10
394.1652028432249608
 20
99.8573621975571655
 10
393.5597560232249634
 20
99.5314102075569167
 10
392.9468969792250164
 20
99.2123772895567413
 10
392.3340370012249423
 20
98.9005100195569753
 10
391.7137638652250189
 20
98.5953161795570736
 10
391.0910193652248381
 20
98.2975354975571349
 10
390.4633321372249384
 20
98.0069213975568232
 10
389.8307031152248783
 20
97.7232263695570396
 10
389.1956027292249019
 20
97.4469454335568912
 10
388.5580309792248954
 20
97.1780785895568329
 10
387.9155165012249427
 20
96.9163773935567292
 10
387.2680602292248295
 20
96.6620902895567156
 10
386.6181325932250274
 20
96.4149688335571113
 10
385.9657335932247406
 20
96.1755089795571507
 10
385.3083918652248485
 20
95.9437097935571614
 10
384.6485787732249264
 20
95.7190771895567991
 10
383.9862952512248739
 20
95.5021043195567358
 10
383.3215403652247915
 20
95.2927930515567709
 10
382.6518427512248763
 20
95.0911424515567774
 10
381.9821451372249612
 20
94.8971525195567551
 10
381.3075057292248857
 20
94.7108241895568312
 10
380.6303940232248806
 20
94.5321555935567517
 10
379.9532832512248888
 20
94.3611476655570982
 10
379.2712297512248369
 20
94.1980479155569697
 10
378.5891762512248988
 20
94.0426088335568124
 10
377.9021800232249007
 20
93.8950779295570896
 10
377.2151847292248021
 20
93.7554542695567648
 10
376.525717137224774
 20
93.623492211556993
 10
375.8362504792248728
 20
93.4996849075570822
 10
375.1443115232249284
 20
93.3835373375570157
 10
374.4499021372249672
 20
93.2755463895570642
 10
373.7530213872248623
 20
93.1752151755569571
 10
373.0561406372248712
 20
93.0830387155567109
 10
372.35925988722488
 20
92.9987704335568992
 10
371.6599077732248588
 20
92.9226578395570755
 10
370.9580852292249347
 20
92.8542049795570961
 10
370.2587331152249135
 20
92.794154383556986
 10
369.556909637224976
 20
92.7417653895569742
 10
368.8526157292250218
 20
92.6975302155571512
 10
368.150792251224857
 20
92.6614507295568615
 10
367.4464983432249028
 20
92.6332784875568791
 10
366.7422035012248216
 20
92.6130153575570034
 10
366.0379095932248674
 20
92.6009060475568617
 10
365.3336147512248999
 20
92.5969524255571628
 10
364.6317912732249624
 20
92.6009060475568617
 10
363.9274973652250083
 20
92.6130153575570034
 10
363.2232025232249271
 20
92.6332784875568791
 10
362.5189086152249729
 20
92.6614507295568615
 10
361.817085137224808
 20
92.6975302155571512
 10
361.1127912292248539
 20
92.7417653895569742
 10
360.4109677512248027
 20
92.794154383556986
 10
359.7116156372247815
 20
92.8542049795570961
 10
359.009793093224971
 20
92.9226578395570755
 10
358.3104409792249498
 20
92.9987704335568992
 10
357.613560229224845
 20
93.0830387155567109
 10
356.9166794792249675
 20
93.1752151755569571
 10
356.2197987292248627
 20
93.2755463895570642
 10
355.5253893432247878
 20
93.3835373375570157
 10
354.8334503872248433
 20
93.4996849075570822
 10
354.1439837292249422
 20
93.623492211556993
 10
353.454516137224914
 20
93.7554542695567648
 10
352.7675208432249292
 20
93.8950779295570896
 10
352.0805246152248174
 20
94.0426088335568124
 10
351.3984711152249929
 20
94.1980479155569697
 10
350.7164176152248274
 20
94.3611476655570982
 10
350.0393068432248356
 20
94.5321555935567517
 10
349.3621951372249441
 20
94.7108241895568312
 10
348.6924975232248016
 20
94.8971525195567551
 10
348.0252712732248028
 20
95.0911424515567774
 10
347.3580450232250314
 20
95.2927930515567709
 10
346.6908187732249189
 20
95.5021043195567358
 10
346.0235925232249201
 20
95.7190771895567991
 10
345.3563662732249213
 20
95.9437097935571614
 10
344.7138527292248682
 20
96.1755089795571507
 10
344.0466264792248694
 20
96.4149688335571113
 10
343.4041120012249166
 20
96.6620902895567156
 10
342.7615975232248502
 20
96.9163773935567292
 10
342.1190839792247971
 20
97.1780785895568329
 10
341.4765695012248443
 20
97.4469454335568912
 10
340.8340550232248916
 20
97.7232263695570396
 10
340.2162532512248845
 20
98.0069213975568232
 10
339.573738773224818
 20
98.2975354975571349
 10
338.955937001224811
 20
98.5953161795570736
 10
338.3381352292248039
 20
98.9005100195569753
 10
337.7203325232248972
 20
99.2123772895567413
 10
337.1025307512247764
 20
99.5314102075569167
 10
336.5094407512248154
 20
99.8573621975571655
 10
335.8916389792248083
 20
100.1902341935571599
 10
335.2985489792248472
 20
100.5300252615567729
 10
334.7054589792247725
 20
100.8764888255570327
 10
334.1370807512248575
 20
101.2298714615569111
 10
333.5439907512248965
 20
101.5896790835569732
 10
332.9756125232249815
 20
101.9564067115567809
 10
332.3825225232249068
 20
102.3295593255567724
 10
331.8388570012249374
 20
102.7091369255569475
 10
331.2704787732250225
 20
103.0951395115568516
 10
330.7021014792248934
 20
103.4878145935569478
 10
330.1584350232247971
 20
103.8864205755568833
 10
329.6147695012248278
 20
104.2916981195568837
 10
329.0711039792247448
 20
104.7029074975568506
 10
328.5274375232248758
 20
105.1202943515569928
 10
328.0084837732249525
 20
105.5438596155569826
 10
327.4895300232249156
 20
105.9733557795568117
 10
326.9705762732247649
 20
106.4087828435569349
 10
326.4516225232248416
 20
106.8501408075568975
 10
325.9573814792249777
 20
107.2971821615571457
 10
325.4631395012248731
 20
107.7499078395568972
 10
324.9688975232248822
 20
108.2083169075569344
 10
324.4746564792249046
 20
108.6724093655568026
 10
324.005126273224846
 20
109.1419386375570753
 10
323.5355970012248008
 20
109.6169056575569698
 10
323.0660677292248693
 20
110.0973085575571417
 10
322.5965375232249244
 20
110.5829007615568003
 10
322.1517200232248115
 20
111.0739297795568632
 10
321.706902523224926
 20
111.5699015255569861
 10
321.2620850232249268
 20
112.0708150655570421
 10
320.8419802292248733
 20
112.5769188435567116
 10
320.4218745012248064
 20
113.0877178395568876
 10
320.0017687732249669
 20
113.6034586295569966
 10
319.5816639792249134
 20
114.1238946375571572
 10
319.1862700232248926
 20
114.6490267975570418
 10
318.7908770012248851
 20
115.1786066655569698
 10
318.3954839792249913
 20
115.7126351755570681
 10
318.0248027292248025
 20
116.251111393556755
 10
317.6541214792248411
 20
116.7940353195569401
 10
317.283440229224766
 20
117.3411613115569594
 10
316.9127589792248045
 20
117.8922409255571324
 10
316.5667895012247754
 20
118.4475207375568857
 10
316.2208200232248601
 20
119.0067560395570467
 10
315.899563251225004
 20
119.5699440295567797
 10
315.5535937732248613
 20
120.136839065556785
 10
315.2323370012248915
 20
120.7074411475570628
 10
314.9357920012248542
 20
121.2815027655571498
 10
314.6392470012249305
 20
121.8592714295570545
 10
314.3427020012248931
 20
122.4402521195567601
 10
314.0461570012249695
 20
123.0249407895568652
 10
313.7743237732248645
 20
123.6125939755567629
 10
313.5024914792250001
 20
124.2034591875569163
 10
313.2306582512248951
 20
124.7972907835571164
 10
312.9835377292249632
 20
125.3940878295567813
 10
312.7364162732250179
 20
125.9938503255568207
 10
312.4892957512248586
 20
126.5963307615567714
 10
312.2668870012249727
 20
127.2015291375570882
 10
312.0444782512248594
 20
127.8094463875569886
 10
311.8220695012248598
 20
128.4195884255570377
 10
311.6243725232247925
 20
129.0324474695568711
 10
311.4266764792248523
 20
129.6472847255569718
 10
311.2289795012248987
 20
130.2643449015569672
 10
311.0559952292250046
 20
130.8836298655571113
 10
310.8830100232249833
 20
131.504892107556941
 10
310.7100257512248618
 20
132.1281306935567841
 10
310.5617532512247863
 20
132.7530990475567592
 10
310.4134807512249381
 20
133.3797971695568663
 10
310.2899200232247949
 20
134.0079784835567693
 10
310.1663602292248925
 20
134.6376429895569231
 10
310.042799501224863
 20
135.2690363295570819
 10
309.9192387732248335
 20
135.901418775557147
 10
309.8203907512247497
 20
136.5350359695568727
 10
309.7462545012249393
 20
137.1698897795569678
 10
309.6474064792248555
 20
137.8057317615568422
 10
309.5732702292249314
 20
138.4425619155569507
 10
309.4991339792248937
 20
139.0798870895570758
 10
309.4497095012249019
 20
139.7181995015568532
 10
309.4002850232249102
 20
140.357006933557102
  0
LWPOLYLINE
  5
5B
100
AcDbEntity
  8
0
 62
7
420
16777215
370
-1
 48
1.0
  6
BYLAYER
100
AcDbPolyline
 90
231
 70
1
 10
309.8203907512247497
 20
150.5042827475569425
 10
309.8203907512247497
 20
150.5786665075567612
 10
309.9192387732248335
 20
151.2122837015569417
 10
310.042799501224863
 20
151.8449136575570151
 10
310.1663602292248925
 20
152.4760604215568378
 10
310.2899200232247949
 20
153.1057239935568646
 10
310.4134807512249381
 20
153.7341518835571037
 10
310.5617532512247863
 20
154.3608509395568831
 10
310.7100257512248618
 20
154.9858192935568582
 10
310.8830100232249833
 20
155.6088103695571476
 10
311.0559952292250046
 20
156.2300726115569773
 10
311.2289795012248987
 20
156.8493575755571214
 10
311.4266764792248523
 20
157.4664177515571168
 10
311.6243725232247925
 20
158.0815015835570989
 10
311.8220695012248598
 20
158.694114051557051
 10
312.0444782512248594
 20
159.3042560895571
 10
312.2668870012249727
 20
159.9121733395570004
 10
312.4892957512248586
 20
160.5173717155568625
 10
312.7364162732250179
 20
161.1198521515568132
 10
312.9835377292249632
 20
161.7196146475568526
 10
313.2306582512248951
 20
162.3164116935569723
 10
313.5024914792250001
 20
162.9104898655570537
 10
313.7743237732248645
 20
163.5013560115568794
 10
314.0461570012249695
 20
164.0890091975567771
 10
314.3427020012248931
 20
164.6734503575568738
 10
314.6392470012249305
 20
165.2544310475570342
 10
314.9357920012248542
 20
165.8321997115569388
 10
315.2323370012248915
 20
166.4065088395570342
 10
315.5535937732248613
 20
166.9771099875567302
 10
315.899563251225004
 20
167.5440059575568625
 10
316.2208200232248601
 20
168.1069473715567142
 10
316.5667895012247754
 20
168.6661817395567482
 10
316.9127589792248045
 20
169.2214615515569562
 10
317.283440229224766
 20
169.7727886755571376
 10
317.6541214792248411
 20
170.3196671575571486
 10
318.0248027292248025
 20
170.8625910835568789
 10
318.3954839792249913
 20
171.4010673015570205
 10
318.7908770012248851
 20
171.9350958115571189
 10
319.1862700232248926
 20
172.4649231895570551
 10
319.5816639792249134
 20
172.9898078395569314
 10
320.0017687732249669
 20
173.5102438475570921
 10
320.4218745012248064
 20
174.0259855715568733
 10
320.8419802292248733
 20
174.5370311435569306
 10
321.2620850232249268
 20
175.0428874115570466
 10
321.706902523224926
 20
175.5440484615571108
 10
322.1517200232248115
 20
176.040020207556779
 10
322.5965375232249244
 20
176.5308017155568336
 10
323.0660677292248693
 20
177.0163939195569469
 10
323.5355970012248008
 20
177.4967968195571189
 10
324.005126273224846
 20
177.9717638395570134
 10
324.4746564792249046
 20
178.4412931115568313
 10
324.9688975232248822
 20
178.9053855695571542
 10
325.4631395012248731
 20
179.3637955715568637
 10
325.9573814792249777
 20
179.8167678255569513
 10
326.4516225232248416
 20
180.2638091795567448
 10
326.9705762732247649
 20
180.705167143557162
 10
327.4895300232249156
 20
181.1403466975568222
 10
328.0084837732249525
 20
181.5698428615571061
 10
328.5274375232248758
 20
181.9934081255570959
 10
329.0711039792247448
 20
182.4107949795567833
 10
329.6147695012248278
 20
182.8222509335570862
 10
330.1584350232247971
 20
183.2272819015567507
 10
330.7021014792248934
 20
183.6261353935571492
 10
331.2704787732250225
 20
184.0185629655567823
 10
331.8388570012249374
 20
184.4045655515571411
 10
332.3825225232249068
 20
184.7843906615568699
 10
332.9756125232249815
 20
185.1575432755568613
 10
333.5439907512248965
 20
185.5240233935571155
 10
334.1370807512248575
 20
185.8840785255567312
 10
334.7054589792247725
 20
186.237213651557056
 10
335.2985489792248472
 20
186.583677215556861
 10
335.8916389792248083
 20
186.9234682835569288
 10
336.5094407512248154
 20
187.2563402795569232
 10
337.1025307512247764
 20
187.5822922695567172
 10
337.7203325232248972
 20
187.9013261215570196
 10
338.3381352292248039
 20
188.2134390335569947
 10
338.955937001224811
 20
188.518386297557015
 10
339.573738773224818
 20
188.8161669795569537
 10
340.2162532512248845
 20
189.107028589556819
 10
340.8340550232248916
 20
189.3904761075570491
 10
341.4765695012248443
 20
189.6667570435567427
 10
342.1190839792247971
 20
189.9358713975568094
 10
342.7615975232248502
 20
190.197572593556913
 10
343.4041120012249166
 20
190.4518596975569267
 10
344.0466264792248694
 20
190.6987336435569773
 10
344.7138527292248682
 20
190.9381934975569379
 10
345.3563662732249213
 20
191.1702401935569355
 10
346.0235925232249201
 20
191.3946252875568348
 10
346.6908187732249189
 20
191.6115981575568981
 10
347.3580450232250314
 20
191.820909425556863
 10
348.0252712732248028
 20
192.0225600255568565
 10
348.6924975232248016
 20
192.2167965335567601
 10
349.3621951372249441
 20
192.403125797556811
 10
350.0393068432248356
 20
192.5817943935568906
 10
350.7164176152248274
 20
192.7525548115569904
 10
351.3984711152249929
 20
192.915654561557119
 10
352.0805246152248174
 20
193.0710936435568215
 10
352.7675208432249292
 20
193.218624547556999
 10
353.454516137224914
 20
193.3582482075568691
 10
354.1439837292249422
 20
193.4902102655570957
 10
354.8334503872248433
 20
193.6140175695570065
 10
355.5253893432247878
 20
193.730165139557073
 10
356.2197987292248627
 20
193.8384035975570328
 10
356.9166794792249675
 20
193.9384873015571316
 10
357.613560229224845
 20
194.030663761556923
 10
358.3104409792249498
 20
194.1149320435567347
 10
359.009793093224971
 20
194.1912921475570215
 10
359.7116156372247815
 20
194.2594974975569926
 10
360.4109677512248027
 20
194.319794669556984
 10
361.1127912292248539
 20
194.3719370875571144
 10
361.817085137224808
 20
194.4161722615569374
 10
362.5189086152249729
 20
194.4524992575567808
 10
363.2232025232249271
 20
194.4806705655570909
 10
363.9274973652250083
 20
194.5006871195570852
 10
364.6317912732249624
 20
194.5127964295567722
 10
365.3336147512248999
 20
194.5167500515569259
 10
366.0379095932248674
 20
194.5127964295567722
 10
366.7422035012248216
 20
194.5006871195570852
 10
367.4464983432249028
 20
194.4806705655570909
 10
368.150792251224857
 20
194.4524992575567808
 10
368.8526157292250218
 20
194.4161722615569374
 10
369.556909637224976
 20
194.3719370875571144
 10
370.2587331152249135
 20
194.319794669556984
 10
370.9580852292249347
 20
194.2594974975569926
 10
371.6599077732248588
 20
194.1912921475570215
 10
372.35925988722488
 20
194.1149320435567347
 10
373.0561406372248712
 20
194.030663761556923
 10
373.7530213872248623
 20
193.9384873015571316
 10
374.4499021372249672
 20
193.8384035975570328
 10
375.1443115232249284
 20
193.730165139557073
 10
375.8362504792248728
 20
193.6140175695570065
 10
376.525717137224774
 20
193.4902102655570957
 10
377.2151847292248021
 20
193.3582482075568691
 10
377.9021800232249007
 20
193.218624547556999
 10
378.5891762512248988
 20
193.0710936435568215
 10
379.2712297512248369
 20
192.915654561557119
 10
379.9532832512248888
 20
192.7525548115569904
 10
380.6303940232248806
 20
192.5817943935568906
 10
381.3075057292248857
 20
192.403125797556811
 10
381.9821451372249612
 20
192.2167965335567601
 10
382.6518427512248763
 20
192.0225600255568565
 10
383.3215403652247915
 20
191.820909425556863
 10
383.9862952512248739
 20
191.6115981575568981
 10
384.6485787732249264
 20
191.3946252875568348
 10
385.3083918652248485
 20
191.1702401935569355
 10
385.9657335932247406
 20
190.9381934975569379
 10
386.6181325932250274
 20
190.6987336435569773
 10
387.2680602292248295
 20
190.4518596975569267
 10
387.9155165012249427
 20
190.197572593556913
 10
388.5580309792248954
 20
189.9358713975568094
 10
389.1956027292249019
 20
189.6667570435567427
 10
389.8307031152248783
 20
189.3904761075570491
 10
390.4633321372249384
 20
189.107028589556819
 10
391.0910193652248381
 20
188.8161669795569537
 10
391.7137638652250189
 20
188.518386297557015
 10
392.3340370012249423
 20
188.2134390335569947
 10
392.9468969792250164
 20
187.9013261215570196
 10
393.5597560232249634
 20
187.5822922695567172
 10
394.1652028432249608
 20
187.2563402795569232
 10
394.7657060012247712
 20
186.9234682835569288
 10
395.3637387292249059
 20
186.583677215556861
 10
395.9568287292248669
 20
186.237213651557056
 10
396.5425046372249653
 20
185.8840785255567312
 10
397.1257101152248197
 20
185.5240233935571155
 10
397.7039728652248414
 20
185.1575432755568613
 10
398.274821523224773
 20
184.7843906615568699
 10
398.8431997512250291
 20
184.4045655515571411
 10
399.4041638872249678
 20
184.0185629655567823
 10
399.9601862292249734
 20
183.6261353935571492
 10
400.5112658432249191
 20
183.2272819015567507
 10
401.0574027292249184
 20
182.8222509335570862
 10
401.5961255232248277
 20
182.4107949795567833
 10
402.1299065232249177
 20
181.9934081255570959
 10
402.658745729224961
 20
181.5698428615571061
 10
403.1826412732248173
 20
181.1403466975568222
 10
403.6991245932249512
 20
180.705167143557162
 10
404.2081928872248682
 20
180.2638091795567448
 10
404.7123193872248521
 20
179.8167678255569513
 10
405.211504093224903
 20
179.3637955715568637
 10
405.7032737732248506
 20
178.9053855695571542
 10
406.1876312292249622
 20
178.4412931115568313
 10
406.6670450232247731
 20
177.9717638395570134
 10
407.1390465932249754
 20
177.4967968195571189
 10
407.6036331372249606
 20
177.0163939195569469
 10
408.0632778872248991
 20
176.5308017155568336
 10
408.5155094792248747
 20
176.040020207556779
 10
408.9603269792249876
 20
175.5440484615571108
 10
409.4002017512248131
 20
175.0428874115570466
 10
409.8301920012249866
 20
174.5370311435569306
 10
410.2552395232248728
 20
174.0259855715568733
 10
410.6728738872247959
 20
173.5102438475570921
 10
411.0830950932249834
 20
172.9898078395569314
 10
411.4859012732249539
 20
172.4649231895570551
 10
411.883766593224891
 20
171.9350958115571189
 10
412.2717455232249222
 20
171.4010673015570205
 10
412.65231222922489
 20
170.8625910835568789
 10
413.0254648432247677
 20
170.3196671575571486
 10
413.3912033652247828
 20
169.7727886755571376
 10
413.7495287292248349
 20
169.2214615515569562
 10
414.100440001224797
 20
168.6661817395567482
 10
414.4439381152249098
 20
168.1069473715567142
 10
414.7800221372248188
 20
167.5440059575568625
 10
415.1062216372249623
 20
166.9771099875567302
 10
415.4274793432248316
 20
166.4065088395570342
 10
415.7388515932250357
 20
165.8321997115569388
 10
416.0428097512249224
 20
165.2544310475570342
 10
416.339354751224846
 20
164.6734503575568738
 10
416.6260152292250041
 20
164.0890091975567771
 10
416.9052616152248447
 20
163.5013560115568794
 10
417.1770948432249497
 20
162.9104898655570537
 10
417.4415139792249647
 20
162.3164116935569723
 10
417.696048593224873
 20
161.7196146475568526
 10
417.9431691152250323
 20
161.1198521515568132
 10
418.1804051152248576
 20
160.5173717155568625
 10
418.4126983872249639
 20
159.9121733395570004
 10
418.6326357732249335
 20
159.3042560895571
 10
418.8476313652249701
 20
158.694114051557051
 10
419.0527415012247729
 20
158.0815015835570989
 10
419.2479671152249239
 20
157.4664177515571168
 10
419.4357786372248711
 20
156.8493575755571214
 10
419.616177001224969
 20
156.2300726115569773
 10
419.7866908432247328
 20
155.6088103695571476
 10
419.9497905932248614
 20
154.9858192935568582
 10
420.1030048872248699
 20
154.3608509395568831
 10
420.2463355932250124
 20
153.7341518835571037
 10
420.3847226372249679
 20
153.1057239935568646
 10
420.5107547292248
 20
152.4760594875571655
 10
420.6293727292247695
 20
151.8449136575570151
 10
420.7405766372248763
 20
151.2122837015569417
 10
420.8418960232247628
 20
150.5786665075567612
 10
420.8517814792248828
 20
150.5042827475569425
  0
LWPOLYLINE
  5
5C
100
AcDbEntity
  8
0
 62
7
420
16777215
370
-1
 48
1.0
  6
BYLAYER
100
AcDbPolyline
 90
4
 70
1
 10
217.7156821400799345
 20
380.0909388646899743
 10
217.7156821400799345
 20
436.1325070506899237
 10
352.2161373200799517
 20
436.1325070506899237
 10
352.2161373200799517
 20
380.0909388646899743
  0
LWPOLYLINE
  5
5D
100
AcDbEntity
  8
0
 62
7
420
16777215
370
-1
 48
1.0
  6
BYLAYER
100
AcDbPolyline
 90
4
 70
1
 10
217.7156821400799345
 20
534.2051278546899766
 10
217.7156821400799345
 20
590.2469435506899345
 10
352.2161373200799517
 20
590.2469435506899345
 10
352.2161373200799517
 20
534.2051278546899766
  0
LINE
  5
5E
100
AcDbEntity
  8
0
 62
256
370
-1
 48
1.0
  6
BYLAYER
100
AcDbLine
 10
402.6749420967927335
 20
267.0218828050265074
 30
0.0
 11
412.3444216218227893
 21
303.1088716751856964
 31
0.0
  0
LINE
  5
5F
100
AcDbEntity
  8
0
 62
256
370
-1
 48
1.0
  6
BYLAYER
100
AcDbLine
 10
144.4621581359996867
 20
239.2555191250002622
 30
0.0
 11
144.4621581359997151
 21
276.6155191250000485
 31
0.0
  0
LINE
  5
60
100
AcDbEntity
  8
0
 62
256
370
-1
 48
1.0
  6
BYLAYER
100
AcDbLine
 10
406.7129942414477455
 20
246.0051097023289799
 30
0.0
 11
411.6966893143327297
 21
264.604512923769164
 31
0.0
  0
LINE
  5
61
100
AcDbEntity
  8
0
 62
256
370
-1
 48
1.0
  6
BYLAYER
100
AcDbLine
 10
135.1221581359995696
 20
220.0000000000001705
 30
0.0
 11
135.1221581359995696
 21
239.2555191250002622
 31
0.0
  0
LINE
  5
62
100
AcDbEntity
  8
0
 62
256
370
-1
 48
1.0
  6
BYLAYER
100
AcDbLine
 10
411.6966893143336392
 20
264.604512923769903
 30
0.0
 11
402.6749420967927335
 21
267.0218828050273601
 31
0.0
  0
LINE
  5
63
100
AcDbEntity
  8
0
 62
256
370
-1
 48
1.0
  6
BYLAYER
100
AcDbLine
 10
135.1221581359995696
 20
239.2555191250011717
 30
0.0
 11
144.4621581359996867
 21
239.2555191250011717
 31
0.0
  0
LINE
  5
64
100
AcDbEntity
  8
0
 62
256
370
-1
 48
1.0
  6
BYLAYER
100
AcDbLine
 10
402.6749420967927335
 20
267.0218828050265074
 30
0.0
 11
412.3444216218236988
 21
303.1088716751868901
 31
0.0
  0
LINE
  5
65
100
AcDbEntity
  8
0
 62
256
370
-1
 48
1.0
  6
BYLAYER
100
AcDbLine
 10
144.4621581359996867
 20
239.2555191250002622
 30
0.0
 11
144.4621581359997151
 21
276.6155191250008443
 31
0.0
  0
LINE
  5
66
100
AcDbEntity
  8
0
 62
256
370
-1
 48
1.0
  6
BYLAYER
100
AcDbLine
 10
412.3444216218236988
 20
303.1088716751868901
 30
0.0
 11
421.366168839363695
 21
300.6915017939293193
 31
0.0
  0
LINE
  5
67
100
AcDbEntity
  8
0
 62
256
370
-1
 48
1.0
  6
BYLAYER
100
AcDbLine
 10
144.4621581359997151
 20
276.6155191250008443
 30
0.0
 11
135.1221581359995696
 21
276.6155191250008443
 31
0.0
  0
LINE
  5
68
100
AcDbEntity
  8
0
 62
256
370
-1
 48
1.0
  6
BYLAYER
100
AcDbLine
 10
421.366168839363695
 20
300.6915017939293193
 30
0.0
 11
426.3498639122486793
 21
319.2909050153690487
 31
0.0
  0
LINE
  5
69
100
AcDbEntity
  8
0
 62
256
370
-1
 48
1.0
  6
BYLAYER
100
AcDbLine
 10
135.1221581359995696
 20
276.6155191250008443
 30
0.0
 11
135.1221581359995696
 21
295.8710382499997991
 31
0.0
  0
LINE
  5
6A
100
AcDbEntity
  8
0
 62
256
370
-1
 48
1.0
  6
BYLAYER
100
AcDbLine
 10
421.8389903034800454
 20
320.4995899559977488
 30
0.0
 11
131.5421294475178513
 21
319.7369207044378641
 31
0.0
  0
LINE
  5
6B
100
AcDbEntity
  8
0
 62
256
370
-1
 48
1.0
  6
BYLAYER
100
AcDbLine
 10
139.7921581359996424
 20
295.8710382499997991
 30
0.0
 11
419.9999999999999432
 21
220.0000000000000284
 31
0.0
  0
LINE
  5
6C
100
AcDbEntity
  8
0
 62
256
370
-1
 48
1.0
  6
BYLAYER
100
AcDbLine
 10
358.897733988486948
 20
258.8171700729934628
 30
0.0
 11
406.7129942414477455
 21
246.0051097023289799
 31
0.0
  0
LINE
  5
6D
100
AcDbEntity
  8
0
 62
256
370
-1
 48
1.0
  6
BYLAYER
100
AcDbLine
 10
184.624158135999977
 20
220.0000000000001705
 30
0.0
 11
135.1221581359995696
 21
220.0000000000001705
 31
0.0
  0
LINE
  5
6E
100
AcDbEntity
  8
0
 62
256
370
-1
 48
1.0
  6
BYLAYER
100
AcDbLine
 10
426.3498639122486793
 20
319.2909050153690487
 30
0.0
 11
421.8389903034800454
 21
320.4995899559977488
 31
0.0
  0
LINE
  5
6F
100
AcDbEntity
  8
0
 62
256
370
-1
 48
1.0
  6
BYLAYER
100
AcDbLine
 10
135.1221581359995696
 20
295.8710382499997991
 30
0.0
 11
139.7921581359996424
 21
295.8710382499997991
 31
0.0
  0
LINE
  5
70
100
AcDbEntity
  8
0
 62
256
370
-1
 48
1.0
  6
BYLAYER
100
AcDbLine
 10
406.7129942414477455
 20
246.0051097023289799
 30
0.0
 11
358.897733988486948
 21
258.8171700729934628
 31
0.0
  0
LINE
  5
71
100
AcDbEntity
  8
0
 62
256
370
-1
 48
1.0
  6
BYLAYER
100
AcDbLine
 10
135.1221581359995696
 20
220.0000000000001705
 30
0.0
 11
184.624158135999977
 21
220.0000000000001705
 31
0.0
  0
LINE
  5
72
100
AcDbEntity
  8
0
 62
256
370
-1
 48
1.0
  6
BYLAYER
100
AcDbLine
 10
356.4803641072277287
 20
249.7954228554531539
 30
0.0
 11
320.3933752370686534
 21
259.4649023804830108
 31
0.0
  0
LINE
  5
73
100
AcDbEntity
  8
0
 62
256
370
-1
 48
1.0
  6
BYLAYER
100
AcDbLine
 10
184.6241581359999202
 20
210.6599999999993429
 30
0.0
 11
221.9841581359996496
 21
210.6599999999993429
 31
0.0
  0
LINE
  5
74
100
AcDbEntity
  8
0
 62
256
370
-1
 48
1.0
  6
BYLAYER
100
AcDbLine
 10
284.3063863669100328
 20
269.1343819055130666
 30
0.0
 11
248.2193974967500765
 21
278.8038614305436909
 31
0.0
  0
LINE
  5
75
100
AcDbEntity
  8
0
 62
256
370
-1
 48
1.0
  6
BYLAYER
100
AcDbLine
 10
259.3441581359998054
 20
210.6599999999993429
 30
0.0
 11
296.7041581359999327
 21
210.6599999999993429
 31
0.0
  0
LINE
  5
76
100
AcDbEntity
  8
0
 62
256
370
-1
 48
1.0
  6
BYLAYER
100
AcDbLine
 10
212.1324086265900917
 20
288.4733409555735761
 30
0.0
 11
176.0454197564310164
 21
298.1428204806039162
 31
0.0
  0
LINE
  5
77
100
AcDbEntity
  8
0
 62
256
370
-1
 48
1.0
  6
BYLAYER
100
AcDbLine
 10
334.0641581359995484
 20
210.6599999999993997
 30
0.0
 11
371.4241581359996758
 21
210.6599999999993429
 31
0.0
  0
LINE
  5
78
100
AcDbEntity
  8
0
 62
256
370
-1
 48
1.0
  6
BYLAYER
100
AcDbLine
 10
131.5421294475178513
 20
319.7369207044378641
 30
0.0
 11
178.4627896376870524
 21
307.1645676981438555
 31
0.0
  0
LINE
  5
79
100
AcDbEntity
  8
0
 62
256
370
-1
 48
1.0
  6
BYLAYER
100
AcDbLine
 10
419.9999999999999432
 20
220.0000000000000284
 30
0.0
 11
371.4241581359996758
 21
219.9999999999992042
 31
0.0
  0
LINE
  5
7A
100
AcDbEntity
  8
0
 62
256
370
-1
 48
1.0
  6
BYLAYER
100
AcDbLine
 10
356.4803641072277287
 20
249.7954228554531539
 30
0.0
 11
358.8977339884860385
 21
258.8171700729928375
 31
0.0
  0
LINE
  5
7B
100
AcDbEntity
  8
0
 62
256
370
-1
 48
1.0
  6
BYLAYER
100
AcDbLine
 10
184.6241581359999202
 20
210.6599999999993429
 30
0.0
 11
184.6241581359999202
 21
219.9999999999993179
 31
0.0
  0
LINE
  5
7C
100
AcDbEntity
  8
0
 62
256
370
-1
 48
1.0
  6
BYLAYER
100
AcDbLine
 10
178.4627896376870524
 20
307.1645676981438555
 30
0.0
 11
176.0454197564310164
 21
298.1428204806039162
 31
0.0
  0
LINE
  5
7D
100
AcDbEntity
  8
0
 62
256
370
-1
 48
1.0
  6
BYLAYER
100
AcDbLine
 10
371.4241581359996758
 20
219.9999999999992042
 30
0.0
 11
371.4241581359996758
 21
210.6599999999993429
 31
0.0
  0
LINE
  5
7E
100
AcDbEntity
  8
0
 62
256
370
-1
 48
1.0
  6
BYLAYER
100
AcDbLine
 10
212.1324086265900917
 20
288.4733409555735761
 30
0.0
 11
214.5497785078470372
 21
297.4950881731135723
 31
0.0
  0
LINE
  5
7F
100
AcDbEntity
  8
0
 62
256
370
-1
 48
1.0
  6
BYLAYER
100
AcDbLine
 10
334.0641581359995484
 20
210.6599999999993997
 30
0.0
 11
334.0641581359995484
 21
219.9999999999993747
 31
0.0
  0
LINE
  5
80
100
AcDbEntity
  8
0
 62
256
370
-1
 48
1.0
  6
BYLAYER
100
AcDbLine
 10
248.2193974967500765
 20
278.8038614305436909
 30
0.0
 11
250.636767378007022
 21
287.8256086480831186
 31
0.0
  0
LINE
  5
81
100
AcDbEntity
  8
0
 62
256
370
-1
 48
1.0
  6
BYLAYER
100
AcDbLine
 10
296.7041581359999327
 20
210.6599999999993429
 30
0.0
 11
296.7041581359999327
 21
219.999999999999261
 31
0.0
  0
LINE
  5
82
100
AcDbEntity
  8
0
 62
256
370
-1
 48
1.0
  6
BYLAYER
100
AcDbLine
 10
284.3063863669100328
 20
269.1343819055130666
 30
0.0
 11
286.7237562481669784
 21
278.1561291230531197
 31
0.0
  0
LINE
  5
83
100
AcDbEntity
  8
0
 62
256
370
-1
 48
1.0
  6
BYLAYER
100
AcDbLine
 10
259.3441581359998054
 20
210.6599999999993429
 30
0.0
 11
259.3441581359996917
 21
219.9999999999992895
 31
0.0
  0
LINE
  5
84
100
AcDbEntity
  8
0
 62
256
370
-1
 48
1.0
  6
BYLAYER
100
AcDbLine
 10
320.3933752370686534
 20
259.4649023804830108
 30
0.0
 11
322.8107451183269632
 21
268.4866495980227228
 31
0.0
  0
LINE
  5
85
100
AcDbEntity
  8
0
 62
256
370
-1
 48
1.0
  6
BYLAYER
100
AcDbLine
 10
221.9841581359996496
 20
210.6599999999993429
 30
0.0
 11
221.9841581359996496
 21
219.9999999999993747
 31
0.0
  0
LINE
  5
86
100
AcDbEntity
  8
0
 62
256
370
-1
 48
1.0
  6
BYLAYER
100
AcDbLine
 10
322.8107451183269632
 20
268.4866495980239733
 30
0.0
 11
286.7237562481669784
 21
278.1561291230539155
 31
0.0
  0
LINE
  5
87
100
AcDbEntity
  8
0
 62
256
370
-1
 48
1.0
  6
BYLAYER
100
AcDbLine
 10
221.9841581359995928
 20
220.0000000000000853
 30
0.0
 11
259.3441581359998054
 21
220.0000000000001705
 31
0.0
  0
LINE
  5
88
100
AcDbEntity
  8
0
 62
256
370
-1
 48
1.0
  6
BYLAYER
100
AcDbLine
 10
250.636767378007022
 20
287.8256086480831186
 30
0.0
 11
214.5497785078470372
 21
297.4950881731135723
 31
0.0
  0
LINE
  5
89
100
AcDbEntity
  8
0
 62
256
370
-1
 48
1.0
  6
BYLAYER
100
AcDbLine
 10
296.7041581359999327
 20
219.999999999999261
 30
0.0
 11
334.0641581359995484
 21
219.9999999999993747
 31
0.0
  0
LINE
  5
8A
100
AcDbEntity
  8
0
 62
256
370
-1
 48
1.0
  6
BYLAYER
100
AcDbLine
 10
387.7098306620802077
 20
328.7195490726902563
 30
0.0
 11
425.0698306620802214
 21
328.7195490726902563
 31
0.0
  0
LINE
  5
8B
100
AcDbEntity
  8
0
 62
256
370
-1
 48
1.0
  6
BYLAYER
100
AcDbLine
 10
425.0698306620802214
 20
328.7195490726902563
 30
0.0
 11
425.0698306620802214
 21
338.059549072689947
 31
0.0
  0
LINE
  5
8C
100
AcDbEntity
  8
0
 62
256
370
-1
 48
1.0
  6
BYLAYER
100
AcDbLine
 10
387.7098306620802077
 20
338.059549072689947
 30
0.0
 11
387.7098306620802077
 21
328.7195490726902563
 31
0.0
  0
LINE
  5
8D
100
AcDbEntity
  8
0
 62
256
370
-1
 48
1.0
  6
BYLAYER
100
AcDbLine
 10
387.7098306620802077
 20
328.719549072688892
 30
0.0
 11
387.7098306620802077
 21
338.0595490726890375
 31
0.0
  0
LINE
  5
8E
100
AcDbEntity
  8
0
 62
256
370
-1
 48
1.0
  6
BYLAYER
100
AcDbLine
 10
387.7098306620802077
 20
338.0595490726890375
 30
0.0
 11
350.3498306620801941
 21
338.0595490726890375
 31
0.0
  0
LINE
  5
8F
100
AcDbEntity
  8
0
 62
256
370
-1
 48
1.0
  6
BYLAYER
100
AcDbLine
 10
350.3498306620801941
 20
338.0595490726890375
 30
0.0
 11
350.3498306620801941
 21
328.719549072688892
 31
0.0
  0
LINE
  5
90
100
AcDbEntity
  8
0
 62
256
370
-1
 48
1.0
  6
BYLAYER
100
AcDbLine
 10
312.9898306620801804
 20
328.719549072688892
 30
0.0
 11
350.3498306620801941
 21
328.719549072688892
 31
0.0
  0
LINE
  5
91
100
AcDbEntity
  8
0
 62
256
370
-1
 48
1.0
  6
BYLAYER
100
AcDbLine
 10
350.3498306620801941
 20
328.719549072688892
 30
0.0
 11
350.3498306620801941
 21
338.0595490726890375
 31
0.0
  0
LINE
  5
92
100
AcDbEntity
  8
0
 62
256
370
-1
 48
1.0
  6
BYLAYER
100
AcDbLine
 10
312.9898306620801804
 20
338.0595490726890375
 30
0.0
 11
312.9898306620801804
 21
328.719549072688892
 31
0.0
  0
LINE
  5
93
100
AcDbEntity
  8
0
 62
256
370
-1
 48
1.0
  6
BYLAYER
100
AcDbLine
 10
312.9898306620801804
 20
328.719549072688892
 30
0.0
 11
312.9898306620801804
 21
338.0595490726890375
 31
0.0
  0
LINE
  5
94
100
AcDbEntity
  8
0
 62
256
370
-1
 48
1.0
  6
BYLAYER
100
AcDbLine
 10
312.9898306620801804
 20
338.0595490726890375
 30
0.0
 11
275.6298306620801668
 21
338.0595490726890375
 31
0.0
  0
LINE
  5
95
100
AcDbEntity
  8
0
 62
256
370
-1
 48
1.0
  6
BYLAYER
100
AcDbLine
 10
275.6298306620801668
 20
338.0595490726890375
 30
0.0
 11
275.6298306620801668
 21
328.719549072688892
 31
0.0
  0
LINE
  5
96
100
AcDbEntity
  8
0
 62
256
370
-1
 48
1.0
  6
BYLAYER
100
AcDbLine
 10
238.2698306620801532
 20
328.719549072688892
 30
0.0
 11
275.6298306620801668
 21
328.719549072688892
 31
0.0
  0
LINE
  5
97
100
AcDbEntity
  8
0
 62
256
370
-1
 48
1.0
  6
BYLAYER
100
AcDbLine
 10
275.6298306620801668
 20
328.719549072688892
 30
0.0
 11
275.6298306620801668
 21
338.0595490726890375
 31
0.0
  0
LINE
  5
98
100
AcDbEntity
  8
0
 62
256
370
-1
 48
1.0
  6
BYLAYER
100
AcDbLine
 10
238.2698306620801532
 20
338.0595490726890375
 30
0.0
 11
238.2698306620801532
 21
328.719549072688892
 31
0.0
  0
LINE
  5
99
100
AcDbEntity
  8
0
 62
256
370
-1
 48
1.0
  6
BYLAYER
100
AcDbLine
 10
238.2698306620801532
 20
328.719549072688892
 30
0.0
 11
238.2698306620801532
 21
338.0595490726890375
 31
0.0
  0
LINE
  5
9A
100
AcDbEntity
  8
0
 62
256
370
-1
 48
1.0
  6
BYLAYER
100
AcDbLine
 10
238.2698306620801532
 20
338.0595490726890375
 30
0.0
 11
200.9098306620801395
 21
338.0595490726890375
 31
0.0
  0
LINE
  5
9B
100
AcDbEntity
  8
0
 62
256
370
-1
 48
1.0
  6
BYLAYER
100
AcDbLine
 10
200.9098306620801395
 20
338.0595490726890375
 30
0.0
 11
200.9098306620801395
 21
328.719549072688892
 31
0.0
  0
LINE
  5
9C
100
AcDbEntity
  8
0
 62
256
370
-1
 48
1.0
  6
BYLAYER
100
AcDbLine
 10
163.5498306620801259
 20
328.719549072688892
 30
0.0
 11
200.9098306620801395
 21
328.719549072688892
 31
0.0
  0
LINE
  5
9D
100
AcDbEntity
  8
0
 62
256
370
-1
 48
1.0
  6
BYLAYER
100
AcDbLine
 10
200.9098306620801395
 20
328.719549072688892
 30
0.0
 11
200.9098306620801395
 21
338.0595490726890375
 31
0.0
  0
LINE
  5
9E
100
AcDbEntity
  8
0
 62
256
370
-1
 48
1.0
  6
BYLAYER
100
AcDbLine
 10
163.5498306620801259
 20
338.0595490726890375
 30
0.0
 11
163.5498306620801259
 21
328.719549072688892
 31
0.0
  0
LINE
  5
9F
100
AcDbEntity
  8
0
 62
256
370
-1
 48
1.0
  6
BYLAYER
100
AcDbLine
 10
163.5498306620801259
 20
328.719549072688892
 30
0.0
 11
163.5498306620801259
 21
338.0595490726890375
 31
0.0
  0
LINE
  5
A0
100
AcDbEntity
  8
0
 62
256
370
-1
 48
1.0
  6
BYLAYER
100
AcDbLine
 10
163.5498306620801259
 20
338.0595490726890375
 30
0.0
 11
140.1919887980800468
 21
338.0595490726890375
 31
0.0
  0
LINE
  5
A1
100
AcDbEntity
  8
0
 62
256
370
-1
 48
1.0
  6
BYLAYER
100
AcDbLine
 10
425.0698306620802214
 20
646.2890058226902283
 30
0.0
 11
425.0698306620802214
 21
328.7195490726902563
 31
0.0
  0
LINE
  5
A2
100
AcDbEntity
  8
0
 62
256
370
-1
 48
1.0
  6
BYLAYER
100
AcDbLine
 10
425.0698306620802214
 20
328.7195490726902563
 30
0.0
 11
387.7098306620802077
 21
328.7195490726902563
 31
0.0
  0
LINE
  5
A3
100
AcDbEntity
  8
0
 62
256
370
-1
 48
1.0
  6
BYLAYER
100
AcDbLine
 10
387.7098306620802077
 20
328.7195490726902563
 30
0.0
 11
387.7098306620802077
 21
338.0595490726890375
 31
0.0
  0
LINE
  5
A4
100
AcDbEntity
  8
0
 62
256
370
-1
 48
1.0
  6
BYLAYER
100
AcDbLine
 10
387.7098306620802077
 20
338.0595490726890375
 30
0.0
 11
350.3498306620801941
 21
338.0595490726890375
 31
0.0
  0
LINE
  5
A5
100
AcDbEntity
  8
0
 62
256
370
-1
 48
1.0
  6
BYLAYER
100
AcDbLine
 10
350.3498306620801941
 20
338.0595490726890375
 30
0.0
 11
350.3498306620801941
 21
328.719549072688892
 31
0.0
  0
LINE
  5
A6
100
AcDbEntity
  8
0
 62
256
370
-1
 48
1.0
  6
BYLAYER
100
AcDbLine
 10
350.3498306620801941
 20
328.719549072688892
 30
0.0
 11
312.9898306620801804
 21
328.719549072688892
 31
0.0
  0
LINE
  5
A7
100
AcDbEntity
  8
0
 62
256
370
-1
 48
1.0
  6
BYLAYER
100
AcDbLine
 10
312.9898306620801804
 20
328.719549072688892
 30
0.0
 11
312.9898306620801804
 21
338.0595490726890375
 31
0.0
  0
LINE
  5
A8
100
AcDbEntity
  8
0
 62
256
370
-1
 48
1.0
  6
BYLAYER
100
AcDbLine
 10
312.9898306620801804
 20
338.0595490726890375
 30
0.0
 11
275.6298306620801668
 21
338.0595490726890375
 31
0.0
  0
LINE
  5
A9
100
AcDbEntity
  8
0
 62
256
370
-1
 48
1.0
  6
BYLAYER
100
AcDbLine
 10
275.6298306620801668
 20
338.0595490726890375
 30
0.0
 11
275.6298306620801668
 21
328.719549072688892
 31
0.0
  0
LINE
  5
AA
100
AcDbEntity
  8
0
 62
256
370
-1
 48
1.0
  6
BYLAYER
100
AcDbLine
 10
275.6298306620801668
 20
328.719549072688892
 30
0.0
 11
238.2698306620801532
 21
328.719549072688892
 31
0.0
  0
LINE
  5
AB
100
AcDbEntity
  8
0
 62
256
370
-1
 48
1.0
  6
BYLAYER
100
AcDbLine
 10
238.2698306620801532
 20
328.719549072688892
 30
0.0
 11
238.2698306620801532
 21
338.0595490726890375
 31
0.0
  0
LINE
  5
AC
100
AcDbEntity
  8
0
 62
256
370
-1
 48
1.0
  6
BYLAYER
100
AcDbLine
 10
238.2698306620801532
 20
338.0595490726890375
 30
0.0
 11
200.9098306620801395
 21
338.0595490726890375
 31
0.0
  0
LINE
  5
AD
100
AcDbEntity
  8
0
 62
256
370
-1
 48
1.0
  6
BYLAYER
100
AcDbLine
 10
200.9098306620801395
 20
338.0595490726890375
 30
0.0
 11
200.9098306620801395
 21
328.719549072688892
 31
0.0
  0
LINE
  5
AE
100
AcDbEntity
  8
0
 62
256
370
-1
 48
1.0
  6
BYLAYER
100
AcDbLine
 10
200.9098306620801395
 20
328.719549072688892
 30
0.0
 11
163.5498306620801259
 21
328.719549072688892
 31
0.0
  0
LINE
  5
AF
100
AcDbEntity
  8
0
 62
256
370
-1
 48
1.0
  6
BYLAYER
100
AcDbLine
 10
163.5498306620801259
 20
328.719549072688892
 30
0.0
 11
163.5498306620801259
 21
338.0595490726890375
 31
0.0
  0
LINE
  5
B0
100
AcDbEntity
  8
0
 62
256
370
-1
 48
1.0
  6
BYLAYER
100
AcDbLine
 10
163.5498306620801259
 20
338.0595490726890375
 30
0.0
 11
144.8619887980800058
 21
338.0595490726890375
 31
0.0
  0
LINE
  5
B1
100
AcDbEntity
  8
0
 62
256
370
-1
 48
1.0
  6
BYLAYER
100
AcDbLine
 10
425.0698306620802214
 20
482.8295490726899288
 30
0.0
 11
425.0698306620802214
 21
487.4995490726900016
 31
0.0
  0
LINE
  5
B2
100
AcDbEntity
  8
0
 62
256
370
-1
 48
1.0
  6
BYLAYER
100
AcDbLine
 10
387.7098306620802077
 20
487.9123555726899895
 30
0.0
 11
387.7098306620802077
 21
482.4167425726913052
 31
0.0
  0
LINE
  5
B3
100
AcDbEntity
  8
0
 62
256
370
-1
 48
1.0
  6
BYLAYER
100
AcDbLine
 10
350.3498306620799667
 20
482.4167425726913052
 30
0.0
 11
387.7098306620799804
 21
482.4167425726913052
 31
0.0
  0
LINE
  5
B4
100
AcDbEntity
  8
0
 62
256
370
-1
 48
1.0
  6
BYLAYER
100
AcDbLine
 10
387.7098306620799804
 20
487.9123555726899895
 30
0.0
 11
350.3498306620799667
 21
487.9123555726899895
 31
0.0
  0
LINE
  5
B5
100
AcDbEntity
  8
0
 62
256
370
-1
 48
1.0
  6
BYLAYER
100
AcDbLine
 10
350.3498306620799667
 20
487.9123555726899895
 30
0.0
 11
350.3498306620801941
 21
482.4167425726913052
 31
0.0
  0
LINE
  5
B6
100
AcDbEntity
  8
0
 62
256
370
-1
 48
1.0
  6
BYLAYER
100
AcDbLine
 10
312.9898306620801804
 20
487.9123555726899895
 30
0.0
 11
312.9898306620801804
 21
482.4167425726913052
 31
0.0
  0
LINE
  5
B7
100
AcDbEntity
  8
0
 62
256
370
-1
 48
1.0
  6
BYLAYER
100
AcDbLine
 10
275.6298306620799394
 20
482.4167425726913052
 30
0.0
 11
312.9898306620799531
 21
482.4167425726913052
 31
0.0
  0
LINE
  5
B8
100
AcDbEntity
  8
0
 62
256
370
-1
 48
1.0
  6
BYLAYER
100
AcDbLine
 10
312.9898306620799531
 20
487.9123555726899895
 30
0.0
 11
275.6298306620799394
 21
487.9123555726899895
 31
0.0
  0
LINE
  5
B9
100
AcDbEntity
  8
0
 62
256
370
-1
 48
1.0
  6
BYLAYER
100
AcDbLine
 10
275.6298306620800531
 20
487.9123555726899895
 30
0.0
 11
275.6298306620801668
 21
482.4167425726913052
 31
0.0
  0
LINE
  5
BA
100
AcDbEntity
  8
0
 62
256
370
-1
 48
1.0
  6
BYLAYER
100
AcDbLine
 10
238.2698306620802668
 20
487.9123555726899895
 30
0.0
 11
238.2698306620799258
 21
482.4167425726913052
 31
0.0
  0
LINE
  5
BB
100
AcDbEntity
  8
0
 62
256
370
-1
 48
1.0
  6
BYLAYER
100
AcDbLine
 10
200.9098306620799121
 20
482.4167425726913052
 30
0.0
 11
238.2698306620799258
 21
482.4167425726913052
 31
0.0
  0
LINE
  5
BC
100
AcDbEntity
  8
0
 62
256
370
-1
 48
1.0
  6
BYLAYER
100
AcDbLine
 10
238.2698306620799258
 20
487.9123555726899895
 30
0.0
 11
200.9098306620799121
 21
487.9123555726899895
 31
0.0
  0
LINE
  5
BD
100
AcDbEntity
  8
0
 62
256
370
-1
 48
1.0
  6
BYLAYER
100
AcDbLine
 10
200.9098306620801395
 20
487.9123555726899895
 30
0.0
 11
200.9098306620801395
 21
482.4167425726913052
 31
0.0
  0
LINE
  5
BE
100
AcDbEntity
  8
0
 62
256
370
-1
 48
1.0
  6
BYLAYER
100
AcDbLine
 10
163.5498306620801259
 20
487.9123555726899895
 30
0.0
 11
163.5498306620802396
 21
482.4167425726913052
 31
0.0
  0
LINE
  5
BF
100
AcDbEntity
  8
0
 62
256
370
-1
 48
1.0
  6
BYLAYER
100
AcDbLine
 10
149.5319887980797375
 20
482.4167425726913052
 30
0.0
 11
163.5498306620798985
 21
482.4167425726913052
 31
0.0
  0
LINE
  5
C0
100
AcDbEntity
  8
0
 62
256
370
-1
 48
1.0
  6
BYLAYER
100
AcDbLine
 10
163.5498306620798985
 20
487.9123555726899895
 30
0.0
 11
140.1919887980798194
 21
487.9123555726899895
 31
0.0
  0
LINE
  5
C1
100
AcDbEntity
  8
0
 62
256
370
-1
 48
1.0
  6
BYLAYER
100
AcDbLine
 10
425.0698306620802214
 20
646.2890058226902283
 30
0.0
 11
425.0698306620801077
 21
650.8189058226902262
 31
0.0
  0
LINE
  5
C2
100
AcDbEntity
  8
0
 62
256
370
-1
 48
1.0
  6
BYLAYER
100
AcDbLine
 10
425.0698306620801077
 20
650.8189058226902262
 30
0.0
 11
387.709830662080094
 21
650.8189058226902262
 31
0.0
  0
LINE
  5
C3
100
AcDbEntity
  8
0
 62
256
370
-1
 48
1.0
  6
BYLAYER
100
AcDbLine
 10
387.709830662080094
 20
650.8189058226902262
 30
0.0
 11
387.709830662080094
 21
641.4789058226900806
 31
0.0
  0
LINE
  5
C4
100
AcDbEntity
  8
0
 62
256
370
-1
 48
1.0
  6
BYLAYER
100
AcDbLine
 10
350.3498306620800804
 20
641.4789058226900806
 30
0.0
 11
387.709830662080094
 21
641.4789058226900806
 31
0.0
  0
LINE
  5
C5
100
AcDbEntity
  8
0
 62
256
370
-1
 48
1.0
  6
BYLAYER
100
AcDbLine
 10
387.709830662080094
 20
641.4789058226900806
 30
0.0
 11
387.709830662080094
 21
650.8189058226902262
 31
0.0
  0
LINE
  5
C6
100
AcDbEntity
  8
0
 62
256
370
-1
 48
1.0
  6
BYLAYER
100
AcDbLine
 10
350.3498306620800804
 20
650.8189058226902262
 30
0.0
 11
350.3498306620800804
 21
641.4789058226900806
 31
0.0
  0
LINE
  5
C7
100
AcDbEntity
  8
0
 62
256
370
-1
 48
1.0
  6
BYLAYER
100
AcDbLine
 10
350.3498306620800804
 20
641.4789058226900806
 30
0.0
 11
350.3498306620800804
 21
650.8189058226902262
 31
0.0
  0
LINE
  5
C8
100
AcDbEntity
  8
0
 62
256
370
-1
 48
1.0
  6
BYLAYER
100
AcDbLine
 10
350.3498306620800804
 20
650.8189058226902262
 30
0.0
 11
312.9898306620800668
 21
650.8189058226902262
 31
0.0
  0
LINE
  5
C9
100
AcDbEntity
  8
0
 62
256
370
-1
 48
1.0
  6
BYLAYER
100
AcDbLine
 10
312.9898306620800668
 20
650.8189058226902262
 30
0.0
 11
312.9898306620800668
 21
641.4789058226900806
 31
0.0
  0
LINE
  5
CA
100
AcDbEntity
  8
0
 62
256
370
-1
 48
1.0
  6
BYLAYER
100
AcDbLine
 10
275.6298306620800531
 20
641.4789058226900806
 30
0.0
 11
312.9898306620800668
 21
641.4789058226900806
 31
0.0
  0
LINE
  5
CB
100
AcDbEntity
  8
0
 62
256
370
-1
 48
1.0
  6
BYLAYER
100
AcDbLine
 10
312.9898306620800668
 20
641.4789058226900806
 30
0.0
 11
312.9898306620800668
 21
650.8189058226902262
 31
0.0
  0
LINE
  5
CC
100
AcDbEntity
  8
0
 62
256
370
-1
 48
1.0
  6
BYLAYER
100
AcDbLine
 10
275.6298306620800531
 20
650.8189058226902262
 30
0.0
 11
275.6298306620800531
 21
641.4789058226900806
 31
0.0
  0
LINE
  5
CD
100
AcDbEntity
  8
0
 62
256
370
-1
 48
1.0
  6
BYLAYER
100
AcDbLine
 10
275.6298306620800531
 20
641.4789058226900806
 30
0.0
 11
275.6298306620800531
 21
650.8189058226902262
 31
0.0
  0
LINE
  5
CE
100
AcDbEntity
  8
0
 62
256
370
-1
 48
1.0
  6
BYLAYER
100
AcDbLine
 10
275.6298306620800531
 20
650.8189058226902262
 30
0.0
 11
238.2698306620800395
 21
650.8189058226902262
 31
0.0
  0
LINE
  5
CF
100
AcDbEntity
  8
0
 62
256
370
-1
 48
1.0
  6
BYLAYER
100
AcDbLine
 10
238.2698306620800395
 20
650.8189058226902262
 30
0.0
 11
238.2698306620800395
 21
641.4789058226900806
 31
0.0
  0
LINE
  5
D0
100
AcDbEntity
  8
0
 62
256
370
-1
 48
1.0
  6
BYLAYER
100
AcDbLine
 10
200.9098306620800258
 20
641.4789058226900806
 30
0.0
 11
238.2698306620800395
 21
641.4789058226900806
 31
0.0
  0
LINE
  5
D1
100
AcDbEntity
  8
0
 62
256
370
-1
 48
1.0
  6
BYLAYER
100
AcDbLine
 10
238.2698306620800395
 20
641.4789058226900806
 30
0.0
 11
238.2698306620800395
 21
650.8189058226902262
 31
0.0
  0
LINE
  5
D2
100
AcDbEntity
  8
0
 62
256
370
-1
 48
1.0
  6
BYLAYER
100
AcDbLine
 10
200.9098306620800258
 20
650.8189058226902262
 30
0.0
 11
200.9098306620800258
 21
641.4789058226900806
 31
0.0
  0
LINE
  5
D3
100
AcDbEntity
  8
0
 62
256
370
-1
 48
1.0
  6
BYLAYER
100
AcDbLine
 10
200.9098306620800258
 20
641.4789058226900806
 30
0.0
 11
200.9098306620800258
 21
650.8189058226902262
 31
0.0
  0
LINE
  5
D4
100
AcDbEntity
  8
0
 62
256
370
-1
 48
1.0
  6
BYLAYER
100
AcDbLine
 10
200.9098306620800258
 20
650.8189058226902262
 30
0.0
 11
163.5498306620801259
 21
650.8189058226902262
 31
0.0
  0
LINE
  5
D5
100
AcDbEntity
  8
0
 62
256
370
-1
 48
1.0
  6
BYLAYER
100
AcDbLine
 10
163.5498306620801259
 20
650.8189058226902262
 30
0.0
 11
163.5498306620801259
 21
641.4789058226900806
 31
0.0
  0
LINE
  5
D6
100
AcDbEntity
  8
0
 62
256
370
-1
 48
1.0
  6
BYLAYER
100
AcDbLine
 10
140.1919887980794783
 20
641.4789058226900806
 30
0.0
 11
163.5498306620801259
 21
641.4789058226900806
 31
0.0
  0
LINE
  5
D7
100
AcDbEntity
  8
0
 62
256
370
-1
 48
1.0
  6
BYLAYER
100
AcDbLine
 10
163.5498306620801259
 20
641.4789058226900806
 30
0.0
 11
163.5498306620801259
 21
650.8189058226902262
 31
0.0
  0
LINE
  5
D8
100
AcDbEntity
  8
0
 62
256
370
-1
 48
1.0
  6
BYLAYER
100
AcDbLine
 10
149.5319887980799649
 20
370.7495490726890921
 30
0.0
 11
140.1919887980800468
 21
370.7495490726890921
 31
0.0
  0
LINE
  5
D9
100
AcDbEntity
  8
0
 62
256
370
-1
 48
1.0
  6
BYLAYER
100
AcDbLine
 10
140.1919887980800468
 20
370.7495490726890921
 30
0.0
 11
140.1919887980800468
 21
338.059549072689947
 31
0.0
  0
LINE
  5
DA
100
AcDbEntity
  8
0
 62
256
370
-1
 48
1.0
  6
BYLAYER
100
AcDbLine
 10
140.1919887980800468
 20
370.7495490726900016
 30
0.0
 11
149.5319887980799649
 21
370.7495490726900016
 31
0.0
  0
LINE
  5
DB
100
AcDbEntity
  8
0
 62
256
370
-1
 48
1.0
  6
BYLAYER
100
AcDbLine
 10
149.5319887980799649
 20
370.7495490726900016
 30
0.0
 11
149.5319887980799649
 21
408.1095490726901289
 31
0.0
  0
LINE
  5
DC
100
AcDbEntity
  8
0
 62
256
370
-1
 48
1.0
  6
BYLAYER
100
AcDbLine
 10
149.5319887980799649
 20
408.1095490726901289
 30
0.0
 11
140.1919887980800468
 21
408.1095490726901289
 31
0.0
  0
LINE
  5
DD
100
AcDbEntity
  8
0
 62
256
370
-1
 48
1.0
  6
BYLAYER
100
AcDbLine
 10
140.1919887980800468
 20
408.1095490726901289
 30
0.0
 11
149.5319887980799649
 21
408.1095490726901289
 31
0.0
  0
LINE
  5
DE
100
AcDbEntity
  8
0
 62
256
370
-1
 48
1.0
  6
BYLAYER
100
AcDbLine
 10
149.5319887980799649
 20
445.4695490726902563
 30
0.0
 11
140.1919887980800468
 21
445.4695490726902563
 31
0.0
  0
LINE
  5
DF
100
AcDbEntity
  8
0
 62
256
370
-1
 48
1.0
  6
BYLAYER
100
AcDbLine
 10
140.1919887980800468
 20
445.4695490726902563
 30
0.0
 11
140.1919887980800468
 21
408.1095490726901289
 31
0.0
  0
LINE
  5
E0
100
AcDbEntity
  8
0
 62
256
370
-1
 48
1.0
  6
BYLAYER
100
AcDbLine
 10
140.1919887980800468
 20
445.4695490726902563
 30
0.0
 11
149.5319887980799649
 21
445.4695490726902563
 31
0.0
  0
LINE
  5
E1
100
AcDbEntity
  8
0
 62
256
370
-1
 48
1.0
  6
BYLAYER
100
AcDbLine
 10
149.5319887980799649
 20
445.4695490726902563
 30
0.0
 11
149.5319887980797375
 21
482.4167425726913052
 31
0.0
  0
LINE
  5
E2
100
AcDbEntity
  8
0
 62
256
370
-1
 48
1.0
  6
BYLAYER
100
AcDbLine
 10
149.5319887980799649
 20
520.1895490726900562
 30
0.0
 11
140.1919887980800468
 21
520.1895490726900562
 31
0.0
  0
LINE
  5
E3
100
AcDbEntity
  8
0
 62
256
370
-1
 48
1.0
  6
BYLAYER
100
AcDbLine
 10
140.1919887980800468
 20
520.1895490726900562
 30
0.0
 11
140.1919887980798194
 21
487.9123555726899895
 31
0.0
  0
LINE
  5
E4
100
AcDbEntity
  8
0
 62
256
370
-1
 48
1.0
  6
BYLAYER
100
AcDbLine
 10
140.1919887980800468
 20
520.1895490726900562
 30
0.0
 11
149.5319887980799649
 21
520.1895490726900562
 31
0.0
  0
LINE
  5
E5
100
AcDbEntity
  8
0
 62
256
370
-1
 48
1.0
  6
BYLAYER
100
AcDbLine
 10
149.5319887980799649
 20
520.1895490726900562
 30
0.0
 11
149.5319887980799649
 21
557.5495490726901835
 31
0.0
  0
LINE
  5
E6
100
AcDbEntity
  8
0
 62
256
370
-1
 48
1.0
  6
BYLAYER
100
AcDbLine
 10
149.5319887980799649
 20
557.5495490726901835
 30
0.0
 11
140.1919887980800468
 21
557.5495490726901835
 31
0.0
  0
LINE
  5
E7
100
AcDbEntity
  8
0
 62
256
370
-1
 48
1.0
  6
BYLAYER
100
AcDbLine
 10
140.1919887980800468
 20
557.5495490726901835
 30
0.0
 11
149.5319887980799649
 21
557.5495490726901835
 31
0.0
  0
LINE
  5
E8
100
AcDbEntity
  8
0
 62
256
370
-1
 48
1.0
  6
BYLAYER
100
AcDbLine
 10
149.5319887980799649
 20
594.9095490726898561
 30
0.0
 11
140.1919887980800468
 21
594.9095490726898561
 31
0.0
  0
LINE
  5
E9
100
AcDbEntity
  8
0
 62
256
370
-1
 48
1.0
  6
BYLAYER
100
AcDbLine
 10
140.1919887980800468
 20
594.9095490726898561
 30
0.0
 11
140.1919887980800468
 21
557.5495490726901835
 31
0.0
  0
LINE
  5
EA
100
AcDbEntity
  8
0
 62
256
370
-1
 48
1.0
  6
BYLAYER
100
AcDbLine
 10
140.191988798079592
 20
594.9095490726898561
 30
0.0
 11
149.5319887980796238
 21
594.9095490726898561
 31
0.0
  0
LINE
  5
EB
100
AcDbEntity
  8
0
 62
256
370
-1
 48
1.0
  6
BYLAYER
100
AcDbLine
 10
149.5319887980796238
 20
594.9095490726898561
 30
0.0
 11
149.5319887980796238
 21
632.2695490726899834
 31
0.0
  0
LINE
  5
EC
100
AcDbEntity
  8
0
 62
256
370
-1
 48
1.0
  6
BYLAYER
100
AcDbLine
 10
149.5319887980795102
 20
632.1294490726912727
 30
0.0
 11
140.1919887980794783
 21
632.1294490726912727
 31
0.0
  0
LINE
  5
ED
100
AcDbEntity
  8
0
 62
256
370
-1
 48
1.0
  6
BYLAYER
100
AcDbLine
 10
140.191988798079592
 20
632.2695490726899834
 30
0.0
 11
149.5319887980796238
 21
632.2695490726899834
 31
0.0
  0
LINE
  5
EE
100
AcDbEntity
  8
0
 62
256
370
-1
 48
1.0
  6
BYLAYER
100
AcDbLine
 10
140.1919887980794783
 20
641.4789058226900806
 30
0.0
 11
140.191988798079592
 21
632.2695490726899834
 31
0.0
  0
ENDSEC
  0
SECTION
  2
OBJECTS
  0
DICTIONARY
  5
C
100
AcDbDictionary
280
0
281
1
  3
ACAD_GROUP
350
D
  3
ACAD_LAYOUT
350
1A
  3
ACAD_MLINESTYLE
350
17
  3
ACAD_PLOTSETTINGS
350
19
  3
ACAD_PLOTSTYLENAME
350
E
  3
AcDbVariableDictionary
350
EF
  3
QCAD_OBJECTS
350
F0
  0
DICTIONARY
  5
D
100
AcDbDictionary
280
0
281
1
  0
ACDBDICTIONARYWDFLT
  5
E
100
AcDbDictionary
281
1
  3
Normal
350
F
100
AcDbDictionaryWithDefault
340
F
  0
ACDBPLACEHOLDER
  5
F
  0
DICTIONARY
  5
17
100
AcDbDictionary
280
0
281
1
  3
Standard
350
18
  0
MLINESTYLE
  5
18
100
AcDbMlineStyle
  2
STANDARD
 70
0
  3

 62
256
 51
90.0
 52
90.0
 71
2
 49
0.5
 62
256
  6
BYLAYER
 49
-0.5
 62
256
  6
BYLAYER
  0
DICTIONARY
  5
19
100
AcDbDictionary
280
0
281
1
  0
DICTIONARY
  5
1A
100
AcDbDictionary
281
1
  3
Layout1
350
1E
  3
Layout2
350
26
  3
Model
350
22
  0
LAYOUT
  5
1E
100
AcDbPlotSettings
  1

  2
none_device
  4

  6

 40
0.0
 41
0.0
 42
0.0
 43
0.0
 44
0.0
 45
0.0
 46
0.0
 47
0.0
 48
0.0
 49
0.0
140
0.0
141
0.0
142
1.0
143
1.0
 70
688
 72
0
 73
0
 74
5
  7

 75
16
147
1.0
148
0.0
149
0.0
100
AcDbLayout
  1
Layout1
 70
1
 71
1
 10
0.0
 20
0.0
 11
420.0
 21
297.0
 12
0.0
 22
0.0
 32
0.0
 14
100000000000000000000.0
 24
100000000000000000000.0
 34
100000000000000000000.0
 15
-100000000000000000000.0
 25
-100000000000000000000.0
 35
-100000000000000000000.0
146
0.0
 13
0.0
 23
0.0
 33
0.0
 16
1.0
 26
0.0
 36
0.0
 17
0.0
 27
1.0
 37
0.0
 76
0
330
1B
  0
LAYOUT
  5
22
100
AcDbPlotSettings
  1

  2
none_device
  4

  6

 40
0.0
 41
0.0
 42
0.0
 43
0.0
 44
0.0
 45
0.0
 46
0.0
 47
0.0
 48
0.0
 49
0.0
140
0.0
141
0.0
142
1.0
143
1.0
 70
1712
 72
0
 73
0
 74
0
  7

 75
0
147
1.0
148
0.0
149
0.0
100
AcDbLayout
  1
Model
 70
1
 71
0
 10
0.0
 20
0.0
 11
12.0
 21
9.0
 12
0.0
 22
0.0
 32
0.0
 14
0.0
 24
0.0
 34
0.0
 15
0.0
 25
0.0
 35
0.0
146
0.0
 13
0.0
 23
0.0
 33
0.0
 16
1.0
 26
0.0
 36
0.0
 17
0.0
 27
1.0
 37
0.0
 76
0
330
1F
  0
LAYOUT
  5
26
100
AcDbPlotSettings
  1

  2
none_device
  4

  6

 40
0.0
 41
0.0
 42
0.0
 43
0.0
 44
0.0
 45
0.0
 46
0.0
 47
0.0
 48
0.0
 49
0.0
140
0.0
141
0.0
142
1.0
143
1.0
 70
688
 72
0
 73
0
 74
5
  7

 75
16
147
1.0
148
0.0
149
0.0
100
AcDbLayout
  1
Layout2
 70
1
 71
2
 10
0.0
 20
0.0
 11
12.0
 21
9.0
 12
0.0
 22
0.0
 32
0.0
 14
0.0
 24
0.0
 34
0.0
 15
0.0
 25
0.0
 35
0.0
146
0.0
 13
0.0
 23
0.0
 33
0.0
 16
1.0
 26
0.0
 36
0.0
 17
0.0
 27
1.0
 37
0.0
 76
0
330
23
  0
DICTIONARY
  5
EF
100
AcDbDictionary
281
1
  3
DIMASSOC
350
F2
  3
HIDETEXT
350
F1
  0
DICTIONARYVAR
  5
F1
100
DictionaryVariables
280
0
  1
2
  0
DICTIONARYVAR
  5
F2
100
DictionaryVariables
280
0
  1
1
  0
DICTIONARY
  5
F0
100
AcDbDictionary
281
1
  3
ColorSettings/BackgroundColor
350
F3
  3
ColorSettings/ColorMode
350
F4
  3
Grid/DisplayGrid00
350
F5
  3
Grid/DisplayGrid01
350
F6
  3
Grid/DisplayGrid02
350
F7
  3
Grid/DisplayGrid03
350
F8
  3
Grid/GridSpacingX00
350
F9
  3
Grid/GridSpacingX01
350
FA
  3
Grid/GridSpacingX02
350
FB
  3
Grid/GridSpacingX03
350
FC
  3
Grid/GridSpacingY00
350
FD
  3
Grid/GridSpacingY01
350
FE
  3
Grid/GridSpacingY02
350
FF
  3
Grid/GridSpacingY03
350
100
  3
Grid/IsometricGrid00
350
101
  3
Grid/IsometricGrid01
350
102
  3
Grid/IsometricGrid02
350
103
  3
Grid/IsometricGrid03
350
104
  3
Grid/IsometricProjection00
350
105
  3
Grid/IsometricProjection01
350
106
  3
Grid/IsometricProjection02
350
107
  3
Grid/IsometricProjection03
350
108
  3
Grid/MetaGridSpacingX00
350
109
  3
Grid/MetaGridSpacingX01
350
10A
  3
Grid/MetaGridSpacingX02
350
10B
  3
Grid/MetaGridSpacingX03
350
10C
  3
Grid/MetaGridSpacingY00
350
10D
  3
Grid/MetaGridSpacingY01
350
10E
  3
Grid/MetaGridSpacingY02
350
10F
  3
Grid/MetaGridSpacingY03
350
110
  3
MultiPageSettings/Columns
350
111
  3
MultiPageSettings/GlueMarginsBottom
350
112
  3
MultiPageSettings/GlueMarginsLeft
350
113
  3
MultiPageSettings/GlueMarginsRight
350
114
  3
MultiPageSettings/GlueMarginsTop
350
115
  3
MultiPageSettings/PrintCropMarks
350
116
  3
MultiPageSettings/Rows
350
117
  3
PageSettings/OffsetX
350
118
  3
PageSettings/OffsetY
350
119
  3
PageSettings/PageOrientation
350
11A
  3
PageSettings/PaperHeight
350
11B
  3
PageSettings/PaperWidth
350
11C
  3
PageSettings/Scale
350
11D
  3
PageSettings/ShowPaperBorders
350
11E
  3
QCADVersion
350
11F
  3
UnitSettings/PaperUnit
350
120
  3
ViewportCenter
350
121
  3
ViewportHeight
350
122
  3
ViewportWidth
350
123
  0
XRECORD
  5
F3
330
F0
100
AcDbXrecord
280
1
1000
\U+0411\U+0435\U+043b\U+044b\U+0439
  0
XRECORD
  5
F4
330
F0
100
AcDbXrecord
280
1
1000
FullColor
  0
XRECORD
  5
F5
330
F0
100
AcDbXrecord
280
1
290
1
  0
XRECORD
  5
F6
330
F0
100
AcDbXrecord
280
1
290
1
  0
XRECORD
  5
F7
330
F0
100
AcDbXrecord
280
1
290
1
  0
XRECORD
  5
F8
330
F0
100
AcDbXrecord
280
1
290
1
  0
XRECORD
  5
F9
330
F0
100
AcDbXrecord
280
1
1000
auto
  0
XRECORD
  5
FA
330
F0
100
AcDbXrecord
280
1
1000
auto
  0
XRECORD
  5
FB
330
F0
100
AcDbXrecord
280
1
1000
auto
  0
XRECORD
  5
FC
330
F0
100
AcDbXrecord
280
1
1000
auto
  0
XRECORD
  5
FD
330
F0
100
AcDbXrecord
280
1
1000
auto
  0
XRECORD
  5
FE
330
F0
100
AcDbXrecord
280
1
1000
auto
  0
XRECORD
  5
FF
330
F0
100
AcDbXrecord
280
1
1000
auto
  0
XRECORD
  5
100
330
F0
100
AcDbXrecord
280
1
1000
auto
  0
XRECORD
  5
101
330
F0
100
AcDbXrecord
280
1
290
0
  0
XRECORD
  5
102
330
F0
100
AcDbXrecord
280
1
290
0
  0
XRECORD
  5
103
330
F0
100
AcDbXrecord
280
1
290
0
  0
XRECORD
  5
104
330
F0
100
AcDbXrecord
280
1
290
0
  0
XRECORD
  5
105
330
F0
100
AcDbXrecord
280
1
 90
65537
  0
XRECORD
  5
106
330
F0
100
AcDbXrecord
280
1
 90
65537
  0
XRECORD
  5
107
330
F0
100
AcDbXrecord
280
1
 90
65537
  0
XRECORD
  5
108
330
F0
100
AcDbXrecord
280
1
 90
65537
  0
XRECORD
  5
109
330
F0
100
AcDbXrecord
280
1
1000
auto
  0
XRECORD
  5
10A
330
F0
100
AcDbXrecord
280
1
1000
auto
  0
XRECORD
  5
10B
330
F0
100
AcDbXrecord
280
1
1000
auto
  0
XRECORD
  5
10C
330
F0
100
AcDbXrecord
280
1
1000
auto
  0
XRECORD
  5
10D
330
F0
100
AcDbXrecord
280
1
1000
auto
  0
XRECORD
  5
10E
330
F0
100
AcDbXrecord
280
1
1000
auto
  0
XRECORD
  5
10F
330
F0
100
AcDbXrecord
280
1
1000
auto
  0
XRECORD
  5
110
330
F0
100
AcDbXrecord
280
1
1000
auto
  0
XRECORD
  5
111
330
F0
100
AcDbXrecord
280
1
 90
1
  0
XRECORD
  5
112
330
F0
100
AcDbXrecord
280
1
 40
10.0
  0
XRECORD
  5
113
330
F0
100
AcDbXrecord
280
1
 40
10.0
  0
XRECORD
  5
114
330
F0
100
AcDbXrecord
280
1
 40
10.0
  0
XRECORD
  5
115
330
F0
100
AcDbXrecord
280
1
 40
10.0
  0
XRECORD
  5
116
330
F0
100
AcDbXrecord
280
1
290
0
  0
XRECORD
  5
117
330
F0
100
AcDbXrecord
280
1
 90
1
  0
XRECORD
  5
118
330
F0
100
AcDbXrecord
280
1
 40
0.0
  0
XRECORD
  5
119
330
F0
100
AcDbXrecord
280
1
 40
0.0
  0
XRECORD
  5
11A
330
F0
100
AcDbXrecord
280
1
1000
Portrait
  0
XRECORD
  5
11B
330
F0
100
AcDbXrecord
280
1
 40
297.0
  0
XRECORD
  5
11C
330
F0
100
AcDbXrecord
280
1
 40
210.0
  0
XRECORD
  5
11D
330
F0
100
AcDbXrecord
280
1
1000
1:1
  0
XRECORD
  5
11E
330
F0
100
AcDbXrecord
280
1
290
1
  0
XRECORD
  5
11F
330
F0
100
AcDbXrecord
280
1
1000
3.22.0
  0
XRECORD
  5
120
330
F0
100
AcDbXrecord
280
1
 90
4
  0
XRECORD
  5
122
330
F0
100
AcDbXrecord
280
1
 40
622.7004553061982506
  0
XRECORD
  5
123
330
F0
100
AcDbXrecord
280
1
 40
1133.7000041966455228
  0
ENDSEC
  0
EOF
